<svg height="36" viewBox="0 0 36 36" width="36" xmlns="http://www.w3.org/2000/svg"><g fill="none" fill-rule="evenodd"><circle cx="18" cy="18" fill="#0cbcc5" r="12"/><g fill="#fff" fill-rule="nonzero" transform="matrix(.70710678 .70710678 -.70710678 .70710678 16.353553 9.661165)"><path d="m7.56927273 12.0325909c-.10527273 0-.20168182-.0606818-.24681818-.1565454l-2.2995-4.88727277-4.78677273-2.20022728c-.10009091-.04595454-.16268182-.14768181-.15872727-.25786363.0040909-.11018182.07404545-.207.17727272-.24545455l11.36072723-4.24186363c.0994091-.03695455.2116364-.01309091.2870455.06163636.0756818.07472727.1007727.18668182.0647727.28663636l-4.14149997 11.46095454c-.03736364.1037727-.13363637.1745455-.24381818.1797273-.00436364.0001363-.00859091.0002727-.01268182.0002727zm-6.50945455-7.46577272 4.28127273 1.968c.0585.02686364.10554545.0735.13295454.13159091l2.06209091 4.38259091 3.71781814-10.28836364z"/><path d="m5.22736364 7.05518182c-.06981819 0-.1395-.02659091-.19281819-.07990909-.1065-.10636364-.1065-.27913637 0-.38563637l6.48340905-6.48354545c.1065-.1065.2791364-.1065.3856364 0s.1065.27913636 0 .38563636l-6.48340908 6.48354546c-.05331818.05331818-.123.07990909-.19281818.07990909z"/></g></g></svg>