<svg height="44" viewBox="0 0 44 44" width="44" xmlns="http://www.w3.org/2000/svg" xmlns:xlink="http://www.w3.org/1999/xlink"><defs><rect id="a" height="30" rx="8" width="30" x="7" y="7"/><filter id="b" height="263.3%" width="263.3%" x="-81.7%" y="-68.3%"><feOffset dx="0" dy="4" in="SourceAlpha" result="shadowOffsetOuter1"/><feGaussianBlur in="shadowOffsetOuter1" result="shadowBlurOuter1" stdDeviation="7.5"/><feColorMatrix in="shadowBlurOuter1" type="matrix" values="0 0 0 0 0   0 0 0 0 0.24657931   0 0 0 0 0.31603827  0 0 0 0.190859921 0"/></filter></defs><g fill="none" fill-rule="evenodd"><use fill="#000" filter="url(#b)" xlink:href="#a"/><use fill="#fff" fill-rule="evenodd" xlink:href="#a"/><path d="m22.057882 19c-4.8080319 0-7.8530433 1.9666942-8.9389992 2.8136278-.1043264.0826201-.1449837.2199838-.1018993.3442742l1.0710753 2.8272218c.0487483.1600838.2165093.2554895.3830122.217819l3.1307362-.7062522c.1471858-.0332148.2512546-.1615581.2507048-.3091829v-1.4131367c.0011415-.3020801.1483107-.5858608.3969222-.7653699 1.1149575-.759524 2.4498814-1.1493592 3.8084478-1.1121734 1.3584146-.0371653 2.6931971.3525509 3.8081243 1.1118572.2487844.1795421.396079.4634506.3972457.7656861v1.4131367c.000054.1471521.1039915.2748092.2507048.3079184l3.1307362.7062522c.1625258.0365226.3268276-.0536855.3794538-.2083349l1.0778686-2.8452416c.0387067-.1220117-.0030132-.2547391-.1051342-.334474-1.0859559-.8469336-4.1309673-2.8136278-8.9389992-2.8136278z" fill-rule="nonzero" stroke="#0cbcc5" transform="matrix(-.70710678 -.70710678 .70710678 -.70710678 22.024598 53.334033)"/></g></svg>