<svg height="34" viewBox="0 0 34 34" width="34" xmlns="http://www.w3.org/2000/svg" xmlns:xlink="http://www.w3.org/1999/xlink"><filter id="a" height="208.7%" width="208.7%" x="-54.3%" y="-41.9%"><feMorphology in="SourceAlpha" operator="dilate" radius="0.5" result="shadowSpreadOuter1"/><feOffset dx="0" dy="4" in="shadowSpreadOuter1" result="shadowOffsetOuter1"/><feGaussianBlur in="shadowOffsetOuter1" result="shadowBlurOuter1" stdDeviation="5"/><feComposite in="shadowBlurOuter1" in2="SourceAlpha" operator="out" result="shadowBlurOuter1"/><feColorMatrix in="shadowBlurOuter1" type="matrix" values="0 0 0 0 0   0 0 0 0 0.24657931   0 0 0 0 0.31603827  0 0 0 0.100497159 0"/></filter><g fill="none" fill-rule="evenodd"><g transform="translate(1 1)"><rect fill="#000" filter="url(#a)" height="32.210526" rx="8" width="32.210526"/><rect fill="#0cbcc5" fill-rule="evenodd" height="32.710526" rx="8" stroke="#fff" stroke-width=".5" width="32.710526" x="-.25" y="-.25"/></g><g fill="#fff" fill-rule="nonzero" stroke="#30bee6" stroke-width=".2" transform="translate(11 8)"><path d="m12.7349214 8.5308702c0-.2953701-.2394045-.53470329-.5347033-.53470329s-.5347033.23933319-.5347033.53470329c0 2.9213336-2.3767205 5.2980541-5.29805412 5.2980541-2.92133361 0-5.2980541-2.3767918-5.2980541-5.2980541 0-.2953701-.23940448-.53470329-.53470329-.53470329-.2952988 0-.53470329.23933319-.53470329.53470329 0 3.3309876 2.57099602 6.0723045 5.83275739 6.3447893v1.8918515h-2.38171105c-.2952988 0-.53470329.2393332-.53470329.5347033s.23940449.5347033.53470329.5347033h5.83275739c.29529881 0 .53470329-.2393332.53470329-.5347033s-.23940448-.5347033-.53470329-.5347033h-2.38171105v-1.8918515c3.26176142-.2724848 5.83282872-3.0138017 5.83282872-6.3447893z"/><path d="m6.36738939 11.9819165c1.90297337 0 3.45111763-1.5481442 3.45111763-3.4510463v-5.07982386c0-1.90290207-1.54814426-3.45104634-3.45111763-3.45104634-1.90290208 0-3.45104634 1.54814427-3.45104634 3.45104634v5.07982386c0 1.9029734 1.54814426 3.4510463 3.45104634 3.4510463zm-2.38163976-8.53087016c0-1.31323128 1.06840847-2.38163976 2.38163976-2.38163976 1.31330258 0 2.38171105 1.06840848 2.38171105 2.38163976v5.07982386c0 1.31323129-1.06840847 2.3816398-2.38171105 2.3816398-1.31323129 0-2.38163976-1.06840851-2.38163976-2.3816398z"/></g></g></svg>