<svg height="44" viewBox="0 0 44 44" width="44" xmlns="http://www.w3.org/2000/svg"><g fill="none" fill-rule="evenodd"><rect fill="#0cbcc5" height="44" rx="9" width="44"/><path d="m28.7430947 27.5740557-3.833-3.8345c.6870707-.9370963 1.0551318-2.0700235 1.05-3.232-.0131097-3.0331442-2.4663781-5.4899813-5.4995-5.5075-1.4515199-.0065673-2.8453787.5676566-3.8710641 1.5947508-1.0256854 1.0270941-1.5979955 2.4217398-1.5894359 3.8732492.0131097 3.0334204 2.4666018 5.4904813 5.5 5.508 1.1667101.0050567 2.3037764-.3673005 3.2415-1.0615l.004-.003 3.8295 3.8315c.2070488.2172135.5155657.3051364.8060149.2297027.2904491-.0754336.5171924-.3023711.5923775-.5928847.0751851-.2905135-.0130018-.5989551-.2303924-.805818zm-8.247-2.696c-2.426586-.013959-4.3893478-1.9793973-4.4-4.406-.0065495-1.1610572.4513363-2.2765496 1.2717302-3.0981642.8203938-.8216147 1.9352041-1.2811587 3.0962698-1.2763358 2.4265859.013959 4.3893477 1.9793973 4.4 4.406.0065494 1.1610572-.4513364 2.2765496-1.2717303 3.0981643-.8203938.8216146-1.9352041 1.2811586-3.0962697 1.2763357z" fill="#fff"/></g></svg>