<svg height="44" viewBox="0 0 44 44" width="44" xmlns="http://www.w3.org/2000/svg"><g fill="none" fill-rule="evenodd"><circle cx="22" cy="22" fill="#0cbcc5" fill-opacity=".703644" r="19"/><path d="m20.2459453 11.3960949-12.83330468-8.24999998c-.28110156-.18347657-.64453125-.19335938-.93457031-.03403125-.29545312.16113281-.47807031.46913281-.47807031.80480468v16.50000005c0 .3356718.18261719.6436718.47807031.8048046.13603906.074336.28823438.1118907.438625.1118907.171875 0 .34555469-.0483828.49594531-.1459219l12.83330468-8.25c.2614219-.1682656.42075-.45925.42075-.7707734 0-.3115235-.1593281-.6024219-.42075-.7707735zm-12.41264061 7.3413828v-13.14121872l10.22123441 6.57060942z" fill="#fff" fill-rule="nonzero" transform="translate(11 10)"/></g></svg>