<svg height="44" viewBox="0 0 44 44" width="44" xmlns="http://www.w3.org/2000/svg" xmlns:xlink="http://www.w3.org/1999/xlink"><defs><rect id="a" height="30" rx="8" width="30" x="7" y="7"/><filter id="b" height="263.3%" width="263.3%" x="-81.7%" y="-68.3%"><feOffset dx="0" dy="4" in="SourceAlpha" result="shadowOffsetOuter1"/><feGaussianBlur in="shadowOffsetOuter1" result="shadowBlurOuter1" stdDeviation="7.5"/><feColorMatrix in="shadowBlurOuter1" type="matrix" values="0 0 0 0 0   0 0 0 0 0.24657931   0 0 0 0 0.31603827  0 0 0 0.190859921 0"/></filter></defs><g fill="none" fill-rule="evenodd"><use fill="#000" filter="url(#b)" xlink:href="#a"/><use fill="#fff" fill-rule="evenodd" xlink:href="#a"/><path d="m17.3941292 5.78705284c-1.3284775-3.48604697-4.6724267-5.78895499-8.40300591-5.78706769-.82972603-.00149983-1.6555773.11284068-2.45370646.33969l-.01201174.00359295c-2.21509198.62630137-4.1032955 2.08282192-5.27139335 4.06634442-.0206771.03490803-.03406262.07369081-.0393816.11391781-.14354208.19158904-.26267319.40029746-.35468102.62129942l-.02254403.04868101c-1.29328767 2.78566732-1.0769002 6.03848924.5740274 8.62827004 1.65092759 2.5897808 4.50845401 4.1589511 7.5796908 4.1623007 2.06464581.001758 4.06641491-.7103868 5.66605481-2.0157566.1295929.0111311.2513659-.0632642.3005753-.1836635.0094051-.0277573.0147593-.0566771.0159217-.0859491 2.7857378-2.4812876 3.7489668-6.4256125 2.4204541-9.91165946zm-10.90028576-4.80681018c.39740901.487409.98299022.78326419 1.61115852.81398043.17175734.00443836.34358512-.00306458.51432094-.02254403.27612915-.06259491.56536203-.02818004.81908806.09739726.1420274.07594521.22043836.23347163.19539335.39258317-.0652368.11983562-.15470842.22473581-.26270842.3081135-.26862622.18221918-.43048532.4848728-.4328454.80947163.02032485.2020861.12850098.38497456.29578474.50016047.24731506.16520548.55208219.22040313.84163207.15238356.1604149-.04202348.3166732-.09855969.4668024-.16893933.136497-.06713895.2809197-.11670059.4298512-.14759296.3805362-.05350685.7712877.19807045 1.1701762.48423875.1999021.14459882.5254168.4178043.4581017.62520939-.0517103.15900587-.2458708.27383953-.4508806.3958591-.082955.04899804-.1641135.09708024-.2579178.16231703-.3320313.25140117-.6959061.45767906-1.0821135.61351467-.1459726.04857535-.2945871.0887319-.4451742.1202231-.3135734.0548454-.61488843.16485322-.89003129.32495107-.55218787.35651272-.48483757.92701761-.44246184 1.26996869-.00993346-.00331115-.02074755-.00722113-.0324775-.01232877-.05139334-.02102935-.10190606-.04508806-.15210176-.06854794-.31082583-.20965949-.71344814-.22579257-1.04005479-.04160078-.32660666.18415655-.5211546.53704109-.50255577.91151859 0 .71330724.52964383 1.12931506.9552681 1.46324853l.14787475.11722901c.09394521.0863013.17848533.1823248.25217613.28645-.60418004-.1521017-1.20874756-.3017025-1.81373777-.44876707-.50857926-.12293542-1.02198435-.27443836-1.23241879-.65078278-.08041878-.17052446-.13463013-.35221527-.16080235-.53894325-.0381135-.29627789-.14227397-.58019178-.30480234-.83081801-.30850098-.34432485-.72422701-.57437964-1.17979257-.65286105l-.05502152-.01563992c-.45088063-.13406654-.69794912-.29546771-.77850881-.50678278-.05023092-.27426223-.00549511-.5574364.1268454-.80288454.16992564-.35348337.22660274-.75082192.16231703-1.13773386-.06745597-.29670059-.265773-.54686888-.53926028-.68023092-.16249315-.0756634-.3398865-.11377691-.51911154-.1115225-.03818396 0-.07696674.00179647-.11603132.00482583 1.05583562-1.43302544 2.54328376-2.48981213 4.24401957-3.01512329zm1.23421527 16.30504114.00271233.0027123c-.11793347-.0654129-.23234443-.1370607-.34266928-.2146262-.24298239-.1513621-.40910372-.3999452-.45598826-.6823445.01676713-.1813033.07541683-.3562309.17133464-.5110097.06717417-.1430842.11684149-.293777.14787476-.4487672.01909197-.140724.07052054-.2750724.15030528-.3925831.0888728-.0810177.19187084-.1449863.3038865-.1887711.1254364-.0555499.24470841-.1240626.35587867-.2044109.23984735-.1910255.43876321-.4284071.58494716-.6979492.07062622-.1238512.13167123-.2587984.19056751-.3907514.07996086-.2092368.19144814-.4049824.33065754-.5804384.30057534-.3165323.89274364-.0814755 1.13262624.0333581.4577143.2055734.8785127.4849081 1.2456282.8269081l.0345557.0354716c.388955.4111115.8028493.7979178 1.2393229 1.1581644.361092.2789471.7567398.5100235 1.1771155.687452-1.79609 1.3393973-4.05366342 1.9039139-6.26875539 1.5675852zm6.79987869-1.9953229c-.4767006-.1763719-.9250098-.4215382-1.3306967-.7277143-.4172407-.3453112-.8130293-.7157026-1.1852172-1.1091664l-.0345558-.0351546c-.4144227-.3926888-.8920391-.7127788-1.412771-.9468493-.76047361-.3648963-1.42717811-.3306575-1.83025834.0943679-.18792564.2225167-.33756165.4747632-.44277887.7463484-.05378865.1184266-.10609785.2353737-.1641135.3375616-.10690803.1998317-.25252838.3764149-.4283366.5194286-.07900978.0550215-.1632681.1020469-.2515773.1403718-.18313503.0751703-.34939726.1861292-.48906458.3264305-.15224266.1901096-.2524227.4165362-.2906771.6570881-.02092368.1075068-.05368297.2123366-.09767906.3126223-.14322505.2390724-.22519374.5097769-.23864971.7881252.00440313.2183601.06823092.431366.18454404.6161918-2.3152368-.7177456-4.20770255-2.4003757-5.19132682-4.6157143-.98362426-2.2153385-.96266536-4.74759683.05755773-6.94634438l.02286106-.04959687c.08158121-.21547163.20338943-.4134364.35890803-.58343249.0552681-.0551272.12043444-.09940509.19208219-.13043835.12962818-.05801566.26978865-.08869668.41181604-.09017613.08778083-.00204305.17496282.01539335.25520548.05111155.11349511.0572407.1940548.16379647.21821918.2885636.02634834.26894325-.02374168.53982387-.1445636.78153816-.19187084.37824657-.2361135.81433268-.12413307 1.22340117.20169863.52693151.76378473.74818004 1.17228963.86960078l.06012915.01683758c.32481018.05206262.62570255.20286105.86178083.43192955.10666144.18109197.17436399.38247358.1987045.59125244.03695107.24858317.11303718.48973386.22544031.7145049.32822701.58825829 1.00666145.79474759 1.61626615.94202349.65409393.1589002 1.30875146.3210411 1.96404305.4863522.13174168.0429746.27398043.0411781.40459491-.0051076.15234834-.0591781.26144031-.1952524.2861683-.3567945.06854794-.4553894-.56060666-1.00306851-.57110372-1.01088847l-.15812524-.12564775c-.37303327-.29275538-.72531899-.56930724-.72531899-.99193737-.00355773-.17753425.09873581-.34020353.26031311-.41389433.11212134-.04660274.20589042-.01261057.42442662.09017613.06012916.02825049.12022309.05650098.17524462.07876321.23354207.12526027.52080235.08908414.71598434-.09017613.1269863-.1417456.1805636-.33460274.14488063-.52150685-.04927985-.40068493-.03004697-.56631311.17193346-.69706849.21811354-.11987084.45489624-.20208611.70037964-.24319374.1729198-.03702153.3435499-.08408219.5110098-.14097065.4434481-.17693542.8611468-.41248532 1.2420352-.70037964.0601292-.04237574.1295577-.08267319.1993033-.12385127.3217104-.14421136.5777261-.40374952.7174991-.72743249.1415694-.43464188-.0865832-.87171429-.6787163-1.29885323-.3802544-.27264188-.9567828-.68473973-1.6078473-.59125245-.2020157.03709198-.3980783.10141292-.5828337.19116635-.1177221.05551467-.2400235.10077886-.36553033.13526418-.12050489.02782779-.24706849.00789041-.35320156-.05562035-.04417221-.03187867-.04660274-.056818-.04748337-.06611742-.00662231-.07816438.09017613-.17464579.24048141-.31322113.18517808-.14547945.33097455-.33499022.42414485-.55127202.1236399-.42513111-.0588611-.87974559-.44218007-1.10134638-.36401566-.20021917-.7867867-.26626614-1.19451664-.18665753-.14304892.01683757-.28704892.02367123-.43104892.02043053-.35933072-.01947945-.70224658-.15682192-.97569863-.39075147 3.74146376-.84279452 7.57792956.95988258 9.31727206 4.37798043 1.7392015 3.41813307.9381839 7.58064183-1.9455147 10.10909593z" fill="#0cbcc5" fill-rule="nonzero" stroke="#0cbcc5" stroke-width=".4" transform="translate(13 13)"/></g></svg>