<svg height="74" viewBox="0 0 74 74" width="74" xmlns="http://www.w3.org/2000/svg" xmlns:xlink="http://www.w3.org/1999/xlink"><defs><rect id="a" height="54" rx="9" width="54"/><filter id="b" height="163%" width="163%" x="-31.5%" y="-24.1%"><feOffset dx="0" dy="4" in="SourceAlpha" result="shadowOffsetOuter1"/><feGaussianBlur in="shadowOffsetOuter1" result="shadowBlurOuter1" stdDeviation="5"/><feColorMatrix in="shadowBlurOuter1" type="matrix" values="0 0 0 0 0   0 0 0 0 0.24657931   0 0 0 0 0.31603827  0 0 0 0.100497159 0"/></filter></defs><g fill="none" fill-rule="evenodd"><g transform="translate(10 6)"><use fill="#000" filter="url(#b)" xlink:href="#a"/><use fill="#e63030" fill-rule="evenodd" xlink:href="#a"/></g><path d="m15.5577825 12c-6.66582083 0-10.88740273 2.7266107-12.39296424 3.9007934-.14463735.1145438-.20100438.3049839-.14127252.4772993l1.48493123 3.9196399c.06758424.2219391.30016693.3542089.53100531.3019828l4.34043021-.979143c.20405732-.0460488.34833751-.2239831.34757527-.428649v-1.9591625c.00158266-.4188018.20561696-.8122333.55029014-1.0611034 1.5457691-1.0529986 3.396498-1.5934633 5.2800046-1.5419092 1.8832963-.0515257 3.7338292.488774 5.2795562 1.5414709.3449129.2489158.5491211.6425244.5507386 1.0615417v1.9591625c.0000749.2040106.144173.3809935.3475753.4268958l4.3404302.979143c.2253246.0506347.4531114-.0744292.526072-.288834l1.4943494-3.9446225c.0536626-.1691561-.0041775-.3531685-.1457574-.4637123-1.5055615-1.1741827-5.7271434-3.9007934-12.3929643-3.9007934z" fill="#fff" fill-rule="nonzero" transform="translate(21 17)"/></g></svg>