<svg height="44" viewBox="0 0 44 44" width="44" xmlns="http://www.w3.org/2000/svg"><g fill="none" fill-rule="evenodd"><circle cx="22" cy="22" fill="#0cbcc5" fill-opacity=".703644" r="19"/><g fill="#fff" fill-rule="nonzero" transform="translate(12 11)"><path d="m10 14.1667175c-.34500121 0-.625-.2799987-.625-.625v-12.9167175c0-.34500121.27999879-.625.625-.625.3450012 0 .625.27999879.625.625v12.9167175c0 .3450013-.2799988.625-.625.625z"/><path d="m10 14.1667175c-.16006469 0-.3199768-.0608825-.44174195-.1834106l-3.33328246-3.3332825c-.24414063-.2441406-.24414063-.6399536 0-.88424682.24414062-.24414063.63995363-.24414063.88424683 0l2.89154048 2.89169312 2.8916932-2.89169312c.2441406-.24414063.6401062-.24414063.8842468 0 .2441406.24429322.2441406.64010622 0 .88424682l-3.3334351 3.3332825c-.123291.1225281-.2832031.1834106-.4432678.1834106z"/><path d="m17.7082825 20h-15.41656496c-1.26419067 0-2.29171754-1.0275269-2.29171754-2.2917175v-3.75c0-.3450012.27999879-.625.625-.625s.625.2799988.625.625v3.75c0 .5741882.4675293 1.0417175 1.04171754 1.0417175h15.41656496c.5741882 0 1.0417175-.4675293 1.0417175-1.0417175v-3.75c0-.3450012.2799988-.625.625-.625s.625.2799988.625.625v3.75c0 1.2641906-1.0275269 2.2917175-2.2917175 2.2917175z"/></g></g></svg>