<svg height="44" viewBox="0 0 44 44" width="44" xmlns="http://www.w3.org/2000/svg" xmlns:xlink="http://www.w3.org/1999/xlink"><defs><rect id="a" height="44" rx="4" width="44"/><filter id="b" height="211.4%" width="211.4%" x="-55.7%" y="-46.6%"><feOffset dx="0" dy="4" in="SourceAlpha" result="shadowOffsetOuter1"/><feGaussianBlur in="shadowOffsetOuter1" result="shadowBlurOuter1" stdDeviation="7.5"/><feColorMatrix in="shadowBlurOuter1" type="matrix" values="0 0 0 0 0   0 0 0 0 0.24657931   0 0 0 0 0.31603827  0 0 0 0.190859921 0"/></filter></defs><g fill="none" fill-rule="evenodd"><use fill="#000" filter="url(#b)" xlink:href="#a"/><use fill="#fa0020" fill-rule="evenodd" xlink:href="#a"/><path d="m12.2415105-.00007385c.5908227-.00475636 1.1590311.22753287 1.5772834.64468743.4182523.41737411.6518589.98470432.6485656 1.57552694v.70257611h2.8777078c1.0784543.00021954 1.9893882.80005855 2.1290252 1.86929154.1394174 1.06945259-.5359338 2.07633201-1.5781616 2.35297135v13.84799468c0 .8185012-.3001317 1.5871634-.8244291 2.1386856-.5216628.5530592-1.2479508.8670228-2.0082699.8683402h-10.63436773c-.7600995-.0013174-1.48638762-.315281-2.00826992-.8683402-.52429743-.5515222-.82442912-1.3201844-.82442912-2.1386856v-13.84799468c-1.04222776-.27663934-1.71757905-1.28351876-1.57816165-2.35297135.13963706-1.06923299 1.05057089-1.869072 2.12902522-1.86929154h2.87770786v-.70257611c-.00329334-.59082262.23031322-1.15815283.64856555-1.57552694.41825233-.41715456.98646076-.64944379 1.57728337-.64468743zm4.5302987 7.19445324h-14.05152229v13.79859481c0 1.0573771.74758488 1.882904 1.70857726 1.882904h10.63436773c.9609923 0 1.7085773-.8255269 1.7085773-1.882904zm-3.7096019 1.50087822c.3104508 0 .5620609.2516101.5620609.56206089v10.6229508c0 .3102313-.2516101.5620609-.5620609.5620609-.3104509 0-.5620609-.2518296-.5620609-.5620609v-10.6229508c0-.31045079.25161-.56206089.5620609-.56206089zm-6.63231851 0c.31045079 0 .56206089.2516101.56206089.56206089v10.6229508c0 .3102313-.2516101.5620609-.56206089.5620609-.31045085 0-.56206089-.2518296-.56206089-.5620609v-10.6229508c0-.31045079.25161004-.56206089.56206089-.56206089zm3.31615925 0c.31045076 0 .56206086.2516101.56206086.56206089v10.6229508c0 .3102313-.2516101.5620609-.56206086.5620609-.31045085 0-.56206089-.2518296-.56206089-.5620609v-10.6229508c0-.31045079.25161004-.56206089.56206089-.56206089zm7.59901926-4.6484192h-15.1980386c-.5587676 0-1.0117096.45294205-1.0117096 1.0117096s.452942 1.0117096 1.0117096 1.0117096h15.1980386c.5587676 0 1.0117096-.45294205 1.0117096-1.0117096s-.452942-1.0117096-1.0117096-1.0117096zm-5.1035568-2.92271663h-4.99092502c-.29288644-.00504978-.57523419.10846022-.78271369.31506149-.20769909.20660127-.32274593.4882904-.31901345.78095725v.70257611h7.19437936v-.70257611c.0037325-.29266685-.1113144-.57457552-.3190135-.78095725-.2074795-.20660127-.4898273-.32011127-.7827137-.31506149z" fill="#fff" fill-rule="nonzero" transform="translate(12 10)"/></g></svg>