<?xml version="1.0" encoding="UTF-8"?>
<svg width="24px" height="24px" viewBox="0 0 24 24" version="1.1" xmlns="http://www.w3.org/2000/svg" xmlns:xlink="http://www.w3.org/1999/xlink">
    <title>/SVG/ic_call_turnonvideo</title>
    <defs>
        <path d="M13.4210526,5 C15.0779069,5 16.4210526,6.34314575 16.4210526,8 L16.421,9.026 L19.4475232,7.51308048 C19.5516648,7.46100969 19.6638263,7.42766038 19.7788922,7.41424015 L19.8947368,7.40750767 C20.4470216,7.40750767 20.8947368,7.85522292 20.8947368,8.40750767 L20.8947368,8.40750767 L20.8947368,14.1188081 C20.8947368,14.2740532 20.8585918,14.4271663 20.789164,14.5660217 C20.5421748,15.0600002 19.9415017,15.2602246 19.4475232,15.0132353 L19.4475232,15.0132353 L16.421,13.5 L16.4210526,15.4210526 C16.4210526,17.0779069 15.0779069,18.4210526 13.4210526,18.4210526 L6,18.4210526 C4.34314575,18.4210526 3,17.0779069 3,15.4210526 L3,8 C3,6.34314575 4.34314575,5 6,5 L13.4210526,5 Z" id="path-1"></path>
        <filter x="-95.0%" y="-96.9%" width="290.0%" height="353.3%" filterUnits="objectBoundingBox" id="filter-2">
            <feOffset dx="0" dy="4" in="SourceAlpha" result="shadowOffsetOuter1"></feOffset>
            <feMorphology radius="1" operator="erode" in="SourceAlpha" result="shadowInner"></feMorphology>
            <feOffset dx="0" dy="4" in="shadowInner" result="shadowInner"></feOffset>
            <feComposite in="shadowOffsetOuter1" in2="shadowInner" operator="out" result="shadowOffsetOuter1"></feComposite>
            <feGaussianBlur stdDeviation="5" in="shadowOffsetOuter1" result="shadowBlurOuter1"></feGaussianBlur>
            <feColorMatrix values="0 0 0 0 0   0 0 0 0 0.24657931   0 0 0 0 0.31603827  0 0 0 0.100497159 0" type="matrix" in="shadowBlurOuter1"></feColorMatrix>
        </filter>
    </defs>
    <g id="ic_call_turnonvideo" stroke="none" stroke-width="1" fill="none" fill-rule="evenodd">
        <g>
            <use fill="black" fill-opacity="1" filter="url(#filter-2)" xlink:href="#path-1"></use>
            <path stroke="#FFFFFF" stroke-width="1" d="M13.4210526,5.5 C14.1114086,5.5 14.7364086,5.77982203 15.1888196,6.23223305 C15.6412306,6.68464406 15.9210526,7.30964406 15.9210526,7.99997435 L15.9210526,7.99997435 L15.9209585,9.83495595 L19.587868,8.00191569 C19.8583588,7.98030655 20.0677566,8.00530478 20.2170316,8.08590746 L20.2170316,8.08590746 L20.3946294,14.0260093 C20.2930177,14.2774546 20.1770485,14.4534693 20.0382502,14.5509013 L20.0382502,14.5509013 L15.9209779,12.6927138 L15.9210526,15.4210526 C15.9210526,16.1114086 15.6412306,16.7364086 15.1888196,17.1888196 C14.7364086,17.6412306 14.1114086,17.9210526 13.4210526,17.9210526 L13.4210526,17.9210526 L6,17.9210526 C5.30964406,17.9210526 4.68464406,17.6412306 4.23223305,17.1888196 C3.77982203,16.7364086 3.5,16.1114086 3.5,15.4210526 L3.5,15.4210526 L3.5,8 C3.5,7.30964406 3.77982203,6.68464406 4.23223305,6.23223305 C4.68464406,5.77982203 5.30964406,5.5 6,5.5 L6,5.5 Z" stroke-linejoin="square"></path>
        </g>
    </g>
</svg>