<svg height="24" viewBox="0 0 24 24" width="24" xmlns="http://www.w3.org/2000/svg"><g fill="#fff" transform="translate(7 7)"><path d="m.34722222 3.01333333c.19180556 0 .34722222-.15546296.34722222-.34722222v-1.48046296l2.2363426 2.23587963c.06782407.06777778.15666666.10166666.24550926.10166666.08888889 0 .17777777-.03388888.24555555-.10171296.13560185-.13560185.13560185-.35546296-.00004629-.49101852l-2.23643519-2.23592592h1.48078704c.19175926 0 .34722222-.15546297.34722222-.34722222 0-.19175926-.15541667-.34722223-.34722222-.34722223h-2.31893519c-.19180555 0-.34722222.15546297-.34722222.34722223v2.31884259c0 .19171296.15541667.34717592.34722222.34717592z"/><path d="m9.62268519 6.95657407c-.19180556 0-.34722223.15546297-.34722223.34722223v1.48050926l-2.30518518-2.30518519c-.13564815-.13560185-.35546297-.13560185-.49106482 0s-.13560185.35546296 0 .49101852l2.30513889 2.30513889h-1.48041666c-.19180556 0-.34722223.15546296-.34722223.34722222s.15541667.34722222.34722223.34722222h2.31879629c.19180556 0 .34722222-.15546296.34722222-.34722222v-2.3187037c-.00004629-.19175926-.15550926-.34722223-.34726851-.34722223z"/><path d="m2.99962963 6.47912037-2.3049537 2.30513889v-1.48046296c0-.19175926-.15541667-.34722223-.34722223-.34722223-.19180555 0-.34722222.15546297-.34722222.34722223v2.31879629c0 .19175926.15541667.34722222.34722222.34722222h2.31870371c.19175926 0 .34722222-.15546296.34722222-.34722222s-.15541667-.34722222-.34722222-.34722222h-1.48046297l2.305-2.30523148c.13560186-.13560185.13560186-.35546296-.00004629-.49106482-.13550926-.13555555-.35537037-.13555555-.49101852.0000463z"/><path d="m9.62268519.00009259h-2.3187963c-.19180556 0-.34722222.15546297-.34722222.34722223 0 .19175925.15541666.34722222.34722222.34722222h1.48050926l-2.23601852 2.2361574c-.13560185.13560186-.13560185.35546297.0000463.49106482.06777777.06777778.15666666.10166667.24550926.10166667.08884259 0 .17773148-.03393519.24555555-.10171297l2.23601852-2.2361574v1.48055555c0 .19175926.15541667.34722222.34722222.34722222.19180556 0 .34722222-.15546296.34722222-.34722222v-2.31879629c-.00004629-.19180556-.15550926-.34722223-.34726851-.34722223z"/></g></svg>