<svg height="85" viewBox="0 0 85 85" width="85" xmlns="http://www.w3.org/2000/svg" xmlns:xlink="http://www.w3.org/1999/xlink"><defs><rect id="a" height="54.48718" rx="4" width="54.48718"/></defs><g fill="none" fill-rule="evenodd"><g fill="#0cbcc5"><rect fill-opacity=".04" height="85" rx="11" width="85"/><rect fill-opacity=".056684" height="74.880952" rx="10" width="74.880952" x="5.059524" y="5.059524"/><rect fill-opacity=".091701" height="64.761905" rx="7" width="64.761905" x="10.119048" y="10.119048"/></g><g transform="translate(15.178571 15.178571)"><use fill="#fff" xlink:href="#a"/><use fill="#0cbcc5" fill-opacity=".199219" stroke="#fff" stroke-width="2" xlink:href="#a"/></g><path d="m19.9128979.00032933c.3897377 0 .7057057.31601501.7057057.70575275v.23523524h.409968c.9684164 0 1.8582642.44337137 2.4414124 1.21649549.5831481.77307708.7650791 1.75052653.499028 2.68158759l-1.873037 6.5556296c-.3427848 1.1996997-1.0504665 2.230971-2.0465466 2.9823123-.2134524.1610421-.4361261.3047708-.6658098.4328329l-2.0582612 4.857984v.5093313c0 2.1564955-1.7544315 3.9109269-3.910927 3.9109269s-3.9109269-1.7544314-3.9109269-3.9109269v-4.8398238c0-1.4527188-1.18191591-2.6346347-2.63463463-2.6346347s-2.63463464 1.1819159-2.63463464 2.6346347v1.6705936c1.60863264.3278708 2.82282283 1.7535375 2.82282283 3.4575345 0 1.9456306-1.5828979 3.5285285-3.52852853 3.5285285s-3.52852853-1.5828979-3.52852853-3.5285285c0-1.704044 1.21419019-3.1297107 2.82282282-3.4575345v-1.6705936c0-2.230971 1.81507508-4.0460461 4.04604605-4.0460461s4.04604603 1.8150751 4.04604603 4.0460461v4.8398238c0 1.3782432 1.1212723 2.4995155 2.4995155 2.4995155 1.3782433 0 2.4995155-1.1212723 2.4995155-2.4995155v-.5093313l-2.0582142-4.857984c-.2296837-.1280621-.4523573-.2717908-.6658568-.4328329-.9960801-.7513883-1.7037618-1.7826126-2.0465466-2.9823123l-1.87303701-6.5556296c-.26605105-.93110811-.08421421-1.90851051.49898098-2.68163463.58314813-.77307708 1.47304303-1.2164955 2.44141243-1.2164955h.4099209v-.23523523c0-.38973774.315968-.70570571.7057057-.70570571s.7057057.31596797.7057057.70570571v1.88188188c0 .38973773-.315968.7057057-.7057057.7057057s-.7057057-.31596797-.7057057-.7057057v-.23523524h-.4099209c-.5214224 0-1.0005966.23871672-1.3145886.65503604-.313992.41627227-.4119439.94258759-.2686857 1.44396797l1.87299 6.55567671c.5226927 1.8293773 2.2165746 3.107081 4.1192042 3.107081s3.5965115-1.2776566 4.1192042-3.107081l1.873037-6.55562967c.1432583-.50138038.0453064-1.02769569-.2686856-1.44396797-.313992-.41627227-.7931662-.65503603-1.3145886-.65503603h-.409968v.23523523c0 .38973774-.315968.70570571-.7057057.70570571s-.7057057-.31596797-.7057057-.70570571v-1.88188188c0-.38973774.315968-.70575275.7057057-.70575275zm-16.38436937 18.85645647c-.88863114 0-1.60900901.7203779-1.60900901 1.609009s.72037787 1.609009 1.60900901 1.609009 1.60900901-.7203779 1.60900901-1.609009-.72037787-1.609009-1.60900901-1.609009zm14.05337637-3.4120401c-.3150741.0533984-.6364524.0811092-.9622062.0811092s-.6471792-.0277108-.9622533-.0811092l.9622063 2.2711021z" fill="#0cbcc5" fill-rule="nonzero" transform="matrix(-1 0 0 1 55.141891 31.006757)"/></g></svg>