<svg height="24" viewBox="0 0 24 24" width="24" xmlns="http://www.w3.org/2000/svg"><g fill="#b1b1b1" fill-rule="evenodd"><circle cx="12" cy="12" fill-opacity=".148574" r="10"/><path d="m6.16666667.08333333c.27083333 0 .5625.1875.6875.41666667l.3125.64583333c.02083333.04166667.10416666.10416667.16666666.10416667h1.75c.47916667 0 .875.39583333.875.875v5.22916667c-.02083333.47916666-.41666666.875-.89583333.875h-8.125c-.47916667 0-.875-.39583334-.875-.875v-5.22916667c0-.47916667.39583333-.875.875-.875h1.75c.04166667 0 .14583333-.0625.16666667-.10416667l.3125-.64583333c.125-.22916667.41666666-.41666667.6875-.41666667zm-.02083334.60416667h-2.3125c-.04166666 0-.14583333.0625-.16666666.10416667l-.3125.64583333c-.125.22916667-.41666667.41666667-.6875.41666667h-1.72916667c-.16666667 0-.29166667.125-.29166667.29166666v5.22916667c0 .16666667.125.29166667.29166667.29166667h8.125c.16666667 0 .29166667-.125.29166667-.29166667v-5.22916667c0-.16666666-.125-.29166666-.29166667-.29166666h-1.75c-.27083333 0-.5625-.1875-.6875-.41666667l-.3125-.64583333c-.02083333-.04166667-.10416667-.10416667-.16666667-.10416667zm-1.14583333 1.16666667c1.4375 0 2.60416667 1.16666666 2.60416667 2.60416666s-1.16666667 2.60416667-2.60416667 2.60416667-2.60416667-1.16666667-2.60416667-2.60416667 1.16666667-2.60416666 2.60416667-2.60416666zm0 .5625c-1.125 0-2.04166667.91666666-2.04166667 2.04166666s.91666667 2.04166667 2.04166667 2.04166667 2.04166667-.91666667 2.04166667-2.04166667-.91666667-2.04166666-2.04166667-2.04166666z" fill-rule="nonzero" stroke="#f3f3f3" stroke-width=".2" transform="translate(7 8)"/></g></svg>