<svg height="74" viewBox="0 0 74 74" width="74" xmlns="http://www.w3.org/2000/svg" xmlns:xlink="http://www.w3.org/1999/xlink"><defs><rect id="a" height="41.666667" rx="4" width="41.666667" x="11.478443" y="11.478443"/><mask id="b" fill="#fff"><use fill="#fff" fill-rule="evenodd" xlink:href="#a"/></mask></defs><g fill="none" fill-rule="evenodd" transform="translate(5 5)"><g fill="#0cbcc5"><rect fill-opacity=".04" height="65" rx="11" width="65"/><rect fill-opacity=".056684" height="57.261905" rx="10" width="57.261905" x="3.869048" y="3.869048"/><rect fill-opacity=".091701" height="49.52381" rx="7" width="49.52381" x="7.738095" y="7.738095"/></g><use fill="#fff" xlink:href="#a"/><use fill="#0cbcc5" fill-opacity=".199219" stroke="#fff" stroke-width="2" xlink:href="#a"/><path d="m37.6911885 37.3398237-1.9239301-.641145-.6909019-1.3815561c.6223315-.6332235 1.0542999-1.4714154 1.2001047-2.3455015l.0861461-.5163817h.7366979c.6696128 0 1.2144623-.5448494 1.2144623-1.2144623v-2.5502223c0-3.3483117-2.7239999-6.0723116-6.0723116-6.0723116-3.3567282 0-6.072064 2.716326-6.072064 6.0723116v2.5502223c0 .5277688.3383959.977808.8094765 1.1449018v.4745463c0 .6696129.5448495 1.2142148 1.2144623 1.2142148h.3554766c.1755103.3812214.4027579.73447.6790196 1.0515768.0574307.0658474.1170894.1297143.1784809.1918484l-.6904067 1.3808135-1.9241777.6413925c-2.2370762.7458571-3.8609802 3.101013-3.8609802 5.5999932 0 .2235343.181204.4047383.4047383.4047383h17.8119489c.2235343 0 .4049858-.181204.4049858-.4047383 0-2.4989802-1.623904-4.8541361-3.8612277-5.6002407zm-.5918833-5.6940608h-.6178757c.1029793-.7970992.1715496-1.6454404.1990273-2.4809093.0009902-.0235169.0014853-.0462912.0022279-.0695605h.8213587v2.145484c0 .2232868-.1814514.4049858-.4047382.4049858zm-9.7156985 0c-.2230393 0-.4047383-.181699-.4047383-.4049858v-2.145484h.8218539c.0012377.0423304.002723.0846608.0042082.1274863 0 .0012378 0 .002723.0002476.0042083v.0004951c.0282203.8124471.096048 1.6385092.1965518 2.4180326h-.6181232zm.4049858 1.2144623v-.4049858h.3317121l.0861461.5166292c.0165856.0980284.0366369.1958092.0601538.2930949h-.0732738c-.2232867 0-.4047382-.181699-.4047382-.4047383zm.0007426-4.5746562h-.7951188c.2052159-2.7131078 2.4692747-4.8576017 5.2472396-4.8576017 2.7655877 0 5.0397958 2.1442463 5.2472397 4.8576017h-.7948713c-.0292105-2.2355909-1.8496662-4.0481252-4.0899605-4.0481252h-.7245681c-2.2402944 0-4.0609976 1.8125343-4.0899606 4.0481252zm4.0899606-3.2384011h.7245681c1.8140195 0 3.2819693 1.4835451 3.2809796 3.2955843 0 .1274864-.0009907.2383871-.0032186.3391385v.0039607l-.5062323-.0722835c-1.375615-.1963042-2.6744906-.8458658-3.6572495-1.8286248-.0759967-.0757492-.178976-.1185747-.2861636-.1185747-1.0872235 0-2.1279083.4953402-2.8158395 1.3322944.1695692-1.648411 1.5630075-2.9514949 3.2631558-2.9514949zm-2.7735092 8.2177956c-.2027404-.6740687-.4344438-2.657905-.4856859-3.9288079l.5448495-.7265484c.5002911-.6671374 1.2788244-1.08153 2.1068668-1.1290589 1.089699 1.0369716 2.4994754 1.7219323 3.9889617 1.9345746l.5960915.085156c-.0398549.8453707-.1212977 1.6939595-.237892 2.4742256-.0371319.251507-.06659.4129072-.1411014.8639367-.2143751 1.2860032-1.1738647 2.4487283-2.4405593 2.7653401-.5213326.1302093-1.0703903.1302093-1.5914754 0-.7909105-.197542-1.5159737-.744867-1.9840838-1.5293413h.8253194c.1670938.4713282.617133.8097241 1.1449018.8097241h.8094765c.6710981 0 1.2144623-.5433642 1.2144623-1.2144623 0-.6696129-.5448494-1.2144624-1.2144623-1.2144624h-.8094765c-.539651 0-.9830065.3485453-1.1456444.8097241zm5.9359136 3.7931525c-.5084602 1.4711678-1.8845703 3.6478427-2.8002442 5.1162876-.953796-1.5315692-2.2645538-3.5666476-2.7999965-5.1162876l.4819727-.964193c2.2435124.5010338 2.2665342.5881701 4.5674774-.1371407zm-11.2851423 5.4772101c.16041-2.0056204 1.4951799-3.828304 3.2911285-4.4273661l1.704109-.5678713c.732242 2.0246814 1.6716804 3.2470652 2.7606367 4.9952374zm11.9745588-4.9952374 1.704109.5678713c1.7961962.5990621 3.1307184 2.4217457 3.2911285 4.4273661h-7.7558742c1.0889563-1.7481722 2.0283946-2.9703084 2.7606367-4.9952374z" fill="#0cbcc5" fill-rule="nonzero" mask="url(#b)" stroke="#0cbcc5" stroke-width=".2"/></g></svg>