<svg height="74" viewBox="0 0 74 74" width="74" xmlns="http://www.w3.org/2000/svg" xmlns:xlink="http://www.w3.org/1999/xlink"><defs><rect id="a" height="41.666667" rx="4" width="41.666667" x=".059524" y=".059524"/><mask id="b" fill="#fff"><use fill="#fff" fill-rule="evenodd" xlink:href="#a"/></mask></defs><g fill="none" fill-rule="evenodd"><g fill="#0cbcc5"><rect fill-opacity=".04" height="65" rx="11" width="65" x="5" y="5"/><rect fill-opacity=".056684" height="57.261905" rx="10" width="57.261905" x="8.869048" y="8.869048"/><rect fill-opacity=".091701" height="49.52381" rx="7" width="49.52381" x="12.738095" y="12.738095"/></g><g transform="translate(16.607143 16.607143)"><use fill="#fff" xlink:href="#a"/><g fill="#0cbcc5"><use fill-opacity=".199219" stroke="#fff" stroke-width="2" xlink:href="#a"/><g fill-rule="nonzero" mask="url(#b)" stroke="#0cbcc5" stroke-width=".6"><path d="m17.9856706 8.40233724c.6512174 0 1.1809961.52977865 1.1809961 1.18099609v8.40233727c0 .6512174-.5297787 1.1809961-1.1809961 1.1809961h-8.40233727c-.65121744 0-1.18099609-.5297787-1.18099609-1.1809961v-8.40233727c0-.65121744.52977865-1.18099609 1.18099609-1.18099609zm0 .56152344h-8.40233727c-.34159342 0-.61947265.27787923-.61947265.61947265v8.40233727c0 .3415934.27787923.6194726.61947265.6194726h8.40233727c.3415934 0 .6194726-.2778792.6194726-.6194726v-8.40233727c0-.34159342-.2778792-.61947265-.6194726-.61947265zm-4.192334 1.83910152.0806812.0079652c.1302925.0262087.2405851.1153766.2926196.2418753.0010481.0025456.0020589.0050912.0029948.0075993l2.0098046 5.325638c.0547673.1450603-.0184928.3070785-.163553.3618083-.1451351.0547673-.307041-.0184928-.3618083-.1635531l-.4319987-1.1446842h-2.8712939l-.4362663 1.1454704c-.0426383.1120426-.1492904.1809311-.2624186.1809311-.0332048 0-.066971-.005923-.0998763-.0184637-.1449105-.055179-.2176091-.2173844-.16243-.3622949l2.0282601-5.3254134c.0646875-.158387.2110205-.2567285.3752848-.2568783zm-10.21167807.6003435c.15505534 0 .28076172.1257063.28076172.2807617v1.8003564c0 1.0034424.81634277 1.8198226 1.81982259 1.8198226h.95822103l-.52648438-.3948633c-.12402181-.0930257-.14917806-.2690446-.05615234-.3930664.09302571-.1240218.26904459-.149178.3930664-.0561523l1.2003125.9002344c.07071452.0530078.11230469.1362255.11230469.2246093s-.04159017.1715642-.11230469.2246094l-1.2003125.9002344c-.05049967.0378467-.10960937.0561523-.16823242.0561523-.08535156 0-.16965495-.0387451-.22483398-.1123047-.09302572-.1240218-.06786947-.3000406.05615234-.3930664l.52648438-.3948632h-.95822103c-1.31306641 0-2.38134603-1.0682422-2.38134603-2.3813461v-1.8003564c0-.1550554.12570638-.2807617.28076172-.2807617zm10.21137857.2496158-1.2283512 3.2252409h2.4455094zm-4.20970377-11.6529215c.65121747 0 1.18099607.52977865 1.18099607 1.18099609v6.3017155c0 .15505534-.1257064.28076172-.2807617.28076172s-.2807617-.12570638-.2807617-.28076172v-6.3017155c0-.34159342-.27787924-.61947265-.61947267-.61947265h-8.40233724c-.34159342 0-.61947265.27787923-.61947265.61947265v8.40233724c0 .34159343.27787923.61947267.61947265.61947267h6.3017155c.15505534 0 .28076172.1257064.28076172.2807617s-.12570638.2807617-.28076172.2807617h-6.3017155c-.65121744 0-1.18099609-.5297786-1.18099609-1.18099607v-8.40233724c0-.65121744.52977865-1.18099609 1.18099609-1.18099609zm-4.20116862 2.40066243c.15505534 0 .28076172.12570639.28076172.28076172v.31939453h2.41997884c.15509278 0 .28076172.12566895.28076172.28072429s-.12570638.28076172-.28076172.28076172h-.68090332c-.08419108.30378418-.27462239.88563476-.64732422 1.57780599-.23033691.42773112-.55403645.93722005-.99535644 1.45674153.42701986.4424056.94350911.87073568 1.56777344 1.24527181.13293131.07977377.17605631.25223633.09628255.38520508-.05263346.0877474-.14562175.13633789-.24100586.13633789-.04915202 0-.09897787-.01291504-.14419922-.04005534-.65791829-.39475097-1.20413086-.8450179-1.65746745-1.31048339-.44828288.46059895-.99397135.91408528-1.65462239 1.31048339-.04522136.0271403-.0950472.04005534-.14419922.04005534-.09538412 0-.1883724-.04859049-.24100586-.13633789-.0798112-.13296875-.0366862-.30543131.09628255-.38520508.62317871-.37393717 1.13918132-.80256673 1.56530274-1.24463541-.59776042-.70444987-.99857585-1.41653646-1.26140625-2.0019808-.06348959-.14146647-.00029948-.30760254.14116699-.37112955.14154134-.06348959.30760254-.00026205.37112955.14116699.2379362.52996582.59716146 1.17115071 1.1274642 1.80896647.86833984-1.0454069 1.27346028-2.09279785 1.4351416-2.6121696h-4.13453451c-.15505533 0-.28076172-.12570638-.28076172-.28076172 0-.15505533.12570639-.28076172.28076172-.28076172h2.41997884v-.31939453c0-.15505533.12570638-.28076172.28076172-.28076172zm7.33360839.05615235c.1240593-.09302572.3000033-.0679069.3930664.05615234.0930257.12402181.0678695.30004069-.0561523.39306641l-.5264844.39486328h.958221c1.3130664 0 2.3813461 1.06824219 2.3813461 2.38134603v1.80035644c0 .15505534-.1257064.28076172-.2807618.28076172-.1550553 0-.2807617-.12570638-.2807617-.28076172v-1.80035644c0-1.00344238-.8163428-1.81982259-1.8198226-1.81982259h-.958221l.5264844.39486328c.1240218.09302571.149178.2690446.0561523.3930664-.0551416.07352214-.1394824.11230469-.224834.11230469-.058623 0-.1177327-.01826823-.1682324-.05615234l-1.2003125-.90023438c-.0707145-.05300781-.1123047-.13622558-.1123047-.22460937s.0415902-.17156413.1123047-.22460938z" transform="translate(11.309524 11.309524)"/></g></g></g></g></svg>