<svg height="24" viewBox="0 0 24 24" width="24" xmlns="http://www.w3.org/2000/svg"><g fill="#b1b1b1" fill-rule="evenodd"><circle cx="12" cy="12" fill-opacity=".148574" r="10"/><g fill-rule="nonzero" transform="translate(7 7)"><path d="m9.49708984.91375679-.36625-.38217391c-.6705664-.69972147-1.7577539-.69972147-2.42832031-.00002038 0 0 0 0-.00001953.00002038l-4.68 4.88347826c-.22712891.23810462-.35501953.56013587-.35583984.89608696v.86957201c0 .36018342.27982422.65217391.625.65217391h.83333984c.32193359-.00095788.63052734-.1343682.85875-.37131114l3.45541016-3.60564538c.0827539-.08341712.08503906-.22102582.00511718-.3073981-.0799414-.0863519-.2118164-.08873641-.29458984-.00533967-.00173828.00175272-.0034375.00352581-.00511719.00533967l-3.45541015 3.60564538c-.14994141.15564538-.35267578.24328125-.56416016.24391305h-.83333984c-.1150586 0-.20833985-.09733696-.20833985-.2173981v-.86957201c.00056641-.22069973.08457032-.43224864.23375-.58868886l4.68001953-4.88345788c.51496094-.51179348 1.32421875-.51179348 1.83916016 0l.36625.38217391c.50767578.53003397.50767578 1.38908968 0 1.91912364l-5.21875 5.44565218c-.3375.35417119-.79677734.55267663-1.27541016.55131114h-1.66667968c-.34517578 0-.625-.29199049-.625-.65217392v-1.73914402c.00132812-.49891304.19117187-.97711956.52833984-1.33086277l3.99416016-4.16781929c.0827539-.08341712.08505859-.22102582.00511718-.3073981-.0799414-.0863519-.2118164-.08875679-.29458984-.00533967-.00173828.00175271-.0034375.00352581-.00511719.00533967l-3.99416015 4.16781929c-.41501953.43544837-.64873047 1.02413723-.65041016 1.63826087v1.73912364c0 .60030571.46636719 1.08695526 1.04166016 1.08695526h1.66666015c.58914063.00133958 1.154375-.24300145 1.57-.67869439l5.21875-5.44565217c.67058599-.69970109.67058599-1.83415761.00001953-2.53389946z"/><path d="m2.70833984 9.57202336h-1.66667968c-.57529297 0-1.04166016-.48664972-1.04166016-1.08695543v-1.73914402c.00167969-.61414402.23539063-1.2028125.65041016-1.63826087l3.99417968-4.16781929c.07994141-.0863519.21181641-.08875679.29458985-.00533967.08277343.08341712.08505859.22102581.00511718.30739809-.00167968.00181386-.0033789.00358696-.00511718.00533968l-3.99417969 4.16781929c-.33714844.35374321-.52699219.83197011-.52833984 1.33086277v1.73912364c0 .36018343.27982422.65217392.625.65217392h1.66666015c.47865235.00138587.93791016-.19713995 1.27541016-.55131114l5.21875-5.44565218c.50767578-.53003397.50767578-1.38908967 0-1.91912364l-.36625-.38217391c-.51496094-.51179348-1.32421875-.51179348-1.83916016 0l-4.67998047 4.88349864c-.14917968.15644022-.23318359.36798913-.23375.58868886v.86957201c0 .12006114.09328125.2173981.20833985.2173981h.83332031c.21148437-.0006318.41421875-.08828805.56416016-.24391305l3.45541015-3.60564538c.07994141-.0863519.21181641-.08875679.29458985-.00533967.0827539.08341712.08503906.22102581.00511718.3073981-.00167968.00181386-.0033789.00358695-.00511718.00533967l-3.45541016 3.605625c-.22822266.23692255-.53681641.37035326-.85875.37131114h-.83333984c-.34517579 0-.625-.29199049-.625-.65217391v-.86957201c.00082031-.33595109.1286914-.65798234.35583984-.89608696l4.68-4.88347826c.67056641-.69972147 1.75775391-.69972147 2.42832031-.00002038 0 0 0 0 .00001953.00002038l.36625.38217391c.67056636.69972147.67056636 1.83417799.00001953 2.53389946 0 0 0 0-.00001953.00002038l-5.21875 5.44565217c-.415625.43569294-.98085937.68005435-1.57.67869456z"/></g></g></svg>