<svg height="24" viewBox="0 0 24 24" width="24" xmlns="http://www.w3.org/2000/svg"><path d="m11.9999103 2c3.020625 0 5.4780469 2.45746875 5.4780469 5.47804688 0 1.49412683-.5304907 2.44323464-1.1025505 3.33930812l-.3686682.5735825h4.0798125c.3368437 0 .6358593.2155781.7424062.535125l3.1303125 9.3908906c.1688438.5065782-.2090156 1.0300313-.7424062 1.0300313h-22.43381254c-.534 0-.91101563-.5240156-.74240625-1.0300313l3.1303125-9.3908906c.10654687-.3195469.40551562-.535125.74240625-.535125h4.091625l-.23293249-.3561885c-.62454321-.9507855-1.25009876-1.93441046-1.25009876-3.55670212 0-3.02057813 2.45732812-5.47804688 5.47795309-5.47804688zm-2.98462497 10.9560938h-4.537875l-2.60859375 7.8257343 20.26232812.0000938-2.6085937-7.8257344h-4.5070782l-2.3167031 3.6577969c-.3056719.4826719-1.0089375.4854375-1.3186406.0056719zm2.98467187-9.39093755c-2.15756249 0-3.91289062 1.75528125-3.91279687 3.91289063 0 .75510937.21525 1.48771875.62254688 2.11851562l3.32165629 5.1458906 3.277125-5.1742031c.3953437-.62423437.6043593-1.34704687.6043593-2.09020312 0-2.1575625-1.7553281-3.91289063-3.9128906-3.91289063zm0 1.56515625c1.2945469 0 2.3477344 1.0531875 2.3477344 2.34773438 0 1.29454687-1.0531875 2.34773437-2.3477344 2.34773437s-2.34773437-1.0531875-2.34773437-2.34773437c0-1.29454688 1.05318747-2.34773438 2.34773437-2.34773438zm0 1.56515625c-.4315312 0-.7825781.35104688-.7825781.78257813s.3510469.78257812.7825781.78257812c.4315313 0 .7825781-.35109375.7825781-.78257812 0-.43153125-.3510468-.78257813-.7825781-.78257813z" fill="#0cbcc5"/></svg>