<svg height="24" viewBox="0 0 24 24" width="24" xmlns="http://www.w3.org/2000/svg"><path d="m1.265625 18.0625c.69898539 0 1.265625.5666396 1.265625 1.265625s-.56663961 1.265625-1.265625 1.265625-1.265625-.5666396-1.265625-1.265625.56663961-1.265625 1.265625-1.265625zm21.796875.328125c.5177813 0 .9375.4197188.9375.9375s-.4197187.9375-.9375.9375h-16.30021875c-.51778125 0-.9375-.4197188-.9375-.9375s.41971875-.9375.9375-.9375zm-21.796875-7.359375c.69898539 0 1.265625.5666396 1.265625 1.265625s-.56663961 1.265625-1.265625 1.265625-1.265625-.5666396-1.265625-1.265625.56663961-1.265625 1.265625-1.265625zm21.796875.328125c.5177813 0 .9375.4197188.9375.9375s-.4197187.9375-.9375.9375h-16.30021875c-.51778125 0-.9375-.4197188-.9375-.9375s.41971875-.9375.9375-.9375zm-21.796875-7.359375c.69898539 0 1.265625.56663961 1.265625 1.265625s-.56663961 1.265625-1.265625 1.265625-1.265625-.56663961-1.265625-1.265625.56663961-1.265625 1.265625-1.265625zm21.796875.328125c.5177813 0 .9375.41971875.9375.9375s-.4197187.9375-.9375.9375h-16.30021875c-.51778125 0-.9375-.41971875-.9375-.9375s.41971875-.9375.9375-.9375z" fill="#0cbcc5"/></svg>