<svg height="32" viewBox="0 0 32 32" width="32" xmlns="http://www.w3.org/2000/svg"><g fill="none" fill-rule="evenodd"><rect fill="#fff" fill-opacity=".074246" height="32" rx="4" width="32"/><path d="m8.49103675 3.94797034c2.81184315 0 5.09946165 2.21382437 5.09946165 4.93496293v4.96786263h1.0198924c.2816263 0 .5099461.2209548.5099461.4934963v2.006885c0 .2725415-.2283198.4934963-.5099461.4934963h-12.23870808c-.28162627 0-.50994617-.2209548-.50994617-.4934963v-2.006885c0-.2725415.2283199-.4934963.50994617-.4934963h1.01989234v-4.96786263c0-2.72113856 2.28761851-4.93496293 5.09946169-4.93496293zm5.60940785 10.88981816h-11.21881571v1.0198924h11.21881571zm-5.60940785-9.90282557c-2.24947454 0-4.07956935 1.77105949-4.07956935 3.94797034v4.96786263h8.1591387v-4.96786263c0-2.17691085-1.8300948-3.94797034-4.07956935-3.94797034zm-8.42261089-.21003203c.14077914-.23605572.45266221-.31692331.69658646-.18061964l1.76652153.98699259c.24392425.13627077.32748743.43809311.18664029.67411593-.14142507.23707562-.4537501.31633113-.69658646.18061965l-1.76652152-.98699259c-.24392426-.13627078-.32748743-.43809311-.1866403-.67411594zm16.14863534-.18061964c.2439242-.13623788.5557393-.05543608.6965864.18061964.1408472.23605573.057284.53784516-.1866403.67411594l-1.7665215.98699259c-.2432103.13587597-.5553314.05615987-.6965864-.18061965-.1408472-.23602282-.057284-.53784516.1866403-.67411593zm-12.60845305-3.26941294c.24389025-.13627077.55573933-.05543608.69658647.18061965l1.01989233 1.70950405c.14084714.23602283.05728396.53784516-.18664029.67411594-.24321033.13587598-.55533138.05615988-.69658647-.18061964l-1.01989234-1.70950406c-.14084713-.23602283-.05728395-.53784516.1866403-.67411594zm9.06827075.18061965c.1407791-.23605573.4526962-.31695622.6965865-.18061965.2439242.13627078.3274874.43809311.1866402.67411594l-1.0198923 1.70950406c-.1414251.23704272-.4537501.31633112-.6965865.18061964-.2439242-.13627078-.3274874-.43809311-.1866403-.67411594zm-4.21983856-1.45551797c.28162627 0 .50994617.22095474.50994617.49349629v1.97398517c0 .27254156-.2283199.4934963-.50994617.4934963s-.50994617-.22095474-.50994617-.4934963v-1.97398517c0-.27254155.2283199-.49349629.50994617-.49349629z" fill="#e63030" fill-rule="nonzero" transform="translate(8 8)"/></g></svg>