<svg height="32" viewBox="0 0 32 32" width="32" xmlns="http://www.w3.org/2000/svg" xmlns:xlink="http://www.w3.org/1999/xlink"><defs><rect id="a" height="25" rx="9" width="25"/><filter id="b" height="180%" width="180%" x="-40%" y="-32%"><feOffset dx="0" dy="2" in="SourceAlpha" result="shadowOffsetOuter1"/><feGaussianBlur in="shadowOffsetOuter1" result="shadowBlurOuter1" stdDeviation="3"/><feColorMatrix in="shadowBlurOuter1" type="matrix" values="0 0 0 0 0   0 0 0 0 0   0 0 0 0 0  0 0 0 0.202305507 0"/></filter></defs><g fill="none" fill-rule="evenodd"><g transform="translate(4 4)"><use fill="#000" filter="url(#b)" xlink:href="#a"/><use fill="#0cbcc5" fill-rule="evenodd" xlink:href="#a"/></g><path d="m8.53970508 13h-4.07941016c-.21033594 0-.38085937-.1705234-.38085937-.3808594v-3.69857615h-3.69857617c-.21033594 0-.38085938-.17052343-.38085938-.38085937v-4.07941016c0-.21033594.17052344-.38085937.38085938-.38085937h3.69857617v-3.69857617c0-.21033594.17052343-.38085938.38085937-.38085938h4.07941016c.21033594 0 .38085937.17052344.38085937.38085938v3.69857617h3.69857615c.210336 0 .3808594.17052343.3808594.38085937v4.07941016c0 .21033594-.1705234.38085937-.3808594.38085937h-3.69857615v3.69857615c0 .210336-.17052343.3808594-.38085937.3808594z" fill="#fff" fill-rule="nonzero" transform="translate(10 10)"/></g></svg>