<svg height="16" viewBox="0 0 16 16" width="16" xmlns="http://www.w3.org/2000/svg"><path d="m7.98297232 1c2.18975278 0 3.97126158 1.78150885 3.97126158 3.97126161 0 .72991759-.2026396 1.44486327-.5864244 2.07071869-.0047436.01260012-.0108213.02475553-.0180849.03631799l-2.22251308 3.57369071c1.68219028.2248751 2.82702238.9241077 2.82687418 1.7576428 0 1.0278734-1.7469697 1.8330952-3.97704285 1.8330952-2.23007316 0-3.97704285-.8050736-3.97704285-1.8330952 0-.8296809 1.09383873-1.5136451 2.75720291-1.7487486l-2.14276172-3.58599435c-.00622595-.01037657-.01141423-.02104962-.01586133-.03201913-.38408133-.62630013-.5870174-1.34154228-.5870174-2.07160811 0-2.18975276 1.78165709-3.97126161 3.97140986-3.97126161zm.88438024 10.0695719-.75897198 1.2202846c-.04061686.0652242-.11206696.1049516-.18885358.1049516-.07945488-.0005929-.15090498-.0416545-.19078065-.1082128l-.72191281-1.2082775c-1.46947056.1738817-2.56197516.7354024-2.56197516 1.331314 0 .6565404 1.4506445 1.3883851 3.5323327 1.3883851 2.08168822 0 3.53233272-.7316965 3.53218442-1.3883851 0-.6025823-1.149131-1.1783337-2.64202294-1.3400599zm-.88438024-9.62486175c-1.94471748 0-3.52669971 1.58198223-3.52669971 3.52655146 0 .66039457.18722297 1.30744784.54150872 1.8713403.00800479.01274836.01467544.0262379.01986372.04002392l2.90573611 4.86275727.59294686-.9534586c.04313688-.0708572.05010401-.0831608.08538435-.1372672l2.34806953-3.77514444c.0048919-.01274836.0109696-.02505201.0183814-.03691095.3541375-.56359599.5413605-1.21064925.5413605-1.8713403 0-1.94456923-1.58198225-3.52655146-3.52655148-3.52655146zm-.00578124 2.08257762c.7961794 0 1.44397385.64779444 1.44397385 1.44397384s-.64779445 1.44397385-1.44397385 1.44397385-1.44397384-.64779445-1.44397384-1.44397385.64779444-1.44397384 1.44397384-1.44397384zm0 .44471014c-.55099587 0-.9992637.44826783-.9992637.9992637 0 .55099588.44811959.99926371.9992637.99926371s.9992637-.44826783.9992637-.99926371c0-.55099587-.44826782-.9992637-.9992637-.9992637z" fill="#0cbcc5" stroke="#0cbcc5" stroke-width=".5"/></svg>