<svg height="36" viewBox="0 0 36 36" width="36" xmlns="http://www.w3.org/2000/svg" xmlns:xlink="http://www.w3.org/1999/xlink"><linearGradient id="a" x1="9.074666%" x2="84.56069%" y1="29.711311%" y2="68.111077%"><stop offset="0" stop-color="#fff" stop-opacity=".2"/><stop offset="1" stop-color="#fff" stop-opacity="0"/></linearGradient><g fill="none" transform="translate(7 5)"><path d="m16.5009537 5.0000005h-7.5004883c-.5668945 0-1.2856445.2451172-1.4916992 1.4130859-.0253907.1420899-2.5073242 16.2236324-2.5073242 16.5869141 0 .570312.4296875 1 .9995117 1h5.5004883c.2446289 0 .453125-.1767583.4931641-.4179693l.9301757-5.5820307h1.5761719c4.1347656 0 7.4990234-3.3642583 7.4990234-7.5 0-3.0327149-2.4667969-5.5-5.4990234-5.5z" fill="#009ada"/><path d="m11.6117325 23.75h-5.6705933c-.4160156 0-.7528076-.2322998-.9067383-.5778809.0800171.4782715.4584961.8278809.9665528.8278809h5.5004883c.2446289 0 .453125-.1767578.4931641-.4179688l.0045776-.0275879c-.0922242.1170655-.2295533.1955567-.3874512.1955567z" fill="#000" opacity=".1"/><path d="m14.5009537 17.75h-1.534173l-.043274.25h1.5774469c4.1347656 0 7.4990234-3.3642578 7.4990234-7.5 0-.0422363-.0053711-.0830688-.0063477-.125061-.0676268 4.0776977-3.4000853 7.375061-7.4926756 7.375061z" fill="#000" opacity=".1"/><path d="m14.4528179-.0000004h-9.9513759c-.6933594 0-1.2763672.5415047-1.4853516 1.3793953-.0297854.1206047-3.0141604 18.0380856-3.015137 18.7080074-.003418.1918945-.0083008.4545898.2026367.6694336.209961.2138672.5078126.2431637.7983399.2431637h4.2807493l1.0610476-7h5.1577148c4.6945686 0 8.5121098-3.8260885 8.4990134-8.5241428-.0085117-3.0342868-2.5133392-5.4758572-5.5476372-5.4758572z" fill="#273691"/><path d="m4.4499283.2500004h10.0445557c2.4042969 0 4.4732056 1.5075073 5.2583618 3.6223145-.7025146-2.246521-2.8244019-3.8723145-5.3000488-3.8723145h-9.951355c-.6933594 0-1.2763672.5415039-1.4853516 1.3793945-.0014649.0058594-.0119019.0656738-.0266726.1520386.2324831-.7769775.7907717-1.2814331 1.4605105-1.2814331z" fill="#fff" opacity=".2"/><path d="m.8705823 20.75c-.2905273 0-.5883789-.0292969-.7983398-.2431641-.0151367-.0154419-.0217896-.0324707-.03479-.0483398.0279541.1019897.0742188.2047119.1661377.2983398.2099609.2138672.5078125.2431641.7983398.2431641h4.280762l.0379028-.25z" fill="#000" opacity=".1"/><path d="m6.3437271 14.0000005h5.1577148c4.439209 0 8.0892944-3.4224248 8.4627075-7.7669678-.946228-.7697144-2.1512451-1.2330322-3.4631958-1.2330322h-7.5004883c-.5668945 0-1.2856445.2451172-1.4916992 1.4130859z" fill="#000" opacity=".2"/><path d="m19.9641495 6.2330327c.0214844-.249939.0369873-.5016479.0362549-.7572021-.0084839-3.0343018-2.5133057-5.4758301-5.5476074-5.4758301h-9.951355c-.6933594 0-1.2763672.5415039-1.4853516 1.3793945-.0297854.1206055-3.0141604 18.0380855-3.015137 18.7080073-.003418.1918945-.0083008.4545898.2026367.6694336.209961.2138672.5078126.2431646.7983399.2431646h4.2799683c-.1713257 1.1575923-.2804565 1.9241938-.2804565 2 0 .570312.4296875 1 .9995117 1h5.5004883c.2446289 0 .453125-.1767583.4931641-.4179693l.9301759-5.5820307h1.5761719c4.1347656 0 7.4990234-3.3642583 7.4990234-7.5 0-1.7205816-.7950439-3.2576905-2.0358276-4.2669678z" fill="url(#a)"/></g></svg>