<svg height="36" viewBox="0 0 36 36" width="36" xmlns="http://www.w3.org/2000/svg"><path d="m21.6244483.00070955c.9514581 0 1.7299377.77847953 1.7299377 1.72993762v2.07989864l1.0379727.12579337c.4757544.04323197.8649941.25949318 1.1677193.64873294.3027251.34595712.4324717.82171151.3892397 1.25423392l-1.2974658 13.88288496c-.086464.8217115-.8649435 1.4704445-1.7299377 1.4704445h-.1729785l-19.98097469-2.248924c-.88846004-.0807875-1.55042105-.8403119-1.52862768-1.7151891-.71441715-.2128655-1.23933333-.8770565-1.23933333-1.6582222v-13.83965303c0-.95150877.77847953-1.72993762 1.72993762-1.72993762zm1.729887 4.62759454v10.94199611c0 .9514581-.7784795 1.7299376-1.7299376 1.7299376h-19.50522031c.04323197.3892398.3460078.7352476.77847953.7784795l19.93774268 2.248924c.4757037.043232.9082261-.3027251.9514581-.7784795l1.2974659-13.882885c.0432826-.21626121-.043232-.47575438-.1730293-.64873294-.1297465-.17297856-.3459571-.30272515-.5622183-.30272515zm-.8648928.85968421h-21.62444835v10.0822612c0 .4757544.38923977.8649942.86499415.8649942h19.89446c.4757544 0 .8649942-.3892398.8649942-.8649942zm-1.7299883 4.45997661c.2594932 0 .4324717.17297859.4324717.43247169v3.8923977c0 .2594932-.1729785.4324717-.4324717.4324717h-6.9198012c-.2594932 0-.4324717-.1730292-.4324717-.4324717v-3.8923977c0-.2594931.1729785-.43247169.4324717-.43247169zm-.4324717.86494349h-6.0548577v3.0274035h6.0548577zm-12.54218718-.86494349c.25949318 0 .43247174.17297859.43247174.43247169 0 .2594932-.17297856.4324718-.43247174.4324718h-5.62233528c-.25949318 0-.43247174-.1729786-.43247174-.4324718 0-.2594931.17297856-.43247169.43247174-.43247169zm3.02740348-.00005068c.2594932 0 .4324718.17297857.4324718.43247177 0 .2594931-.1729786.4324717-.4324718.4324717h-1.29746586c-.25949317 0-.43247173-.1729786-.43247173-.4324717 0-.2594932.17297856-.43247177.43247173-.43247177zm-5.18981284-1.72993762c.25949318 0 .43247174.17297856.43247174.43247173 0 .25949318-.17297856.43247174-.43247174.43247174h-3.45992592c-.25949318 0-.43247174-.17297856-.43247174-.43247174 0-.25949317.17297856-.43247173.43247174-.43247173zm5.18986354 0c.2594932 0 .4324717.17297856.4324717.43247173 0 .25949318-.1729785.43247174-.4324717.43247174h-3.45992591c-.25949318 0-.43247174-.17297856-.43247174-.43247174 0-.25949317.17297856-.43247173.43247174-.43247173zm10.8121482-7.35232359h-19.89446008c-.4757037 0-.86494347.38923977-.86494347.86499415v.43247174h21.62439765v-.43247174c0-.47575438-.3892398-.86499415-.8649941-.86499415z" fill="#0cbcc5" transform="translate(5 7)"/></svg>