<svg height="36" viewBox="0 0 36 36" width="36" xmlns="http://www.w3.org/2000/svg"><g fill="none" transform="translate(3 3)"><path d="m23.1676739 3.87295652c-6.125913-4.5238913-14.76226086-3.22410869-19.29226086 2.89354348-4.52928261 6.132413-3.22878261 14.7734565 2.89815218 19.2997826 6.13199998 4.5296957 14.77049998 3.2273696 19.29447828-2.9006739 4.5231739-6.125913 3.2251304-14.7662174-2.9003696-19.29265218z" fill="#002654"/><path d="m26.0680435 23.1656087c-4.5239783 6.1280435-13.1624783 7.4303696-19.29447828 2.9006739-6.12693479-4.5263261-7.42743479-13.1673696-2.89815218-19.2997826 4.53-6.11765217 13.16634786-7.41743478 19.29226086-2.89354348 6.1255 4.52643478 7.4235435 13.16673918 2.9003696 19.29265218zm-2.6854348-19.58297827c-2.5295-1.86786956-5.4780435-2.76886956-8.398913-2.76886956-4.3373696 0-8.62156527 1.98615217-11.3986957 5.73821739-1.86971739 2.5306087-2.77243478 5.48191304-2.77171782 8.40460874-.00071696 4.3387826 1.98869608 8.624413 5.7457613 11.3996956 2.5298913 1.8694131 5.48017392 2.7714348 8.40173912 2.7714348h.0024565c4.3381739 0 8.6209566-1.9912391 11.3948044-5.7478913 1.8664565-2.5280652 2.7676522-5.4773478 2.7676522-8.3973696 0-4.338913-1.9878696-8.62454346-5.743087-11.39982607z" fill="#fff"/><path d="m26.3580435 23.3798261c-2.7738478 3.7566522-7.0566305 5.7478913-11.3948044 5.7478913h-.0024565c-2.9215652 0-5.87184782-.9020217-8.40173912-2.7714348-3.75706522-2.7752826-5.74647826-7.060913-5.7457613-11.3996956-.00071696-2.9226957.90200043-5.87400004 2.77171782-8.40460874 2.77713043-3.75206522 7.0613261-5.73821739 11.3986957-5.73821739 2.9208695 0 5.869413.901 8.398913 2.76886956 3.7552174 2.77528261 5.743087 7.06091307 5.743087 11.39982607 0 2.9200218-.9011957 5.8693044-2.7676522 8.3973696zm-2.7077392-20.16054349c-2.6082391-1.92615218-5.6533478-2.85758696-8.6666086-2.85678313-4.4735653-.00080383-8.8968044 2.0504353-11.76121744 5.92034835-1.929 2.6113913-2.86156522 5.65876087-2.86084858 8.67332607-.00143403 4.4758044 2.05265293 8.9001739 5.92900075 11.7627609 2.60965218 1.9282826 5.65619567 2.8608478 8.67015217 2.8600223h.0024565c4.4753913.0004125 8.8961957-2.0554136 11.7580652-5.931131 1.9254348-2.6074131 2.8564783-5.6522391 2.8554576-8.6657826.0017164-4.475-2.0519576-8.8990435-5.9264576-11.76276089z" fill="#002654"/><g fill="#fff"><path d="m23.864413 2.92969565-.2141087.28958696c3.8745 2.86371739 5.928174 7.28776089 5.9264566 11.76276089.0010217 3.0135435-.9300218 6.0583695-2.8554566 8.6657826-2.8618695 3.8757174-7.2826739 5.9315435-11.7580652 5.9311304h-.0024565c-3.0139565.0008261-6.06049999-.9317391-8.67015217-2.8600217-3.87634782-2.862587-5.93043478-7.2869565-5.92899999-11.7627609-.0007174-3.0145652.93184782-6.06193477 2.86084782-8.67332607 2.86441304-3.86991305 7.28765214-5.92115218 11.76121744-5.92034783 3.0132608-.00080435 6.0583695.93063043 8.6666086 2.85678261l.2141087-.29030435c-2.6713695-1.97321739-5.793826-2.9283913-8.8810217-2.92767465-4.5828696-.00143404-9.11610869 2.10184856-12.05132608 6.06702248-1.97606522 2.67465217-2.93226087 5.79952171-2.93154421 8.88784781-.00143405 4.5854131 2.10430508 9.120087 6.07556595 12.0537826 2.67354347 1.9750435 5.79669564 2.9302174 8.88469564 2.9298045h.004587c4.5839782.0004129 9.1146956-2.106848 12.0463478-6.0777175 1.9728043-2.6706739 2.9268703-5.7931087 2.9268703-8.8803044.0014123-4.5843043-2.1036094-9.11867388-6.0741747-12.05204345z"/><path d="m15.2572174 23.3715652c0 1.0373913-.8394783 1.8772609-1.8776739 1.8772609-1.0356522 0-1.8765435-.8398696-1.8765435-1.8772609 0-1.0367609.8408913-1.8776522 1.8765435-1.8776522 1.0381956 0 1.8776739.8408913 1.8776739 1.8776522z"/><path d="m19.2884783 23.3715652c0 1.0373913-.8394566 1.8772609-1.8776522 1.8772609-1.0356522 0-1.8772609-.8398696-1.8772609-1.8772609 0-1.0367609.8416087-1.8776522 1.8772609-1.8776522 1.0381956 0 1.8776522.8408913 1.8776522 1.8776522z"/><path d="m23.3189348 23.3715652c0 1.0373913-.8401739 1.8772609-1.8765435 1.8772609-1.0374783 0-1.8776522-.8398696-1.8776522-1.8772609 0-1.0367609.8401739-1.8776522 1.8776522-1.8776522 1.0363696 0 1.8765435.8408913 1.8765435 1.8776522z"/><path d="m26.0748696 23.1656087c.2615869-.3546957.5015869-.7183478.7244565-1.0884348-.3363478-.3637391-.8236739-.5832609-1.3583478-.5832609-1.0363696 0-1.877674.8408913-1.877674 1.8776522 0 .6522391.3888261 1.2756522.900587 1.6124131.5788913-.5498696 1.120413-1.1539131 1.6109783-1.8183696z"/><path d="m25.2785 12.7501087-1.0852609 3.656413h-.0800652l-1.076-3.656413h-1.3802609l1.7184566 4.6687174h.4535l-.890087 1.9567174h1.1563696c.4092826-1.1082826.8171521-2.2133044 1.2232826-3.3132392.4064348-1.0996086.8138913-2.203913 1.2235869-3.3121956zm-4.8771522 3.9026087c-.1250869.0176304-.2432608.0312609-.3561087.0402391-.1128695.0078478-.2368478.0132392-.3737391.0132392-.130087 0-.2547826-.0053914-.3737391-.0132392-.118587-.0096739-.2235-.0359565-.3158913-.0804782-.0915653-.0446087-.1641957-.1107174-.2173696-.2001522-.053587-.0884348-.0808913-.2099565-.0808913-.3643696 0-.1535217.0273043-.2749348.0808913-.3637608.0531739-.0890218.1258043-.1562609.2173696-.1994566.0923913-.0448261.1973043-.0718043.3158913-.0800652.1189565-.0093696.2436521-.0136522.3737391-.0136522h.3565217c.0707826 0 .1401522.0007174.2087174.0042826.0676305.0028479.1229348.0042827.1646087.0042827zm.5066739-3.7657174c-.225326-.1035-.4775434-.1684783-.7567608-.1954783-.2781739-.0258695-.5566739-.0402391-.8358913-.0402391-.1246739 0-.2626957.0046957-.4139783.0143696-.1505435.0082608-.3008043.0197608-.4492174.0345435-.1476087.0150652-.2921522.0333913-.4311956.0538695-.1394348.0204783-.2568913.0423913-.3507174.0665218v.880413c.1595217-.0352391.3838261-.0730435.6705869-.1110217.2881739-.0388261.5892826-.0578696.9037392-.0578696.2846087 0 .5056521.0207826.6626087.0621304.1575.042087.2735217.1056305.3464565.1915218.0743478.0862608.1178478.1958695.1293695.3299348.0115.1332391.0183261.2921304.0183261.4761086-.3320869 0-.6762826.0035653-1.0328043.0129348-.3556957.0093696-.6835.0564348-.9827826.1426087-.2986739.0855652-.5454783.2257392-.7385218.4176522-.1915.1922174-.2885652.4728478-.2885652.8404783 0 .3255434.0592826.5872391.1775435.7823043.1189783.1947609.2774783.3457391.4761087.4535.1991522.1067609.4266087.1775435.6853478.2128044.2573044.0355434.5289783.0564347.813587.0625434.3503043.0118044.6957391.0071305 1.0366739-.0137608.3407391-.0207826.7126304-.054587 1.1158043-.1019566v-3.1929347c0-.3618261-.0696739-.6464348-.2076956-.8538261-.1404565-.2076957-.3223044-.3629348-.5480218-.4671522zm-5.0643913 2.836c-.0480652.1811087-.121413.3374783-.2220434.4708261-.1009566.1329348-.2361305.2382609-.4046087.3151522-.1696087.0772174-.3726305.115326-.6094566.115326-.1839782 0-.3946304-.0172173-.6321739-.0531739v-2.9747391c.201587-.0240435.4215218-.0355652.6583479-.0355652.2375434 0 .4377173.0398478.6008913.12.1627826.0801739.295.1911956.3959565.3331087.1006304.1415869.1725652.3090435.2177826.5016739.044913.1922174.0665217.4010435.0665217.6256522 0 .2072826-.0237391.4017391-.0712174.5817391zm1.1162392-1.7827174c-.0859783-.1778478-.195587-.3424783-.3292174-.4937391-.1333479-.1516739-.2946957-.2831739-.4840652-.3953261-.2676957-.1538261-.5433479-.2536522-.8275435-.2985652-.2850218-.0442174-.5962174-.0661087-.933587-.0661087-.1255 0-.2648478.0021304-.4190652.0085435-.1541304.0065217-.3076304.0126304-.4624565.0190434-.1538261.0054131-.3008261.0115218-.4402609.0176305-.1393478.0061087-.2561956.011913-.3510217.0183478v6.6254348h1.2626956v-1.9401957c.1311957.0180218.245087.0305435.3424783.0392174.0980869.0082391.2123696.0125218.3428696.0125218.236826 0 .4610434-.0153913.672-.0484783.209826-.0331087.3952173-.0811957.5558695-.147.2253261-.0948261.4208044-.2220652.5868261-.381587.1663478-.1606304.3018261-.3400217.409-.5383478.1070435-.1990435.1872174-.410413.2403913-.6364565.0531739-.2241957.0804783-.4527826.0804783-.6842174 0-.1828478-.0193479-.3704783-.0578696-.5601522-.0388043-.1897608-.1013478-.3727174-.1875217-.5505652zm-6.2855218 3.4771304h1.2623913v-6.6713913h-1.2623913zm-2.03932606 0h1.26169565v-6.6713913h-1.26169565zm-2.01456522-.7646956c-.12428261.0176304-.24326087.0312609-.35571739.0402391-.11245652.0078478-.23713043.0132392-.37343478.0132392-.13108696 0-.25576087-.0053914-.37363044-.0132392-.11897826-.0096739-.22430434-.0359565-.31658695-.0804782-.09167392-.0446087-.16430435-.1107174-.21747826-.2001522-.05317392-.0884348-.08006522-.2099565-.08006522-.3643696 0-.1535217.0268913-.2749348.08006522-.3637608.05317391-.0890218.12580434-.1562609.21747826-.1994566.09228261-.0448261.19760869-.0718043.31658695-.0800652.11786957-.0093696.24254348-.0136522.37363044-.0136522h.35541304c.07080435 0 .14086957.0007174.20923913.0042826.06823913.0028479.12284783.0042827.1645.0042827zm.50678261-3.7657174c-.22502174-.1035-.47652174-.1684783-.75573913-.1954783-.2785-.0258695-.5573913-.0402391-.83547826-.0402391-.1251087 0-.26271739.0046957-.41439131.0143696-.15126086.0082608-.30152173.0197608-.44921739.0345435-.14841304.0150652-.29215217.0333913-.43119565.0538695-.13976087.0204783-.25760869.0423913-.35184782.0665218v.880413c.16065217-.0352391.38413043-.0730435.672-.1110217.28715217-.0388261.58826086-.0578696.90271739-.0578696.28491304 0 .50597826.0207826.66334782.0621304.15636957.042087.27239131.1056305.34684783.1915218.07323913.0862608.11643478.1958695.12823913.3299348.01223913.1332391.01793478.2921304.01793478.4761086-.33197826 0-.67628261.0035653-1.03128261.0129348-.35652174.0093696-.68391304.0564348-.9838913.1426087-.29908696.0855652-.54517391.2257392-.73852174.4176522-.19263044.1922174-.28858696.4728478-.28858696.8404783 0 .3255434.05930435.5872391.17786957.7823043.11867391.1947609.27747826.3457391.4755.4535.19873913.1067609.42721739.1775435.68565217.2128044.2576087.0355434.52928261.0564347.81389131.0625434.34969565.0118044.69532608.0071305 1.03604347-.0137608.34104348-.0207826.71326087-.054587 1.11643479-.1019566v-3.1929347c0-.3618261-.06997826-.6464348-.20841305-.8538261-.13976087-.2076957-.32197826-.3629348-.54791304-.4671522z"/></g></g></svg>