<svg height="36" viewBox="0 0 36 36" width="36" xmlns="http://www.w3.org/2000/svg"><path d="m12.0202985 28.3288439c-.0973068.0562554-.1954498.1111425-.2923765.1678541-.2837101.163445-.5678763.326966-.8515863.490411-.1249784.072676-.2500328.1458081-.3745551.2188642-.1626088.0916813-.3240012.1859472-.4866099.2785407-.29496119.1661057-.58254833.3460472-.88359117.5021182-.21278256.0493375-.45627757-.0393029-.55282414-.2425828-.09076897-.1657256-.0367181-.3572983.01261948-.5259887.07868165-.2854586.15485461-.5717534.23178778-.857592.07571684-.2872071.15356226-.574034.23011533-.8607089.04234365-.1556908.08567557-.3110016.12193755-.4676047.03983497-.1426912.08438322-.2841662.10772165-.4308105.02463078-.1954498-.02333843-.392268-.11152269-.566584-.07275202-.1192768-.16914655-.2231214-.28074526-.3070484-.20198759-.1492291-.40268281-.3001306-.5977525-.4584062-.15135765-.1237621-.29975048-.2504889-.44586269-.3806367-.13546928-.1207213-.26995029-.2426588-.40055423-.3685495-.17256749-.1690705-.34171404-.3412579-.50515902-.5194509-.12763912-.1404867-.25520222-.2811254-.37713978-.4268575-.1155518-.137978-.22791072-.2785406-.33738084-.421688-.17819304-.2309516-.34475488-.4705695-.5069075-.7136844-.03246093-.0492616-.06355349-.0994354-.09517819-.1491531-.17469608-.276412-.33646859-.5609583-.48653389-.8516623-.10384458-.2062448-.20373607-.4147702-.29845813-.6254241-.03200481-.0808863-.0657581-.1608603-.09821903-.2409103-.11973295-.2910841-.2227413-.5890862-.31442253-.890053-.08255872-.2777044-.15439849-.5584497-.21582339-.8412475-.05884019-.2897917-.10726552-.5817881-.14185504-.8750008-.1046808-.865042-.08993275-1.7430076.03717423-2.6045527.04325591-.2815815.09434196-.5622507.16002404-.839499.0679627-.2894117.14755661-.5757065.24220265-.857288.09479809-.2949611.2111101-.581712.32833436-.8680828l.01033884-.0254671c.13151619-.2867509.26607322-.5718293.4182671-.8481654.33304765-.6093837.72273089-1.1876748 1.16129558-1.726131.05062993-.0623371.10255222-.123686.15310613-.185567.19468958-.23102761.39918585-.45240053.61029595-.66822392.07693317-.07875768.15569084-.15569085.23482862-.23270004.21840811-.21498716.44677495-.41955946.68031122-.61721385.0683428-.05709171.13714174-.1137273.2067769-.16907053.5389123-.43468762 1.11074166-.82832394 1.70796201-1.17862834.2344485-.13668562.472318-.26774568.7127722-.39356031.054583-.02812774.1103823-.05579935.1657256-.08309086.2824177-.13927033.5683324-.27162275.8580481-.39401643.5618706-.23832559 1.137577-.44411422 1.7231662-.61417302.3096332-.08955264.621471-.17256749.9364257-.2412904.2594594-.0614249.5211234-.11289106.7840797-.15964393.3170073-.05967642.6371314-.10293233.9571795-.14139891.5224917-.06362951 1.0480244-.09859913 1.5738611-.11722426h.8300724c.614097.01771287 1.2270537.06446574 1.8359812.145352.2884994.03801046.5757065.0843072.8615451.13660959.2880433.05367077.5744141.11547578.8594165.18381859.2901719.07092752.5795835.14710048.8654982.23490464.5929632.17690068 1.1733069.39310418 1.7412592.63964002.2880432.12543452.5696247.26470485.8520424.40313894l.0229584.01079497c.2832539.15226991.5665839.30446379.8411714.47231798.6094598.36414021 1.188131.77853024 1.7344173 1.23138687.0116312.00950261.0341334.02805172.0453845.03763035.272459.2343725.5424093.47224196.7954069.72790031.0428758.04325591.0860557.08734804.1301478.13060394.2059407.20715701.3975134.42776972.58863.6483824-.112815.0484254-.225326.098143-.3368487.1492291-.1284753.0566356-.2569507.112815-.3845138.1703629-.2824937.1249784-.5639992.2521614-.8464929.3771398-.2508691.1120548-.5016621.2227413-.7512388.3369247-.036338.014748-.0722198.0298762-.1077216.0453845-.2892596.1276391-.5773029.258243-.8667145.3858822-.577835.258167-1.1565823.5142055-1.7339612.7728286-.5734258.2534538-1.1466235.5081999-1.718757.7646945-.2880432.1293116-.5765426.2560384-.8645859.3849699-.1794854.0791378-.3585907.1604042-.5367077.2417465-.1120548.0453845-.221525.0960145-.3322874.1444398-.2918444.1310601-.5846769.2608278-.8775855.3905955-.2365011.1059731-.4730782.2114902-.7092752.3179195-.0488055.0211338-.0973068.0423436-.145352.0635535-.2892596.1271069-.5769228.2573308-.8658023.38535-.5782911.2573308-1.1565823.5138254-1.7339612.7724486-.4420616.1942334-.8822988.3931802-1.3230681.5899983-.13106.0596764-.2659972.1115227-.4065598.1409428-.2872071.0484253-.5873377.0121634-.8520425-.1098502-.0640096-.0320048-.1263468-.0674306-.1868594-.1059732-.2218291-.1604801-.4459387-.3187557-.6695163-.4770313-.1821461-.1297677-.3633039-.2608277-.5466664-.3883908-.1081778-.0778455-.2167357-.156147-.3262058-.2327001-.2789207-.2006952-.5591338-.4005542-.8398791-.5994249-.0051694-.003497-.0155843-.0104149-.0207537-.0138358-.2019876-.1458082-.4044313-.2910841-.6080914-.4346877-.0787576-.0557993-.1700588-.0891725-.26174-.1141834-.3057561-.0168766-.5712972.2758799-.5024983.5791274.2447874.5725896.515954 1.1331678.7684955 1.7018803.1353933.2958735.2694942.5916709.4052675.8870881.0528346.1163881.105137.2331562.1574394.3499243.0770092.1673981.1548546.3347962.2301153.5029545.1306039.2846983.2586232.5700808.3901394.8547792.0834709.1824502.1669419.3658126.2513251.5483389.0479692.1073415.0959384.2149871.1448199.3222527.1540184.3001305.2482843.6344706.4550612.9048009.0825587.0774654.1730236.1471005.2720029.2037361.2884993.1423112.6410083.1249784.9165082-.0406712.0998915-.058384.1989467-.1180605.2984581-.1769007.1825262-.1024762.3628478-.2080692.5445378-.3118378.5760866-.3339599 1.1530854-.6669315 1.7300081-1.0003593.2487405-.141855.4964927-.2859146.7439408-.4312666.0406711-.0241747.0826347-.0475891.1241421-.0709276.2880433-.1639011.5743381-.330843.8615451-.4964926.163521-.0938858.3274221-.1873155.4895747-.2829499.1263468-.0730561.2530737-.1461122.3798005-.2188642.286751-.1655735.5725896-.3325155.8606329-.4960365.0878802-.0497177.1747721-.1008037.26174-.1521939.2023677-.1176804.4057237-.2336123.6076352-.352509.5765427-.3322114 1.1548338-.6625983 1.729628-.9978506.2193204-.1275631.4394009-.2525415.6582651-.3801806.065302-.0376304.13068-.0756408.1963621-.1132712.2875871-.1665618.5765426-.3312991.8633696-.4996095.1509015-.0851434.3001306-.1729475.4498158-.2602956.1366096-.0783015.2737513-.1553107.4099808-.2344485.5820922-.3365446 1.1638803-.6738494 1.7469607-1.0094818.2720029-.1587317.5462103-.3144225.8182132-.4744466.0212859-.0121633.0433319-.0247068.065378-.036338.2846223-.1630648.5674201-.3287144.8520425-.4917793.2019875-.1159319.4026068-.2348286.6051265-.3512166.0817225-.0462968.1629888-.0934298.2447113-.1401066.2738274-.1518138.5367837-.3227088.8188214-.4597745.098143.2032799.2248698.3909756.3303869.5903784.1556908.2884994.301879.5821682.4307345.8835912.0367941.0856756.0718398.1721114.1068854.2586992.0808863.2002391.1557669.4022267.2235775.6071791.0913012.2751197.1691466.5544966.2370333.8365342.0679627.2859147.1211013.5752503.1648133.8658783.0402151.2859146.0700153.5735018.0865118.8624573.0159815.2893356.0199175.5799636.0120874.8697553-.0104149.2884994-.0302564.5765427-.0636295.8628375-.0341334.287207-.0812664.5725896-.1388142.8559195-.0605127.2863708-.1322764.5700809-.2149112.8512063-.18169.6024658-.4191033 1.1885871-.704942 1.7495454-.3093291.6080914-.6781826 1.1850902-1.0930288 1.7270433-.0735122.0951022-.1487729.1898242-.2244897.2832539-.1574394.1911927-.3187558.3788883-.4865339.5609584-.1185927.1267269-.2383256.2521614-.3607193.3754673-.1799415.1769007-.3637601.3503044-.5528241.5172464-.098143.0878041-.1984907.1730236-.2992184.2573308-.2474481.207233-.5025743.4048114-.7651505.5929632-.0389227.0276716-.0773893.0553432-.1163881.0830908-.2832539.199859-.5730457.3905195-.8710477.5687125-.1154757.0691791-.2322439.1362295-.3498482.2024437-.1665619.0938859-.3347962.1859472-.5052351.272459-.2850024.145352-.5739579.2824177-.8671706.4096007-.1371418.0601326-.2750437.1167682-.4130977.1734038-.1556908.0615009-.312674.1202651-.4700373.178269-.2777805.1028563-.5597421.1949937-.842996.2819616-.2967097.0878042-.5955479.1690705-.8965908.2409103-.2552022.0631734-.5134453.1137273-.7703199.1686904-.0146721.0021286-.0437121.0064618-.058004.0086664-.2875871.0514662-.5756304.098143-.864966.1362295-.2872071.0376304-.5747942.0682668-.8632936.0912251-.2889555.0207537-.5782911.0389987-.8676268.0466769-.2884994.0082862-.5765426.0099587-.865042.0034969-.2884994-.0069179-.5769988-.0202976-.8650421-.0410513-.2884994-.0207537-.5760865-.0493376-.8632935-.0852194-.2590793-.0320048-.5168663-.0731322-.7741971-.1146396-.0929736-.0160404-.185491-.0345895-.2785406-.0488054-.2231214-.0454605-.4463189-.090921-.6682239-.1432234-.2932127-.0678867-.5839167-.1479367-.8740886-.2274546-.2846223-.0757169-.5899223-.0514662-.8629134.0557233" fill="#3cab47" fill-rule="evenodd"/></svg>