<svg height="36" viewBox="0 0 36 36" width="36" xmlns="http://www.w3.org/2000/svg"><g fill="#0cbcc5" stroke="#0cbcc5" stroke-width=".3" transform="translate(5 6)"><path d="m6.04643585 5.31812627c.3274949.49368636.6598778.98737271.9873727 1.48594705.1221996.18574338.24439919.36659878.36659878.55234216.21995927.32749491.06354379.64521385-.21507128.86028513-.51323829.40081466-1.03136456.80162933-1.54460285 1.20244399-.35682281.27861507-.56211813.7136456-.51323829 1.1682281.03910387.3617108.25417515.6843177.43014256.9971487 1.02647658 1.8525458 2.55641548 3.4118126 4.1107943 4.8244399.69409373.6305499 1.43217923 1.2317719 2.22892053 1.7254583.60611.3763747 1.3686355.9287169 2.101833.6403258.3274949-.1270876.5132383-.3665988.7185336-.6305499.2346233-.303055.4692465-.601222.7038697-.904277.1466395-.1906313.288391-.3861507.4448065-.5670061.2443992-.288391.5865581-.2101833.8553972-.0293279.9042769.601222 1.8134419 1.207332 2.7177189 1.808554.5425662.3617108 1.0802444.7185336 1.6228106 1.0802444.591446.3910387.004888 1.0655804-.2395112 1.4761711-.1906314.3177189-.3812627.6354379-.5718941.9482688-.1710794.288391-.3470468.5621181-.6207739.7674135-.2786151.2101833-.601222.3128309-.9336049.3861507-.0928717.0195519-.1857434.0391038-.2737271.0537678-.0488798.009776-.0977597.0146639-.1466395.0244399.1124236-.0146639-.0733198.009776-.1075357.009776-1.202444.1270875-2.2778004-.0782078-3.4215886-.4692465-1.9014256-.6549898-3.6268839-1.8183299-5.18126269-3.0745417-2.21425662-1.7890021-4.26720977-3.8761711-5.95356415-6.1686355-1.10468432-1.485947-2.06761711-3.1234215-2.56619145-4.91242358-.17596741-.62566191-.26395112-1.14378819-.29327902-1.75478615-.00977597-.24928717-.00977597-.49857434.00488799-.74786151.00488798-.10753564.01955193-.21507128.0293279-.32260692.01466395-.12708758-.00488799.01466395.00977596-.07820774.00977597-.0586558.01955194-.11242363.02932791-.16619145.12219959-.68431772.39103869-1.28065173 1.01181262-1.65213849.56211813-.34215886 1.12423626-.67942973 1.6814664-1.01670061.28839104-.17596741.67454175-.29327902.90916497.05376782.14663951.21995927.29327902.44480652.44480652.66476578.39103869.59144603.78207739 1.17800408 1.17311609 1.76456212.25906313.3910387.89450101.02443992.63543788-.37148676-.31283096-.47413442-.6305499-.94338085-.94338086-1.41751527-.18574338-.27861508-.37148676-.55723015-.55723014-.83095723-.17107943-.25906314-.35193483-.49857434-.64032587-.64521385-.77230142-.38126273-1.46639511.19063136-2.10183299.57189409-.65498982.3910387-1.3490835.73319756-1.81832994 1.35397149-.37148676.49368635-.48391039 1.13401222-.55723014 1.73034623-.06354379.49368635-.05865581.99714868-.00977597 1.49083503.14663951 1.53482688.71853361 2.996334 1.44684318 4.3454175 1.20733197 2.2289206 2.89368635 4.19389 4.66802444 5.992668 1.81344195 1.8329939 3.80773931 3.5584522 6.06109976 4.8293279 1.3637475.7723015 2.8496945 1.3588595 4.4138493 1.5446029 1.0069247.1173116 2.1995927.0782077 3.1185336-.4057027.7283096-.3861507 1.0949084-1.1291242 1.500611-1.8036659.3665988-.610998.914053-1.2513239.7674135-2.0040734-.1270876-.6598778-.914053-1.0264765-1.4224033-1.3637474-.4985743-.3323829-.9971487-.6647658-1.495723-.9971487-.4692464-.3128309-.9384929-.6256619-1.4126273-.9384929-.2248472-.1466395-.4448065-.298167-.6696538-.4448065-.4252545-.283503-.9531568-.283503-1.3930753-.0391039-.2541752.1417516-.4203666.4008147-.5914461.625662-.2395112.303055-.4741344.6109979-.7136456.9140529-.1417515.1857434-.293279.4448065-.4936863.5767821-.3274949.2199593-.6598778-.0293279-.9482689-.1857434-1.803666-.9873727-3.29938897-2.4439918-4.68757634-3.9446028-.6305499-.6843178-1.22688391-1.4028514-1.71568228-2.1995927-.1515275-.2443992-.29327902-.4985743-.43014257-.7527495-.07331975-.1319756-.15152749-.2590631-.19063136-.4057026-.05865581-.2248473.07820774-.4448066.24439918-.57678212.39592668-.30794298.79185336-.61588595 1.18778004-.92382892.15641548-.1221996.31771895-.24439919.47413442-.37148676.36659878-.28350306.53279023-.78696538.44480652-1.23665988-.09287169-.47902241-.48879837-.92382892-.75274949-1.3197556-.26395112-.3910387-.52301426-.78696538-.78696538-1.17800408-.25906313-.38126273-.89450101-.01466395-.63054989.38126273z"/><path d="m18.3287169.39592668v3.73441955c0 .20040733.1661915.36659878.3665988.36659878h6.7209776.0293279c-.1221996-.12219959-.2443992-.24439919-.3665988-.36659878v4.37474542c.1221996-.12219959.2443992-.24439919.3665988-.36659878-2.2386966 0-4.4822811 0-6.7209776 0-.009776 0-.019552 0-.0293279 0-.2004073 0-.3665988.16619145-.3665988.36659878v3.73441955c.2101833-.0879837.4154786-.1710794.6256619-.2590631-1.7205702-1.7254583-3.4411405-3.45091653-5.1617108-5.17637478-.2492871-.24928717-.4936863-.49857434-.7429735-.74297352v.51812627c1.7205703-1.72545825 3.4411405-3.4509165 5.1617108-5.17637475.2492872-.24928717.4936863-.49857433.7429735-.74297352.3323829-.33727087-.1857434-.85539715-.5181263-.51812627-1.7205702 1.72545825-3.4411405 3.45091649-5.1617107 5.17637474-.2492872.24928717-.4936864.49857434-.7429736.74297353-.1417515.14175152-.1417515.37637474 0 .51812627 1.7205703 1.72545825 3.4411406 3.45091653 5.1617108 5.17637473.2492872.2492872.4936864.4985744.7429735.7429735.2248473.2248473.625662.0586558.625662-.2590631 0-1.2464358 0-2.49287169 0-3.73441955-.1221996.12219959-.2443992.24439919-.3665988.36659878h6.7209776.0293279c.2004073 0 .3665988-.16619145.3665988-.36659878 0-1.45661914 0-2.91812627 0-4.37474542 0-.20040733-.1661915-.36659878-.3665988-.36659878-2.2386966 0-4.4822811 0-6.7209776 0-.009776 0-.019552 0-.0293279 0 .1221996.1221996.2443992.24439919.3665988.36659878 0-1.24643584 0-2.49287169 0-3.73441955 0-.46924644-.7331976-.46924644-.7331976 0z"/></g></svg>