<svg height="36" viewBox="0 0 36 36" width="36" xmlns="http://www.w3.org/2000/svg"><path d="m12.48 0c6.8928 0 12.48 4.728 12.48 10.56s-5.5872 10.56-12.48 10.56c-1.4723244 0-2.88507906-.2157214-4.19653576-.6118448l-5.92008988 2.1587624c-.20754262.0756902-.43714821-.0311973-.51283843-.2387399-.03657142-.1002789-.03154651-.2110152.01395668-.3075698l1.88949844-4.0109333c-2.31638652-1.9171658-3.75399105-4.5913888-3.75399105-7.5496746 0-5.832 5.5872-10.56 12.48-10.56zm0 9.6c-.5301934 0-.96.4298066-.96.96v4.8c0 .5301934.4298066.96.96.96s.96-.4298066.96-.96v-4.8c0-.5301934-.4298066-.96-.96-.96zm0-5.28c-.79488 0-1.44.64512-1.44 1.44s.64512 1.44 1.44 1.44 1.44-.64512 1.44-1.44-.64512-1.44-1.44-1.44z" fill="none" stroke="#0cbcc5" stroke-width="1.2" transform="translate(6 6)"/></svg>