<svg height="36" viewBox="0 0 36 36" width="36" xmlns="http://www.w3.org/2000/svg"><g fill="#0cbcc5" stroke="#0cbcc5"><path d="m22.8590156 18.6075104c.1941563 0 .3516094-.1574062.3516094-.3516094v-11.59429163c0-1.0509375-.7678594-1.92553125-1.7720156-2.093625l-4.5067031-.02967187h-.6445313v-1.6385625c0-1.2315-1.0019062-2.23340625-2.2334062-2.23340625h-4.85807817c-.67167188 0-1.27457813.2985-1.68435938.7693125l-.3744375.59882812c-.11226562.26625-.17442187.5585625-.17442187.86517188v1.6385625h-.64453125l-4.50675.02967187c-1.00420313.1681875-1.77201563 1.04278125-1.77201563 2.09376563v13.21453125c0 1.1710781.95273438 2.1238125 2.12376563 2.1238125h18.92367187c1.1710313 0 2.1238125-.9527344 2.1238125-2.1237656v-2.8806094c0-.1941563-.1574531-.3516094-.3516562-.3516094-.1941563 0-.3516094.1574063-.3516094.3516094v2.8805156c0 .7833281-.6372656 1.4205938-1.4205938 1.4205938h-.639375v-16.05525003h.639375c.7833282 0 1.4205938.63703125 1.4205938 1.420125v11.59429163c.0000937.1942032.1575.3516094.3516562.3516094zm-15.1932656-15.70780728c0-.84375.6864375-1.5301875 1.53014063-1.5301875h4.85803127c.84375 0 1.5301875.6864375 1.5301875 1.5301875v1.6385625h-.9244219v-1.6385625c0-.33403125-.2717812-.60576562-.6057656-.60576562h-4.85803127c-.33403125 0-.60576563.27178125-.60576563.60576562v1.6385625h-.924375zm6.2907656 1.63860938h-4.66321872v-1.54115625h4.66321872zm-8.3416406-.0001875h-3.10035937zm-3.45178125 16.7586562c-.78332812 0-1.42059375-.6373125-1.42059375-1.4206406v-13.21453123c0-.78309375.63726563-1.420125 1.42059375-1.420125h.63932813v16.05529683zm3.16359375 0h-.70321875-1.11778125v-16.05529683h1.11778125.70321875 14.3848305v16.05529683zm12.3083906-16.7586562h3.1003125z" stroke-width=".2" transform="translate(6 8)"/><path d="m12.9405664 1.08029688c-1.3781523-1.37809766-3.60043359-1.41635157-5.02517968-.08648829-.03007813.0282461-.05985547.0571211-.08933203.08659766-.00235156.00235156-.0030625.00555078-.00527735.00795703l-3.54189062 3.53940235c-.26703906.26679296-.34699219.66822656-.2025625 1.01696875.14442969.34874218.48475.57613281.86223047.57605078.01170312 0 .02324219-.00289844.03494531-.00333594l3.42723828 3.42745703.00013672.00010938.00054688.00082031c.18213671.18224609.18208203.47761326-.00010938.65980466s-.47755859.1822188-.65980469.0001094l-4.12480469-4.12480469c-.05895312-.05892578-.14483984-.08194922-.22536718-.060375-.08052735.02157422-.14339063.08446485-.16496485.16496485s.00144922.16641406.060375.22536718l4.12480469 4.12480466c.18164453.1823828.18134375.4774219-.00068359.6594493-.18202735.1820273-.47703907.1823281-.65944922.0006835l-5.36208203-5.36238277c-.02575781-.02575781-.05105078-.05195312-.07566016-.07817578-1.17233594-1.25644531-1.12136719-3.22060156.11454297-4.41453906 1.23591016-1.1939375 3.20066797-1.17706641 4.41585156.03795312.09110938.09110938.23884766.09110938.32995703 0 .09110938-.09110937.09110938-.23884765 0-.32995703-1.39480468-1.39485937-3.65003515-1.41476562-5.06923047-.04476172-1.41919531 1.37000391-1.47883203 3.62455078-.13403906 5.06767188.00257032.0028164.00339063.00650781.006125.00924219l5.44460547 5.44482417c.27403906.2763633.69125.3527344 1.04540625.1913516s.57028125-.5263398.54148828-.9144844c.02108203.0014219.04194532.0060157.06305469.0060157.25831641.0009296.50528516-.1060938.68126953-.2951758.17598438-.1891094.26498828-.4431055.24554688-.70068362.02108203.00142188.04191797.00601563.06305468.00601563.25839844.00098437.50544922-.10603907.68148829-.29517578.17603906-.18913672.26504292-.44326954.24551953-.70090235.02108199.00142188.04194529.00601563.06305469.00601563.448793.00071093.8341484-.31899219.9162891-.76021094l1.9748476-1.97484766.0644766-.06652734c.0011211-.00092969.0015859-.00248828.002707-.00347266.0057969-.00609765.0118399-.01203125.017582-.01818359 1.3297813-1.42480078 1.2914454-3.64705469-.086707-5.02515234zm-3.54910937 8.23555468c-.18251953.18172657-.47758594.18172657-.66010547 0l-.00013672-.00010937-.00054687-.00082031-3.26145313-3.26161719c.04615625-.03122657.08941407-.06652735.12922657-.10549219l.5431289-.54310156 3.24767188 3.24767187c.00098437.00101172.00125781.00237891.00224218.00339063.18205469.18232812.18205469.47769531-.00002734.66007812zm.99197657-.9902539c-.1815899.18273828-.47692969.18369531-.65969532.00210546l-.00139453-.00213281-3.25084375-3.25084375.65933984-.65933984 3.25002346 3.24980469.0004648.00068359c.1827383.18161719.1836953.47695703.0021055.65972266zm2.3029727-2.53889454c-.0063985.00686329-.0131797.01353516-.0196602.0203711l-1.7799141 1.78201953c-.0436132-.09280469-.1024023-.17767969-.1739336-.25115234l-.0011757-.00177735-3.25095317-3.25070703.44343359-.44343359c.42396485.429625.98535938.69663672 1.58615625.75446875.65553903.0080664 1.28233983-.26878907 1.71787113-.75878907.0908359-.09116406.0907265-.23865625-.0002735-.32965625s-.2384922-.09113671-.3296562-.00027343c-.3425625.394625-.839125.62174218-1.36171877.6227539-.814625-.03874609-1.42165625-.76357422-1.42734375-.77041015-.04169922-.05110547-.10311328-.08214063-.16898437-.08544922-.0658711-.0033086-.13007422.02146484-.17669532.06814062l-.7765625.77658985-.00133984.00090234-.00090234.00133984-.98757422.98757422-.0006836.00046485-.00046484.00068359-.70751953.70751953c-.18238281.18158985-.47736719.18120703-.65928516-.00084765-.18191797-.18205469-.18208203-.47701172-.00038281-.65928516l3.62676563-3.62430469c1.24132421-1.15705078 3.17614062-1.1228164 4.37573832.07746485 1.199625 1.2002539 1.2327929 3.13509765.0750586 4.37579296z" stroke-width=".3" transform="translate(10.666667 16)"/></g></svg>