<svg height="24" viewBox="0 0 24 24" width="24" xmlns="http://www.w3.org/2000/svg"><path d="m10 13c.5522847 0 1 .4477153 1 1s-.4477153 1-1 1c-.55228475 0-1-.4477153-1-1s.44771525-1 1-1zm0-8c.5522847 0 1 .44771525 1 1v4c0 .5522847-.4477153 1-1 1-.55228475 0-1-.4477153-1-1v-4c0-.55228475.44771525-1 1-1zm-.01-5c-5.52 0-9.99 4.48-9.99 10s4.47 10 9.99 10c5.53 0 10.01-4.48 10.01-10s-4.48-10-10.01-10zm.01 19c-4.9725 0-9-4.0275-9-9s4.0275-9 9-9 9 4.0275 9 9-4.0275 9-9 9z" fill="#ff3b30" transform="translate(2 2)"/></svg>