<svg height="48" viewBox="0 0 48 48" width="48" xmlns="http://www.w3.org/2000/svg"><g fill="none" fill-rule="evenodd"><path d="m0 0h48v48h-48z" fill="#fff"/><rect fill="#0cbcc5" height="48" rx="9" width="48"/><path d="m21.3608833 21.3046394-2.7842552-.9278463-.9998528-1.9993474c.9006199-.9163825 1.5257518-2.1293892 1.7367562-3.394341l.1246681-.7472924h1.0661276c.9690441 0 1.7575342-.7884901 1.7575342-1.7575342v-3.69060694c0-4.84557848-3.9420926-8.78767116-8.7876711-8.78767116-4.85775872 0-8.78731293 3.93098718-8.78731293 8.78767116v3.69060694c0 .7637715.48971653 1.4150551 1.17145066 1.6568683v.6867495c0 .9690441.78849018 1.757176 1.75753423 1.757176h.51443521c.25399343.5516924.5828594 1.0629034.98265724 1.5218111.08311209.0952923.16944837.1877187.25829233.2776374l-.99913636 1.9982727-2.78461345.9282045c-3.23743107 1.0793825-5.58749723 4.4876949-5.58749723 8.1041458 0 .3234924.26223299.5857254.58572533.5857254h25.77692987c.3234924 0 .5860836-.262233.5860836-.5857254 0-3.6164509-2.3500661-7.0247633-5.5878555-8.104504zm-.8565561-8.2402777h-.8941715c.1490286-1.1535386.2482616-2.3812332.2880264-3.59029927.001433-.03403297.0021495-.06699121.0032242-.10066594h1.1886462v3.10488161c0 .3231341-.2625912.5860836-.5857253.5860836zm-14.06027384 0c-.32277586 0-.58572533-.2629495-.58572533-.5860836v-3.10488161h1.18936275c.00179121.06125935.00394066.12251869.00609011.18449452 0 .00179121 0 .00394066.00035824.00609011v.00071649c.04083956 1.17574959.13899781 2.37120239.28444398 3.49930579h-.89452975zm.58608357 1.7575342v-.5860836h.480044l.12466814.7476507c.0240022.1418637.05301979.2833692.08705276.4241582h-.10603957c-.3231341 0-.58572533-.2629494-.58572533-.5857253zm.00107472-6.62030831h-1.15067263c.29698244-3.92633004 3.57346187-7.02977869 7.59365128-7.02977869 4.0022773 0 7.2934446 3.10309041 7.5936513 7.02977869h-1.1503144c-.0422726-3.23528163-2.6767827-5.85832803-5.9188709-5.85832803h-1.0485738c-3.24208818 0-5.87695656 2.6230464-5.91887085 5.85832803zm5.91887085-4.68651913h1.0485738c2.6251958 0 4.7495696 2.14694306 4.7481374 4.76927298 0 .18449453-.0014337.34498685-.0046579.49079126v.00573187l-.7326044-.10460661c-1.9907497-.28408574-3.8704443-1.2241122-5.2926643-2.64633212-.1099802-.10962198-.2590088-.17159781-.4141275-.17159781-1.5733979 0-3.07944642.71684182-4.07500036 1.92805732.24539563-2.38553209 2.26193866-4.27131689 4.72234326-4.27131689zm-4.013741 11.89255274c-.29340002-.9754924-.62871434-3.8464421-.70287039-5.68565545l.78849018-1.05143966c.72400666-.96546163 1.85067711-1.56515839 3.04899591-1.63394081 1.5769804 1.50067487 3.6171674 2.49192991 5.7727082 2.79965961l.8626463.12323517c-.057677 1.22339574-.1755385 2.45144854-.3442704 3.58062674-.0537363.3639736-.096367.5975473-.2041978 1.2502638-.3102374 1.8610661-1.6987826 3.5437278-3.5319059 4.0019191-.7544572.1884352-1.5490375.1884352-2.3031364 0-1.1445826-.285877-2.1938728-1.0779496-2.871308-2.2132178h1.1943781c.2418132.6820924.8930968 1.1718089 1.6568683 1.1718089h1.1714507c.9711935 0 1.7575342-.7863407 1.7575342-1.7575342 0-.9690441-.7884902-1.7575343-1.7575342-1.7575343h-1.1714507c-.7809671 0-1.4225781.5044045-1.657943 1.1718089zm8.5902799 5.489339c-.7358286 2.129031-2.7272947 5.2790511-4.0524311 7.4041414-1.3803056-2.216442-3.2771959-5.1615478-4.05207293-7.4041414l.69749673-1.3953518c3.2467454.7250814 3.2800619.8511825 6.6099194-.1984659zm-16.33152678 7.9264579c.23214068-2.902475 2.16378042-5.5402093 4.76282462-6.4071544l2.4661365-.8218067c1.05967922 2.9300596 2.41920686 4.6990576 3.99511246 7.2289611zm17.32923018-7.2289611 2.4661365.8218067c2.5994025.8669451 4.530684 3.5046794 4.7628247 6.4071544h-11.2240736c1.5759056-2.5299035 2.9354332-4.2985433 3.9951124-7.2289611z" fill="#fff" fill-rule="nonzero" stroke="#fff" stroke-width=".6" transform="translate(11 9)"/></g></svg>