<svg height="36" viewBox="0 0 36 36" width="36" xmlns="http://www.w3.org/2000/svg"><path d="m16.7302031.13729688c.1340156-.13396875.335625-.17418751.5108438-.10157813.175125.0725625.2893593.24351562.2893593.43307813v11.06250002h3.4693125c.2588907 0 .46875.2098125.46875.4687031v9.5625938c0 1.344-1.0934062 2.4374062-2.4374062 2.4374062h-16.59328125c-1.344 0-2.43756328-1.0934062-2.43756328-2.4374062v-21.0814688c-.00307735-.12539062.04365703-.251625.14003203-.34635937.18351563-.18028126.47775-.17934376.65967188.00257812l1.32782812 1.327875 1.327875-1.327875c.18309375-.18304688.47990625-.18304688.66295312 0l1.32778125 1.327875 1.327875-1.327875c.18304688-.18304688.47985938-.18304688.66290625 0l1.32792188 1.327875 1.327875-1.327875c.1830937-.18304688.4799062-.18304688.6629531 0l1.3277344 1.327875 1.327875-1.327875c.1830937-.18304688.4799062-.18304688.6629531 0l1.3278281 1.32782813zm-2.9869687.99435937-1.327875 1.327875c-.1830938.18304688-.4799063.18304688-.6629532 0l-1.327875-1.327875-1.32787495 1.327875c-.18304688.18304688-.47985938.18304688-.66290625 0l-1.32792188-1.327875-1.327875 1.327875c-.18309375.18304688-.47990625.18304688-.66295312 0l-1.327875-1.327875-1.327875 1.327875c-.18309375.18304688-.47990625.18304688-.66295313 0l-.85846874-.85846875v19.9614844c0 .8270625.67284374 1.4999531 1.49995312 1.4999531h14.67435935c-.3242344-.4139531-.5182969-.9345469-.5182969-1.4999531l-.0006562-19.96214065-.8591719.859125c-.183.18304688-.4798125.18304688-.6629062 0zm6.7877343 11.33709375h-2.9999062v9.0937969c0 .8270625.6728906 1.4999531 1.4999531 1.4999531s1.4999531-.6728906 1.4999531-1.4999531zm-6.8190937 6.3751406c.2588906 0 .46875.2098594.46875.46875 0 .2588907-.2098594.46875-.46875.46875h-7.42607812c-.25889063 0-.46875-.2098593-.46875-.46875 0-.2588906.20985937-.46875.46875-.46875zm-9.8930625 0c.12328125 0 .24421875.0501563.33140625.1373438s.13734375.208125.13734375.3314062c0 .1232813-.05015625.2442188-.13734375.3314063s-.208125.1373437-.33140625.1373437-.24421875-.0501562-.33140625-.1373437-.13734375-.208125-.13734375-.3314063c0-.1232812.05015625-.2442187.13734375-.3314062s.208125-.1373438.33140625-.1373438zm9.8930625-3.0936562c.2588906 0 .46875.2098594.46875.46875s-.2098594.46875-.46875.46875h-7.42607812c-.25889063 0-.46875-.2098594-.46875-.46875s.20985937-.46875.46875-.46875zm-9.8930625 0c.12328125 0 .24421875.0501562.33140625.1373437s.13734375.208125.13734375.3314063c0 .1232812-.05015625.2442187-.13734375.3314062s-.208125.1373438-.33140625.1373438-.24421875-.0501563-.33140625-.1373438-.13734375-.208125-.13734375-.3314062c0-.1232813.05015625-.2442188.13734375-.3314063s.208125-.1373437.33140625-.1373437zm9.8930625-3.0936563c.2588906 0 .46875.2098594.46875.46875 0 .2588907-.2098594.46875-.46875.46875h-7.42607812c-.25889063 0-.46875-.2098593-.46875-.46875 0-.2588906.20985937-.46875.46875-.46875zm-9.8930625 0c.12328125 0 .24421875.0501563.33140625.1373438s.13734375.208125.13734375.3314062c0 .1232813-.05015625.2442188-.13734375.3314063s-.208125.1373437-.33140625.1373437-.24421875-.0501562-.33140625-.1373437-.13734375-.208125-.13734375-.3314063c0-.1232812.05015625-.2442187.13734375-.3314062s.208125-.1373438.33140625-.1373438zm4.94657812-8.32003122c.25889063 0 .46875.20985937.46875.46875v.31753125c.75539063.19228125 1.31245308.837 1.31245308 1.60110937 0 .25889063-.2098593.46875-.46875.46875-.25889058 0-.46874995-.20985937-.46874995-.46875 0-.39834375-.37846875-.7224375-.84370313-.7224375-.4651875 0-.84370312.32409375-.84370312.7224375 0 .39829688.37846875.72239063.84370312.72239063.982125 0 1.78120308.74465625 1.78120308 1.65989062 0 .76410938-.55701558 1.40882815-1.31245308 1.60110935v.3825c0 .2588907-.20985937.46875-.46875.46875-.25889062 0-.46875-.2098593-.46875-.46875v-.3825c-.75539062-.1922812-1.31245312-.83699997-1.31245312-1.60110935 0-.25889062.20985937-.46875.46875-.46875.25889062 0 .46875.20985938.46875.46875 0 .39829688.37846875.72239063.84370312.72239063.46523438 0 .84370313-.32404688.84370313-.72239063s-.37846875-.7224375-.84370313-.7224375c-.982125 0-1.78120312-.74460937-1.78120312-1.65984375 0-.7640625.55701562-1.40882812 1.31245312-1.60110937v-.31753125c0-.25889063.20985938-.46875.46875-.46875zm4.70934378 3.10982812c.2588906 0 .46875.20985938.46875.46875 0 .25889063-.2098594.46875-.46875.46875h-.9135938c-.2588906 0-.46875-.20985937-.46875-.46875 0-.25889062.2098594-.46875.46875-.46875zm-8.5050469 0c.25889062 0 .46875.20985938.46875.46875 0 .25889063-.20985938.46875-.46875.46875h-.91359375c-.25889063 0-.46875-.20985937-.46875-.46875 0-.25889062.20985937-.46875.46875-.46875z" fill="#0cbcc5" stroke="#0cbcc5" stroke-width=".1" transform="translate(7 6)"/></svg>