<svg height="36" viewBox="0 0 36 36" width="36" xmlns="http://www.w3.org/2000/svg"><path d="m15.9083906 0c.6358594 0 1.1564063.52045312 1.1563594 1.15664062v2.0240625h2.0241094c.6361406 0 1.1566875.5205 1.1566875 1.15673438l-.0005625 13.8795c0 .6361406-.3787969 1.5134531-.8422969 1.9492031l-3.2310469 3.0413438c-.4629375.43575-1.3627968.7925625-1.9986562.7925625h-9.8310469c-.63642187 0-1.15664062-.5205-1.15664062-1.1566407v-2.0241093h-2.02410938c-.6361875 0-1.15664063-.5205-1.15664063-1.1566407v-18.50601558c0-.6361875.52045313-1.15664062 1.15659376-1.15664062zm3.1804219 4.04821875h-14.74696875c-.15698437 0-.289125.13242187-.289125.289125v18.50601565c0 .1567031.13209375.289125.289125.289125h9.83104685c.0864375 0 .1859063-.0141563.289125-.0350157v-3.001125c.0017813-.8775937.7128282-1.5886406 1.590375-1.590375h3.2857032c.0236718-.1037812.0393281-.20325.0393281-.289125l.0005156-13.87949995c0-.15670313-.1324219-.289125-.289125-.289125zm-.1433437 15.32531245h-2.8930313c-.1986562 0-.3773437.0803438-.5106562.2124844-.1321407.1329844-.21225.3117188-.21225.510375v2.6605313c.0951562-.0580782.1813593-.1190625.2475468-.1812657l3.2310469-3.0411093c.0465469-.0439688.0924844-.1000782.1373438-.1610157zm-3.0370313-18.50601557h-14.74729687c-.15670313 0-.289125.13242187-.289125.28912499v18.50606248c0 .1567031.13242187.289125.289125.289125h2.0240625v-15.61443748c0-.6361875.52021875-1.15664062 1.15664062-1.15664062h11.85571875v-2.02410938c0-.15670312-.1327031-.28912499-.289125-.28912499zm-3.7590469 15.03609377c.2394375 0 .4334532.1940156.4334532.4337343 0 .2397188-.1940157.4337344-.4334532.4337344h-4.62646872c-.23971875 0-.43373438-.1940156-.43373438-.4337344 0-.2397187.19401563-.4337343.43373438-.4337343zm3.759-2.8915782c.2394375 0 .4337344.1939688.4337344.4337344 0 .2397188-.1942969.4337344-.4337344.4337344h-8.3855156c-.23967187 0-.43373437-.1940156-.43373437-.4337344 0-.2397187.19401562-.4337344.43373437-.4337344zm0-2.8915781c.2394375 0 .4337344.1940156.4337344.4337344 0 .2397187-.1942969.4337344-.4337344.4337344h-8.3855156c-.23967187 0-.43373437-.1940157-.43373437-.4337344 0-.2397188.19401562-.4337344.43373437-.4337344zm0-2.8915781c.2394375 0 .4337344.19401562.4337344.43373437s-.1942969.43373438-.4337344.43373438h-8.3855156c-.23967187 0-.43373437-.19401563-.43373437-.43373438s.19401562-.43373437.43373437-.43373437z" fill="#0cbcc5" stroke="#0cbcc5" stroke-width=".2" transform="translate(8 6)"/></svg>