<svg height="48" viewBox="0 0 48 48" width="48" xmlns="http://www.w3.org/2000/svg"><g fill="none" fill-rule="evenodd"><rect fill="#0cbcc5" height="48" rx="9" width="48"/><path d="m12.7265347 0c2.0336701 0 3.7966984 1.44707507 4.2148066 3.41034759l4.5301934 1.05980092c.1309901.03059406.2443069.11183169.315297.22633664.0709901.1140594.0935643.25188119.0626733.38272277l-.3534512 1.50979208.8621145.00090099c.1485149 0 .2878507.06476898.3831133.17479717l.0515897.07129194 1.5139698 2.52326748c.0458208.07170779.0741522.15583897.078852.2465345l-.010394-.07751996c.0026083.01255734.0047355.02519336.0063813.03787957l.0040127.03964039.8208466 16.09948942c.0034587.0678379.005189.1357529.005189.2036789 0 2.209139-1.790861 4-4 4h-16.97437744c-.06829243 0-.13657367-.001749-.20477655-.0052451-2.2062422-.113095-3.90307329-1.9932893-3.78997833-4.1995315l.8252254-16.09839172c.00069535-.01342608.00190799-.02670774.00361805-.03982604.00152796-.01270861.00372165-.02568078.0064226-.03857095.00269862-.01225684.00563757-.02407832.00898031-.03572377.01169839-.04146603.02927659-.0823782.05241469-.12097825l1.52079207-2.53470297c.09148515-.15282178.25648515-.24608911.43470298-.24608911l.36330135-.00090099-.41082611-3.47969307c-.02917491-.24726073.12459113-.47375137.35427943-.54418612l.08948295-.01883368 5.69586432-.67356775c.01503582-.03575257.03444523-.07033599.0583436-.10301641.80925738-1.10836634 2.11084158-1.76970297 3.48133668-1.76970297zm10.670792 10.1386634h-21.34173264l-.80019393 15.6027315c-.0026246.0511762-.00393754.1024112-.00393754.1536546 0 1.6568543 1.34314575 3 3 3h16.94999561c.0512434 0 .1024784-.0013129.1536546-.0039375 1.6546796-.0848611 2.9272689-1.4950375 2.8424079-3.1497171zm-6.8688118 1.0137623c.8386633 0 1.520792.6821288 1.520792 1.5207921 0 .6596894-.4220558 1.2225255-1.0103644 1.4327053l.0023281.0272086v2.7880693c0 2.3759406-1.9329208 4.3088614-4.3088614 4.3088614s-4.30886139-1.9329208-4.30886139-4.3088614v-2.7880693c0-.0085409.00021158-.0170328.0006298-.0254705-.59313861-.2049808-1.02041523-.7706864-1.02041523-1.4344434 0-.8386633.68212871-1.5207921 1.52079208-1.5207921.83866336 0 1.52079204.6821288 1.52079204 1.5207921 0 .6596894-.4220558 1.2225255-1.01036441 1.4327053l.00232809.0272086v2.7879208c0 1.8169307 1.47816832 3.295099 3.29509902 3.295099s3.295099-1.4783168 3.295099-3.295099v-2.5926237c-.025396-.0601486-.0390594-.1262377-.0390594-.1954456 0-.0126406.0004635-.0251736.0013743-.037583-.5728578-.2168986-.9821003-.7725841-.9821003-1.4221824 0-.8386633.6821287-1.5207921 1.5207921-1.5207921zm0 1.0140594c-.279505 0-.5068812.2273763-.5068812.5068812 0 .279505.2272277.5068812.5068812.5068812.2795049 0 .5068811-.2273762.5068811-.5068812 0-.2795049-.2273762-.5068812-.5068811-.5068812zm-7.60396044 0c-.27950496 0-.50688119.2273763-.50688119.5068812 0 .279505.22737623.5068812.50688119.5068812.27950495 0 .50688118-.2273762.50688118-.5068812 0-.2795049-.22737623-.5068812-.50688118-.5068812zm-5.34650063-4.5634851-.19637066.00066337-.91247525 1.52079208 1.28884591-.00045545zm18.49318377.00066337-.8121838-.00066337-.356 1.521 2.0806591.00045545zm-10.4857426-4.99336634-7.47193064.88306931.66548947 5.63063366h2.467l-.4007073-1.6679604c-.0580858-.24198019.06782545-.48525119.28771707-.58221896l.08668888-.02921668 4.73130132-1.13860396zm3.544604 3.37485148-7.18069306 1.72663367.33864789 1.41221782h7.59599997zm-.3063861-2.02871287-.2636591 1.12256436.8260848-.19835644c.0985767-.02339108.2004951-.01695854.2936.01710474l.0897168.04319229c.114505.07024753.1966337.18326733.2281189.31381189l.9294795 3.86924752h2.935l.8848769-3.78206931zm-2.0973268-2.94252475c-.7274329 0-1.4294676.24382343-1.9980508.67640088l1.2413677-.14620286c.1341089-.01574257.2676237.02227723.3733663.10544555.1057426.08316831.1739109.20509901.1896535.33861386l.411331 3.47883168.513-.123.4948769-2.1120198c.0244752-.10479208.0814574-.19827327.1616697-.26782099l.0643699-.04747604c.1143564-.07069307.2521782-.09356436.3830198-.06282178l1.2485109.29155298c-.4757892-1.25315662-1.6971272-2.13150348-3.0831149-2.13150348z" fill="#fff" fill-rule="nonzero" stroke="#fff" stroke-width=".3" transform="translate(11 9)"/></g></svg>