<svg height="48" viewBox="0 0 48 48" width="48" xmlns="http://www.w3.org/2000/svg"><g fill="none" fill-rule="evenodd"><rect fill="#0cbcc5" height="48" rx="9" width="48"/><path d="m28.1514844 13.1514844c1.0192968 0 1.8485156.8292187 1.8485156 1.8485156v13.1514844c0 1.0192969-.8292188 1.8485156-1.8485156 1.8485156h-13.1514844c-1.0192969 0-1.8485156-.8292187-1.8485156-1.8485156v-13.1514844c0-1.0192969.8292187-1.8485156 1.8485156-1.8485156zm0 .8789062h-13.1514844c-.534668 0-.9696094.4349414-.9696094.9696094v13.1514844c0 .5346679.4349414.9696094.9696094.9696094h13.1514844c.5346679 0 .9696093-.4349415.9696093-.9696094v-13.1514844c0-.534668-.4349414-.9696094-.9696093-.9696094zm-6.5612696 2.8785938c.256875 0 .485918.153457.5836524.3910547.0016406.0039843.0032226.0079687.0046875.0118945l3.1457812 8.3357812c.0857227.2270508-.0289453.4806446-.2559961.5663086-.2271679.0857227-.4805859-.0289453-.5663086-.2559961l-.6761718-1.7916796h-4.4941992l-.6828516 1.7929101c-.0667383.1753711-.2336719.2831966-.4107422.2831966-.0519727 0-.1048242-.0092708-.1563281-.0288997-.2268164-.0863672-.3406055-.3402539-.2542383-.5670703l3.174668-8.3354297.0039257-.0099024c.0973243-.2380078.3263672-.3919335.5834766-.3921679zm-15.98414058.9396679c.24269531 0 .43945312.1967579.43945312.4394532v2.8179492c0 1.5706055 1.27775391 2.848418 2.84841797 2.848418h1.49982419l-.82406247-.6180469c-.19412109-.1456055-.23349609-.4211133-.08789062-.6152344.14560546-.1941211.42111328-.2334961.61523439-.0878906l1.87875 1.4090625c.1106836.0829687.1757812.2132226.1757812.3515625 0 .1383398-.0650976.2685351-.1757812.3515625l-1.87875 1.4090625c-.079043.0592383-.17156252.0878906-.26332033.0878906-.13359375 0-.26554688-.0606445-.35191406-.1757812-.14560547-.1941211-.10623047-.4696289.08789062-.6152344l.82406247-.6180469h-1.49982419c-2.05523437 0-3.72732422-1.6720312-3.72732422-3.7273242v-2.8179492c0-.2426953.19675782-.4394532.43945313-.4394532zm15.98302738.3907032-1.9226368 5.0482031h3.8277539zm-6.5891016-18.2393555c1.0192969 0 1.8485156.82921875 1.8485156 1.84851563v9.86355467c0 .2426953-.1967578.4394531-.4394531.4394531s-.4394531-.1967578-.4394531-.4394531v-9.86355467c0-.53466797-.4349414-.96960938-.9696094-.96960938h-13.15148438c-.53466796 0-.96960937.43494141-.96960937.96960938v13.15148437c0 .534668.43494141.9696094.96960937.9696094h9.86355468c.2426953 0 .4394531.1967578.4394531.4394531s-.1967578.4394531-.4394531.4394531h-9.86355468c-1.01929687 0-1.84851562-.8292187-1.84851562-1.8485156v-13.15148437c0-1.01929688.82921875-1.84851563 1.84851562-1.84851563zm-6.57574219 3.75755859c.24269531 0 .43945313.19675782.43945313.43945313v.49992187h3.78779296c.2427539 0 .4394531.19669922.4394531.43939454 0 .24269531-.1967578.43945312-.4394531.43945312h-1.0657617c-.1317774.47548828-.4298438 1.38621094-1.0132031 2.46960938-.3605274.66949218-.86718754 1.46695312-1.55794926 2.28011717.66837891.692461 1.47679686 1.3628906 2.45390626 1.9491211.2080664.1248633.2755664.3948047.1507031.6029297-.0823828.1373437-.2279297.2133984-.3772265.2133984-.0769336 0-.1549219-.0202148-.2257032-.0626953-1.02978513-.6178711-1.88472653-1.3226367-2.59429684-2.0511914-.70166016.7209375-1.55578125 1.4307422-2.58984375 2.0511914-.07078125.0424805-.14876954.0626953-.22570313.0626953-.14929687 0-.29484375-.0760547-.37722656-.2133984-.12492188-.208125-.05742188-.4780664.15070312-.6029297.97541016-.585293 1.78306641-1.2561914 2.45003907-1.948125-.935625-1.10261718-1.56298829-2.21718749-1.974375-3.13353515-.099375-.22142578-.00046875-.48146484.22095703-.58089844.22154297-.099375.48146484-.00041015.58089843.22095703.37242188.82951172.9346875 1.83310547 1.76472657 2.83142579 1.35914062-1.63628907 1.99324216-3.2756836 2.24630856-4.08861329h-6.47144528c-.24269531 0-.43945313-.19675781-.43945313-.43945312s.19675782-.43945313.43945313-.43945313h3.78779297v-.49992187c0-.24269531.19675781-.43945313.43945312-.43945313zm11.47869139.08789063c.1941797-.14560547.4695703-.10628906.6152344.08789062.1456055.1941211.1062305.46962891-.0878906.61523438l-.8240625.61804687h1.4998242c2.0552344 0 3.7273242 1.67203125 3.7273242 3.72732422v2.81794919c0 .2426953-.1967578.4394532-.4394531.4394532s-.4394531-.1967579-.4394531-.4394532v-2.81794919c0-1.57060547-1.277754-2.84841797-2.848418-2.84841797h-1.4998242l.8240625.61804688c.1941211.14560547.2334961.42111328.0878906.61523437-.0863086.11507813-.2183203.17578125-.3519141.17578125-.0917578 0-.1842773-.02859375-.2633203-.08789062l-1.87875-1.4090625c-.1106836-.08296875-.1757812-.21322266-.1757812-.3515625s.0650976-.26853516.1757812-.3515625z" fill="#fff" fill-rule="nonzero" stroke="#fff" stroke-width=".6" transform="translate(9 9)"/></g></svg>