<svg height="36" viewBox="0 0 36 36" width="36" xmlns="http://www.w3.org/2000/svg"><path d="m12 0-.4734374.01875-.46875.05625-.4640626.09140626-.4546874.12656248-.4453126.16406252-.42890628.196875-.4125.22968748-.39375.2625-.37265628.29062498-.34687488.32109384-.32109384.34687488-.29296872.36796884-.2625.39140628-.23203128.4125-.19921872.42656244-.16171872.44296872-.12890628.45468756-.09375.46171872-.05390628.46875-.01875.46875.01875.73593744.05156256.73359384.09140616.72890616.12656256.72421884.16171872.71718744.196875.71015628.22968756.6960937.26484372.6867189.3.670313.33046872.6585936.22031256.3703116.25078116.3492192.075.1171872.04453128.1289064.01171872.138282-.01875.1382808-.05156244.1265628-.075.1148436-.103125.0914064-.121875.067968-.13125.0398436-.86484372.1593756-.85546872.1875-.85078128.2156244-.84140628.2460948-.83203128.2765616-.82265628.3046872-.33515616.15-.31640628.1828128-.29765628.2156256-.27421872.2414064-.24609372.2695308-.21796878.2906244-.1875.3140628-.15703124.3304692-.21328126.5648436-.18046874.5742192-.14765626.5835936-.11484375.5906244-.08203125.5953128-.009375.2460936.0234375.2414064.05625.2367192.08671876.2273436.11718748.2132808.14296876.1968756.1734375.1734372.18984374.15.21328126.1218744.225.0960948.23671872.0585936 1.38984372.2507808 1.39687512.2132808 1.40156244.1781256 1.40625.142968 1.40859372.1078128 1.41328128.0726564 1.4132813.0351564h1.4109379l1.4132808-.0351564 1.4132808-.0726564 1.4085948-.1078128 1.4062488-.142968 1.4015628-.1781256 1.394532-.2132808 1.3921872-.2507808.236718-.0585936.225-.0960948.2109384-.1218744.1921872-.15.1710936-.1734372.1453128-.1968756.1171872-.2132808.0867192-.2273436.05625-.2367192.0234372-.2414064-.0093744-.2460936-.082032-.5953128-.1148436-.5906244-.1476564-.5835936-.180468-.5742192-.213282-.5648436-.1546872-.3304692-.1898436-.3140628-.2179692-.2906244-.2460936-.2695308-.2742192-.2414064-.2976564-.2156256-.3164052-.1828128-.3351564-.15-.8226564-.3046872-.8320308-.2765616-.8414064-.2460948-.8484384-.2156244-.855468-.1875-.8648436-.1593756-.1335948-.0398436-.1218744-.067968-.1007808-.0914064-.0773448-.1148436-.049218-.1265628-.0210936-.1382808.0140628-.138282.0445308-.1289064.0726564-.1171872.2531244-.3492192.2203128-.3703116.3304692-.6585936.2976552-.670313.2648448-.6867189.2320308-.6960937.1968756-.71015628.161718-.71718744.1242192-.72421884.0914064-.72890616.0539052-.73359384.0164064-.73593744-.0164064-.46875-.0562488-.46875-.0937512-.46171872-.1265616-.45468756-.1640628-.44296872-.1992192-.42656244-.2296872-.4125-.2625-.39140628-.2953128-.36796884-.31875-.34687488-.3468744-.32109384-.3726564-.29062498-.39375-.2625-.4148436-.22968748-.4289064-.196875-.4429692-.16406252-.4546872-.12656248-.4664064-.09140626-.46875-.05625zm-.0023437 1.2.4218745.01875.4171884.05625.4101552.08906256.400782.12656244.3890628.159375.375.19453128.3539064.225.3328116.253125.3117192.28359372.28125.309375.2578128.33281244.2273436.35156256.1921872.37265628.1617192.38671872.1265616.40078128.0914064.40781244.0539064.41484384.01875.41953116-.0164064.675-.049218.675-.0843756.67031256-.1171872.665625-.1476564.66093744-.1804692.65156258-.2109372.6421874-.2460936.6304687-.2742192.61875-.3046872.604687-.1640628.2765628-.1898436.2625-.1523436.2203128-.1125.2414064-.0796872.2554692-.0421872.2625v.2671872l.0398436.2625.0773436.255468.1148436.2414064.15.2203128.1781244.1968744.2085948.1687512.2320308.1359372.2484372.1007808.2578128.063282.8226564.1523436.8156244.1781244.8085948.20625.8015616.2343756.7921872.2625.7851564.2906244.2531256.1148436.2390628.1453128.2203116.1710936.1992192.194532.1734372.2156244.1476564.2390628.1195308.2484372.1898448.5015628.161718.5109372.13125.5203128.100782.5226564.0726564.5320308-.0023448.1476564-.0375.1453128-.075.1265616-.1007808.1101564-.1265628.0773436-.142968.0468756-1.3593756.24375-1.3664064.2085936-1.3710936.1757808-1.3757808.1406256-1.3781256.1031244-1.3828128.0703128-1.380468.0351564h-1.3851564l-1.38046872-.0351564-1.38046872-.0703128-1.37812512-.1031244-1.37812488-.1406256-1.36875-.1757808-1.36875-.2085936-1.35937512-.24375-.14062488-.0468756-.12890628-.0773436-.10078128-.1101564-.07265628-.1265616-.03984372-.1453128-.00234372-.1476564.075-.5320308.10078128-.5226564.13125-.5203128.15937488-.5109372.18984384-.5015628.121875-.2484372.14765628-.2390628.17343744-.2156244.19921872-.194532.22031256-.1710936.23906244-.1453128.253125-.1148436.78281256-.2906244.79218744-.2625.80156256-.2343756.81093744-.20625.815625-.1781244.82031256-.1523436.26015628-.063282.24843744-.1007808.23203128-.1359372.20625-.1687512.178125-.1968744.15234372-.2203128.1125-.2414064.07734372-.255468.03984372-.2625v-.2671872l-.04218744-.2625-.07734372-.2554692-.11484372-.2414064-.15-.2203128-.18984384-.2625-.16406244-.2765628-.30703128-.604687-.27421872-.61875-.24375-.6304687-.21093756-.6421874-.18046872-.65156258-.15-.66093744-.11484372-.665625-.084375-.67031256-.04921872-.675-.01875-.675.02109372-.41953116.05390628-.41484384.09140616-.40781244.12656256-.40078128.16171872-.38671872.19218744-.37265628.22734384-.35156256.25546872-.33281244.28359372-.309375.31171884-.28359372.33281244-.253125.35390628-.225.37265616-.19453128.38906256-.159375.4007813-.12656244.4125-.08906256.4171874-.05625z" fill="#0cbcc5" transform="translate(6 6)"/></svg>