<svg height="36" viewBox="0 0 36 36" width="36" xmlns="http://www.w3.org/2000/svg"><g fill="#fa0020" transform="translate(7 7)"><path d="m9.81698729 20.7042373h-5.72838983c-1.55677966 0-2.81991526-1.2677966-2.81991526-2.8199153v-13.80593217c0-1.55677966 1.26779661-2.81991525 2.81991526-2.81991525h5.82161017c.34957627 0 .62923727-.27966102.62923727-.62923729s-.279661-.62923729-.62923727-.62923729h-5.82161017c-2.25127119 0-4.07838983 1.83177966-4.07838983 4.07838983v13.80593217c0 2.2512712 1.83177966 4.0783899 4.07838983 4.0783899h5.72838983c.34957631 0 .62923731-.2796611.62923731-.6292373 0-.3495763-.2843221-.6292373-.62923731-.6292373z"/><path d="m20.183089 10.5385593-3.9991526-3.99915252c-.2470339-.2470339-.6432203-.2470339-.8902542 0s-.2470339.64322034 0 .89025424l2.9271186 2.92711868h-12.76652538c-.34957627 0-.62923728.279661-.62923728.6292372 0 .3495763.27966101.6292373.62923728.6292373h12.76652538l-2.9271186 2.9271187c-.2470339.2470339-.2470339.6432203 0 .8902542.1211864.1211865.284322.1864407.4427966.1864407s.3216102-.0605932.4427966-.1864407l3.9991526-3.9991525c.2516949-.2516949.2516949-.6525424.004661-.8949153z"/></g></svg>