<svg height="36" viewBox="0 0 36 36" width="36" xmlns="http://www.w3.org/2000/svg"><path d="m10.4 0c1.9869464.00308362 3.5969164 1.61305358 3.599997 3.6v4.492l1.756003.74c.1483022.06199582.2446201.2072622.243997.368v5.452c-.0002761 1.4794274-.6300771 2.8888435-1.731997 3.876l-6 5.372c-.15380391.1332988-.38219609.1332988-.536 0l-6-5.372c-1.10191991-.9871565-1.73172089-2.3965726-1.73200298-3.876v-5.452c-.00061715-.1607378.09570078-.30600418.24400298-.368l1.75599702-.74v-4.492c.0030866-1.98694642 1.61305656-3.59691638 3.60000298-3.6zm-2.4 6.432-7.2 3.032v5.188c.0005213 1.2523681.53440409 2.4452397 1.468 3.28l5.732 5.132 5.732-5.132c.9335959-.8347603 1.4674787-2.0276319 1.468-3.28v-5.188zm0 3.168c1.3254834 0 2.4000021 1.0745166 2.4000021 2.4.0008956.6804806-.2904529 1.3285853-.80000417 1.7796v3.8204c0 .8836556-.71634233 1.6-1.59999793 1.6s-1.6-.7163444-1.6-1.6v-3.8204c-.50954921-.4510147-.80089772-1.0991194-.80000207-1.7796 0-1.3254834 1.07451867-2.4 2.40000207-2.4zm0 .8c-.8836556 0-1.6.7163444-1.6 1.6.00049935.5010531.23779848.9723884.64 1.2712.10072234.0755418.16.1940971.16.32v4.0088c0 .4418278.3581722.8.8.8s.8-.3581722.8-.8v-4.008c0-.1259029.05927766-.2444582.16-.32.40242738-.2989797.63975345-.7706652.64-1.272 0-.8836556-.7163444-1.6-1.6-1.6zm2.4-9.6h-4.8c-1.54566626.00176345-2.79823655 1.25433374-2.8 2.8v4.156l.8-.336v-3.82c0-1.1045695.8954305-2 2-2h4.8c1.1045695 0 2 .8954305 2 2v3.82l.8.336v-4.156c-.0017635-1.54566626-1.2543337-2.79823655-2.8-2.8zm0 1.6h-4.8c-.66192112.00197688-1.19802312.53807888-1.2 1.2v3.48l3.444-1.448c.09934543-.04400341.21265457-.04400341.312 0l3.444 1.448v-3.48c-.0019769-.66192112-.5380789-1.19802312-1.2-1.2z" fill="#0cbcc5" stroke="#0cbcc5" stroke-width=".3" transform="translate(10 6)"/></svg>