<svg height="48" viewBox="0 0 48 48" width="48" xmlns="http://www.w3.org/2000/svg"><g fill="none" fill-rule="evenodd"><rect fill="#0cbcc5" height="48" rx="9" width="48"/><g stroke="#fff" transform="translate(9 10)"><path d="m9.54883175 18.3063738c-5.58908696.6543405-9.54883175 2.2852562-9.54883175 4.1936262 0 2.4852814 6.71572875 4.5 15 4.5 8.2842712 0 15-2.0147186 15-4.5 0-1.9304086-4.0517302-3.5769176-9.7431149-4.2159041" stroke-linejoin="round" stroke-width="1.5"/><circle cx="20" cy="26" fill="#fff" r="1.5"/><circle cx="3" cy="20" fill="#fff" r="1.5"/><g stroke-width="1.5"><path d="m15 9.75c1.4497475 0 2.7622475.5876263 3.7123106 1.5376894s1.5376894 2.2625631 1.5376894 3.7123106v6c0 .345178-.139911.657678-.3661165.8838835s-.5387055.3661165-.8838835.3661165h-8c-.345178 0-.657678-.139911-.8838835-.3661165-.22620548-.2262055-.3661165-.5387055-.3661165-.8838835v-6c0-1.4497475.5876263-2.7622475 1.5376894-3.7123106s2.2625631-1.5376894 3.7123106-1.5376894z"/><circle cx="15" cy="5" r="4.25"/></g></g></g></svg>