<svg height="48" viewBox="0 0 48 48" width="48" xmlns="http://www.w3.org/2000/svg"><g fill="none" fill-rule="evenodd"><rect fill="#0cbcc5" height="48" rx="9" width="48"/><path d="m24.7517544.00040936c.4844444 0 .877193.39280701.877193.87725146v.29239766h.5095906c1.2037427 0 2.3098246.55111111 3.0346784 1.51210526.7248538.96093568.9509941 2.17590644.6202924 3.33321638l-2.3281872 8.14865498c-.4260818 1.4912281-1.305731 2.7730994-2.5438596 3.7070175-.2653216.2001755-.5421053.3788304-.8276024.5380117l-2.558421 6.0384796v.6330994c0 2.6805263-2.1807602 4.8612865-4.8612866 4.8612865-2.6805263 0-4.8612865-2.1807602-4.8612865-4.8612865v-6.0159065c0-1.805731-1.4691228-3.2748538-3.2748538-3.2748538s-3.27485381 1.4691228-3.27485381 3.2748538v2.0765497c1.99953217.4075439 3.50877193 2.1796492 3.50877193 4.2977193 0 2.4184211-1.96754386 4.385965-4.38596491 4.385965s-4.38596491-1.9675439-4.38596491-4.385965c0-2.1181286 1.50923977-3.8902339 3.50877193-4.2977193v-2.0765497c0-2.7730994 2.25614035-5.0292397 5.02923977-5.0292397 2.7730994 0 5.0292398 2.2561403 5.0292398 5.0292397v6.0159065c0 1.7131579 1.3937427 3.1069006 3.1069005 3.1069006 1.7131579 0 3.1069006-1.3937427 3.1069006-3.1069006v-.6330994l-2.5583625-6.0384796c-.2854971-.1591813-.5622807-.3378362-.8276609-.5380117-1.2381286-.9339766-2.1177777-2.2157894-2.5438596-3.7070175l-2.3281871-8.14865498c-.3307018-1.15736842-.1046784-2.3722807.6202339-3.33327486.7248538-.96093567 1.8309941-1.51210526 3.0346783-1.51210526h.5095322v-.29239766c0-.48444444.3927485-.87719298.877193-.87719298.4844444 0 .877193.39274854.877193.87719298v2.33918129c0 .48444444-.3927486.87719298-.877193.87719298-.4844445 0-.877193-.39274854-.877193-.87719298v-.29239767h-.5095322c-.6481286 0-1.2437427.29672515-1.6340351.81421053-.3902923.5174269-.5120467 1.17163743-.3339766 1.7948538l2.3281287 8.14871341c.6497076 2.2739182 2.7552047 3.8621053 5.1201754 3.8621053 2.3649708 0 4.4704679-1.5881286 5.1201755-3.8621053l2.3281871-8.14865493c.1780702-.62321637.0563158-1.2774269-.3339766-1.7948538s-.9859064-.81421053-1.6340351-.81421053h-.5095906v.29239767c0 .48444444-.3927486.87719298-.877193.87719298-.4844445 0-.877193-.39274854-.877193-.87719298v-2.33918129c0-.48444445.3927485-.87725146.877193-.87725146zm-20.36578949 23.43859644c-1.1045695 0-2 .8954305-2 2s.8954305 2 2 2 2-.8954305 2-2-.8954305-2-2-2zm17.46836259-4.2411695c-.3916374.0663742-.7911111.1008187-1.1960234.1008187s-.8044445-.0344445-1.1960819-.1008187l1.1960234 2.8229824z" fill="#fff" fill-rule="nonzero" transform="matrix(-1 0 0 1 39 9)"/></g></svg>