<svg height="24" viewBox="0 0 24 24" width="24" xmlns="http://www.w3.org/2000/svg"><g fill="none" fill-rule="evenodd" transform="translate(4 4)"><path d="m0 0h16v16h-16z"/><path d="m8 3c-3.33333333 0-6.18 2.07333333-7.33333333 5 1.15333333 2.9266667 4 5 7.33333333 5 3.3333333 0 6.18-2.0733333 7.3333333-5-1.1533333-2.92666667-4-5-7.3333333-5zm0 8.3333333c-1.84 0-3.33333333-1.4933333-3.33333333-3.3333333s1.49333333-3.33333333 3.33333333-3.33333333 3.3333333 1.49333333 3.3333333 3.33333333-1.4933333 3.3333333-3.3333333 3.3333333zm0-5.3333333c-1.10666667 0-2 .89333333-2 2s.89333333 2 2 2 2-.89333333 2-2-.89333333-2-2-2z" fill="#748993" fill-rule="nonzero"/></g></svg>