<svg height="36" viewBox="0 0 36 36" width="36" xmlns="http://www.w3.org/2000/svg"><path d="m11.4899838.25991015c-.3554789-.34650853-.922451-.34650853-1.2779299 0l-9.94144833 9.93449055v12.8805032c0 .5081473.41188859.9200359.92003594.9200359h6.44025157c.50814735 0 .92003594-.4118886.92003594-.9200359v-7.3602875h4.60017968v7.3602875c0 .5081473.4118886.9200359.920036.9200359h6.4402515c.5081474 0 .920036-.4118886.920036-.9200359v-12.8805032zm9.0214124 10.17150375v12.64349h-6.4402515v-7.3602875c0-.5081474-.4118886-.920036-.920036-.920036h-4.60017968c-.50814735 0-.92003594.4118886-.92003594.920036v7.3602875h-6.44025157v-12.64349l9.66037739-9.50953789z" fill="#0cbcc5" stroke="#0cbcc5" stroke-width=".4" transform="translate(7 6)"/></svg>