<svg height="163" viewBox="0 0 230 163" width="230" xmlns="http://www.w3.org/2000/svg" xmlns:xlink="http://www.w3.org/1999/xlink"><mask id="a" fill="#fff"><path d="m.44571317.25839936h136.09989583v150.71013864h-136.09989583z" fill="#fff" fill-rule="evenodd"/></mask><g fill="none" fill-rule="evenodd"><path d="m-73-291h375v812h-375z" fill="#fff"/><path d="m-73-291h375v812h-375z" fill="#fff"/><g opacity=".357189"><path d="m194.183363 150.968343c12.306582 0 19.756489-12.616025 12.523371-21.599797-.151801-.189357-.308937-.376286-.471408-.560302-4.423095-5.019415-11.135335-6.81782-17.079839-9.61836-1.642656-.774422-3.295011-1.678479-4.442009-3.133615-1.597067-2.02709-1.980208-4.860646-1.650416-7.466974 1.381247-10.9045304 13.259585-17.6267008 15.176744-28.4418937 1.450115-8.1821608-3.553025-16.490074-10.329769-20.8205209-6.776744-4.330447-14.968199-5.4190064-22.89776-5.7579068-7.929561-.3384148-15.970185-.0383569-23.688291-1.9741672-2.035496-.5107781-4.143256-1.2449003-5.526928-2.8918199-1.568453-1.866865-1.89776-4.5659293-1.647991-7.0397074.672194-6.6697331 15.852818-29.6008553 8.250139-37.16833441-2.993834-2.97921543-7.054642-4.59069131-11.141155-4.180418-4.086028.41027331-7.902402 2.28879099-11.480162 4.39842122-7.56097 4.45911254-33.931732 34.01627009-43.420531 38.48363669-9.325358 4.3901672-20.035843 3.0991414-30.2560047 2.8879357-10.2196766-.2107203-21.5790762 1.3143311-28.2588221 9.4275466-2.3657737 2.8738553-3.9992148 6.7449903-3.2048037 10.4486173.4956582 2.3106399 1.8783603 4.3095692 3.4482679 6.0128103 3.5855196 3.8900708 8.2612933 6.5731126 11.6528175 10.6501126 3.3915243 4.0774855 5.1816167 10.5500932 1.9918476 14.8023697-1.2376905 1.6498328-3.0374827 2.7116882-4.7999307 3.7060552-9.8583603 5.565151-20.91949192 11.276446-25.22618938 22.113974-2.19893765 5.534077-2.15674365 11.635739-.52427252 17.379566 1.72995381 6.08564 7.80879907 10.342771 14.7717783 10.342771z" fill="#cae2ff" transform="translate(9.5 6)"/><path d="m133.21529 128.808438c-4.445918-5.019415-11.194022-6.81782-17.169854-9.618846-1.651314-.773935-3.312378-1.678479-4.46542-3.133614-1.605484-2.026604-1.990644-4.860161-1.658627-7.466974 1.388039-10.9045307 13.329467-17.6262156 15.25673-28.441894 1.457758-8.1816753-3.572239-16.4895885-10.38421-20.8200354-6.812947-4.3309325-15.0470855-5.419492-23.0189254-5.7579068-7.9713523-.3384147-16.0543523-.0383569-23.8131352-1.9741672-2.0462242-.5107781-4.1650925-1.2453858-5.5555694-2.8918199-1.5772064-1.8668649-1.9077616-4.5659293-1.6571637-7.0401929.6757367-6.6697331 15.9368541-29.6008553 8.2936192-37.16784889-2.6122633-2.58642123-6.0343381-4.13963344-9.5787865-4.23673955 4.8296157 1.30753376 8.3609004 4.05660771 5.7895908 9.68924759-5.9363416 13.00784885-61.03228115 56.28707075-22.3227118 60.54420255 38.7095694 4.2571319-25.4103309 38.5491835 3.7994342 40.9142025 22.2822456 1.804232-23.427 27.799537-46.28454803 39.562486h120.65409583c12.371442 0 19.8611-12.616512 12.589861-21.600283-.153089-.189357-.311053-.375801-.47438-.559817" fill="#a6cef4" mask="url(#a)" transform="translate(83.5 6)"/><g transform="translate(101 32)"><path d="m77 125h4v-36h-4z" fill="#fff"/><path d="m80 125h2v-36h-2z" fill="#e8f2fc"/><path d="m91.5264076 122h-24.0528152c-.8138115 0-1.4735924.671605-1.4735924 1.5 0 .827896.6597809 1.5 1.4735924 1.5h24.0528152c.8138115 0 1.4735924-.672104 1.4735924-1.5 0-.828395-.6597809-1.5-1.4735924-1.5" fill="#fff"/><path d="m91.5145871 122h-24.2462502c-.5399703 0-1.0082413.294108-1.2683369.729527h20.9985166c.8203395 0 1.4854129.671605 1.4854129 1.5 0 .282623-.0820834.544774-.217076.770473h3.2477336c.8203396 0 1.4854129-.672104 1.4854129-1.5 0-.828395-.6650733-1.5-1.4854129-1.5" fill="#e8f2fc"/><path d="m77 92h4v-3h-4z" fill="#e8f2fc"/><path d="m104.018791 39.4201193c-.614952-.2707328-1.295532-.4201193-2.018405-.4201193h-24.5489981c-2.3985575 0-4.4592558 1.6944974-4.9098968 4.0377866l-7.6934681 39.995939c-.1220182.6444408-.1171569 1.2835636 0 1.8811096.0029168.0135366.0072919.0265898.0097226.0406099h-6.8242705c-1.1229566 0-2.0334751.9055046-2.0334751 2.0222775 0 1.1167728.9105185 2.0222774 2.0334751 2.0222774h22.0600207v-.0609149h14.2182835c2.3985575 0 4.4592558-1.6944973 4.9098968-4.03827l7.6886069-39.9954556c.450641-2.3577927-.84003-4.5840867-2.891492-5.4852402" fill="#f93"/><path d="m106.910591 44.5289563-7.6871489 40.3370031c-.4492111 2.3622393-2.5105261 4.0691948-4.9082632 4.0691948h-14.2221013v.0648458h-22.0594737c-1.124 0-2.0336039-.9127166-2.0336039-2.0404482 0-1.127244.9096039-2.039473 2.0336039-2.039473h6.825189c-.0053477-.0160896-.0106955-.0268159-.0106955-.0429055.0588253.0053632.1283461.0053632.1871713.0053632h24.5481227c3.2976178 0 6.1392183-2.3515129 6.755182-5.5996529l7.6813156-40.2828836c2.050133.9073534 3.3404 3.1511151 2.890702 5.5289563" fill="#e8f2fc"/><path d="m96 79-.0481535.2538136c-.6096231 3.4159723-3.4246757 5.8884759-6.690445 5.8884759h-24.3146199c-.0582657 0-.1271252 0-.1858725-.0051276 0 .0169209.0052969.0276888.0105938.0451224h-6.759786c-1.0073709 0-1.8452415.7901551-1.9882573 1.8177157v-5.798231c0-.0112806-.0052969-.0282015-.0052969-.0451224-.1589065-1.1460069.7473421-2.1566466 1.8399446-2.1566466z" fill="#fff"/><path d="m104 39.4208587-7.6284226 40.0149923c-.6152188 3.2264219-3.4363396 5.564149-6.7094578 5.564149h-24.3861312c-.0603629 0-.1260377 0-.1868836-.0043587-.1163796-.5985976-.1212087-1.2388453 0-1.8844202l7.6424269-40.0663284c.4476513-2.3474132 2.4946782-4.0448927 4.8773228-4.0448927h24.3861315c.718077 0 1.394141.1496494 2.005014.4208587" fill="#fff"/><path d="m44.8866123 30h-41.3103967c-.96108687 0-1.69824049.8693612-1.55936344 1.839731l3.53679966 24.7839031c.11292771.7899271.77703873 1.3763659 1.55984398 1.3763659h41.3103967c.9606063 0 1.6977599-.8698515 1.5593634-1.839731l-3.5372802-24.7839031c-.1129277-.7904175-.7770387-1.3763659-1.5593634-1.3763659" fill="#1d54b5"/><path d="m40 30h-36.38551292c-.98419024 0-1.73906415.8434824-1.59734075 1.7849667l1.60127751 10.6279734c3.90083799 1.6498572 8.32280466 2.5870599 13.01443956 2.5870599 12.1311288 0 19.2793025-6.2307326 23.3671366-15" fill="#3070ce"/><path d="m26.4737249 48h-5.5944047-2.7026454c-.7172053 0-1.2672155.5887911-1.1642479 1.248635l2.5145511 16.0347287c0 .0497369.0030584.102316.0101948.152053l.1131625.6318965c.0830877.5357383.5800849.9326868 1.1601699.9326868h2.6944896 5.4950052z" fill="#4286e8"/><path d="m37.9998534 65.8779789c-.0094806-.6034002-.5019975-1.0883937-1.1059114-1.0883937h-5.8376761c-.8598899 0-1.5884736-.6346595-1.7050849-1.4862399l-1.7107733-12.4885831h1.0144236c.6655378 0 1.1765418-.5901386 1.0803138-1.2480058l-.1033385-.632765c-.0782149-.5361452-.5384978-.9339914-1.0807878-.9339914l-2.024581.0004736c-.9238839 0-1.6354025.8136903-1.5126288 1.7277894l2.1340818 15.8878004c.1061827.7914299.7821491 1.3825157 1.5813632 1.3825157l8.164688.0014209c.6176608 0 1.115866-.5048858 1.1059114-1.1220211" fill="#1d54b5"/><g fill="#4286e8"><path d="m34 53.9996756c0 .5527084-.447616 1.0003244-1.0003244 1.0003244-.5520596 0-.9996756-.447616-.9996756-1.0003244 0-.5520596.447616-.9996756.9996756-.9996756.5527084 0 1.0003244.447616 1.0003244.9996756"/><path d="m38 53.9996756c0 .5527084-.4477612 1.0003244-1 1.0003244s-1-.447616-1-1.0003244c0-.5520596.4477612-.9996756 1-.9996756s1 .447616 1 .9996756"/><path d="m42 53.9996756c0 .5527084-.4477612 1.0003244-1 1.0003244s-1-.447616-1-1.0003244c0-.5520596.4477612-.9996756 1-.9996756s1 .447616 1 .9996756"/><path d="m44.526618 41.4948865 2.3628878 15.1287476c.1235875.7899271.8503872 1.3763659 1.7070852 1.3763659h.6784165c1.0512826 0 1.8585456-.8698515 1.7065593-1.839731l-3.8711812-24.7839031c-.1235875-.7904175-.8503872-1.3763659-1.7065593-1.3763659h-.6789424c-1.0512826 0-1.8580197.8698515-1.7065593 1.839731z"/><path d="m29.316551 32h-14.7318566c-.3596966 0-.6344989.3624828-.5770848.761931l.0986344.6863449c.0461275.3183448.2905053.5517241.5775755.5517241h14.7313659c.3601873 0 .6349896-.3624828.5770848-.761931l-.0986344-.6857931c-.0456368-.3183449-.2905053-.5522759-.5770848-.5522759"/></g><path d="m87.9854842 39.1100121c-.46423-3.5365932-5.6907188-1.8826063-3.7284692-5.1780133 1.814008-3.0479372-.297946-4.3964537-2.7931823-4.8720595-3.1823163-.6065907-1.3756228-1.8482892-2.9243566-4.7918252-1.9671259-3.7395957-5.0026636-2.6288821-5.0026636-2.6288821s-3.8050282-2.0498417-7.6812514 1.1919145c-4.084444 3.4157584-3.1940196 6.437112-1.0074572 10.5870627 1.1049845 2.097209-.2511328 3.9653151-1.2186038 7.8213956-1.1600874 4.6255565 4.6018264 13.9366036 16.930742 7.6473934 4.7676228-2.4321631 7.6714986-7.9001799 7.4252421-9.7769861" fill="#13448c"/><path d="m71.2224249 40.8629641s-1.8604998.2016385-3.7542658 2.1147688c-1.273278 1.2858105-7.5051565 13.8171058-7.5051565 13.8171058l-5.7516875-17.7948387-4.2113151.3272972s4.7421289 28.6190257 8.4308263 28.6727028c3.4886178.0500644 14.5691737-18.4772966 14.5691737-18.4772966z" fill="#f95858"/><path d="m83.1975625 48.171995 3.7043101 14.0382071-21.9018726 1.8115239.1002474 4.0034923s25.248779.1147217 30.0044758.0637343c3.1677203-.0338282-2.7962722-25.4240883-6.6008297-28.3298805-3.0088742-2.2973751-11.3265008-1.6850359-11.3265008-1.6850359l-5.9276709 2.5469193s-6.8754204 6.8921253-2.7701208 13.3792928c3.2335833 5.1100173-.8881821 15.0373643-.8881821 15.0373643l13.9987956.8427631 12.5023492.1196243z" fill="#f95858"/><path d="m69.0149266 63 .7710734-.1448696c.7386873-3.3134017.8706128-7.8410648-.8120322-10.0175341-3.3343327-4.3113376.0985869-10.57352 2.0260322-12.8375963h-.0028576c-.3086198.3200834-6.6500911 7.023237-2.7123304 13.3446397 1.8812476 3.0192578 1.4216517 6.9503128.7301146 9.6553603" fill="#e54848"/><path d="m64.964751 65c-2.2783231.0835322-4.7147904.9002387-5.8556191 2.2424821-.2529353.2983294-.0376307.7575179.3529662.7575179h5.5379019z" fill="#ffb19e"/><path d="m76.9904598 33.7450331v4.5676443l-4.0333721 4.6873226-.0251648-.0520341-1.0984007-2.385052v-2.5624409c-2.0113268-.2866603-3.7863833-1.833491-4.2635841-4.0473037l-.5699381-3.1613055s3.0072039-.3230842 5.3978681-2.7918638c0 0 .7185973 1.3386944 1.7494256 2.3751183.7498204.7554399 1.7857748.9427625 2.1809567 1.3543046.5284626.5468306.7185973 1.2658467.6622094 2.0156102" fill="#ffb19e"/><path d="m76.1635855 30s-.1784569-1.998164-1.0156218-3.7000858c-.9659595-1.9623599-2.3259431-4.2611804-5.1479637-4.2680469 0 0 6.8528549-.9569018 8 7.6164676z" fill="#ff4751"/><path d="m79.9795067 30.701632c-.1914449-1.6485016-1.6812246-2.8512901-3.3270161-2.686538-1.6452626.1642618-2.8235478 1.6342821-2.6321029 3.2827837.1925026 1.6489921 1.6817535 2.8517805 3.3270161 2.6870284 1.6457915-.1647521 2.8240767-1.6347724 2.6321029-3.2832741" fill="#ff4751"/><path d="m77.3198219 33.6939936c-1.3459798.1584526-2.5639209-1.000263-2.7211615-2.5882235-.1455599-1.4716965.6725407-2.7937705 1.8644247-3.1057701-.0700844.0014717-.1392703.003434-.2098039.0117736-1.3976447.16483-2.3985936 1.6355453-2.2359619 3.2848265.1635303 1.6497717 1.4286435 2.8531288 2.8262881 2.6882988.4308394-.0505282.8230424-.2261507 1.1563926-.4920372-.2120502.1025282-.4398245.1726791-.6801781.2011319" fill="#cc3241"/><path d="m77.9897491 31.3509861c-.0960073-.8240151-.8406091-1.4254602-1.6637623-1.3435139-.8226077.0824521-1.4117431.8174392-1.3157359 1.6414543.0965528.8245209.8406091 1.425966 1.6637623 1.3435139.8226077-.0819463 1.4117431-.8169334 1.3157359-1.6414543" fill="#cc3241"/><path d="m75 36c-.1774844.2279472-1.1793179 1.4667491-1.9811759 2.1284694-.3231879.2649766-.495294.6569112-.495294 1.0695246l-.3715927 3.802006-1.1519374-2.4251855v-2.5944628l.0268916-.0264495s2.6647109-.3972245 3.9731084-1.9539022" fill="#f48f7a"/><path d="m74.0476509 36-.0476509-.3067485c1.5840161-.3011712 2.7411804-2.6692693 2.7532185-2.6932515l.2467815.1472393c-.0496572.103179-1.2354121 2.5264919-2.9523491 2.8527607" fill="#ff4751"/><path d="m73.9965173 36.3465036c-.0462616-.2628499-.5298493-.4069606-1.0800537-.3222194-.5502044.0847411-.9591568.366366-.9128953.6287085.0462616.2633573.5292326.407468 1.0800538.3227269.5502044-.0847412.95854-.3663661.9128952-.629216" fill="#ff4751"/><path d="m53.6948315 38.817128s.6417244-5.359475.0640163-5.5550686c-.5771875-.1966536-1.1548956 2.0911017-1.1548956 2.0911017s-2.4388648-4.8363021-4.1069317-4.3136592c-1.6685874.5226429 1.3989903 7.9604981 1.3989903 7.9604981z" fill="#ffb19e"/><path d="m69 64 17.0945292-1.4597955c.5865864-.0499829 1.000365-.6076356.8865999-1.1971401-.6312284-3.2621211-2.4567506-12.6157889-2.5661955-12.3369626-.1320059.3376298 1.7203974 11.0089848-.4632208 12.0894981-1.4928672.7389633-14.9517128 2.9044001-14.9517128 2.9044001" fill="#e54848"/><path d="m82 115.394564c-.1378696.031909-.2698611.108391-.3628429.233496-1.2103669 1.596995-2.2850018 1.974337-4.4096901 2.245315-.1266476.016714-.2586391.058247-.3986462.126625.1629854-.231977.8710367-1.331589.3831493-2.32129-.5488066-1.11582-1.2119701-1.927233-1.2119701-1.927233l3.1042038-1.751477s1.9034556 2.081209 2.8957962 3.394564" fill="#ffb19e"/><path d="m82.9111433 118.667817c-.527662.486072-9.0442395 4.966542-11.0675432 6.090491-.2471328.137465-.747564.38866-.8395323.128564-.1433473-.405966 3.539497-7.245098 5.1091244-7.449812 2.0412864-.266029 3.0750312-.633921 4.238251-2.194.2430225-.326851.7496191-.324873.9797969.010878.8174394 1.19021 2.0037797 3.023241 1.5799032 3.413879" fill="#13448c"/><path d="m68.1107442 69s-19.5857137 9.1580449-20.1052661 15.5094892c-.461608 5.6485661 28.4034968 31.4905108 28.4034968 31.4905108l4.5639782-1.895462-15.7978991-25.686241s16.7352359-8.3205836 20.824946-18.3391753z" fill="#13448c"/><path d="m54.9938716 82.5008384c-1.3326171 2.5028769-2.3112044 5.9983232-2.9938716 9.1662502 2.2237957 2.5772481 5.0286886 5.479155 7.9278267 8.3329114-2.1417584-8.2599704-4.0422882-16.5442545-3.3855018-17.729903 1.2525331-2.262124 9.5754083-8.2780865 15.4576751-11.270097 0 0-13.9145934 5.6951175-17.0061284 11.5008384" fill="#09326d"/><path d="m69 120.396459c-.1168203-.036227-.2482431-.031052-.372821.036227-1.6053665.851345-2.5718719.679524-4.2739801-.084358-.1017615-.045025-.2185818-.070384-.3531989-.07556.2240577-.129901 1.2352834-.775267 1.3073834-1.888485.081683-1.254504-.0547595-2.291127-.0547595-2.291127l3.0838733-.093156s.5019622 2.756391.6635028 4.396459" fill="#ffb19e"/><path d="m69.5908479 124.88827c-.6572265.188543-9.9944244.074146-12.1646559.105394-.2648952.003707-.4672655-.260571-.4190594-.549741.0749343-.451233 6.284937-4.98898 7.6538008-4.389455 1.7802867.779064 2.7916613.956486 4.4698082.083679.3512845-.182718.7607981.074146.7894354.503664.1011852 1.523175.1985521 4.094989-.3293291 4.246459" fill="#13448c"/><path d="m93.8980218 69.4949446s1.6562003 11.0419668-8.3803047 13.8371191c-7.9127931 2.2032549-16.3963338 3.3274238-16.3963338 3.3274238l.607126 31.3405125h-5.2778173s-9.6884523-33.5122576-8.3178715-36.0073407c1.5564055-2.8334488 13.8847495-11.4394737 19.1517516-12.9926593z" fill="#1d54b5"/><path d="m69.9602045 87.4473949s8.197818-1.1317941 15.8436679-3.3499935c9.697917-2.8141117 8.0975897-13.9309754 8.0975897-13.9309754l-6.0046713-.166426c-1.8036339 3.9859262-7.6700757 13.8538631-21.8967908 14.9178179l3.2210803 34.0821821h1.3262434z" fill="#0e367c"/><path d="m4.32379804 125-2.32379804-.016638 9.6617267-54.9657456 2.3382733-.0176164z" fill="#fff"/><path d="m94.7764445 124.982093 2.2235555.017907-10.7899488-55-2.2100512.0174231z" fill="#fff"/><path d="m13.3568819 73 .6431181-3-2.3605359.017341-.6394641 2.982659z" fill="#e4edf7"/><path d="m86 73-.7282158-3-2.2717842.0148475.7239068 2.9851525z" fill="#e4edf7"/><path d="m99.8873678 67h-98.77473565c-.61455503 0-1.11263215.6714849-1.11263215 1.5s.49807712 1.5 1.11263215 1.5h98.77473565c.6145552 0 1.1126322-.6714849 1.1126322-1.5s-.498077-1.5-1.1126322-1.5" fill="#fff"/><path d="m59.9852346 19.3059321-2.5452565-15.08950117c-.0991225-.69824014-.68385-1.21643093-1.3734186-1.21643093l-23.6783667.26495066c-.8463537 0-1.4954156.76899123-1.3734186 1.62629935l2.2331158 13.23972589 1.1294248 7.4966887c.0595688.3962061.5642358.5098958.7810663.1756579l3.0137056-4.6427358 20.4397292-.2288432c.8458772 0 1.4954156-.7685033 1.3734187-1.6258114" fill="#1d54b5"/><path d="m51.5376052 8h-14.1423757c-.2436054 0-.4292563.18129849-.3899652.38097183l.0663039.34299714c.0309419.15924867.196456.27603103.3904563.27603103h14.1423758c.2436054 0 .4292563-.18129849.3904562-.38097183l-.0672861-.34299714c-.0309419-.15924867-.1959649-.27603103-.3899652-.27603103" fill="#fff"/><path d="m52.5376166 11h-14.1420266c-.2435994 0-.4292458.1812985-.3904467.3809718l.0667934.3429972c.0309411.1592486.1964512.276031.3904467.276031h14.1420266c.2435994 0 .4292458-.1812985.3904467-.3809718l-.0672846-.3429972c-.030941-.1592486-.19596-.276031-.3899555-.276031" fill="#fff"/><path d="m49.5006533 16-7.0730972.0093004c-.2632838 0-.4639315.1795391-.4219972.377679l.0721908.339264c.0334412.1577032.2123256.2737566.4219971.2737566l7.0730972-.0097048c.2632838 0 .4639315-.179539.4214664-.3772746l-.0721907-.3396684c-.0334413-.1577032-.2117948-.2733522-.4214664-.2733522" fill="#fff"/><path d="m28.2821245 18.8995418c.3131548.2547686.7804557-.0100002.7109198-.4028676l-3.0975096-17.48950501c-.0860689-.57858655-.592271-1.00716919-1.1894047-1.00716919l-20.50434618.21905335c-.73231544 0-1.29492432.63668331-1.1889185 1.34717808l2.20375404 12.49746967c.08606895.5785866.59227106 1.0071692 1.18940477 1.0071692l15.78757337-.1690521c.7517661-.0080954 1.4821364.246197 2.0598195.7166855z" fill="#f95858"/><path d="m22.5379755 5h-14.14237575c-.24360543 0-.42925635.18122449-.39045629.38122449l.06679504.34244898c.03094182.15918367.19645599.27632653.38996514.27632653h14.14286686c.2436054 0 .4292563-.18163265.3899652-.38122449l-.0667951-.34285714c-.0309418-.15877551-.1959648-.27591837-.3899651-.27591837" fill="#fff"/><path d="m22.5376166 9h-14.14202662c-.24359942 0-.42924575.18122449-.39044665.38122449l.06679339.34244898c.03094106.15918367.19645115.27632653.39044665.27632653h14.14202663c.2435994 0 .4292458-.18163265.3904467-.38122449l-.0672846-.34285714c-.030941-.15877551-.19596-.27591837-.3899555-.27591837" fill="#fff"/></g><g transform="translate(15 12)"><path d="m64.7686767 15.5968572 3.1917654-14.43331994c.1651163-.66835168-.1993948-1.16353726-.8559976-1.16353726l-22.6634173.25354692c-.8057868 0-1.7110296.73533571-1.913804 1.55502166l-2.8007006 12.66444562-1.7144091 7.1707636c-.0907657.3790799.3476132.4877429.6783286.1682043l4.6005646-4.4407926 19.5633832-.2193106c.8062696 0 1.7110296-.7348395 1.9142868-1.5550217" fill="#1d54b5"/><path d="m60.7694037 5h-12.1823791c-.2094134 0-.4443536.18111314-.4935161.38093066l-.0846163.34306569c-.0392354.15921533.0543624.27600365.2217041.27600365h12.1819064c.2094134 0 .4448263-.18156934.4939888-.38138686l.0846163-.34260949c.0392354-.15921533-.0543624-.27600365-.2217041-.27600365" fill="#fff"/><path d="m58.7694037 8h-12.1823791c-.2094134 0-.4443536.18111314-.4935161.38093066l-.0846163.34306569c-.0392354.15921533.0543624.27600365.2217041.27600365h12.1819064c.2094134 0 .4448263-.18111314.4939888-.38093066l.0846163-.34306569c.0392354-.15921533-.0543624-.27600365-.2217041-.27600365" fill="#fff"/><path d="m54.7501082 12-6.1134513.0094894c-.2274486 0-.4820477.1793945-.5353239.3773158l-.0916967.3398103c-.0425186.1577044.0589113.2733845.2402555.2733845l6.1134513-.0094894c.2269363 0 .4820477-.1793945.5353239-.3773158l.0916967-.3398103c.0425186-.1577044-.0589113-.2733845-.2402555-.2733845" fill="#fff"/><path d="m43 69-.0762133 2.8050091-1.706194 65.1367659h-6.819859l-6.0415001-55.8114814s-.0054087.0053374-.0054087.016012l-7.6798398 18.8169967 5.2410149 36.9770167-2.5209385.021349-4.1681286.038332s-12.46996713-36.901809-12.21920086-39.2924471c.25617494-2.3853009 9.61664036-28.464947 9.61664036-28.464947z" fill="#1d54b5"/><path d="m43 28.8036459-12.5179136-1.7603977-.293047-.0432482-5.986327.0270301-.0533249.0108121-7.1493875 1.8301845v41.1319733h26z" fill="#f95858"/><path d="m64 36.6553132s.9093506-5.7562716 1.5691697-5.7840022c.6598191-.0277305.5878388 2.5215311.5878388 2.5215311s3.9661125-4.2768242 5.5511179-3.2269565c1.5850054 1.0493812-3.8019975 7.8341144-3.8019975 7.8341144z" fill="#ffb19e"/><path d="m24.3057338 27.0214137.6942662 44.9785863h-9.5878603l-.6775369-12.3104668-12.72165298-.2048905c-1.32210719.0423408-2.30126361-1.2025762-1.93567908-2.4601467l6.33745465-21.7948066c.73707353-2.5487217 2.78985775-4.5090522 5.38831261-5.151951l12.4372547-3.0777384z" fill="#4286e8"/><path d="m69 38.1856295-11.9512207 25.0648437c-.7566056 1.404227-2.7189171 1.4363515-3.5289188.0700897l-9.352922-15.8246893-.46531 24.5041264h-9.924071l-2.7775575-44.9892919.0371867-.0107081 12.6224876 1.7712243c2.3804231.367484 4.4328407 1.9118904 5.4855092 4.1260424l6.3851404 13.4431008c.1587585.3295188.5978471.3835463.8305021.1022141l8.1214714-9.9055195z" fill="#4286e8"/><path d="m14 60h12.8758188l.1241812-6.8069074-12.8758188-.1930926z" fill="#4286e8"/><path d="m27.0529401 58c3.4172593-.1112999 7.0725106-1.200085 8.7832865-2.9902294.3796425-.3976211.0562787-1.0097706-.5294009-1.0097706h-8.3068257z" fill="#ffb19e"/><path d="m22.9876472 60.2755799.0123528-.2164159-8-.059164.7020524 13 2.3861545-10.7714879z" fill="#13448c"/><path d="m43 72-1.7652616 65h-.4965117l-4.7382267-65z" fill="#0e367c"/><g fill="#13448c"><path d="m27 53.058774s-17.11018318 1.2044266-16.999465.8883611l2.9695318-9.9471351.044188.1500708.2919386 6.9389639c.0382301.9424059 12.80111 1.7236425 13.6938066 1.9697393"/><path d="m56.968438 62.9319058 12.031562-24.9135203-.056155-.0183855c-1.2762056-.0062881-12.4712025 23.5874388-13.649017 24.1815393-1.3409999.675862-11.294828-14.9086344-11.294828-14.9086344l9.4162763 15.7291512c.814967 1.3580133 2.79047 1.325599 3.5521617-.0701503"/><path d="m20.3414182 137.05391c-1.4235287 3.335869-8.1894546 5.021774-8.1894546 5.021774s-.4878358.983989.2846105 2.229358c.7724464 1.24537 7.8919938.482465 8.7848523.255936.8923826-.227075 1.5063418-1.05478 1.5063418-1.05478s.5987293.74439.9337892.928446c.334584.1846 2.1521889-.23252 2.1521889-.23252.4278677-1.327051.0014278-6.393478-.1213641-7.202124z"/><path d="m39.6585818 137.05391c1.4235287 3.335869 8.1894546 5.021774 8.1894546 5.021774s.4878358.983989-.2846105 2.229358c-.7724464 1.24537-7.8919938.482465-8.7843764.255936-.8928585-.227075-1.5068177-1.05478-1.5068177-1.05478s-.5987293.74439-.9337892.928446c-.334584.1846-2.1521889-.23252-2.1521889-.23252-.4278677-1.327051-.0014278-6.393478.1213641-7.202124z"/></g><path d="m20.1601731 100.879243 5.3501962 37.099337-2.5734549.02142c-1.5871396-7.989151-7.1376106-34.70079-6.9313125-36.37544.2389242-1.9983832 11.6435409-19.0574184 11.9943981-19.62456z" fill="#0e367c"/><path d="m31 26.5996442c-1.0145005.7664062-3.4661654 2.4003558-3.4661654 2.4003558s-2.4946294-1.6176863-3.5257787-2.3937488l-.0080559-5.6062512h7z" fill="#ffb19e"/><path d="m31 22v1.9850996c-2.0268528 1.3469242-4.9667025 1.3516578-7 .0232376v-2.0083372z" fill="#ffb19e"/><path d="m20.5210036 18h14.5783774l.2245048-4.0254083c3.2232123-1.3523357.8059275-8.9745917.8059275-8.9745917.185677 1.84409419-4.8340716 1.90531713-6.8172805 1.59821496-1.9832089-.30759589-3.346665.49175845-3.346665.49175845s-6.3214784-1.35233573-5.9501245 7.43809339c.0567484 1.3281428.2349585 2.4489176.5052603 3.4719332" fill="#13448c"/><path d="m33 14.0896679v3.7370994c0 1.5989985-.6604239 3.1257776-1.8265089 4.2212746-.1905167.1683424-.3810335.3504167-.5792117.5329995-2.0170256 1.8919448-5.1715332 1.8919448-7.188048 0l-.572061-.5329995c-1.1701711-1.0904111-1.8341704-2.6141387-1.8341704-4.2095771v-2.8516489s1.733549-1.1565276 4.1173065-3.9868159c0 0 2.6365881 2.5195415 7.8826935 3.0896679" fill="#ffb19e"/><path d="m31 22v1.6243996c-2.0268528 1.8256269-4.9667025 1.8320429-7 .0314965v-1.6308156c2.0332975 1.8063791 4.9731472 1.7999631 7-.0250805" fill="#f48f7a"/><path d="m22.718712 18.425609c.9368792-1.5006538-.6432551-3.0807879-2.1443209-2.1447325-.1169555.0733031-.2186738.1750214-.2919768.2919769-.9397619 1.5014774.643255 3.0844942 2.1447326 2.1447324.1169555-.0733031.2186738-.1750214.2915651-.2919768" fill="#ffb19e"/><path d="m33.7182555 18.4264171c.9158683-1.4658114-.5699468-3.0078169-2.0372305-2.2071602-.1939631.1054363-.3562168.2677093-.4616405.4612837-.800973 1.4678707.7412604 2.9538631 2.2068968 2.0374736.1169544-.0728992.2186718-.1746288.2919742-.2915971" fill="#ffb19e"/><path d="m34 15h-.5407976v-1.8659245c0-3.0992255-2.837608-5.62100677-6.3258251-5.62100677h-.2667546c-3.4877312 0-6.3258251 2.52178127-6.3258251 5.62100677v1.8659245h-.5407976v-1.8659245c0-3.38238141 3.080068-6.1340755 6.8666227-6.1340755h.2667546c3.7860688 0 6.8666227 2.75169409 6.8666227 6.1340755z" fill="#a31919"/><path d="m34.4997612 14c-.8248687 0-1.4997612.7137565-1.4997612 1.5861256v2.8277488c0 .8723691.6748925 1.5861256 1.4997612 1.5861256.8253463 0 1.5002388-.7137565 1.5002388-1.5861256v-2.8277488c0-.8723691-.6748925-1.5861256-1.5002388-1.5861256" fill="#f95858"/><path d="m33.4610485 14c-.1616854 0-.3150416.0333389-.4610485.0813268.6207741.2040748 1.0769231.7991245 1.0769231 1.5047988v2.8277488c0 .7056743-.456149 1.300724-1.0769231 1.5047988.1460069.048493.2993631.0813268.4610485.0813268.8466438 0 1.5389515-.7137565 1.5389515-1.5861256v-2.8277488c0-.8723691-.6923077-1.5861256-1.5389515-1.5861256" fill="#cc3241"/><path d="m20.5002388 14c-.8253463 0-1.5002388.7137565-1.5002388 1.5861256v2.8277488c0 .8723691.6748925 1.5861256 1.5002388 1.5861256.8248687 0 1.4997612-.7137565 1.4997612-1.5861256v-2.8277488c0-.8723691-.6748925-1.5861256-1.4997612-1.5861256" fill="#f95858"/><path d="m20.4611615 14c-.1617251 0-.3151189.0333389-.4611615.0813268.6209262.2040748 1.077187.7991245 1.077187 1.5047988v2.8277488c0 .7056743-.4562608 1.300724-1.077187 1.5047988.1460426.048493.2994364.0813268.4611615.0813268.8463612 0 1.5388385-.7137565 1.5388385-1.5861256v-2.8277488c0-.8723691-.6924773-1.5861256-1.5388385-1.5861256" fill="#cc3241"/><path d="m30.0162432 22-.0162432-.3504018c1.4910454-.1267053 2.7717618-2.6243693 2.7846731-2.6495982l.2153269.1973463c-.0549771.1093254-1.366514 2.6647356-2.9837568 2.8026537" fill="#ff4751"/><path d="m29.9997809 20.4325064c-.0119832-.2737105-.4689791-.4652144-1.0212961-.4278478-.5523169.0373666-.989704.2895913-.9782655.5633018.0119832.2732434.4689792.4647474 1.0212961.4273807.5517723-.0373666.989704-.2895913.9782655-.5628347" fill="#ff4751"/><path d="m36.928528 35h-21.8570917c-1.1892172 0-2.1199298 1.0064769-2.0694782 2.2277879l.5732268 13.7639593c.0461272 1.1080178 1.0008644 2.0082528 2.1218518 2.0082528h20.6054105c1.1214679 0 2.0762051-.900235 2.1223323-2.0082528l.5732267-13.7639593c.0509322-1.221311-.880261-2.2277879-2.0694782-2.2277879" fill="#13448c"/><path d="m36.8825455 35h-22.3422748c-.6119826 0-1.1566765.2571226-1.5402707.669275.183693-.0524643.3742622-.0893312.576128-.0893312h22.3417837c1.2156154 0 2.1674792 1.0119476 2.1154164 2.2403697l-.5859512 13.8387732c-.022102.5166085-.2490169.9840612-.5952831 1.3409133.8614906-.2528687 1.5211155-1.0133655 1.559917-1.9208571l.5859512-13.8392458c.0520627-1.2279495-.899801-2.2398971-2.1154165-2.2398971" fill="#1d54b5"/><path d="m28 44.5002425c0-1.3808323-1.1194102-2.5002425-2.4997575-2.5002425-1.3808323 0-2.5002425 1.1194102-2.5002425 2.5002425 0 1.3803473 1.1194102 2.4997575 2.5002425 2.4997575 1.3803473 0 2.4997575-1.1194102 2.4997575-2.4997575" fill="#4286e8"/></g></g></g></svg>