<svg height="147" viewBox="0 0 200 147" width="200" xmlns="http://www.w3.org/2000/svg" xmlns:xlink="http://www.w3.org/1999/xlink"><filter id="a" height="129.6%" width="164%" x="-32%" y="-14.8%"><feGaussianBlur in="SourceGraphic" stdDeviation="40"/></filter><mask id="b" fill="#fff"><path d="m.39105023.22670887h119.40839877v132.22681913h-119.40839877z" fill="#fff" fill-rule="evenodd"/></mask><mask id="c" fill="#fff"><path d="m0 .60525963h45.6125114v97.40772007h-45.6125114z" fill="#fff" fill-rule="evenodd"/></mask><mask id="d" fill="#fff"><path d="m.01595652.03546647h7.88975911v3.96966788h-7.88975911z" fill="#fff" fill-rule="evenodd"/></mask><mask id="e" fill="#fff"><path d="m0 .06678516h16.936285v12.29922064h-16.936285z" fill="#fff" fill-rule="evenodd"/></mask><mask id="f" fill="#fff"><path d="m0 .02678448h16.936285v5.56325433h-16.936285z" fill="#fff" fill-rule="evenodd"/></mask><mask id="g" fill="#fff"><path d="m0 .06678516h16.936285v5.56334021h-16.936285z" fill="#fff" fill-rule="evenodd"/></mask><mask id="h" fill="#fff"><path d="m0 .06031431h9.56843313v9.89958199h-9.56843313z" fill="#fff" fill-rule="evenodd"/></mask><mask id="i" fill="#fff"><path d="m.07293682.02991159h4.17511421v3.78804404h-4.17511421z" fill="#fff" fill-rule="evenodd"/></mask><mask id="j" fill="#fff"><path d="m0 .11147064h17.3971512v18.29603596h-17.3971512z" fill="#fff" fill-rule="evenodd"/></mask><mask id="k" fill="#fff"><path d="m.13245068.05498898h7.58185929v6.96387894h-7.58185929z" fill="#fff" fill-rule="evenodd"/></mask><mask id="l" fill="#fff"><path d="m0 .042465h6.62748615v6.96991847h-6.62748615z" fill="#fff" fill-rule="evenodd"/></mask><mask id="m" fill="#fff"><path d="m.0504574.02094818h2.88832735v2.65290627h-2.88832735z" fill="#fff" fill-rule="evenodd"/></mask><mask id="n" fill="#fff"><path d="m0 .04865782h7.97369428v7.9863649h-7.97369428z" fill="#fff" fill-rule="evenodd"/></mask><mask id="o" fill="#fff"><path d="m.05396139.02520328h3.08890564v3.19177785h-3.08890564z" fill="#fff" fill-rule="evenodd"/></mask><mask id="p" fill="#fff"><path d="m0 .02359167h3.68193675v3.87217692h-3.68193675z" fill="#fff" fill-rule="evenodd"/></mask><mask id="q" fill="#fff"><path d="m.02803189.01163788h1.60462631v1.47383681h-1.60462631z" fill="#fff" fill-rule="evenodd"/></mask><mask id="r" fill="#fff"><path d="m0 .03302834h5.15471145v5.42104769h-5.15471145z" fill="#fff" fill-rule="evenodd"/></mask><mask id="s" fill="#fff"><path d="m.03924465.01629303h2.24647682v2.06337154h-2.24647682z" fill="#fff" fill-rule="evenodd"/></mask><mask id="t" fill="#fff"><path d="m0 .03774667h5.8910988v6.19548308h-5.8910988z" fill="#fff" fill-rule="evenodd"/></mask><mask id="u" fill="#fff"><path d="m.04485102.01862061h2.56740209v2.3581389h-2.56740209z" fill="#fff" fill-rule="evenodd"/></mask><g fill="none" fill-rule="evenodd"><path d="m-88-129h375v812h-375z" fill="#fff"/><path d="m0 0h375v812h-375z" fill="#fff" filter="url(#a)" transform="translate(-88 -129)"/><g opacity=".493583" transform="translate(7 10)"><g opacity=".357189"><path d="m170.368422 132.453358c10.797284 0 17.333524-11.068777 10.987486-18.950766-.133184-.166134-.271049-.330138-.413594-.491586-3.88064-4.403826-9.769681-5.981672-14.985141-8.43875-1.441198-.679445-2.890907-1.472628-3.897235-2.749303-1.4012-1.778484-1.737352-4.2645289-1.448006-6.5512129 1.211849-9.5671825 11.633409-15.4649357 13.315445-24.9537371 1.272271-7.1786882-3.117277-14.4677064-9.062911-18.2670608-5.945633-3.7993544-13.132476-4.7544113-20.089544-5.0517484-6.957067-.296911-14.011577-.0336527-20.783123-1.7320523-1.78586-.4481355-3.635121-1.0922239-4.849097-2.5371628-1.376096-1.6379098-1.665016-4.0059568-1.445879-6.176347.589755-5.851747 13.908604-25.9705618 7.238329-32.60995381-2.626665-2.61383995-6.18945-4.027682-9.774787-3.66772523-3.584911.35995677-6.933239 2.00809021-10.072217 3.8589922-6.6336812 3.91224025-29.7702932 29.84446344-38.0953717 33.76394534-8.181682 3.8517505-17.5786169 2.7190581-26.5453625 2.5337549-8.9663201-.1848772-18.9325857 1.1531397-24.7931176 8.2713381-2.0756316 2.5214014-3.508745 5.9177746-2.8117617 9.1671832.4348699 2.0272595 1.6479953 3.781037 3.0253671 5.2753901 3.1457861 3.4129866 7.2481158 5.7669761 10.2236984 9.3439667 2.9755826 3.5774165 4.5461354 9.2562139 1.7475644 12.9869848-1.0858983 1.4474948-2.6649612 2.3791226-4.21126 3.2515385-8.6493161 4.8826326-18.35389381 9.8934865-22.13241139 19.4018835-1.92925662 4.855369-1.89223736 10.208714-.45997495 15.248109 1.51778967 5.339288 6.85111617 9.074319 12.96014514 9.074319z" fill="#cae2ff" transform="translate(.438679)"/><path d="m116.877565 113.011177c-3.900664-4.403826-9.821169-5.981673-15.064117-8.439176-1.448793-.679019-2.9061421-1.472628-3.9177739-2.749303-1.408585-1.778059-1.7465085-4.2641035-1.4552099-6.5512135 1.2178079-9.5671824 11.6947208-15.4645098 13.3856208-24.9537371 1.278977-7.1782622-3.134133-14.4672804-9.110674-18.2666348-5.9773969-3.7997804-13.2016885-4.7548373-20.1958499-5.0517484-6.9937336-.296911-14.0854223-.0336527-20.8926564-1.7320523-1.7952721-.4481355-3.6542793-1.0926499-4.874226-2.5371628-1.3837754-1.6379098-1.6737908-4.0059568-1.4539266-6.176773.5928633-5.851747 13.9823343-25.9705618 7.2764772-32.60952781-2.2918914-2.26921862-5.2942777-3.63194255-8.4040296-3.71713942 4.2373043 1.14717585 7.3355069 3.55909922 5.0795466 8.50094364-5.2082997 11.41254669-53.54719006 49.38393939-19.5850207 53.11897019 33.9621694 3.7350307-22.2939696 33.8214532 3.3334658 35.896423 19.5495174 1.5829578-20.5538773 24.3901603-40.60814117 34.7104823h105.85689577c10.854189 0 17.425304-11.069203 11.045821-18.951191-.134313-.166134-.272905-.329712-.416202-.49116" fill="#a6cef4" mask="url(#b)" transform="translate(65.363208)"/></g><g transform="translate(115.811321 21.933962)"><path d="m7.54176684 86.3969528c-4.15881423-1.5159405-7.54184108-6.1186982-7.54184108-10.2604376v-70.28113937c0-4.14173947 3.38302685-6.27830987 7.54184108-4.76236937l30.52890346 11.12828014c4.1580719 1.5159405 7.5418411 6.1194405 7.5418411 10.2611799l-.0007424 70.280397c0 4.1417395-3.3830268 6.2783099-7.5410987 4.7623694z" fill="#17161c" mask="url(#c)" transform="translate(0 1.719353)"/><path d="m8.03255443 90.4376543c-4.38375545-1.5976023-7.95015022-6.4497997-7.95015022-10.8164804v-74.08658058c0-4.36668069 3.56639477-6.61832003 7.95015022-5.01997532l32.18218437 11.7310929c4.383013 1.5976023 7.9501502 6.4497997 7.9501502 10.8164804v74.0865805c0 4.3659382-3.5671372 6.6183202-7.9501502 5.0199752z" fill="#1e394c"/><path d="m7.54176684 85.2631154c-2.57902903-.9398534-4.67699565-3.7943055-4.67699565-6.3636836v-70.28039697c0-2.5686357 2.09796662-3.89378447 4.67699565-2.95318868l30.52890346 11.12753775c2.579029.9405958 4.6769957 3.7950479 4.6769957 6.364426v70.2803969c0 2.5686357-2.098709 3.8937845-4.6769957 2.9531887z" fill="#62bdf4"/><path d="m38.0702991 16.7937551-30.52816107-11.12828014c-1.82625545-.66517271-3.40604064-.19227648-4.17663135 1.05046807.82181495-.41202104 1.89084252-.45656386 3.06306095-.02969521l30.52816107 11.12828008c2.5790291.9405958 4.6769957 3.7950479 4.6769957 6.3636836v70.280397c0 .7505464-.1826256 1.3904782-.5011067 1.903463.9873658-.4951677 1.6146771-1.5226219 1.6146771-2.9242359v-70.2803969c0-2.5686357-2.0979666-5.4230878-4.6769957-6.3636836" fill="#34648c"/><path d="m34.161964 14.8040275-22.7116393-8.27828229 1.0103795 2.70968795c.4580486 1.23086644 1.5085167 2.30360594 2.6710842 2.72676274l15.3494543 5.59532c1.1618251.4238991 2.2122931.1172961 2.6710842-.7794993z" fill="#1e394c"/><path d="m36.8305983 26.4533843-28.048611-10.2240609c-1.50480479-.548619-2.72453556.2212293-2.72453556 1.720095v12.6442206c0 1.4988658 1.21973077 3.1580857 2.72453556 3.7059623l28.048611 10.2248033c1.5040624.5486191 2.7237932-.2219717 2.7237932-1.720095v-12.6442206c0-1.4988658-1.2197308-3.1580857-2.7237932-3.7067047" fill="#87d3f9"/><path d="m36.8305983 48.6856687-28.048611-10.2240609c-1.50480479-.548619-2.72453556.2212293-2.72453556 1.720095v12.6442206c0 1.4988658 1.21973077 3.1580857 2.72453556 3.7059623l28.048611 10.2248033c1.5040624.5486191 2.7237932-.2219717 2.7237932-1.720095v-12.6442206c0-1.4988658-1.2197308-3.1580857-2.7237932-3.7067047" fill="#87d3f9"/><path d="m36.8305983 71.1557375-28.048611-10.2240609c-1.50480479-.5486191-2.72453556.2212293-2.72453556 1.720095v12.6442206c0 1.4988658 1.21973077 3.1580857 2.72453556 3.7067047l28.048611 10.2240609c1.5040624.5486191 2.7237932-.2219717 2.7237932-1.720095v-12.6442206c0-1.4988658-1.2197308-3.1580857-2.7237932-3.7067047" fill="#87d3f9"/><g fill="#1e394c"><path d="m27.8430459 28.568203-9.6895471-3.5322453c-.3266473-.1187808-.5946466.0497395-.5946466.3756444 0 .3251626.2679993.6889289.5946466.8077097l9.6895471 3.5322453c.3266474.1187809.5939042-.0497395.5939042-.374902 0-.325905-.2672568-.6896713-.5939042-.8084521"/><path d="m27.8430459 35.2165894-9.6895471-3.5315029c-.3266473-.1195232-.5946466.0497395-.5946466.374902 0 .325905.2679993.6889289.5946466.8084521l9.6895471 3.5322453c.3266474.1187809.5939042-.0504818.5939042-.3756444 0-.3251625-.2672568-.6889289-.5939042-.8084521"/><path d="m30.8274146 33.0246374-16.0420951-5.8477293c-.3273897-.1195232-.5946466.0497395-.5946466.3749021 0 .3259049.2672569.6896712.5946466.8084521l16.0420951 5.8477293c.3266473.1195232.5939042-.0497395.5939042-.374902 0-.325905-.2672569-.6889289-.5939042-.8084522"/><path d="m27.8430459 52.4077406-9.6895471-3.5322452c-.3266473-.1187809-.5946466.0497394-.5946466.3756444 0 .3251625.2679993.6889289.5946466.8077097l9.6895471 3.5322453c.3266474.1187808.5939042-.0497395.5939042-.3749021 0-.3259049-.2672568-.6896712-.5939042-.8084521"/><path d="m30.8274146 56.8641751-16.0420951-5.8477293c-.3273897-.1195232-.5946466.0497395-.5946466.374902 0 .325905.2672569.6896713.5946466.8084521l16.0420951 5.8477293c.3266473.1195233.5939042-.0497394.5939042-.374902 0-.3259049-.2672569-.6889289-.5939042-.8084521"/><path d="m27.8426747 73.2523679-9.6895471-3.5322453c-.3266473-.1187809-.5939042.0497394-.5939042.3756444 0 .3251625.2672569.6889289.5939042.8077097l9.6895471 3.5322453c.3266474.1187808.5946466-.0497395.5946466-.374902 0-.325905-.2679992-.6896713-.5946466-.8084521"/><path d="m27.8426747 79.8409927-9.6895471-3.5322453c-.3266473-.1187809-.5939042.0497395-.5939042.3756444 0 .3251626.2672569.6889289.5939042.8084521l9.6895471 3.5315029c.3266474.1195232.5946466-.0497395.5946466-.374902 0-.325905-.2679992-.6889289-.5946466-.8084521"/><path d="m30.8274146 77.7088023-16.0420951-5.8477293c-.3273897-.1195232-.5946466.0497395-.5946466.374902 0 .3251626.2672569.6896713.5946466.8084521l16.0420951 5.8477294c.3266473.1195232.5939042-.0497395.5939042-.3749021 0-.3259049-.2672569-.6889289-.5939042-.8084521"/></g></g><g transform="translate(36.849057 27.198113)"><path d="m7.90571563 3.03792176s-2.65989905-2.90163779-3.48198252-2.99833328c-.82208347-.09678138-4.20737049 1.52488627-4.40084736 2.16491427-.193391.64002801 3.72372126-.640028 3.94150081 0 .21760781.64002801.45934655 1.07524363 1.57160239 1.12359137 1.11225584.04834775 2.07955431.67704023 2.07955431.67704023z" fill="#ffb27d" mask="url(#d)" transform="translate(30.056327 .050666)"/><path d="m41.1530968 104.818185c-.8451839-.515938-.3641968-4.364351-.3641968-4.364351s3.9383235-3.1507613 4.4798526-.7385264c.5415291 2.4123204 3.7414974 3.4952934 5.5629967 3.7907894 1.257385.203868 1.6466573.90023 1.7671403 1.312088z" fill="#233862"/><path d="m40.447735 102.372253c-1.0092056-.380771-6.6286223-13.8703082-6.3950417-18.2503738.0279953-.5197168-.0735092-4.7819616-.2335806-5.6649306-.1249485-.6879464-.2919758-1.4892481-.4928379-2.3781425-.3072616-1.353651-.6903509-2.9118569-1.1167214-4.5833322-1.1948678-4.6966016-2.7167484-10.2808953-3.7668306-14.7263978 1.8840164-4.2248032 4.2983982-7.9227619 6.5128625-9.1853852 1.5803617.192704 3.1035304.4847656 4.2317591.728823.899457.5279608 1.5710012.980008 2.0697645 1.3655018.1752713.8759273.4309218 2.33718.6377953 4.2188778.1331065 1.2311071.2452596 2.6431534.2978152 4.1872757.3749312 10.9573345-1.5406014 22.8641913 3.3440669 42.2989558.1367134.541958-3.5262941 2.579004-5.0890513 1.989128" fill="#2b478b"/><path d="m41.8948612 53.8968677c-.8140112 4.0740922-2.7729108 12.7804654-9.6852648 17.5986664-1.1948678-4.6966875-2.7168344-10.2809813-3.7668307-14.7264838 1.8839306-4.2248031 4.2983124-7.9227618 6.5127767-9.1853852 1.5804475.1927899 3.1035304.4847656 4.2318449.7289089.8993712.527875 1.5710013.980008 2.0696787 1.365416.1752713.8759272.4310077 2.3371799.6377952 4.2188777" fill="#233862"/><path d="m33.3960656 15.5684988-.0036927.683395s.1861775 2.1373484-2.4456403 2.4494189c-2.6318179.3129293-4.6255829-.8335049-4.5542205-2.4827384.2371014-1.2770504.4972175-2.1539223.5148219-3.210531.0065265-.3927074-.0203524-.8093739-.0934322-1.2797984l5.0995281-.101848 1.5021293.2454314z" fill="#ffb27d"/><path d="m33.4155249 11.8718455-.0194937 3.6966705c-.5417009.251872-1.1528748.4055887-1.8381591.4055887-2.3437923 0-3.8587171-1.7187067-4.6504866-2.9661301.0064407-.3926215-.0203524-.8092881-.0935181-1.2797125l5.099614-.101848z" fill="#e8945b"/><path d="m33.7130653 13.6681747s-6.5312398 1.319301-7.2902908-2.7606307c-.7589652-4.08001751-2.1132174-6.65756222 2.0247659-7.67243556 4.1379833-1.01495922 5.2401918.39081812 5.8247444 1.69096894.5845526 1.3002367 1.1202422 8.29365692-.5592195 8.74209732" fill="#ffb27d"/><path d="m29.0107273 104.818022s-.3567257-1.952631-.9220423-3.083092c-.5652307-1.130462-4.1622001-.410999-4.1622001-.410999s-.7193767.616584-.8736086 3.494091z" fill="#233862"/><path d="m36.0589531 49.7429889s-3.5801379 15.9516655-4.7277744 23.1519591c-.4293761 2.6939915-1.3241958 11.3251381-1.463829 14.0496153-.1917593 3.7388353-1.424584 15.1816227-1.424584 15.1816227s-2.0794684-1.314063-5.1650509-.087593c0 0-.7794894-5.1291551-1.2751611-15.8726603-.145215-3.1493878.4632968-7.8799101.3894441-9.4163037-.3634239-7.5549583-2.7768611-27.0886509-.8578935-28.3422574 1.9188818-1.2535205 14.5248488 1.3356173 14.5248488 1.3356173" fill="#2b478b"/><path d="m35.5422762 1.89488824s-1.8214134-.14014836-3.9696679-1.07412724c-1.7434387-.75810644-3.9433042.07677244-4.6573566.45299178.019236-.1150728.0651793-.27213857.1741549-.42963372 0 0-.3205722.2273117-.3678894.54505001-.0329761.02438856-.0477466.04122011-.0391591.046802 0 0-.3635098-.06646742-.5970045.03855797 0 0 .1634205-.02335806.2218157.08175321.006183.01116378.0154575.02052418.0261919.02893995-2.7198399 1.31414848-2.971025 5.61263258-2.0957847 6.60723937 1.0530019 1.19667118 2.3156253 3.89134973 2.3156253 3.89134973s.4605488-.636593.269047-1.689595c-.1914158-1.05300192.7180027-1.05300192 1.8667555-1.53167039s.1915018-1.81883715 1.1965853-2.63259073c1.0052554-.8136677 4.690848-.3350851 4.6429297-.95733694 1.3680781-.4983339 1.0137569-3.23766752 1.0137569-3.37773" fill="#233862"/><path d="m36.4051247 2.678096c-.4227637.99520792-.0782324 1.53836868-.0782324 1.53836868s6.9123541 6.26880512 6.4627114 7.40991502c-.2348687.5961458-5.5900474 3.7364308-7.8152461 5.0212959-.9150863-.0765149-1.6232134-.0700742-1.6457985-.0700742-.0012023.0012881-1.5149248 4.613732-6.9357121-.3585291-.9520127 1.3852532-8.3327302 4.7865989-7.051386 10.6570289.301422 1.3794995.5617956 2.6806808.7860158 3.9082671 1.5231688 8.3174443 1.4040599 13.2243544 1.107361 15.9307119-.2313478 2.1117575-1.107361 5.8337327-.3235778 6.3956142 0 0 1.5242851.6833091 4.3766305 1.2743024 2.1200016.4391659 4.9733775.829297 8.478718.8514528 5.5761357.0350371 8.5640494-1.8863351 8.5640494-1.8863351 1.4764527-1.4436483-2.3209209-10.6343291-2.0874262-14.7353002.1201394-2.103857-.0117649-9.3065552-.0323749-12.6161861l.0067841-.0066983c.2674154-.293178 8.4248743-9.2683407 10.0309126-14.3632315.0817532-.2592573.1460738-.5057192.1915876-.7416184.4870843-2.50781406-13.1542802-9.20994555-13.1542802-9.20994555s-.5501166.22310382-.8807362 1.00096155z" fill="#ee9849"/><path d="m21.2348292 46.7150459c.2966989-2.7063576.4158078-7.6131817-1.1073609-15.930712.1044242-.3308772.2079897-.648959.3102671-.952442.4621804-1.3713414 2.4244292-1.3026412 2.7868226.0984988 1.1257383 4.3518127 2.1391517 11.7498769-1.9897288 16.7846552" fill="#e58638"/><path d="m19.5698203 42.1676868s3.3902678-2.049498 4.4409511-1.7896396c1.0506833.2597726 3.330241 1.2506008 3.1890622 1.8563646-.1412648.6058497-2.7894848 1.0191671-3.2502053.9478048-.4608065-.0711905-1.2044859.0124519-1.5065949.2728256-.3020231.2603737-2.7044683.3576703-2.9976463-.3456478-.2932638-.703318.1244332-.9417076.1244332-.9417076" fill="#ffb27d"/><path d="m26.3925378 16.2186086s-4.1562747.3010785-6.4144495 1.6247592c-1.4611668.8566053-9.9283776 14.3473446-9.9283776 16.3328655 0 1.9856927 8.8913485 9.0296076 8.8913485 9.0296076s1.6501782.5482274 1.7085733-2.0798119c0 0-4.4351974-6.5563154-4.2016168-7.3155382.1466748-.476951 6.6835824-5.7207495 6.6835824-5.7207495z" fill="#ee9849"/><g fill="#e58638"><path d="m50.2485793 11.6287241c-1.6060384 5.0948909-9.7634972 14.0700536-10.0309985 14.3632316l-.0046373.0047231c-.0012022.0010305-.0024045.0023186-.0024045.0023186s0-.0012881-.0011164-.0023186c-.023358-.0899972-.6961045-2.6573228.909848-4.4934208 1.6352359-1.8688166 7.2779248-6.5526228 9.1293087-9.8745339"/><path d="m24.8253151 16.9868741c-.0178621-.3600748 1.6879633-.8577217 1.6879633-.8577217s1.952459 2.7070445 5.1691729 2.7538465c0 0-.9166321 1.7839718-1.9971141 2.2458946 0 0-4.7537945-2.003383-4.8600221-4.1420194"/><path d="m31.682417 18.8196917s1.7041078-1.0102361 1.7099473-2.1054886c0 0 1.100491-.137658 1.5812205.3960565 0 0 .4040429 1.8768029-.1319044 2.9670747 0 0-2.4538844-.3738148-3.1592634-1.2576426"/></g><path d="m24.8253151 16.4612233c-.0178621-.3600748 1.6879633-.8577217 1.6879633-.8577217s1.952459 2.7070445 5.1691729 2.7538465c0 0-.9166321 1.7840577-1.9971141 2.2458946 0 0-4.7537945-2.0032971-4.8600221-4.1420194" fill="#ee9849"/><path d="m31.682417 18.3573567s1.7041078-1.0102361 1.7099473-2.1054886c0 0 1.100491-.137658 1.5812205.3959706 0 0 .4040429 1.8768888-.1319044 2.9671606 0 0-2.4538844-.3739007-3.1592634-1.2576426" fill="#ee9849"/><path d="m16.8195462 104.818022h-14.13317183c-.77090184 0-1.40156945-.630668-1.40156945-1.40157v-9.4956521c0-.7709018.63066761-1.4016553 1.40156945-1.4016553h14.13317183c.7709019 0 1.4016553.6307535 1.4016553 1.4016553v9.4956521c0 .770902-.6307534 1.40157-1.4016553 1.40157" fill="#233862"/><path d="m16.936285 1.46844049v9.49599591c0 .7709018-.6307535 1.4015694-1.4015695 1.4015694h-14.13308593c-.77090185 0-1.40165533-.6306676-1.40165533-1.4015694v-9.49599591c0-.77098772.63075348-1.40165533 1.40165533-1.40165533h14.13308593c.770816 0 1.4015695.63066761 1.4015695 1.40165533" fill="#2b478b" mask="url(#e)" transform="translate(0 92.452402)"/><path d="m5.38020271 92.5191617c.90409431-1.0682877 2.0817012-1.489248 2.83499862-1.489248 1.84288217 0 2.87158147 1.4338585 2.91013947 1.489248l-.4488698.0299705c-.0329761-.0467161-.76205671-.9643787-2.35426915-.9643787-.65436917 0-1.61445412.002748-2.40287451.9344082-.050924.0602845-.55011665.0129672-.53912463 0" fill="#233862"/><path d="m16.936285 1.42835394v2.76002954c0 .77090185-.6307535 1.40165533-1.4015695 1.40165533h-14.13308593c-.77090185 0-1.40165533-.63075348-1.40165533-1.40165533v-2.76002954c0-.77098772.63075348-1.40156946 1.40165533-1.40156946h14.13308593c.770816 0 1.4015695.63058174 1.4015695 1.40156946" fill="#233862" mask="url(#f)" transform="translate(0 92.881778)"/><path d="m16.936285 1.46844049v2.76002955c0 .77090184-.6307535 1.40165533-1.4015695 1.40165533h-14.13308593c-.77090185 0-1.40165533-.63075349-1.40165533-1.40165533v-2.76002955c0-.77098772.63075348-1.40165533 1.40165533-1.40165533h14.13308593c.770816 0 1.4015695.63066761 1.4015695 1.40165533" fill="#2b478b" mask="url(#g)" transform="translate(0 92.452402)"/><path d="m7.78680421 96.9966613c0-.2365862.19175937-.4283456.42825972-.4283456.23658623 0 .42834559.1917594.42834559.4283456 0 .2365004-.19175936.4281739-.42834559.4281739-.23650035 0-.42825972-.1916735-.42825972-.4281739" fill="#233862"/></g><g fill="#f28b36"><path d="m4.63261191.06123577c1.43056677-.02386223 2.60564866.41573294 3.52545781 1.31836129.91927887.90284045 1.38952374 1.96136865 1.40978011 3.17611486.00965095.58054137-.08622216 1.11887311-.28708905 1.61467707-.2012911.49654634-.4478674.88852312-.73983496 1.17677877-.29228571.28846776-.58849543.53334719-.88894733.73389591-.30055795.20086689-.55127037.34319179-.75234937.42750498l-.32219303.10658459c.00381795.22981972-.00328769.40523357-.02152903.52708999s-.07688938.25431827-.17573201.39780977c-.09894869.14327939-.2660903.24721262-.50100063.31201181-.23533454.06458709-.54851295.10043345-.93985341.10690276-.39165861.00657537-.70610968-.02174113-.94314109-.08569189-.23745563-.06342049-.40480935-.17551991-.501743-.33576799-.09725182-.16046019-.15685435-.30448196-.17933786-.43248953-.02237747-.12779546-.03574031-.32654126-.04030065-.59666162-.0002121-.01325679.00243925-.03722507.00890857-.07105639.00604509-.03361923.00901461-.06405682.00848434-.09131278-.00965094-.5802232.14794578-1.04198372.47310834-1.38485735.32516255-.34287362.68224746-.5716328 1.0719971-.68617147.38964358-.11453867.74747086-.30267904 1.07411818-.56463321.3262231-.26195418.48615302-.60207039.47915343-1.0204547-.00774197-.45889706-.13840089-.80792183-.39208283-1.04665011-.25389405-.23883434-.69126208-.35305484-1.31189198-.34276758-.37797761.00636326-.68394433.0894038-.91726384.24827317-.23374373.15918754-.37628074.32007195-.42739892.48297139l-.05663301.244031c-.11559921.35305484-.25293956.62190255-.41180893.80664918-.15897543.18485269-.38699223.27987736-.68383828.28475586-.21603266.00360584-.4868954-.05249689-.81290639-.16862638-.51637849-.1938673-.87388762-.38349243-1.07263342-.56940566-.19895791-.18548901-.30023979-.39314337-.30411634-.62264493-.00195643-.12153825.04799515-.35835755.15033757-.7114124l.03870983-.10181215c.02545304-.08134366.06426892-.19354914.11581132-.3361922.0515424-.14243096.19259465-.39102229.42315675-.74598611.23003183-.35485776.49506158-.66655142.79445293-.93486886.2992853-.26810532.7235026-.51828747 1.27350032-.75012222.54946744-.23194081 1.16171905-.35358512 1.83664876-.36482687" mask="url(#h)" transform="matrix(.90630779 -.42261826 .42261826 .90630779 20.21258825558 50.1388604914)"/><path d="m2.14033532.03082999c.80314939-.01336284 1.36301016.11909901 1.68011259.3972795.27149906.23851617.41371791.73569883.42633837 1.49154799.00519667.31042101-.00562087.55020983-.03245262.71936648-.02736201.16936875-.09831236.3594181-.2135934.5704662-.11581133.21136627-.32526861.36334211-.62847792.45592754-.30342142.09300964-.70048881.1434915-1.19120216.15165768-.78830178.01315073-1.3554803-.11920506-1.70227794-.39696133-.25675751-.22504728-.38953753-.61426664-.39876425-1.16797626l-.00551483-.3238899c-.00509061-.3102089.00222714-.54681609.02195325-.70918526.01940794-.16226312.08685849-.34870662.2024577-.56017894.11549316-.2110481.32473834-.36662979.62826581-.46600269.30289115-.09947896.70759444-.15356666 1.2131554-.16205101" mask="url(#i)" transform="matrix(.90630779 -.42261826 .42261826 .90630779 27.38593791146 58.49567323757)"/><path d="m8.42293075.11317365c2.60103045-.04410127 4.73754305.76834203 6.40992325 2.43654586 1.6714162 1.66859585 2.5264068 3.62492794 2.5632366 5.86997631.0175472 1.07293477-.1567676 2.06785928-.5219801 2.98418558-.3659838.9176983-.8143044 1.6421351-1.3451545 2.1748784-.5314285.5331352-1.0699917.9857122-1.6162678 1.3563588-.546469.3712347-1.0023098.6342742-1.367908.7900987l-.5858055.1969857c.0069417.4247441-.0059776.7489374-.0391437.9741479-.0331661.2252104-.1397989.4700215-.3195127.7352171-.1799067.2648036-.4838006.4568891-.9109103.5766485-.4278809.1193674-.99729624.1856173-1.70882434.1975737-.71210657.0121523-1.28383579-.0401812-1.71480199-.1583726-.43173751-.1172113-.736017-.3243893-.91226-.6205538-.17682148-.2965565-.28518972-.5627321-.32606884-.7993109-.04068629-.2361868-.06498238-.6035013-.0732739-1.1027276-.00038565-.0245007.004435-.068798.01619739-.1313238.01099109-.0621338.01639022-.1183874.01542609-.1687608-.01754717-1.0723468.26899232-1.9257552.86019697-2.5594414.59120464-.6336862 1.24044993-1.0564703 1.94908563-1.2681564.70844288-.211686 1.35903799-.5594 1.95294219-1.0435339.5931329-.4841339.8839145-1.11272389.871188-1.88596607-.0140763-.84811631-.251638-1.49317081-.7128779-1.93437946-.4616255-.44140466-1.2568401-.65250271-2.3852581-.63349017-.68723201.01176034-1.24353514.16523274-1.66775243.45884916-.4249886.29420444-.6841468.59154496-.77708895.8926096l-.10296911.45100893c-.21018038.65250271-.45989011 1.14937695-.74874352 1.49081875-.28904623.34163779-.70362223.51725883-1.24334232.52627509-.39278664.00666419-.88526435-.09702279-1.47801161-.31164894-.93887-.35829827-1.58888658-.70875632-1.95024258-1.05235418-.36174166-.34281383-.54589053-.72659283-.55293881-1.15074899-.00355715-.22462244.08726391-.66230299.27334104-1.3148057l.07038151-.1881654c.04627825-.15033631.11685258-.35771026.21056604-.62133781.09371345-.26323555.35017209-.72267273.7693759-1.37870354.41823969-.6558348.90011197-1.23189532 1.44445988-1.72778954.54415509-.49550221 1.31545926-.95787947 2.31545512-1.38634775.99903172-.42866429 2.11221646-.65348274 3.33936139-.67425933" mask="url(#j)" transform="matrix(.93358043 .35836795 -.35836795 .93358043 98.76813973303 10.9565123566)"/><path d="m3.88677301.05667736c1.4584908-.02456604 2.47517809.21894968 3.05102485.7303522.49303267.43848428.75129705 1.35249686.77421537 2.74203774.00943695.57067295-.01020732 1.01149685-.05893281 1.32247169-.04968845.31136478-.17853175.66074843-.38787805 1.04873585-.21030925.38857233-.59067625.66796227-1.1412936.83816981-.55100253.17098743-1.27206282.26379246-2.16318086.27880504-1.43152807.0241761-2.46150414-.21914466-3.09127634-.7297673-.46626255-.41372327-.70738634-1.12925786-.72414174-2.14718868l-.01001473-.59543396c-.00924436-.57028302.00404441-1.00525786.03986631-1.30375472.03524414-.29830189.15773194-.6410566.36765601-1.0298239.20973148-.38798742.5897133-.67400629 1.14090842-.85669182.55003958-.1828805 1.28496641-.28231447 2.20304717-.29791195" mask="url(#k)" transform="matrix(.93358043 .35836795 -.35836795 .93358043 96.84568244003 30.34088403835)"/><path d="m3.20873552.04311377c.99086876-.01680048 1.8047783.29270173 2.44187554.92820795.63672995.63565556.96244069 1.38092493.97647108 2.23618145.00668463.40873705-.05972098.78775592-.19884956 1.1368326-.13942241.34959936-.31021119.62557527-.5124398.82852509-.20244898.20309916-.40761589.37550943-.6157211.51670815-.20817867.14142272-.38183229.24162826-.52110779.30098996l-.223164.07504215c.00264447.16180731-.00227719.28530952-.01491188.37110398-.0126347.08579446-.05325672.1790558-.12171915.2800827-.06853588.10087756-.18430496.17405299-.34701341.21967563-.16300229.0454733-.3799224.07071136-.65098072.07526616-.2712787.00462946-.4890803-.01530711-.6532579-.0603324-.16447143-.04465195-.28038743-.12357688-.34752762-.23640145-.06736057-.1129739-.1086437-.21437414-.1242167-.30449939-.01549954-.08997592-.02475519-.22990526-.02791387-.42008672-.00014691-.0093336.00168953-.02620875.00617043-.0500281.00418708-.02367001.0062439-.04509996.00587661-.06428984-.00668464-.40851305.10247327-.73362104.32769408-.97502529.22522082-.24140426.47255236-.40246487.74250881-.48310719.26988301-.08064231.51772875-.21310477.74397797-.39753673.22595539-.18443195.33672936-.42389482.33188116-.71846327-.0053624-.32309193-.09586209-.56882697-.27157252-.73690646-.17585735-.16815416-.47879625-.24857246-.90866977-.24132959-.26180267.00448013-.47372767.06294581-.63533426.17479968-.16190042.11207788-.26062735.22535046-.29603389.34004175l-.03922632.17181293c-.08006872.24857246-.17519623.43785789-.28523563.56793095-.11011285.13014773-.26804656.19705098-.47365422.20048575-.149633.00253874-.33724356-.03696106-.56305204-.11872341-.35766476-.13649458-.60529012-.2700024-.74294955-.40089682-.13780635-.13059575-.2079583-.27679727-.21064336-.43838057-.0013551-.08557046.0332434-.2523059.10412992-.50087837l.02681201-.07168205c.0176298-.05727098.04451526-.13627058.08021563-.23670012.03570036-.10028021.13339889-.2753039.29309558-.5252204.1593294-.24984183.3428998-.46929345.55027043-.65820553.20729718-.18876275.50112734-.36490647.88207814-.52813248.38058351-.16330068.80465389-.24894581 1.27213767-.2568607" mask="url(#l)" transform="matrix(.97437006 -.22495105 .22495105 .97437006 100.92230215925 111.44194079172)"/><path d="m1.48067543.02159137c.55561554-.00935849.94292499.08340941 1.16229518.27822941.18782197.16704163.28620841.5152369.29493919 1.04458581.00359503.21739922-.0038885.38533213-.02245059.50379874-.01892894.11861516-.0680121.25171369-.14776307.39951842-.08011781.14802755-.22501952.25446181-.43477851.31930278-.20990573.06513807-.48459536.10049237-.8240689.10621145-.54534403.00920994-.93771587-.08348368-1.17762909-.27800659-.17762382-.15760887-.2694805-.43019347-.27586352-.81797664l-.00381513-.22683199c-.00352166-.21725067.00154073-.38295537.01518717-.49666846.01342633-.11363882.06008835-.24421204.14005943-.39231387.0798977-.14780473.22465268-.2567643.43463178-.32635879.20953888-.06966876.48951101-.10754837.83925606-.11349027" mask="url(#m)" transform="matrix(.97437006 -.22495105 .22495105 .97437006 104.44451609422 117.97352099677)"/><path d="m3.86050993.04940119c1.19213897-.01925055 2.17137388.3353874 2.9378815 1.06357161.76606573.72835533 1.15793645 1.58230982 1.17481677 2.56229125.00804245.46834454-.07185181.90263699-.23924088 1.30262069-.16774259.40058259-.37322284.71680499-.61652913.94935166-.24357143.23271779-.49041287.43027123-.74078945.59206142-.25046496.16204687-.45939198.27686572-.62695781.34488434l-.26849419.08598579c.00318163.18540421-.00273974.32691716-.01794086.42522331s-.06407448.2051681-.14644334.32092809c-.08245724.11558887-.22174191.19943572-.41750052.25171166-.19611212.05210483-.45709413.08102344-.78321118.08624247-.32638217.0053046-.58842473-.01753939-.78595091-.06913087-.19787969-.05116369-.33734112-.1415985-.41811917-.27087665-.08104317-.12944927-.13071195-.24563705-.14944821-.34890556-.01864789-.1030974-.02978359-.26343311-.03358387-.48134936-.00017676-.01069475.00203271-.03003086.0074238-.05732387.00503758-.02712188.00751218-.05167703.00707029-.07366544-.00804245-.46808787.12328815-.84060744.39425694-1.11721648.2709688-.27660904.56853955-.46115767.89333092-.55356032.32470298-.09240265.62289239-.24418256.89509849-.45551084.27185258-.21132828.40512751-.48571281.39929452-.82323916-.00645164-.3702095-.11533407-.65178091-.32673569-.84437199-.21157838-.19267663-.57605173-.28482261-1.09324331-.27652348-.31498134.00513348-.56995361.0721254-.76438654.2002913-.19478644.12842257-.31356728.25821407-.35616577.38963117l-.04719417.19686898c-.09633268.28482261-.21078297.50171216-.34317411.65075421-.13247953.14912761-.32249352.22578759-.56986523.22972326-.18002722.00290897-.40574617-.04235122-.67742199-.13603724-.43031542-.15640004-.72823969-.30937776-.89386119-.45936095-.16579826-.14964095-.25019982-.31716354-.25343028-.50231107-.00163036-.09804948.03999596-.28910051.12528131-.57392312l.03225819-.08213569c.02121086-.06562299.05355743-.15614336.09650943-.27121889.042952-.1149044.16049555-.31545238.35263063-.60181503.19169319-.2862771.41255131-.53773209.66204411-.75419385.24940441-.21629064.60291883-.41812199 1.06125026-.60515179.45788954-.18711537.96809921-.28525041 1.53054064-.29431956" mask="url(#n)" transform="matrix(.97437006 .22495105 -.22495105 .97437006 171.57465904537 114.67885715821)"/><path d="m1.58350012.02597712c.59419995-.01125943 1.00840589.10035194 1.24301012.33474476.20086516.20097196.30608398.61989439.31542108 1.2567673.00384468.26155844-.00415854.46360272-.02400967.60613286-.02024344.14270886-.07273516.30284303-.15802439.4806706-.08568154.17809565-.24064588.30614937-.46497147.38416116-.22448251.07836923-.51824781.12090487-.8812959.12778564-.58321514.01108071-1.00283502-.1004413-1.25940888-.33447668-.18995881-.18962316-.28819443-.51757652-.29502071-.98412814l-.00408007-.27290724c-.00376623-.26137971.00164772-.46074318.01624183-.59755424.01435872-.1367217.06426116-.29381761.14978578-.47200262.08544615-.17782757.24025356-.30891955.46481454-.39265042.2240902-.08382023.52350483-.12939413.89753774-.13654298" mask="url(#o)" transform="matrix(.97437006 .22495105 -.22495105 .97437006 172.57856464062 123.2022199621)"/><path d="m1.78263085.02395209c.55048264-.0093336 1.0026546.16261207 1.35659752.51567109.35373886.35314198.53468927.76718051.54248393 1.24232303.00371368.22707614-.03317832.43764217-.11047198.63157366-.07745689.19422187-.17233955.34754182-.28468878.46029172-.11247165.11283286-.22645327.20861635-.34206727.28706008-.11565482.07856818-.21212905.13423792-.28950433.16721665l-.12398.04169008c.00146915.08989295-.0012651.15850529-.00828438.20616888s-.02958707.09947544-.06762175.1556015c-.03807549.05604308-.10239165.0966961-.19278523.12204201-.09055682.02526295-.211068.03928409-.36165595.04181454-.15071039.00257192-.27171128-.00850395-.36292106-.033518-.09137302-.02480664-.15577079-.06865382-.1930709-.13133414-.03742254-.06276328-.06035761-.11909675-.06900928-.16916633-.00861085-.04998662-.01375288-.12772514-.0155077-.23338151-.00008162-.00518533.00093862-.01456041.00342802-.02779339.00232615-.01315.00346883-.02505553.00326478-.03571658-.00371369-.22695169.05692959-.40756724.18205227-.54168071.12512267-.13411348.26252908-.2235916.41250489-.26839288.149935-.04480129.28762708-.11839155.41332109-.22085375.12553078-.10246219.18707187-.23549712.18437843-.39914625-.00297911-.17949552-.05325672-.31601499-.15087363-.40939248-.09769852-.09341898-.26599791-.13809582-.50481653-.134072-.14544593.00248896-.26318204.03496989-.35296348.09711094-.08994468.06226548-.14479298.1251947-.16446327.18891208l-.02179241.09545163c-.04448262.13809581-.09733124.24325438-.15846423.31551719-.06117381.0723043-.14891476.10947277-.26314123.11138097-.08312945.00141041-.18735754-.02053392-.31280669-.06595745-.19870265-.07583032-.3362723-.15000133-.41274976-.22272046-.07655908-.07255319-.11553238-.15377626-.11702408-.24354476-.00075284-.04753914.01846855-.14016994.05784995-.27826575l.01489556-.03982337c.00979434-.03181721.0247307-.07570587.04456424-.13150006.01983354-.05571123.0741105-.15294661.16283088-.29178911.08851634-.13880102.19049989-.26071859.30570579-.36566975.1151651-.10486819.27840408-.20272581.49004341-.29340693.21143529-.0907226.44702994-.13830322.70674316-.14270039" mask="url(#p)" transform="matrix(.97437006 -.22495105 .22495105 .97437006 91.7136299828 75.02085540125)"/><path d="m.82259746.01199521c.3086753-.00519916.52384722.04633856.64571955.15457189.10434554.09280091.15900467.28624272.1638551.58032545.00199724.12077735-.00216028.21407341-.01247255.27988819-.01051607.06589731-.0377845.13984094-.08209059.22195468-.0445099.08223753-.12501085.14136767-.24154362.17739043-.11661429.03618782-.26921965.05582909-.45781606.05900636-.3029689.00511663-.52095325-.04637982-.65423838-.15444811-.0986799-.08756048-.14971139-.23899637-.15325751-.45443146l-.00211952-.12601777c-.00195648-.12069482.00085596-.21275299.00843732-.27592693.00745907-.06313267.03338242-.13567335.07781079-.21795214.04438762-.08211374.12480705-.14264684.2414621-.18131044.1164105-.03870487.27195057-.0597491.46625337-.06305015" mask="url(#q)" transform="matrix(.97437006 -.22495105 .22495105 .97437006 93.67041530241 78.64951168702)"/><path d="m2.49568318.03353293c.7706757-.01306704 1.40371646.2276569 1.89923653.72193952.49523441.49439877.74856498 1.07405272.75947751 1.73925224.00519916.3179066-.04644965.61269905-.15466077.88420313-.10843965.27191061-.24127537.48655854-.39856429.6444084-.15746032.15796601-.31703458.2920629-.47889419.40188412-.16191674.10999545-.29698067.18793309-.40530605.23410331l-.17357201.05836611c.00205681.12585013-.00177114.2219074-.01159813.28863643-.00982698.06672902-.04142189.13926562-.09467044.2178421-.05330569.07846032-.14334831.13537454-.26989933.17085882-.12677955.03536813-.29549519.05499773-.50631833.05854035-.21099454.00360069-.38039579-.01190553-.50808948-.0469252-.12792223-.03472929-.21807911-.09611535-.27029926-.18386779-.05239155-.0878686-.08450066-.16673545-.09661299-.23683287-.0120552-.06998126-.01925404-.1788152-.02171078-.32673411-.00011427-.00725946.00131407-.02038458.00479922-.03891074.00325662-.01841001.00485636-.03507775.00457069-.05000321-.00519916-.31773237.07970143-.57059414.25487318-.75835301.17517175-.18775886.36754072-.31302823.57750685-.37575003.209909-.0627218.40267791-.16574816.57864953-.30919524.17574308-.14344707.26190062-.32969597.2581298-.55880476-.00417076-.25129372-.07455941-.44242098-.21122308-.57314947-.13677794-.13078657-.37239708-.19333414-.70674315-.18770079-.2036243.00348454-.36845486.04895785-.49414887.1359553-.12592255.08717169-.20271016.17527259-.23024858.26447692l-.03050936.13363228c-.06227567.19333413-.13626374.34055613-.22184994.44172407-.08564333.10122601-.20848066.15326188-.36839772.15593336-.11638123.00197458-.26230055-.02874749-.43792937-.09234043-.2781837-.10616245-.47078121-.21000187-.57784965-.31180864-.10718271-.10157447-.16174534-.21528677-.16383372-.34096267-.00105397-.06655479.02585597-.19623792.08098994-.38957205l.02085378-.05575271c.01371207-.0445441.03462298-.10598823.06238993-.1841001.02776695-.07799572.1037547-.21412525.22796324-.40850475.12392287-.19432142.26669984-.36500602.42798811-.51193764.16123114-.14681547.3897657-.28381614.68606077-.4107697.2960094-.12701165.62584192-.19362452.98944041-.19978055" mask="url(#r)" transform="matrix(.62932039 .77714596 -.77714596 .62932039 21.3349438106 111.68213726336)"/><path d="m1.15163645.01679329c.43214542-.00727882.7333861.06487398.90400736.21640065.14608376.12992127.22260654.40073981.22939715.81245563.00279613.16908828-.00302439.29970277-.01746158.39184347-.0147225.09225623-.05289829.19577731-.11492683.31073654-.06231385.11513254-.17501518.19791475-.33816106.24834661-.16326001.05066294-.3769075.07816073-.64094248.0826089-.42415646.00716329-.72933456-.06493175-.91593373-.21622734-.13815186-.12258468-.20959595-.33459493-.21456052-.63620406l-.00296732-.17642488c-.00273907-.16897274.00119834-.29785418.01181224-.38629769.0104427-.08838574.04673539-.1899427.10893511-.30513301.06214266-.11495923.17472987-.19970556.33804694-.25383461.16297469-.05418682.38073079-.08364873.65275472-.08827021" mask="url(#s)" transform="matrix(.62932039 .77714596 -.77714596 .62932039 17.96988207594 116.37136058218)"/><path d="m2.85220935.03832335c.88077223-.01493376 1.60424738.26017931 2.17055604.82507373.56598218.56502717.85550283 1.22748883.86797429 1.98771685.0059419.36332183-.05308532.70022749-.17675517 1.01051786-.12393103.31075499-.27574328.55606691-.45550204.73646675-.17995465.18053259-.36232523.33378616-.54730764.45929613-.18504771.12570909-.33940648.21478068-.46320692.26754664l-.19836801.06670413c.00235064.14382872-.00202416.25360846-.01325501.3298702-.01123084.07626175-.0473393.15916071-.10819479.2489624-.06092079.08966894-.16382664.15471377-.30845637.19526723-.14489092.04042071-.3377088.06285454-.57864953.06690325-.24113661.00411508-.43473804-.01360631-.58067369-.0536288-.14619683-.03969062-.24923327-.10984611-.30891344-.21013461-.05987605-.10042125-.09657218-.1905548-.11041484-.27066614-.01377737-.07997858-.02200462-.20436023-.02481233-.37341041-.00013059-.00829653.0015018-.02329666.00548483-.04446942.00372185-.02104001.00555013-.04008885.00522365-.05714653-.0059419-.36312271.09108735-.65210758.29128363-.86668914s.42004654-.35774656.66000783-.42942861c.23989601-.07168206.46020333-.18942647.66131375-.35336599.20084924-.16393951.29931499-.37679539.29500548-.63863401-.00476658-.28719283-.08521075-.50562398-.2413978-.65502797-.15631765-.14947036-.42559666-.2209533-.80770646-.21451519-.23271349.00398234-.42109127.05595183-.56474157.15537749-.14391148.09962479-.23166875.20031152-.26314123.30225934l-.03486784.1527226c-.0711722.2209533-.15572999.38920701-.25354278.50482751-.09787809.11568687-.23826361.17515643-.42102597.17820955-.13300712.00225666-.29977206-.03285427-.50049071-.10553191-.31792423-.12132852-.53803567-.24000214-.6603996-.35635274-.12249453-.1160851-.18485182-.24604201-.18723854-.38967161-.00120454-.07606263.02954968-.22427192.09255993-.44522522l.02383289-.06371738c.01567094-.05090753.03956913-.1211294.07130279-.2104001.03173365-.08913797.11857679-.24471458.2605294-.46686258.14162614-.22208162.30479982-.41714974.48912928-.58507159.18426415-.1677891.44544652-.3243613.78406945-.46945109.33829646-.14515616.7152479-.22128516 1.13078904-.22832062" mask="url(#t)" transform="matrix(.89100652 .4539905 -.4539905 .89100652 40.5505542654 83.27648460233)"/><path d="m1.31615594.01919233c.49388048-.00831866.83815555.0741417 1.03315127.24731503.16695286.14848145.25440747.45798836.26216817.92852072.00319558.19324375-.00345645.34251745-.01995608.4478211-.01682572.1054357-.0604552.2237455-.13134495.35512749-.07121583.13158004-.20001736.22618828-.38646979.28382469-.18658287.05790051-.43075143.08932655-.73250569.09441017-.48475025.00818662-.83352521-.07420771-1.04678141-.24711696-.15788784-.14009677-.23953823-.3823942-.24521202-.72709035l-.00339123-.20162843c-.00313036-.19311171.00136954-.34040478.01349971-.44148308.01193452-.10101228.05341187-.21707737.12449727-.34872344.07102018-.13138198.19969128-.22823493.38633936-.2900967.18625679-.06192779.4351209-.09559855.74600539-.10088024" mask="url(#u)" transform="matrix(.89100652 .4539905 -.4539905 .89100652 39.21700254475 89.73649921771)"/></g></g><path d="m0 0h200v147h-200z"/></g></svg>