<svg height="87" viewBox="0 0 87 87" width="87" xmlns="http://www.w3.org/2000/svg" xmlns:xlink="http://www.w3.org/1999/xlink"><linearGradient id="a" x1="0%" x2="100%" y1="50%" y2="50%"><stop offset="0" stop-color="#343434"/><stop offset="1" stop-color="#231f1f"/></linearGradient><linearGradient id="b"><stop offset="0" stop-color="#215bff"/><stop offset="1" stop-color="#2ba5ff"/></linearGradient><linearGradient id="c" x1="49.999196%" x2="49.999196%" xlink:href="#b" y1="99.999787%" y2="0%"/><linearGradient id="d" x1="50.03696%" x2="50.03696%" xlink:href="#b" y1="56.4605%" y2="43.56377%"/><linearGradient id="e" x1="49.96855%" x2="49.96855%" xlink:href="#b" y1="56.44829%" y2="43.56377%"/><linearGradient id="f" x1="49.98882%" x2="49.98882%" xlink:href="#b" y1="91.0625%" y2="8.90308%"/><linearGradient id="g" x1="50.01433%" x2="50.01433%" xlink:href="#b" y1="62.32002%" y2="37.72285%"/><linearGradient id="h" x1="20.47373%" x2="20.47373%" xlink:href="#b" y1="88.34111%" y2=".02324%"/><linearGradient id="i" x1="49.994192%" x2="49.994192%" xlink:href="#b" y1="62.30054%" y2="37.67285%"/><linearGradient id="j" x1="49.9988%" x2="49.9988%" xlink:href="#b" y1="82.04487%" y2="17.97016%"/><linearGradient id="k" x1="50.00518%" x2="50.00518%" xlink:href="#b" y1="66.93228%" y2="33.14932%"/><linearGradient id="l" x1="48.39424%" x2="48.39424%" xlink:href="#b" y1="33.8811%" y2=".04321%"/><linearGradient id="m" x1="50.0687%" x2="50.0687%" xlink:href="#b" y1="74.1064%" y2="25.80928%"/><linearGradient id="n" x1="50.00869%" x2="50.00869%" xlink:href="#b" y1="93.84341%" y2="6.1542%"/><linearGradient id="o" x1="44.00588%" x2="44.00588%" xlink:href="#b" y1="40.82427%" y2=".02227%"/><linearGradient id="p" x1="49.979745%" x2="49.979745%" xlink:href="#b" y1="100.029162%" y2="-.004199%"/><linearGradient id="q" x1="50.01165%" x2="50.01165%" xlink:href="#b" y1="82.04487%" y2="17.97627%"/><linearGradient id="r" x1="49.96274%" x2="49.96274%" xlink:href="#b" y1="100.051481%" y2=".027335%"/><linearGradient id="s" x1="49.993737%" x2="49.993737%" xlink:href="#b" y1="100.029162%" y2="-.004199%"/><linearGradient id="t" x1="49.99734%" x2="49.99734%" xlink:href="#b" y1="95.06377%" y2="4.87822%"/><linearGradient id="u" x1="49.999514%" x2="49.999514%" xlink:href="#b" y1="99.999841%" y2="-.000055%"/><linearGradient id="v" x1="49.951735%" x2="49.951735%" xlink:href="#b" y1="100.047091%" y2=".02634%"/><linearGradient id="w" x1="16.99736%" x2="16.99736%" xlink:href="#b" y1="97.13315%" y2=".02011%"/><linearGradient id="x" x1="50.03437%" x2="50.03437%" xlink:href="#b" y1="70.34492%" y2="29.62837%"/><linearGradient id="y" x1="50.03987%" x2="50.03987%" xlink:href="#b" y1="74.08315%" y2="25.87758%"/><mask id="z" fill="#fff"><path d="m19.8023864 0c-10.93662504 0-19.8023864 8.86576136-19.8023864 19.8023864v47.3955568c0 10.9359659 8.86576136 19.8020568 19.8023864 19.8020568h47.3952272c10.936625 0 19.8023864-8.8660909 19.8023864-19.8020568v-47.3955568c0-10.93662504-8.8657614-19.8023864-19.8023864-19.8023864z" fill="#fff" fill-rule="evenodd"/></mask><mask id="A" fill="#fff"><path d="m.29296591 6.70921591v13.02857959c0 3.7060681 3.00380682 6.709875 6.70954545 6.709875 3.70573864 0 6.70954544-3.0038069 6.70954544-6.709875v-13.02857959c0-3.70540909-3.0038068-6.70921591-6.70954544-6.70921591-3.70573863 0-6.70954545 3.00380682-6.70954545 6.70921591" fill="#fff" fill-rule="evenodd"/></mask><mask id="B" fill="#fff"><path d="m.15060227.32394318c.09820455-.01417045.19607955-.03295454.29428409-.04284091-.09952272.00988637-.19607954.02867046-.29428409.04284091" fill="#fff" fill-rule="evenodd"/></mask><mask id="C" fill="#fff"><path d="m.41588636.32394318c-.09820454-.01417045-.1950909-.03295454-.29428409-.04284091.09853409.00988637.19607955.02867046.29428409.04284091" fill="#fff" fill-rule="evenodd"/></mask><mask id="D" fill="#fff"><path d="m.13346591.49959091c.04943182-.09194318.10611364-.18092045.16015909-.27088636-.05404545.08996591-.11072727.17828409-.16015909.27088636" fill="#fff" fill-rule="evenodd"/></mask><mask id="E" fill="#fff"><path d="m.44323864.45872727c-.11039773-.02768181-.21947728-.05865909-.33185228-.08073863.11138637.02207954.22145455.05305682.33185228.08073863" fill="#fff" fill-rule="evenodd"/></mask><mask id="F" fill="#fff"><path d="m.22757955.91834091c.113-.26.243-.515.363-.774-.121.259-.249.512-.363.774m-.046.109c.015-.036.03-.073.046-.109-.016.036-.031.073-.046.109" fill="#fff" fill-rule="evenodd"/></mask><mask id="G" fill="#fff"><path d="m.12292046.45905682c.11072727-.02768182.22079545-.05898864.33251136-.08106818-.11270455.02207954-.22178409.05305682-.33251136.08106818" fill="#fff" fill-rule="evenodd"/></mask><mask id="H" fill="#fff"><path d="m.06030682.411c.09523864-.108.18915909-.2205.28736364-.32-.09886364.1005-.192125.212-.28736364.32" fill="#fff" fill-rule="evenodd"/></mask><mask id="I" fill="#fff"><path d="m.40731818.319c-.10578409-.03789773-.21090909-.07876136-.31834091-.11138636.10809091.03295454.21255682.07348863.31834091.11138636" fill="#fff" fill-rule="evenodd"/></mask><mask id="J" fill="#fff"><path d="m1.00484091.24561364c.04-.013.081-.026.122-.038-.041.012-.082.025-.122.038m-.846.3c.282-.1.562-.208.846-.3-.286.092-.564.2-.846.3" fill="#fff" fill-rule="evenodd"/></mask><mask id="K" fill="#fff"><path d="m.31142046.54078409c.08963636-.05371591.17729545-.10973863.26923863-.15917045-.09128409.04877272-.17960227.10545454-.26923863.15917045" fill="#fff" fill-rule="evenodd"/></mask><mask id="L" fill="#fff"><path d="m.141375.59548864c.06689773-.09952273.14104546-.19311364.21255682-.28868182-.07184091.09556818-.14664773.19014773-.21255682.28868182" fill="#fff" fill-rule="evenodd"/></mask><mask id="M" fill="#fff"><path d="m.40005682.42585227c.234-.112.466-.226.707-.326-.239.099-.473.213-.707.326m-.173.083c.058-.027.115-.055.173-.083-.057.028-.115.056-.173.083" fill="#fff" fill-rule="evenodd"/></mask><mask id="N" fill="#fff"><path d="m.31768182.56517045c.15785227-.15785227.32229545-.30515909.49135227-.44422727-.17070454.14005682-.33547727.28835228-.49135227.44422727" fill="#fff" fill-rule="evenodd"/></mask><mask id="O" fill="#fff"><path d="m.50618182.411c-.09523864-.108-.18882955-.2205-.28703409-.32.09886363.1005.19179545.212.28703409.32" fill="#fff" fill-rule="evenodd"/></mask><mask id="P" fill="#fff"><path d="m.13017045.37370455c.0224091-.11303409.05338637-.22277273.08139773-.33382955-.02801136.11105682-.05931818.22178409-.08139773.33382955" fill="#fff" fill-rule="evenodd"/></mask><mask id="Q" fill="#fff"><path d="m.57901136.56517045c-.15653409-.15587499-.32064772-.30417045-.49201136-.44422727.16905682.13906818.33382955.286375.49201136.44422727" fill="#fff" fill-rule="evenodd"/></mask><mask id="R" fill="#fff"><path d="m.36282955.36381818c.01021591-.10051136.02867045-.19838636.04317045-.29725-.0145.09886364-.03328409.19772728-.04317045.29725" fill="#fff" fill-rule="evenodd"/></mask><mask id="S" fill="#fff"><path d="m0 30.28325c0 3.7060682 3.00413636 6.709875 6.70954545 6.709875 3.70540905 0 6.70954545-3.0038068 6.70954545-6.709875v-14.0481932l-11.45368181-11.4536818c-1.31027273-1.31027273-1.96540909-3.02753409-1.96540909-4.74446591z" fill="#fff" fill-rule="evenodd"/></mask><mask id="T" fill="#fff"><path d="m.20267046 1.235625c.27575982-.3036193.56486286-.59785523.8680504-.88002681-.30689399.28485255-.59451445.57908847-.8680504.88002681" fill="#fff" fill-rule="evenodd"/></mask><mask id="U" fill="#fff"><path d="m.35834091.831125c.076-.227.162-.453.244-.68-.082.227-.168.452-.244.68m-.069.216c.022-.072.045-.144.069-.216-.024.072-.047.144-.069.216" fill="#fff" fill-rule="evenodd"/></mask><mask id="V" fill="#fff"><path d="m.33877273.23430682c-.09589773-.04547727-.19047727-.09359091-.28901137-.13445455.097875.04053409.1927841.08897728.28901137.13445455" fill="#fff" fill-rule="evenodd"/></mask><mask id="W" fill="#fff"><path d="m.58395455.54045455c-.08930682-.05338637-.17729546-.11006819-.26857955-.15884091.09227273.04943182.17927273.10545454.26857955.15884091" fill="#fff" fill-rule="evenodd"/></mask><g fill="none" fill-rule="evenodd"><g fill="#fff" transform="translate(21.75 35.590909)"><path d="m5.76707841 4.37567159h-4.94318182c-.45510227 0-.82386364-.36909091-.82386364-.82386364v-.18322727c0-.45510227.36876137-.82386363.82386364-.82386363h4.94318182c.45477273 0 .82386364.36876136.82386364.82386363v.18322727c0 .45477273-.36909091.82386364-.82386364.82386364"/><path d="m2.38007614 5.93181818v-4.94318182c0-.45510227.36876136-.82386363.82386363-.82386363h.18322728c.45477272 0 .82386363.36876136.82386363.82386363v4.94318182c0 .45510227-.36909091.82386364-.82386363.82386364h-.18322728c-.45510227 0-.82386363-.36876137-.82386363-.82386364"/></g><path d="m19.8023864 0c-10.93662504 0-19.8023864 8.86576136-19.8023864 19.8023864v47.3955568c0 10.9359659 8.86576136 19.8020568 19.8023864 19.8020568h47.3952272c10.936625 0 19.8023864-8.8660909 19.8023864-19.8020568v-47.3955568c0-10.93662504-8.8657614-19.8023864-19.8023864-19.8023864z" fill="url(#a)" mask="url(#z)"/><path d="m.29296591 6.70921591v13.02857959c0 3.7060681 3.00380682 6.709875 6.70954545 6.709875 3.70573864 0 6.70954544-3.0038069 6.70954544-6.709875v-13.02857959c0-3.70540909-3.0038068-6.70921591-6.70954544-6.70921591-3.70573863 0-6.70954545 3.00380682-6.70954545 6.70921591" fill="url(#c)" mask="url(#A)" transform="translate(53.386364 38.886364)"/><path d="m.15060227.32394318c.09820455-.01417045.19607955-.03295454.29428409-.04284091-.09952272.00988637-.19607954.02867046-.29428409.04284091" fill="url(#d)" mask="url(#B)" transform="translate(25.375 21.420455)"/><path d="m.41588636.32394318c-.09820454-.01417045-.1950909-.03295454-.29428409-.04284091.09853409.00988637.19607955.02867046.29428409.04284091" fill="url(#e)" mask="url(#C)" transform="translate(27.022727 21.420455)"/><path d="m.13346591.49959091c.04943182-.09194318.10611364-.18092045.16015909-.27088636-.05404545.08996591-.11072727.17828409-.16015909.27088636" fill="url(#f)" mask="url(#D)" transform="translate(20.431818 24.715909)"/><path d="m.44323864.45872727c-.11039773-.02768181-.21947728-.05865909-.33185228-.08073863.11138637.02207954.22145455.05305682.33185228.08073863" fill="url(#g)" mask="url(#E)" transform="translate(27.681818 21.420455)"/><path d="m.22757955.91834091c.113-.26.243-.515.363-.774-.121.259-.249.512-.363.774m-.046.109c.015-.036.03-.073.046-.109-.016.036-.031.073-.046.109" fill="url(#h)" mask="url(#F)" transform="translate(20.102273 25.375)"/><path d="m.12292046.45905682c.11072727-.02768182.22079545-.05898864.33251136-.08106818-.11270455.02207954-.22178409.05305682-.33251136.08106818" fill="url(#i)" mask="url(#G)" transform="translate(24.715909 21.420455)"/><path d="m.06030682.411c.09523864-.108.18915909-.2205.28736364-.32-.09886364.1005-.192125.212-.28736364.32" fill="url(#j)" mask="url(#H)" transform="translate(22.409091 22.738636)"/><path d="m.40731818.319c-.10578409-.03789773-.21090909-.07876136-.31834091-.11138636.10809091.03295454.21255682.07348863.31834091.11138636" fill="url(#k)" mask="url(#I)" transform="translate(28.340909 21.75)"/><path d="m1.00484091.24561364c.04-.013.081-.026.122-.038-.041.012-.082.025-.122.038m-.846.3c.282-.1.562-.208.846-.3-.286.092-.564.2-.846.3" fill="url(#l)" mask="url(#J)" transform="translate(24.056818 21.75)"/><path d="m.31142046.54078409c.08963636-.05371591.17729545-.10973863.26923863-.15917045-.09128409.04877272-.17960227.10545454-.26923863.15917045" fill="url(#m)" mask="url(#K)" transform="translate(22.738636 22.079545)"/><path d="m.141375.59548864c.06689773-.09952273.14104546-.19311364.21255682-.28868182-.07184091.09556818-.14664773.19014773-.21255682.28868182" fill="url(#n)" mask="url(#L)" transform="translate(20.761364 24.056818)"/><path d="m.40005682.42585227c.234-.112.466-.226.707-.326-.239.099-.473.213-.707.326m-.173.083c.058-.027.115-.055.173-.083-.057.028-.115.056-.173.083" fill="url(#o)" mask="url(#M)" transform="translate(23.397727 22.079545)"/><path d="m.31768182.56517045c.15785227-.15785227.32229545-.30515909.49135227-.44422727-.17070454.14005682-.33547727.28835228-.49135227.44422727" fill="url(#p)" mask="url(#N)" transform="translate(21.420455 23.068182)"/><path d="m.50618182.411c-.09523864-.108-.18882955-.2205-.28703409-.32.09886363.1005.19179545.212.28703409.32" fill="url(#q)" mask="url(#O)" transform="translate(29.988636 22.738636)"/><path d="m.13017045.37370455c.0224091-.11303409.05338637-.22277273.08139773-.33382955-.02801136.11105682-.05931818.22178409-.08139773.33382955" fill="url(#r)" mask="url(#P)" transform="translate(19.772727 26.693182)"/><path d="m.57901136.56517045c-.15653409-.15587499-.32064772-.30417045-.49201136-.44422727.16905682.13906818.33382955.286375.49201136.44422727" fill="url(#s)" mask="url(#Q)" transform="translate(30.647727 23.068182)"/><path d="m.36282955.36381818c.01021591-.10051136.02867045-.19838636.04317045-.29725-.0145.09886364-.03328409.19772728-.04317045.29725" fill="url(#t)" mask="url(#R)" transform="translate(19.443182 27.352273)"/><path d="m0 30.28325c0 3.7060682 3.00413636 6.709875 6.70954545 6.709875 3.70540905 0 6.70954545-3.0038068 6.70954545-6.709875v-14.0481932l-11.45368181-11.4536818c-1.31027273-1.31027273-1.96540909-3.02753409-1.96540909-4.74446591z" fill="url(#u)" mask="url(#S)" transform="translate(19.772727 28.340909)"/><path d="m.20267046 1.235625c.27575982-.3036193.56486286-.59785523.8680504-.88002681-.30689399.28485255-.59451445.57908847-.8680504.88002681" fill="url(#v)" mask="url(#T)" transform="translate(21.090909 23.397727)"/><path d="m.35834091.831125c.076-.227.162-.453.244-.68-.082.227-.168.452-.244.68m-.069.216c.022-.072.045-.144.069-.216-.024.072-.047.144-.069.216" fill="url(#w)" mask="url(#U)" transform="translate(19.772727 26.034091)"/><path d="m.33877273.23430682c-.09589773-.04547727-.19047727-.09359091-.28901137-.13445455.097875.04053409.1927841.08897728.28901137.13445455" fill="url(#x)" mask="url(#V)" transform="translate(29 22.079545)"/><path d="m.58395455.54045455c-.08930682-.05338637-.17729546-.11006819-.26857955-.15884091.09227273.04943182.17927273.10545454.26857955.15884091" fill="url(#y)" mask="url(#W)" transform="translate(29.329545 22.079545)"/><g transform="translate(19.443182 21.420455)"><g fill="#5ab1ff"><path d="m.32957841 6.95733068c0-.22343182.01219318-.44389773.03328409-.66172727-.02142045.22013636-.03328409.44093182-.03328409.66172727"/><path d="m1.67204773 2.94307159c.05964772-.07942045.11534091-.16180682.17828409-.23826136-.06360227.07744318-.11863637.15884091-.17828409.23826136"/><path d="m.40586818 5.9982875c.01680682-.11764773.03064773-.23628409.05371591-.351625-.02306818.11665909-.03690909.23430682-.05371591.351625"/><path d="m.97565227 4.09888636c.04811364-.10182954.09359091-.20497727.14664773-.30384091-.05338636.09952273-.09853409.20201137-.14664773.30384091"/><path d="m.54101477 5.31263523c.02570455-.10117046.04778409-.20365909.07777273-.30285228-.02998864.10018182-.05206818.20168182-.07777273.30285228"/><path d="m1.2821625 3.52412614c.05832955-.097875.11435227-.19772728.177625-.29197728-.06393182.09523864-.11929545.19443182-.177625.29197728"/><path d="m.73089886 4.68976136c.03592046-.10018181.068875-.20168181.10973864-.29988636-.04086364.09886364-.07381818.19970455-.10973864.29988636"/><path d="m2.78637273 1.76857159c.07711363-.06327273.15982954-.119625.23990909-.17927273-.08007955.05997728-.16213637.11534091-.23990909.17927273"/><path d="m10.4705159 1.19944659c.0985341.05898864.1990455.11501136.2939546.17861364-.0958978-.06426137-.1954205-.11995455-.2939546-.17861364"/><path d="m9.89572273.89323296c.10248863.04844318.20629547.09425.30614777.14730681-.1005114-.05371591-.20365914-.09919318-.30614777-.14730681"/><path d="m11.0517023 1.58916705c.0800795.05997727.1627954.11632954.2399091.17927272-.0777728-.06360227-.1598296-.11929545-.2399091-.17927272"/><path d="m7.03909091.24781818c.22343182 0 .44422727.01219318.66205682.03361364-.44027273-.0435-.88384091-.0435-1.32411364 0 .21782955-.02142046.438625-.03361364.66205682-.03361364"/><path d="m9.3050125.64864432c.10084091.03625.203.06953409.30186364.11039773-.09952273-.04119319-.20102273-.07414773-.30186364-.11039773"/><path d="m5.09141136.53729091c.09985228-.03031818.20267046-.05272727.30417046-.07810227-.1015.025375-.20365909.04778409-.30417046.07810227"/><path d="m3.31351364 1.37806023c.09490909-.06360228.19509091-.119625.293625-.17828409-.09853409.05865909-.19772728.11435227-.293625.17828409"/><path d="m8.68197386.458925c.10182955.02570455.20497728.04811364.30482955.07843182-.10084091-.03031818-.203-.05272727-.30482955-.07843182"/><path d="m3.87637727 1.04063864c.09952273-.05338637.203-.09886364.30548864-.14697728-.10215909.04811364-.20530682.09326137-.30548864.14697728"/><path d="m24.1273409 14.5569784-.1117159-.1113864-12.209-12.2093295c-.1578523-.15785227-.3222955-.30515909-.4913523-.44422727-.0774432-.06327273-.1601591-.119625-.2399091-.17927273-.0955681-.07151136-.1894886-.14565909-.2873636-.21123864-.0952386-.06360227-.1954205-.11995454-.2939545-.17861363-.0896364-.05338637-.177625-.11006818-.2689091-.15884091-.0995228-.05338637-.2036591-.09919318-.30581822-.14763636-.09622727-.04514773-.19146591-.09359091-.28934091-.134125-.09853409-.0405341-.20069318-.07381819-.30153409-.11039773-.10611363-.03789773-.21090909-.07876137-.31834091-.11105682-.09985227-.03031818-.203-.05272727-.30482954-.07843182-.11039773-.02768182-.22013637-.05898863-.33185228-.08106818-.11665909-.02306818-.23595454-.03723864-.3545909-.054375-.09820455-.01384091-.19575-.032625-.2942841-.04218182-.21782954-.02142045-.438625-.03361363-.66205681-.03361363-.22343182 0-.44422728.01219318-.66205682.03361363-.09853409.00955682-.19640909.02834091-.29461364.04251137-.11830682.01680681-.23793182.03097727-.35426136.05404545-.11171591.02207955-.22178409.05338636-.33251137.08106818-.1015.02570455-.20464772.04811364-.30417045.07810227-.10776136.032625-.21288636.07348864-.319.11171591-.10051136.03625-.20267045.06953409-.300875.11006819-.09820455.04053409-.19344318.08930681-.29.13445454-.10215909.04844318-.20596591.09392045-.30515909.14730682-.09161364.04877273-.17960227.10545454-.26923864.15917045-.09853409.05865909-.19871591.11468182-.293625.17828409-.09820454.06557955-.19179545.13972728-.28703409.21123864-.08007954.05964773-.163125.116-.24023863.17927273-.16905682.13906818-.3335.286375-.49168182.44422727v.00032955c-.15785228.15785227-.30548864.32229545-.44422728.49168181-.06294318.07645455-.1189659.15884091-.17828409.23826137-.07184091.09589772-.14631818.19014772-.21255681.28901136-.06327273.09457955-.11896591.19410227-.17729546.29197727-.05404545.09029546-.11072727.17894319-.16015909.27088637-.05272727.09886363-.09820455.20201136-.14631818.30384091-.04580682.09688636-.09425.19278409-.13511364.29131818-.04053409.097875-.07381818.199375-.10973863.29955682-.03822728.10677272-.07942046.21222727-.11204546.32031818-.02998863.09919318-.05239773.20135227-.07777273.30285227-.02801136.11105682-.05931818.22145455-.08172727.33382955-.02273863.11534091-.03657954.23397727-.05338636.351625-.0145.09886363-.03328409.19772727-.04317046.29725-.02109091.21782954-.03328409.43829545-.03328409.66172727 0 1.71726136.65513637 3.43419319 1.96507955 4.74446589l11.45401137 11.4536818.3328409.3328409c.148625.1838864.3074659.3625.4785.5338637 1.3171932 1.3171932 3.0456591 1.9706818 4.7718182 1.9638157 1.7264886.0068661 3.4549545-.6466225 4.7721477-1.9638157.1710341-.1713637.3295455-.3499773.4781705-.5338637 2.1295227-2.6347159 1.9710113-6.5055568-.4781705-8.9547386"/><path d="m4.4714375.75904205c.09853409-.04086364.20036364-.07414773.30120455-.11006819-.10084091.03592046-.20201137.068875-.30120455.11006819"/><path d="m7.99520114.32377841c.11863636.01713636.23826136.03097727.35492045.05404545-.11764773-.02306818-.23628409-.03690909-.35492045-.05404545"/><path d="m5.72812614.37782386c.11632954-.02306818.235625-.03690909.35426136-.05404545-.11830682.01713636-.23694318.03097727-.35426136.05404545"/></g><path d="m11.783392 2.21302955c-.1578522-.15785228-.322625-.30548864-.4916818-.44455682-.0771136-.06327273-.1601591-.11929546-.2399091-.17927273-.0952386-.07118182-.1891591-.14532955-.2873636-.21123864-.0949091-.06360227-.1954205-.119625-.2939545-.17861363-.0893069-.05305682-.1772955-.10973864-.2685796-.15884091-.0998523-.05305682-.20365908-.09886364-.30614772-.14730682-.09622727-.04547727-.19146591-.09359091-.28901136-.134125-.09853409-.04086364-.20069318-.07414773-.30186364-.11039773-.10578409-.03789772-.21090909-.07876136-.31801136-.11138636-.10018182-.03031818-.203-.05272727-.30482955-.07843182-.11072727-.02768182-.22046591-.05865909-.33185227-.08106818-.11665909-.02306818-.23628409-.03690909-.35492045-.05404545-.097875-.01384092-.19542046-.03295455-.2942841-.04251137-.21782954-.02142045-.43829545-.03328409-.66172727-.03328409-.22376136 0-.44455682.01186364-.66238636.03328409-.09853409.00988637-.19607955.02867045-.29428409.04251137-.11863637.01713636-.23793182.03097727-.35459091.05404545-.11171591.02240909-.22145455.05338636-.33218182.08139773-.10182955.025375-.20464773.04778409-.3045.07810227-.10743182.032625-.21255682.07348864-.31867045.11138636-.10084091.03625-.20267046.06953409-.30120455.11039773-.097875.04053409-.19311364.08897727-.28967045.13445455-.1021591.04844318-.20596591.09392045-.30548864.14697727-.09128409.04910227-.17960227.10578409-.26923864.15917045-.09820454.05898864-.19871591.11468182-.293625.17828409-.09820454.06590909-.19179545.14005682-.28703409.21123864-.08007954.05997727-.16279545.116-.23990909.17927273-.16905682.13906818-.33382954.28670454-.49168182.44455682-.15818182.15785227-.30548863.322625-.44455682.49168181-.06294318.07678409-.11863636.15884091-.17828409.23826137-.07151136.09589772-.14631818.19014772-.21222727.28901136-.06327273.09457955-.11896591.19443182-.177625.29230682-.05371591.08996591-.11072727.17861364-.15982954.27055682-.05305682.09919318-.0985341.20234091-.14664773.30417045-.04547727.09688637-.09425.19245455-.13511364.29098864-.04053409.097875-.07348863.19970454-.10973863.29988636-.03789773.10644318-.07909091.21222727-.11171591.31998864-.03031818.09919318-.05239773.20168182-.07810228.30285227-.02801136.11105682-.05898863.22178409-.08139772.33382955-.02306818.11567045-.03690909.23397727-.05371591.351625-.01417046.09919318-.03295455.19772727-.04284091.29725-.02142046.21782954-.03328409.438625-.03328409.66172727 0 1.71726136.65480682 3.43419319 1.96507954 4.74446589l11.45368183 11.4536818v-16.19814769c0-1.85270455-.7510341-3.52976136-1.9650796-4.74413636" fill="#0064f4"/><path d="m33.9432148 6.92045455c0-3.82206819 3.0983863-6.92045455 6.9204545-6.92045455s6.9204546 3.09838636 6.9204546 6.92045455c0 3.82206815-3.0983864 6.92045455-6.9204546 6.92045455s-6.9204545-3.0983864-6.9204545-6.92045455" fill="#fc2b54"/></g></g></svg>