<svg height="117" viewBox="0 0 117 117" width="117" xmlns="http://www.w3.org/2000/svg" xmlns:xlink="http://www.w3.org/1999/xlink"><linearGradient id="a" x1="0%" x2="100%" y1="50%" y2="50%"><stop offset="0" stop-color="#343434"/><stop offset="1" stop-color="#231f1f"/></linearGradient><linearGradient id="b"><stop offset="0" stop-color="#215bff"/><stop offset="1" stop-color="#2ba5ff"/></linearGradient><linearGradient id="c" x1="49.999196%" x2="49.999196%" xlink:href="#b" y1="99.999787%" y2="0%"/><linearGradient id="d" x1="50.03696%" x2="50.03696%" xlink:href="#b" y1="56.4605%" y2="43.56377%"/><linearGradient id="e" x1="49.96855%" x2="49.96855%" xlink:href="#b" y1="56.44829%" y2="43.56377%"/><linearGradient id="f" x1="49.98882%" x2="49.98882%" xlink:href="#b" y1="91.0625%" y2="8.90308%"/><linearGradient id="g" x1="50.01433%" x2="50.01433%" xlink:href="#b" y1="62.32002%" y2="37.72285%"/><linearGradient id="h" x1="20.47373%" x2="20.47373%" xlink:href="#b" y1="88.34111%" y2=".02324%"/><linearGradient id="i" x1="49.994192%" x2="49.994192%" xlink:href="#b" y1="62.30054%" y2="37.67285%"/><linearGradient id="j" x1="49.9988%" x2="49.9988%" xlink:href="#b" y1="82.04487%" y2="17.97016%"/><linearGradient id="k" x1="50.00518%" x2="50.00518%" xlink:href="#b" y1="66.93228%" y2="33.14932%"/><linearGradient id="l" x1="48.39424%" x2="48.39424%" xlink:href="#b" y1="33.8811%" y2=".04321%"/><linearGradient id="m" x1="50.0687%" x2="50.0687%" xlink:href="#b" y1="74.1064%" y2="25.80928%"/><linearGradient id="n" x1="50.00869%" x2="50.00869%" xlink:href="#b" y1="93.84341%" y2="6.1542%"/><linearGradient id="o" x1="44.00588%" x2="44.00588%" xlink:href="#b" y1="40.82427%" y2=".02227%"/><linearGradient id="p" x1="49.979745%" x2="49.979745%" xlink:href="#b" y1="100.029162%" y2="-.004199%"/><linearGradient id="q" x1="50.01165%" x2="50.01165%" xlink:href="#b" y1="82.04487%" y2="17.97627%"/><linearGradient id="r" x1="49.96274%" x2="49.96274%" xlink:href="#b" y1="100.051481%" y2=".027335%"/><linearGradient id="s" x1="49.993737%" x2="49.993737%" xlink:href="#b" y1="100.029162%" y2="-.004199%"/><linearGradient id="t" x1="49.99734%" x2="49.99734%" xlink:href="#b" y1="95.06377%" y2="4.87822%"/><linearGradient id="u" x1="49.999514%" x2="49.999514%" xlink:href="#b" y1="99.999841%" y2="-.000055%"/><linearGradient id="v" x1="49.951735%" x2="49.951735%" xlink:href="#b" y1="100.047091%" y2=".02634%"/><linearGradient id="w" x1="16.99736%" x2="16.99736%" xlink:href="#b" y1="97.13315%" y2=".02011%"/><linearGradient id="x" x1="50.03437%" x2="50.03437%" xlink:href="#b" y1="70.34492%" y2="29.62837%"/><linearGradient id="y" x1="50.03987%" x2="50.03987%" xlink:href="#b" y1="74.08315%" y2="25.87758%"/><mask id="z" fill="#fff"><path d="m26.6307955 0c-14.707875 0-26.6307955 11.9229205-26.6307955 26.6307955v63.7388522c0 14.7069883 11.9229205 26.6303523 26.6307955 26.6303523h63.738409c14.7078755 0 26.6307955-11.923364 26.6307955-26.6303523v-63.7388522c0-14.707875-11.92292-26.6307955-26.6307955-26.6307955z" fill="#fff" fill-rule="evenodd"/></mask><mask id="A" fill="#fff"><path d="m.39398864 9.02273864v17.52119316c0 4.9840227 4.03960227 9.023625 9.02318181 9.023625 4.98357955 0 9.02318185-4.0396023 9.02318185-9.023625v-17.52119316c0-4.98313637-4.0396023-9.02273864-9.02318185-9.02273864-4.98357954 0-9.02318181 4.03960227-9.02318181 9.02273864" fill="#fff" fill-rule="evenodd"/></mask><mask id="B" fill="#fff"><path d="m.20253409.43564773c.13206818-.01905682.26369318-.04431818.39576137-.05761364-.13384091.01329546-.26369319.03855682-.39576137.05761364" fill="#fff" fill-rule="evenodd"/></mask><mask id="C" fill="#fff"><path d="m.55929546.43564773c-.13206819-.01905682-.26236364-.04431818-.39576137-.05761364.13251137.01329546.26369318.03855682.39576137.05761364" fill="#fff" fill-rule="evenodd"/></mask><mask id="D" fill="#fff"><path d="m.17948864.67186364c.06647727-.12364773.14270454-.24330682.21538636-.36429546-.07268182.12098864-.14890909.23976137-.21538636.36429546" fill="#fff" fill-rule="evenodd"/></mask><mask id="E" fill="#fff"><path d="m.59607955.61690909c-.14846591-.03722727-.2951591-.07888636-.44628409-.10857954.14979545.02969318.29781818.07135227.44628409.10857954" fill="#fff" fill-rule="evenodd"/></mask><mask id="F" fill="#fff"><path d="m.29019318.96811364c.113-.26.243-.515.363-.774-.121.259-.249.512-.363.774m-.046.109c.015-.036.03-.073.046-.109-.016.036-.031.073-.046.109" fill="#fff" fill-rule="evenodd"/></mask><mask id="G" fill="#fff"><path d="m.16530682.61735227c.14890909-.03722727.29693182-.07932954.44717045-.10902272-.15156818.02969318-.29826136.07135227-.44717045.10902272" fill="#fff" fill-rule="evenodd"/></mask><mask id="H" fill="#fff"><path d="m.08110227.411c.12807955-.108.25438637-.2205.38645455-.32-.13295455.1005-.258375.212-.38645455.32" fill="#fff" fill-rule="evenodd"/></mask><mask id="I" fill="#fff"><path d="m.54777273.429c-.14226137-.05096591-.28363637-.10592045-.42811364-.14979545.14536364.04431818.28585227.09882954.42811364.14979545" fill="#fff" fill-rule="evenodd"/></mask><mask id="J" fill="#fff"><path d="m1.05961364.31720455c.04-.013.081-.02600001.122-.038-.041.01199999-.082.025-.122.038m-.846.3c.282-.1.562-.208.846-.3-.286.092-.564.2-.846.3" fill="#fff" fill-rule="evenodd"/></mask><mask id="K" fill="#fff"><path d="m.41880682.72726136c.12054545-.07223863.23843182-.14757954.36207954-.21405681-.12276136.0655909-.24153409.14181818-.36207954.21405681" fill="#fff" fill-rule="evenodd"/></mask><mask id="L" fill="#fff"><path d="m.190125.80082955c.08996591-.13384091.18968182-.25970455.28585227-.38822728-.09661363.12852273-.19721591.25571591-.28585227.38822728" fill="#fff" fill-rule="evenodd"/></mask><mask id="M" fill="#fff"><path d="m.47835227.46028409c.234-.112.466-.226.707-.326-.239.099-.473.213-.707.326m-.173.083c.058-.027.115-.055.173-.083-.057.028-.115.056-.173.083" fill="#fff" fill-rule="evenodd"/></mask><mask id="N" fill="#fff"><path d="m.42722727.76005682c.21228409-.21228409.43343182-.41038636.66078409-.59740909-.22956818.18835227-.45115909.38778409-.66078409.59740909" fill="#fff" fill-rule="evenodd"/></mask><mask id="O" fill="#fff"><path d="m.68072727.411c-.12807954-.108-.25394318-.2205-.38601136-.32.13295455.1005.25793182.212.38601136.32" fill="#fff" fill-rule="evenodd"/></mask><mask id="P" fill="#fff"><path d="m.17505682.50256818c.03013636-.15201136.07179545-.29959091.10946591-.44894318-.03767046.14935227-.07977273.29826136-.10946591.44894318" fill="#fff" fill-rule="evenodd"/></mask><mask id="Q" fill="#fff"><path d="m.77867046.76005682c-.21051137-.209625-.43121591-.40905682-.66167046-.59740909.22735227.18702273.44894318.385125.66167046.59740909" fill="#fff" fill-rule="evenodd"/></mask><mask id="R" fill="#fff"><path d="m.48794318.48927273c.01373864-.13517046.03855682-.26679546.05805682-.39975-.0195.13295454-.04476136.26590909-.05805682.39975" fill="#fff" fill-rule="evenodd"/></mask><mask id="S" fill="#fff"><path d="m0 40.72575c0 4.9840227 4.04004545 9.023625 9.02318182 9.023625 4.98313638 0 9.02318178-4.0396023 9.02318178-9.023625v-18.8923977l-15.40322724-15.4032273c-1.7620909-1.76209091-2.64313636-4.07151136-2.64313636-6.38048864z" fill="#fff" fill-rule="evenodd"/></mask><mask id="T" fill="#fff"><path d="m.27255682 1.316875c.27575982-.3036193.56486286-.59785523.86805041-.88002681-.306894.28485255-.59451446.57908847-.86805041.88002681" fill="#fff" fill-rule="evenodd"/></mask><mask id="U" fill="#fff"><path d="m.45811364.857375c.076-.227.162-.453.244-.68-.082.227-.168.452-.244.68m-.069.216c.022-.072.045-.144.069-.216-.024.072-.047.144-.069.216" fill="#fff" fill-rule="evenodd"/></mask><mask id="V" fill="#fff"><path d="m.45559091.31510227c-.12896591-.06115909-.25615909-.12586363-.38867046-.18081818.13162501.05451137.25926137.11965909.38867046.18081818" fill="#fff" fill-rule="evenodd"/></mask><mask id="W" fill="#fff"><path d="m.78531818.72681818c-.12010227-.07179545-.23843182-.14802273-.36119318-.21361363.12409091.06647727.24109091.14181818.36119318.21361363" fill="#fff" fill-rule="evenodd"/></mask><g fill="none" fill-rule="evenodd"><g fill="#fff" transform="translate(29.25 47.863636)"><path d="m7.75572614 5.88452386h-6.64772728c-.61203409 0-1.10795454-.49636363-1.10795454-1.10795454v-.24640909c0-.61203409.49592045-1.10795455 1.10795454-1.10795455h6.64772728c.61159091 0 1.10795454.49592046 1.10795454 1.10795455v.24640909c0 .61159091-.49636363 1.10795454-1.10795454 1.10795454"/><path d="m3.20079205 7.97727273v-6.64772728c0-.61203409.49592045-1.10795454 1.10795454-1.10795454h.24640909c.61159091 0 1.10795455.49592045 1.10795455 1.10795454v6.64772728c0 .61203409-.49636364 1.10795454-1.10795455 1.10795454h-.24640909c-.61203409 0-1.10795454-.49592045-1.10795454-1.10795454"/></g><path d="m26.6307955 0c-14.707875 0-26.6307955 11.9229205-26.6307955 26.6307955v63.7388522c0 14.7069883 11.9229205 26.6303523 26.6307955 26.6303523h63.738409c14.7078755 0 26.6307955-11.923364 26.6307955-26.6303523v-63.7388522c0-14.707875-11.92292-26.6307955-26.6307955-26.6307955z" fill="url(#a)" mask="url(#z)"/><path d="m.39398864 9.02273864v17.52119316c0 4.9840227 4.03960227 9.023625 9.02318181 9.023625 4.98357955 0 9.02318185-4.0396023 9.02318185-9.023625v-17.52119316c0-4.98313637-4.0396023-9.02273864-9.02318185-9.02273864-4.98357954 0-9.02318181 4.03960227-9.02318181 9.02273864" fill="url(#c)" mask="url(#A)" transform="translate(71.795455 52.295455)"/><path d="m.20253409.43564773c.13206818-.01905682.26369318-.04431818.39576137-.05761364-.13384091.01329546-.26369319.03855682-.39576137.05761364" fill="url(#d)" mask="url(#B)" transform="translate(34.125 28.806818)"/><path d="m.55929546.43564773c-.13206819-.01905682-.26236364-.04431818-.39576137-.05761364.13251137.01329546.26369318.03855682.39576137.05761364" fill="url(#e)" mask="url(#C)" transform="translate(36.340909 28.806818)"/><path d="m.17948864.67186364c.06647727-.12364773.14270454-.24330682.21538636-.36429546-.07268182.12098864-.14890909.23976137-.21538636.36429546" fill="url(#f)" mask="url(#D)" transform="translate(27.477273 33.238636)"/><path d="m.59607955.61690909c-.14846591-.03722727-.2951591-.07888636-.44628409-.10857954.14979545.02969318.29781818.07135227.44628409.10857954" fill="url(#g)" mask="url(#E)" transform="translate(37.227273 28.806818)"/><path d="m.29019318.96811364c.113-.26.243-.515.363-.774-.121.259-.249.512-.363.774m-.046.109c.015-.036.03-.073.046-.109-.016.036-.031.073-.046.109" fill="url(#h)" mask="url(#F)" transform="translate(27.034091 34.125)"/><path d="m.16530682.61735227c.14890909-.03722727.29693182-.07932954.44717045-.10902272-.15156818.02969318-.29826136.07135227-.44717045.10902272" fill="url(#i)" mask="url(#G)" transform="translate(33.238636 28.806818)"/><path d="m.08110227.411c.12807955-.108.25438637-.2205.38645455-.32-.13295455.1005-.258375.212-.38645455.32" fill="url(#j)" mask="url(#H)" transform="translate(30.136364 30.579545)"/><path d="m.54777273.429c-.14226137-.05096591-.28363637-.10592045-.42811364-.14979545.14536364.04431818.28585227.09882954.42811364.14979545" fill="url(#k)" mask="url(#I)" transform="translate(38.113636 29.25)"/><path d="m1.05961364.31720455c.04-.013.081-.02600001.122-.038-.041.01199999-.082.025-.122.038m-.846.3c.282-.1.562-.208.846-.3-.286.092-.564.2-.846.3" fill="url(#l)" mask="url(#J)" transform="translate(32.352273 29.25)"/><path d="m.41880682.72726136c.12054545-.07223863.23843182-.14757954.36207954-.21405681-.12276136.0655909-.24153409.14181818-.36207954.21405681" fill="url(#m)" mask="url(#K)" transform="translate(30.579545 29.693182)"/><path d="m.190125.80082955c.08996591-.13384091.18968182-.25970455.28585227-.38822728-.09661363.12852273-.19721591.25571591-.28585227.38822728" fill="url(#n)" mask="url(#L)" transform="translate(27.920455 32.352273)"/><path d="m.47835227.46028409c.234-.112.466-.226.707-.326-.239.099-.473.213-.707.326m-.173.083c.058-.027.115-.055.173-.083-.057.028-.115.056-.173.083" fill="url(#o)" mask="url(#M)" transform="translate(31.465909 29.693182)"/><path d="m.42722727.76005682c.21228409-.21228409.43343182-.41038636.66078409-.59740909-.22956818.18835227-.45115909.38778409-.66078409.59740909" fill="url(#p)" mask="url(#N)" transform="translate(28.806818 31.022727)"/><path d="m.68072727.411c-.12807954-.108-.25394318-.2205-.38601136-.32.13295455.1005.25793182.212.38601136.32" fill="url(#q)" mask="url(#O)" transform="translate(40.329545 30.579545)"/><path d="m.17505682.50256818c.03013636-.15201136.07179545-.29959091.10946591-.44894318-.03767046.14935227-.07977273.29826136-.10946591.44894318" fill="url(#r)" mask="url(#P)" transform="translate(26.590909 35.897727)"/><path d="m.77867046.76005682c-.21051137-.209625-.43121591-.40905682-.66167046-.59740909.22735227.18702273.44894318.385125.66167046.59740909" fill="url(#s)" mask="url(#Q)" transform="translate(41.215909 31.022727)"/><path d="m.48794318.48927273c.01373864-.13517046.03855682-.26679546.05805682-.39975-.0195.13295454-.04476136.26590909-.05805682.39975" fill="url(#t)" mask="url(#R)" transform="translate(26.147727 36.784091)"/><path d="m0 40.72575c0 4.9840227 4.04004545 9.023625 9.02318182 9.023625 4.98313638 0 9.02318178-4.0396023 9.02318178-9.023625v-18.8923977l-15.40322724-15.4032273c-1.7620909-1.76209091-2.64313636-4.07151136-2.64313636-6.38048864z" fill="url(#u)" mask="url(#S)" transform="translate(26.590909 38.113636)"/><path d="m.27255682 1.316875c.27575982-.3036193.56486286-.59785523.86805041-.88002681-.306894.28485255-.59451446.57908847-.86805041.88002681" fill="url(#v)" mask="url(#T)" transform="translate(28.363636 31.465909)"/><path d="m.45811364.857375c.076-.227.162-.453.244-.68-.082.227-.168.452-.244.68m-.069.216c.022-.072.045-.144.069-.216-.024.072-.047.144-.069.216" fill="url(#w)" mask="url(#U)" transform="translate(26.590909 35.011364)"/><path d="m.45559091.31510227c-.12896591-.06115909-.25615909-.12586363-.38867046-.18081818.13162501.05451137.25926137.11965909.38867046.18081818" fill="url(#x)" mask="url(#V)" transform="translate(39 29.693182)"/><path d="m.78531818.72681818c-.12010227-.07179545-.23843182-.14802273-.36119318-.21361363.12409091.06647727.24109091.14181818.36119318.21361363" fill="url(#y)" mask="url(#W)" transform="translate(39.443182 29.693182)"/><g transform="translate(26.147727 28.806818)"><g fill="#5ab1ff"><path d="m.44322614 9.35641023c0-.30047728.01639772-.59696591.04476136-.88990909-.02880682.29604545-.04476136.59297727-.04476136.88990909"/><path d="m2.24861591 3.95792386c.08021591-.10680681.15511364-.21760227.23976136-.32042045-.08553409.10414773-.15954545.21361364-.23976136.32042045"/><path d="m.54582273 8.0666625c.02260227-.15821591.04121591-.31776136.07223863-.472875-.03102272.15688636-.04963636.31510227-.07223863.472875"/><path d="m1.31208409 5.51229545c.06470455-.13694318.12586364-.27565909.19721591-.40861363-.07179545.13384091-.13251136.27167045-.19721591.40861363"/><path d="m.72757159 7.14457841c.03456818-.13605682.06426137-.27388636.10459091-.40728409-.04032954.13472727-.07002273.27122727-.10459091.40728409"/><path d="m1.7242875 4.73934205c.07844318-.131625.15378409-.2659091.238875-.3926591-.08597727.12807955-.16043182.26147728-.238875.3926591"/><path d="m.98293296 6.30692045c.04830681-.13472727.09262499-.27122727.14757954-.40329545-.05495455.13295455-.09927273.26856818-.14757954.40329545"/><path d="m3.74719091 2.37842386c.10370454-.08509091.21494318-.160875.32263636-.24109091-.10769318.0806591-.21804545.15511364-.32263636.24109091"/><path d="m14.0810386 1.61304886c.1325114.07932955.2676819.15467046.3953182.24020455-.1289659-.08642046-.2628068-.16131818-.3953182-.24020455"/><path d="m13.3080409 1.20124432c.1378296.06514773.2774318.12675.4117159.19810227-.1351704-.07223864-.2738863-.13339773-.4117159-.19810227"/><path d="m14.8626341 2.13715568c.1076932.08065909.2189318.15644318.3226364.24109091-.104591-.08553409-.2149432-.16043182-.3226364-.24109091"/><path d="m9.46636364.33327273c.30047727 0 .59740906.01639773.89035226.04520454-.5920909-.0585-1.18861363-.0585-1.78070454 0 .29294319-.02880681.589875-.04520454.89035228-.04520454"/><path d="m12.5136375.87231477c.1356136.04875.273.09351137.4059545.14846591-.1338409-.05539772-.2703409-.09971591-.4059545-.14846591"/><path d="m6.84707045.72256364c.1342841-.04077273.27255682-.07090909.40905682-.10503409-.1365.034125-.27388636.06426136-.40905682.10503409"/><path d="m4.45610455 1.85325341c.12763636-.08553409.26236363-.160875.394875-.23976136-.13251137.07888636-.2659091.15378409-.394875.23976136"/><path d="m11.675758.617175c.1369431.03456818.275659.06470455.4099431.10547727-.1356136-.04077272-.273-.07090909-.4099431-.10547727"/><path d="m5.21305909 1.39947955c.13384091-.07179546.273-.13295455.41082955-.1976591-.13738637.06470455-.27610228.12542046-.41082955.1976591"/><path d="m32.4471136 19.5766261-.1502386-.1497954-16.419-16.4194432c-.2122841-.21228409-.4334318-.41038636-.6607841-.59740909-.1041477-.08509091-.2153864-.160875-.3226364-.24109091-.1285227-.09617045-.2548295-.19588636-.3864545-.28407955-.1280795-.08553409-.2628068-.16131818-.3953182-.24020454-.1205454-.07179546-.238875-.14802273-.3616363-.21361364-.133841-.07179545-.2738864-.13339772-.4112728-.19854545-.1294091-.06071591-.2574886-.12586364-.3891136-.180375-.1325114-.05451136-.2698977-.09927273-.4055114-.14846591-.1427045-.05096591-.2836363-.10592045-.4281136-.14935227-.1342841-.04077273-.273-.07090909-.4099432-.10547728-.1484659-.03722727-.2960454-.07932954-.4462841-.10902272-.1568863-.03102273-.3173182-.05007955-.4768636-.073125-.1320682-.01861364-.26325-.043875-.3957614-.05672728-.2929432-.02880681-.58987498-.04520454-.89035225-.04520454-.30047728 0-.5974091.01639773-.89035228.04520454-.13251136.01285228-.26413636.03811364-.39620454.05717046-.15910228.02260227-.31997728.04165909-.47642046.07268182-.15023863.02969318-.29826136.07179545-.44717045.10902272-.1365.03456819-.27521591.06470455-.40905682.1050341-.14492045.043875-.28629545.09882954-.429.15023863-.13517045.04875-.27255682.09351137-.404625.14802273s-.26014773.12010227-.39.18081818c-.13738636.06514773-.27698864.12630682-.41038636.19810227-.12320455.06559091-.24153409.14181818-.36207955.21405682-.13251136.07888636-.26723864.15422727-.394875.23976136-.13206818.08819319-.25793182.1879091-.38601136.28407955-.10769318.08021591-.219375.156-.32307955.24109091-.22735227.18702273-.4485.385125-.66122727.59740909v.00044318c-.21228409.21228409-.41082955.43343182-.59740909.66122727-.08464773.10281819-.15998864.21361364-.23976137.32042046-.09661363.12896591-.19677272.25571591-.28585227.38867045-.08509091.12719319-.15998863.26103409-.23843182.39265909-.07268181.12143182-.14890909.24064773-.21538636.36429546-.07090909.13295454-.13206818.27167045-.19677273.40861364-.06160227.13029545-.12675.25926136-.18170454.39177272-.05451137.131625-.09927273.268125-.14757955.40285228-.05140909.1435909-.10680682.28540909-.15068182.43077272-.04032954.13339773-.0704659.27078409-.1045909.40728409-.03767046.14935228-.07977273.29781819-.1099091.44894319-.03057954.15511363-.04919318.31465909-.07179545.472875-.0195.13295454-.04476136.26590909-.05805682.39975-.02836363.29294318-.04476136.58943181-.04476136.88990909 0 2.30942046.88104545 4.61839776 2.64269318 6.38048866l15.40367049 15.4032272.4476136.4476137c.199875.2472954.4134886.4875.6435.7179545 1.7713977 1.7713978 4.0958864 2.6502273 6.4172727 2.6409936 2.3218296.0092337 4.6463182-.8695958 6.4177159-2.6409936.2300114-.2304545.4431819-.4706591.6430569-.7179545 2.8638409-3.5432387 2.6506704-8.7488523-.6430569-12.0425796"/><path d="m6.0133125 1.02078068c.13251136-.05495454.26945455-.09971591.40506818-.14802272-.13561363.04830681-.27167045.092625-.40506818.14802272"/><path d="m10.752167.43542614c.1595455.02304545.3204205.04165909.4773069.07268181-.1582159-.03102272-.3177614-.04963636-.4773069-.07268181"/><path d="m7.70334205.50810795c.15644318-.03102272.316875-.04963636.47642045-.07268181-.15910227.02304545-.31864773.04165909-.47642045.07268181"/></g><path d="m15.8466307 2.97614318c-.2122841-.21228409-.433875-.41082954-.6612273-.59785227-.1037045-.08509091-.2153864-.16043182-.3226364-.24109091-.1280795-.09572727-.2543863-.19544318-.3864545-.28407955-.1276364-.08553409-.2628068-.160875-.3953182-.24020454-.1201023-.07135227-.2384318-.14757955-.3611932-.21361364-.1342841-.07135227-.2738863-.13295454-.4117159-.19810227-.1294091-.06115909-.2574886-.12586364-.3886704-.180375-.1325114-.05495454-.2698978-.09971591-.4059546-.14846591-.1422613-.05096591-.2836363-.10592045-.4276704-.14979545-.1347273-.04077273-.273-.07090909-.4099432-.10547728-.1489091-.03722727-.2964886-.07888636-.4462841-.10902272-.1568864-.03102273-.3177614-.04963637-.4773068-.07268182-.131625-.01861364-.2628068-.04431818-.3957614-.05717046-.2929432-.02880681-.5894318-.04476136-.88990907-.04476136-.30092046 0-.59785228.01595455-.89079546.04476136-.13251136.01329546-.26369318.03855682-.39576136.05717046-.15954546.02304545-.31997727.04165909-.47686364.07268182-.15023863.03013636-.29781818.07179545-.44672727.10946591-.13694318.034125-.27521591.06426136-.4095.10503409-.14447727.043875-.28585227.09882954-.42855682.14979545-.13561363.04875-.27255682.09351137-.40506818.14846591-.131625.05451136-.25970455.11965909-.38955682.18081818-.13738636.06514773-.27698863.12630682-.41082954.19765909-.12276137.06603409-.24153409.14226137-.36207955.21405682-.13206818.07932955-.26723864.15422727-.394875.23976136-.13206818.08863637-.25793182.18835228-.38601136.28407955-.10769318.08065909-.21893182.156-.32263637.24109091-.22735227.18702273-.44894318.38556818-.66122727.59785227-.21272727.21228409-.41082954.433875-.59785227.66122727-.08464773.10326137-.15954546.21361364-.23976137.32042046-.09617045.12896591-.19677272.25571591-.28540909.38867045-.08509091.12719319-.15998863.26147728-.238875.39310228-.07223863.12098863-.14890909.24020454-.21494318.36385227-.07135227.13339773-.13251136.27211364-.19721591.40905682-.06115909.13029545-.12675.25881818-.18170454.39132954-.05451137.131625-.09882955.26856818-.14757955.40329546-.05096591.14314772-.10636363.28540909-.15023863.43032954-.04077273.13339773-.07046591.27122728-.10503409.40728409-.03767046.14935228-.07932955.29826137-.10946591.44894319-.03102273.15555681-.04963637.31465909-.07223864.472875-.01905682.13339772-.04431818.26590909-.05761364.39975-.02880681.29294318-.04476136.589875-.04476136.88990909 0 2.30942046.88060227 4.61839776 2.64269318 6.38048866l15.40322731 15.4032272v-21.78371586c0-2.49156819-1.0100114-4.74692046-2.6426932-6.38004546" fill="#0064f4"/><path d="m45.6477716 9.30681818c0-5.14002273 4.1667954-9.30681818 9.3068182-9.30681818 5.1400227 0 9.3068182 4.16679545 9.3068182 9.30681818 0 5.14002272-4.1667955 9.30681822-9.3068182 9.30681822-5.1400228 0-9.3068182-4.1667955-9.3068182-9.30681822" fill="#fc2b54"/></g></g></svg>