<svg height="177" viewBox="0 0 177 177" width="177" xmlns="http://www.w3.org/2000/svg" xmlns:xlink="http://www.w3.org/1999/xlink"><linearGradient id="a" x1="0%" x2="100%" y1="50%" y2="50%"><stop offset="0" stop-color="#343434"/><stop offset="1" stop-color="#231f1f"/></linearGradient><linearGradient id="b"><stop offset="0" stop-color="#215bff"/><stop offset="1" stop-color="#2ba5ff"/></linearGradient><linearGradient id="c" x1="49.999196%" x2="49.999196%" xlink:href="#b" y1="99.999787%" y2="0%"/><linearGradient id="d" x1="50.03696%" x2="50.03696%" xlink:href="#b" y1="56.4605%" y2="43.56377%"/><linearGradient id="e" x1="49.96855%" x2="49.96855%" xlink:href="#b" y1="56.44829%" y2="43.56377%"/><linearGradient id="f" x1="49.98882%" x2="49.98882%" xlink:href="#b" y1="91.0625%" y2="8.90308%"/><linearGradient id="g" x1="50.01433%" x2="50.01433%" xlink:href="#b" y1="62.32002%" y2="37.72285%"/><linearGradient id="h" x1="20.47373%" x2="20.47373%" xlink:href="#b" y1="88.34111%" y2=".02324%"/><linearGradient id="i" x1="49.994192%" x2="49.994192%" xlink:href="#b" y1="62.30054%" y2="37.67285%"/><linearGradient id="j" x1="49.9988%" x2="49.9988%" xlink:href="#b" y1="82.04487%" y2="17.97016%"/><linearGradient id="k" x1="50.00518%" x2="50.00518%" xlink:href="#b" y1="66.93228%" y2="33.14932%"/><linearGradient id="l" x1="48.39424%" x2="48.39424%" xlink:href="#b" y1="33.8811%" y2=".04321%"/><linearGradient id="m" x1="50.0687%" x2="50.0687%" xlink:href="#b" y1="74.1064%" y2="25.80928%"/><linearGradient id="n" x1="50.00869%" x2="50.00869%" xlink:href="#b" y1="93.84341%" y2="6.1542%"/><linearGradient id="o" x1="44.00588%" x2="44.00588%" xlink:href="#b" y1="40.82427%" y2=".02227%"/><linearGradient id="p" x1="49.979745%" x2="49.979745%" xlink:href="#b" y1="100.029162%" y2="-.004199%"/><linearGradient id="q" x1="50.01165%" x2="50.01165%" xlink:href="#b" y1="82.04487%" y2="17.97627%"/><linearGradient id="r" x1="49.96274%" x2="49.96274%" xlink:href="#b" y1="100.051481%" y2=".027335%"/><linearGradient id="s" x1="49.993737%" x2="49.993737%" xlink:href="#b" y1="100.029162%" y2="-.004199%"/><linearGradient id="t" x1="49.99734%" x2="49.99734%" xlink:href="#b" y1="95.06377%" y2="4.87822%"/><linearGradient id="u" x1="49.999514%" x2="49.999514%" xlink:href="#b" y1="99.999841%" y2="-.000055%"/><linearGradient id="v" x1="49.951735%" x2="49.951735%" xlink:href="#b" y1="100.047091%" y2=".02634%"/><linearGradient id="w" x1="16.99736%" x2="16.99736%" xlink:href="#b" y1="97.13315%" y2=".02011%"/><linearGradient id="x" x1="50.03437%" x2="50.03437%" xlink:href="#b" y1="70.34492%" y2="29.62837%"/><linearGradient id="y" x1="50.03987%" x2="50.03987%" xlink:href="#b" y1="74.08315%" y2="25.87758%"/><mask id="z" fill="#fff"><path d="m40.2876136 0c-22.250375 0-40.2876136 18.0372386-40.2876136 40.2876136v96.4254434c0 22.249034 18.0372386 40.286943 40.2876136 40.286943h96.4247724c22.250375 0 40.287614-18.037909 40.287614-40.286943v-96.4254434c0-22.250375-18.037239-40.2876136-40.287614-40.2876136z" fill="#fff" fill-rule="evenodd"/></mask><mask id="A" fill="#fff"><path d="m.59603409 13.6497841v26.5064204c0 7.5399319 6.11119318 13.651125 13.65045451 13.651125 7.5392614 0 13.6504546-6.1111931 13.6504546-13.651125v-26.5064204c0-7.53859092-6.1111932-13.6497841-13.6504546-13.6497841-7.53926133 0-13.65045451 6.11119318-13.65045451 13.6497841" fill="#fff" fill-rule="evenodd"/></mask><mask id="B" fill="#fff"><path d="m.30639773.65905682c.19979545-.02882955.39892045-.06704546.59871591-.08715909-.20247728.02011363-.39892046.05832954-.59871591.08715909" fill="#fff" fill-rule="evenodd"/></mask><mask id="C" fill="#fff"><path d="m.84611364.65905682c-.19979546-.02882955-.39690909-.06704546-.59871591-.08715909.20046591.02011363.39892045.05832954.59871591.08715909" fill="#fff" fill-rule="evenodd"/></mask><mask id="D" fill="#fff"><path d="m.27153409 1.01640909c.10056818-.18705682.21588637-.36807955.32584091-.55111363-.10995454.18303408-.22527273.3627159-.32584091.55111363" fill="#fff" fill-rule="evenodd"/></mask><mask id="E" fill="#fff"><path d="m.90176136.93327273c-.22460227-.05631818-.44652272-.11934091-.67514772-.16426137.22661363.04492046.45054545.10794319.67514772.16426137" fill="#fff" fill-rule="evenodd"/></mask><mask id="F" fill="#fff"><path d="m.41542046 1.06765909c.113-.26.243-.515.363-.774-.121.259-.249.512-.363.774m-.046.109c.015-.036.03-.073.046-.109-.016.036-.031.073-.046.109" fill="#fff" fill-rule="evenodd"/></mask><mask id="G" fill="#fff"><path d="m.25007955.93394318c.22527272-.05631818.44920454-.12001136.67648863-.16493182-.22929545.04492046-.45121591.10794319-.67648863.16493182" fill="#fff" fill-rule="evenodd"/></mask><mask id="H" fill="#fff"><path d="m.12269318.55111364c.19376136-.14481818.38484091-.29567046.58463637-.42909091-.20113637.13476136-.39087501.28427273-.58463637.42909091" fill="#fff" fill-rule="evenodd"/></mask><mask id="I" fill="#fff"><path d="m.82868182.649c-.21521591-.07710227-.42909091-.16023864-.64765909-.22661364.21990909.06704546.43244318.14951137.64765909.22661364" fill="#fff" fill-rule="evenodd"/></mask><mask id="J" fill="#fff"><path d="m1.16915909.46038636c.04-.013.081-.026.122-.038-.041.012-.082.025-.122.038m-.846.3c.282-.1.562-.208.846-.3-.286.092-.564.2-.846.3" fill="#fff" fill-rule="evenodd"/></mask><mask id="K" fill="#fff"><path d="m.63357955 1.10021591c.18236363-.10928409.36070454-.22326136.54776136-.32382955-.18571591.09922728-.36539773.21454546-.54776136.32382955" fill="#fff" fill-rule="evenodd"/></mask><mask id="L" fill="#fff"><path d="m.287625 1.21151136c.13610227-.20247727.28695455-.39288636.43244318-.58731818-.14615909.19443182-.29835227.38685227-.43244318.58731818" fill="#fff" fill-rule="evenodd"/></mask><mask id="M" fill="#fff"><path d="m.63494318.52914773c.234-.112.466-.226.707-.326-.239.099-.473.213-.707.326m-.173.083c.058-.027.115-.055.173-.083-.057.028-.115.056-.173.083" fill="#fff" fill-rule="evenodd"/></mask><mask id="N" fill="#fff"><path d="m.64631818 1.14982955c.32114773-.32114773.65570455-.62084091.99964773-.90377273-.34729546.28494318-.68252273.58664773-.99964773.90377273" fill="#fff" fill-rule="evenodd"/></mask><mask id="O" fill="#fff"><path d="m1.02981818.55111364c-.19376136-.14481818-.38417045-.29567046-.58396591-.42909091.20113637.13476136.39020455.28427273.58396591.42909091" fill="#fff" fill-rule="evenodd"/></mask><mask id="P" fill="#fff"><path d="m.26482955.76029546c.04559091-.22996592.10861363-.45322728.16560227-.67917046-.05698864.22594318-.12068182.45121591-.16560227.67917046" fill="#fff" fill-rule="evenodd"/></mask><mask id="Q" fill="#fff"><path d="m1.17798864 1.14982955c-.31846591-.317125-.65235228-.61882955-1.00098864-.90377273.34394318.28293182.67917046.582625 1.00098864.90377273" fill="#fff" fill-rule="evenodd"/></mask><mask id="R" fill="#fff"><path d="m.73817046.74018182c.02078409-.20448864.05832954-.40361364.08782954-.60475-.0295.20113636-.06771591.40227273-.08782954.60475" fill="#fff" fill-rule="evenodd"/></mask><mask id="S" fill="#fff"><path d="m0 61.61075c0 7.5399318 6.11186364 13.651125 13.6504545 13.651125 7.538591 0 13.6504546-6.1111932 13.6504546-13.651125v-28.5808068l-23.30231819-23.3023182c-2.66572727-2.66572727-3.99859091-6.15946591-3.99859091-9.65253409z" fill="#fff" fill-rule="evenodd"/></mask><mask id="T" fill="#fff"><path d="m.41232955 1.47969318c.27575982-.30371591.56486286-.59804545.8680504-.88030682-.30689399.28494319-.59451445.57927273-.8680504.88030682" fill="#fff" fill-rule="evenodd"/></mask><mask id="U" fill="#fff"><path d="m.65765909.909875c.076-.227.162-.453.244-.68-.082.227-.168.452-.244.68m-.069.216c.022-.072.045-.144.069-.216-.024.072-.047.144-.069.216" fill="#fff" fill-rule="evenodd"/></mask><mask id="V" fill="#fff"><path d="m.68922727.47669318c-.19510227-.09252272-.38752272-.19040909-.58798863-.27354545.199125.08246591.39221591.18102273.58798863.27354545" fill="#fff" fill-rule="evenodd"/></mask><mask id="W" fill="#fff"><path d="m1.18804545 1.09954545c-.18169318-.10861363-.36070454-.22393181-.54642045-.32315909.18772727.10056819.36472727.21454546.54642045.32315909" fill="#fff" fill-rule="evenodd"/></mask><g fill="none" fill-rule="evenodd"><g fill="#fff" transform="translate(44.25 72.409091)"><path d="m11.7330216 8.90222841h-10.05681819c-.92589773 0-1.67613636-.75090909-1.67613636-1.67613636v-.37277273c0-.92589773.75023863-1.67613637 1.67613636-1.67613637h10.05681819c.9252273 0 1.6761364.75023864 1.6761364 1.67613637v.37277273c0 .92522727-.7509091 1.67613636-1.6761364 1.67613636"/><path d="m4.84222386 12.0681818v-10.05681816c0-.92589773.75023864-1.67613637 1.67613637-1.67613637h.37277272c.92522728 0 1.67613637.75023864 1.67613637 1.67613637v10.05681816c0 .9258977-.75090909 1.6761364-1.67613637 1.6761364h-.37277272c-.92589773 0-1.67613637-.7502387-1.67613637-1.6761364"/></g><path d="m40.2876136 0c-22.250375 0-40.2876136 18.0372386-40.2876136 40.2876136v96.4254434c0 22.249034 18.0372386 40.286943 40.2876136 40.286943h96.4247724c22.250375 0 40.287614-18.037909 40.287614-40.286943v-96.4254434c0-22.250375-18.037239-40.2876136-40.287614-40.2876136z" fill="url(#a)" mask="url(#z)"/><path d="m.59603409 13.6497841v26.5064204c0 7.5399319 6.11119318 13.651125 13.65045451 13.651125 7.5392614 0 13.6504546-6.1111931 13.6504546-13.651125v-26.5064204c0-7.53859092-6.1111932-13.6497841-13.6504546-13.6497841-7.53926133 0-13.65045451 6.11119318-13.65045451 13.6497841" fill="url(#c)" mask="url(#A)" transform="translate(108.613636 79.113636)"/><path d="m.30639773.65905682c.19979545-.02882955.39892045-.06704546.59871591-.08715909-.20247728.02011363-.39892046.05832954-.59871591.08715909" fill="url(#d)" mask="url(#B)" transform="translate(51.625 43.579545)"/><path d="m.84611364.65905682c-.19979546-.02882955-.39690909-.06704546-.59871591-.08715909.20046591.02011363.39892045.05832954.59871591.08715909" fill="url(#e)" mask="url(#C)" transform="translate(54.977273 43.579545)"/><path d="m.27153409 1.01640909c.10056818-.18705682.21588637-.36807955.32584091-.55111363-.10995454.18303408-.22527273.3627159-.32584091.55111363" fill="url(#f)" mask="url(#D)" transform="translate(41.568182 50.284091)"/><path d="m.90176136.93327273c-.22460227-.05631818-.44652272-.11934091-.67514772-.16426137.22661363.04492046.45054545.10794319.67514772.16426137" fill="url(#g)" mask="url(#E)" transform="translate(56.318182 43.579545)"/><path d="m.41542046 1.06765909c.113-.26.243-.515.363-.774-.121.259-.249.512-.363.774m-.046.109c.015-.036.03-.073.046-.109-.016.036-.031.073-.046.109" fill="url(#h)" mask="url(#F)" transform="translate(40.897727 51.625)"/><path d="m.25007955.93394318c.22527272-.05631818.44920454-.12001136.67648863-.16493182-.22929545.04492046-.45121591.10794319-.67648863.16493182" fill="url(#i)" mask="url(#G)" transform="translate(50.284091 43.579545)"/><path d="m.12269318.55111364c.19376136-.14481818.38484091-.29567046.58463637-.42909091-.20113637.13476136-.39087501.28427273-.58463637.42909091" fill="url(#j)" mask="url(#H)" transform="translate(45.590909 46.261364)"/><path d="m.82868182.649c-.21521591-.07710227-.42909091-.16023864-.64765909-.22661364.21990909.06704546.43244318.14951137.64765909.22661364" fill="url(#k)" mask="url(#I)" transform="translate(57.659091 44.25)"/><path d="m1.16915909.46038636c.04-.013.081-.026.122-.038-.041.012-.082.025-.122.038m-.846.3c.282-.1.562-.208.846-.3-.286.092-.564.2-.846.3" fill="url(#l)" mask="url(#J)" transform="translate(48.943182 44.25)"/><path d="m.63357955 1.10021591c.18236363-.10928409.36070454-.22326136.54776136-.32382955-.18571591.09922728-.36539773.21454546-.54776136.32382955" fill="url(#m)" mask="url(#K)" transform="translate(46.261364 44.920455)"/><path d="m.287625 1.21151136c.13610227-.20247727.28695455-.39288636.43244318-.58731818-.14615909.19443182-.29835227.38685227-.43244318.58731818" fill="url(#n)" mask="url(#L)" transform="translate(42.238636 48.943182)"/><path d="m.63494318.52914773c.234-.112.466-.226.707-.326-.239.099-.473.213-.707.326m-.173.083c.058-.027.115-.055.173-.083-.057.028-.115.056-.173.083" fill="url(#o)" mask="url(#M)" transform="translate(47.602273 44.920455)"/><path d="m.64631818 1.14982955c.32114773-.32114773.65570455-.62084091.99964773-.90377273-.34729546.28494318-.68252273.58664773-.99964773.90377273" fill="url(#p)" mask="url(#N)" transform="translate(43.579545 46.931818)"/><path d="m1.02981818.55111364c-.19376136-.14481818-.38417045-.29567046-.58396591-.42909091.20113637.13476136.39020455.28427273.58396591.42909091" fill="url(#q)" mask="url(#O)" transform="translate(61.011364 46.261364)"/><path d="m.26482955.76029546c.04559091-.22996592.10861363-.45322728.16560227-.67917046-.05698864.22594318-.12068182.45121591-.16560227.67917046" fill="url(#r)" mask="url(#P)" transform="translate(40.227273 54.306818)"/><path d="m1.17798864 1.14982955c-.31846591-.317125-.65235228-.61882955-1.00098864-.90377273.34394318.28293182.67917046.582625 1.00098864.90377273" fill="url(#s)" mask="url(#Q)" transform="translate(62.352273 46.931818)"/><path d="m.73817046.74018182c.02078409-.20448864.05832954-.40361364.08782954-.60475-.0295.20113636-.06771591.40227273-.08782954.60475" fill="url(#t)" mask="url(#R)" transform="translate(39.556818 55.647727)"/><path d="m0 61.61075c0 7.5399318 6.11186364 13.651125 13.6504545 13.651125 7.538591 0 13.6504546-6.1111932 13.6504546-13.651125v-28.5808068l-23.30231819-23.3023182c-2.66572727-2.66572727-3.99859091-6.15946591-3.99859091-9.65253409z" fill="url(#u)" mask="url(#S)" transform="translate(40.227273 57.659091)"/><path d="m.41232955 1.47969318c.27575982-.30371591.56486286-.59804545.8680504-.88030682-.30689399.28494319-.59451445.57927273-.8680504.88030682" fill="url(#v)" mask="url(#T)" transform="translate(42.909091 47.602273)"/><path d="m.65765909.909875c.076-.227.162-.453.244-.68-.082.227-.168.452-.244.68m-.069.216c.022-.072.045-.144.069-.216-.024.072-.047.144-.069.216" fill="url(#w)" mask="url(#U)" transform="translate(40.227273 52.965909)"/><path d="m.68922727.47669318c-.19510227-.09252272-.38752272-.19040909-.58798863-.27354545.199125.08246591.39221591.18102273.58798863.27354545" fill="url(#x)" mask="url(#V)" transform="translate(59 44.920455)"/><path d="m1.18804545 1.09954545c-.18169318-.10861363-.36070454-.22393181-.54642045-.32315909.18772727.10056819.36472727.21454546.54642045.32315909" fill="url(#y)" mask="url(#W)" transform="translate(59.670455 44.920455)"/><g transform="translate(39.556818 43.579545)"><g fill="#5ab1ff"><path d="m.67052159 14.1545693c0-.4545682.02480682-.9031023.06771591-1.3462727-.04357954.4478636-.06771591.8970682-.06771591 1.3462727"/><path d="m3.40175227 5.98762841c.12135228-.16157955.23465909-.32919318.36271591-.48473864-.12939773.15755682-.24136363.32315909-.36271591.48473864"/><path d="m.82573182 12.2034125c.03419318-.2393523.06235227-.4807159.10928409-.715375-.04693182.2373409-.07509091.4766932-.10928409.715375"/><path d="m1.98494773 8.33911364c.09788636-.20717046.19040909-.41702273.29835227-.61815909-.10861364.20247727-.20046591.41098863-.29835227.61815909"/><path d="m1.10068523 10.8084648c.05229545-.2058296.09721591-.4143409.15822727-.6161478-.06101136.2038182-.10593182.4103182-.15822727.6161478"/><path d="m2.6085375 7.16977386c.11867045-.199125.23264773-.40227272.361375-.59402272-.13006818.19376136-.24270455.39556818-.361375.59402272"/><path d="m1.48700114 9.54123864c.07307954-.20381819.140125-.41031819.22326136-.61011364-.08313636.20113636-.15018182.40629545-.22326136.61011364"/><path d="m5.66882727 3.59812841c.15688637-.12872727.32517046-.243375.48809091-.36472727-.16292045.12202272-.32986363.23465909-.48809091.36472727"/><path d="m21.3020841 2.44025341c.2004659.12001136.4049545.23398864.5980454.36338636-.1951022-.13073863-.3975795-.24404545-.5980454-.36338636"/><path d="m20.1326773 1.81726705c.2085113.09855681.4197045.19175.6228522.29969318-.2044886-.10928409-.4143409-.20180682-.6228522-.29969318"/><path d="m22.4844977 3.23313295c.1629205.12202273.3312046.23667046.4880909.36472728-.1582272-.12939773-.3251704-.24270455-.4880909-.36472728"/><path d="m14.3209091.50418182c.4545682 0 .9037727.02480682 1.3469432.06838636-.8957273-.0885-1.7981591-.0885-2.6938864 0 .4431705-.04357954.892375-.06838636 1.3469432-.06838636"/><path d="m18.9308875 1.31965568c.2051591.07375.413.14146591.6141364.22460227-.2024773-.08380681-.4089773-.15085227-.6141364-.22460227"/><path d="m10.3583886 1.09310909c.2031478-.06168182.4123296-.10727273.6188296-.15889773-.2065.051625-.4143409.09721591-.6188296.15889773"/><path d="m6.74128636 2.80363977c.19309091-.12939772.39690909-.243375.597375-.36271591-.20046591.11934091-.40227272.23264773-.597375.36271591"/><path d="m17.6633261.933675c.2071705.05229546.4170228.09788636.6201705.15956818-.2051591-.06168182-.413-.10727272-.6201705-.15956818"/><path d="m7.88642273 2.11716136c.20247727-.10861363.413-.20113636.62151136-.29902272-.20784091.09788636-.41769318.18973863-.62151136.29902272"/><path d="m49.0866591 29.6159216-.2272841-.2266136-24.839-24.8396705c-.3211477-.32114773-.6557045-.62084091-.9996477-.90377273-.1575568-.12872727-.3258409-.243375-.4880909-.36472727-.1944319-.14548864-.3855114-.29634091-.5846364-.42976136-.1937614-.12939773-.3975795-.24404546-.5980455-.36338637-.1823636-.10861363-.361375-.22393182-.5470909-.32315909-.2024772-.10861363-.4143409-.20180682-.6221818-.30036363-.1957727-.09185228-.3895341-.1904091-.5886591-.272875-.2004659-.08246591-.4083068-.15018182-.6134659-.22460228-.2158863-.07710227-.4290909-.16023863-.6476591-.22594318-.2031477-.06168182-.413-.10727273-.6201704-.15956818-.2246023-.05631818-.4478637-.12001136-.6751478-.16493182-.2373409-.04693182-.4800454-.07576136-.721409-.110625-.1997955-.02815909-.39825-.066375-.598716-.08581818-.4431704-.04357955-.892375-.06838637-1.3469431-.06838637-.4545682 0-.9037728.02480682-1.3469432.06838637-.2004659.01944318-.3995909.05765909-.5993864.08648864-.2406932.03419318-.4840682.06302272-.7207386.10995454-.2272841.04492046-.4512159.10861364-.6764887.16493182-.2065.05229545-.4163522.09788636-.6188295.15889773-.2192386.066375-.43311364.14951136-.649.22728409-.20448864.07375-.41232955.14146591-.612125.22393182-.19979545.0824659-.39355682.18169318-.59.27354545-.20784091.09855682-.41903409.19107955-.62084091.29969318-.18638636.09922727-.36539773.21454546-.54776136.32382955-.20046591.11934091-.40428409.23331818-.597375.36271591-.19979546.13342045-.39020455.28427272-.58396591.42976136-.16292046.12135227-.331875.236-.48876137.36472727-.34394318.28293182-.6785.582625-1.00031818.90377273v.00067045c-.32114772.32114773-.62151136.65570455-.90377272 1.00031819-.12805682.15554545-.2420341.32315909-.36271591.48473863-.14615909.19510228-.29768182.38685228-.43244319.58798864-.12872727.19242045-.24203409.39489773-.36070454.59402273-.10995455.18370454-.22527273.36405681-.32584091.55111363-.10727273.20113637-.19979545.41098864-.29768182.61815909-.09319318.19711364-.19175.39221591-.27488636.59268182-.08246591.199125-.15018182.405625-.22326137.60944318-.07777272.21722728-.16157954.43177274-.22795454.65168184-.06101136.2018068-.10660227.4096477-.15822727.6161477-.05698864.2259432-.12068182.4505455-.16627273.6791705-.04626136.2346591-.07442045.4760227-.10861364.715375-.0295.2011363-.06771591.4022727-.08782954.60475-.04290909.4431704-.06771591.8917045-.06771591 1.3462727 0 3.4937386 1.33286363 6.9868068 3.99792045 9.6525341l23.30298863 23.3023182.6771591.6771591c.302375.3741136.6255341.7375.9735 1.0861363 2.6798068 2.6798068 6.1963409 4.0093182 9.7081818 3.9953493 3.5125114.0139689 7.0290455-1.3155425 9.7088523-3.9953493.3479659-.3486363.6704545-.7120227.9728295-1.0861363 4.3324773-5.3602841 4.0099887-13.2354432-.9728295-18.2182614"/><path d="m9.0970625 1.54425795c.20046591-.08313636.40763636-.15085227.61279545-.22393181-.20515909.07307954-.41098863.140125-.61279545.22393181"/><path d="m16.2660989.65872159c.2413636.03486364.4847386.06302273.7220795.10995455-.2393523-.04693182-.4807159-.07509091-.7220795-.10995455"/><path d="m11.6537739.76867614c.2366704-.04693182.479375-.07509091.7207386-.10995455-.2406932.03486364-.4820568.06302273-.7207386.10995455"/></g><path d="m23.973108 4.50237045c-.3211478-.32114772-.656375-.62151136-1.0003182-.90444318-.1568864-.12872727-.3258409-.24270454-.4880909-.36472727-.1937614-.14481818-.3848409-.29567045-.5846364-.42976136-.1930909-.12939773-.3975795-.243375-.5980455-.36338637-.1816931-.10794318-.3607045-.22326136-.5464204-.32315909-.2031477-.10794318-.4143409-.20113636-.6228523-.29969318-.1957727-.09252273-.3895341-.19040909-.5879886-.272875-.2004659-.08313636-.4083068-.15085227-.6141364-.22460227-.2152159-.07710228-.4290909-.16023864-.6469886-.22661364-.2038182-.06168182-.413-.10727273-.6201705-.15956818-.2252727-.05631818-.4485341-.11934091-.6751477-.16493182-.2373409-.04693182-.4807159-.07509091-.7220795-.10995454-.199125-.02815909-.3975796-.06704546-.598716-.08648864-.4431704-.04357955-.8917045-.06771591-1.3462727-.06771591-.4552386 0-.9044432.02413636-1.3476136.06771591-.2004659.02011364-.3989205.05832955-.5987159.08648864-.2413637.03486363-.4840682.06302272-.7214091.10995454-.2272841.04559091-.4505455.10861364-.6758182.16560227-.2071705.051625-.4163523.09721591-.6195.15889773-.2185682.066375-.43244318.14951136-.64832955.22661364-.20515909.07375-.41232954.14146591-.61279545.22460227-.199125.08246591-.39288636.18102273-.58932955.27354545-.2078409.09855682-.41903409.19107955-.62151136.29902273-.18571591.09989773-.36539773.21521591-.54776136.32382955-.19979546.12001136-.40428409.23331818-.597375.36271591-.19979546.13409091-.39020455.28494318-.58396591.42976136-.16292046.12202273-.33120455.236-.48809091.36472727-.34394318.28293182-.67917046.58329546-1.00031818.90444318-.32181818.32114773-.62151137.656375-.90444318 1.00031819-.12805682.15621591-.24136364.32315909-.36271591.48473863-.14548864.19510228-.29768182.38685228-.43177273.58798864-.12872727.19242045-.24203409.39556818-.361375.59469318-.10928409.18303409-.22527273.36338636-.32517046.55044318-.10794318.20180682-.2004659.41165909-.29835227.61882955-.09252273.19711363-.19175.39154545-.27488636.59201136-.08246591.199125-.14951137.40629546-.22326137.61011364-.07710227.21655682-.16090909.43177273-.22728409.65101138-.06168181.2018068-.10660227.4103182-.15889772.6161477-.05698864.2259432-.12001137.4512159-.16560228.6791705-.04693181.2353295-.0750909.4760227-.10928409.715375-.02882954.2018068-.06704545.4022727-.08715909.60475-.04357954.4431704-.06771591.892375-.06771591 1.3462727 0 3.4937386 1.33219318 6.9868068 3.99792046 9.6525341l23.30231817 23.3023182v-32.9548523c0-3.7692955-1.5279659-7.18123865-3.9979204-9.65186365" fill="#0064f4"/><path d="m69.0568852 14.0795455c0-7.77593186 6.3036137-14.0795455 14.0795455-14.0795455s14.0795454 6.30361364 14.0795454 14.0795455c0 7.7759318-6.3036136 14.0795454-14.0795454 14.0795454s-14.0795455-6.3036136-14.0795455-14.0795454" fill="#fc2b54"/></g></g></svg>