<svg height="34" viewBox="0 0 34 34" width="34" xmlns="http://www.w3.org/2000/svg" xmlns:xlink="http://www.w3.org/1999/xlink"><linearGradient id="a" x1="0%" x2="100%" y1="50%" y2="50%"><stop offset="0" stop-color="#343434"/><stop offset="1" stop-color="#231f1f"/></linearGradient><linearGradient id="b"><stop offset="0" stop-color="#215bff"/><stop offset="1" stop-color="#2ba5ff"/></linearGradient><linearGradient id="c" x1="49.999196%" x2="49.999196%" xlink:href="#b" y1="99.999787%" y2="0%"/><linearGradient id="d" x1="50.03696%" x2="50.03696%" xlink:href="#b" y1="56.4605%" y2="43.56377%"/><linearGradient id="e" x1="49.96855%" x2="49.96855%" xlink:href="#b" y1="56.44829%" y2="43.56377%"/><linearGradient id="f" x1="49.98882%" x2="49.98882%" xlink:href="#b" y1="91.0625%" y2="8.90308%"/><linearGradient id="g" x1="50.01433%" x2="50.01433%" xlink:href="#b" y1="62.32002%" y2="37.72285%"/><linearGradient id="h" x1="20.47373%" x2="20.47373%" xlink:href="#b" y1="88.34111%" y2=".02324%"/><linearGradient id="i" x1="49.994192%" x2="49.994192%" xlink:href="#b" y1="62.30054%" y2="37.67285%"/><linearGradient id="j" x1="49.9988%" x2="49.9988%" xlink:href="#b" y1="82.04487%" y2="17.97016%"/><linearGradient id="k" x1="50.00518%" x2="50.00518%" xlink:href="#b" y1="66.93228%" y2="33.14932%"/><linearGradient id="l" x1="48.39424%" x2="48.39424%" xlink:href="#b" y1="33.8811%" y2=".04321%"/><linearGradient id="m" x1="50.0687%" x2="50.0687%" xlink:href="#b" y1="74.1064%" y2="25.80928%"/><linearGradient id="n" x1="50.00869%" x2="50.00869%" xlink:href="#b" y1="93.84341%" y2="6.1542%"/><linearGradient id="o" x1="44.00588%" x2="44.00588%" xlink:href="#b" y1="40.82427%" y2=".02227%"/><linearGradient id="p" x1="49.979745%" x2="49.979745%" xlink:href="#b" y1="100.029162%" y2="-.004199%"/><linearGradient id="q" x1="50.01165%" x2="50.01165%" xlink:href="#b" y1="82.04487%" y2="17.97627%"/><linearGradient id="r" x1="49.96274%" x2="49.96274%" xlink:href="#b" y1="100.051481%" y2=".027335%"/><linearGradient id="s" x1="49.993737%" x2="49.993737%" xlink:href="#b" y1="100.029162%" y2="-.004199%"/><linearGradient id="t" x1="49.99734%" x2="49.99734%" xlink:href="#b" y1="95.06377%" y2="4.87822%"/><linearGradient id="u" x1="49.999514%" x2="49.999514%" xlink:href="#b" y1="99.999841%" y2="-.000055%"/><linearGradient id="v" x1="49.951735%" x2="49.951735%" xlink:href="#b" y1="100.047091%" y2=".02634%"/><linearGradient id="w" x1="16.99736%" x2="16.99736%" xlink:href="#b" y1="97.13315%" y2=".02011%"/><linearGradient id="x" x1="50.03437%" x2="50.03437%" xlink:href="#b" y1="70.34492%" y2="29.62837%"/><linearGradient id="y" x1="50.03987%" x2="50.03987%" xlink:href="#b" y1="74.08315%" y2="25.87758%"/><mask id="z" fill="#fff"><path d="m7.73886364 0c-4.27408334 0-7.73886364 3.4647803-7.73886364 7.73886364v18.52240156c0 4.2738257 3.4647803 7.7387348 7.73886364 7.7387348h18.52227276c4.2740833 0 7.7388636-3.4649091 7.7388636-7.7387348v-18.52240156c0-4.27408334-3.4647803-7.73886364-7.7388636-7.73886364z" fill="#fff" fill-rule="evenodd"/></mask><mask id="A" fill="#fff"><path d="m.11449242 2.62199242v5.09162879c0 1.44834849 1.17390152 2.62224999 2.62212122 2.62224999 1.44821969 0 2.62212121-1.1739015 2.62212121-2.62224999v-5.09162879c0-1.4480909-1.17390152-2.62199242-2.62212121-2.62199242-1.4482197 0-2.62212122 1.17390152-2.62212122 2.62199242" fill="#fff" fill-rule="evenodd"/></mask><mask id="B" fill="#fff"><path d="m.11425.24575c.0745-.01075.14875-.025.22325-.0325-.0755.0075-.14875.02175-.22325.0325" fill="#fff" fill-rule="evenodd"/></mask><mask id="C" fill="#fff"><path d="m.3155.24575c-.0745-.01075-.148-.025-.22325-.0325.07475.0075.14875.02175.22325.0325" fill="#fff" fill-rule="evenodd"/></mask><mask id="D" fill="#fff"><path d="m.10125.379c.0375-.06975.0805-.13725.1215-.2055-.041.06825-.084.13525-.1215.2055" fill="#fff" fill-rule="evenodd"/></mask><mask id="E" fill="#fff"><path d="m.33625.348c-.08375-.021-.1665-.0445-.25175-.06125.0845.01675.168.04025.25175.06125" fill="#fff" fill-rule="evenodd"/></mask><mask id="F" fill="#fff"><path d="m.18375.8835c.113-.26.243-.515.363-.774-.121.259-.249.512-.363.774m-.046.109c.015-.036.03-.073.046-.109-.016.036-.031.073-.046.109" fill="#fff" fill-rule="evenodd"/></mask><mask id="G" fill="#fff"><path d="m.09325.34825c.084-.021.1675-.04475.25225-.0615-.0855.01675-.16825.04025-.25225.0615" fill="#fff" fill-rule="evenodd"/></mask><mask id="H" fill="#fff"><path d="m.04575.411c.07225-.108.1435-.2205.218-.32-.075.1005-.14575.212-.218.32" fill="#fff" fill-rule="evenodd"/></mask><mask id="I" fill="#fff"><path d="m.309.242c-.08025-.02875-.16-.05975-.2415-.0845.082.025.16125.05575.2415.0845" fill="#fff" fill-rule="evenodd"/></mask><mask id="J" fill="#fff"><path d="m.9665.1955c.04-.013.081-.026.122-.038-.041.012-.082.025-.122.038m-.846.3c.282-.1.562-.208.846-.3-.286.092-.564.2-.846.3" fill="#fff" fill-rule="evenodd"/></mask><mask id="K" fill="#fff"><path d="m.23625.41025c.068-.04075.1345-.08325.20425-.12075-.06925.037-.13625.08-.20425.12075" fill="#fff" fill-rule="evenodd"/></mask><mask id="L" fill="#fff"><path d="m.10725.45175c.05075-.0755.107-.1465.16125-.219-.0545.0725-.11125.14425-.16125.219" fill="#fff" fill-rule="evenodd"/></mask><mask id="M" fill="#fff"><path d="m.34525.40175c.234-.112.466-.226.707-.326-.239.099-.473.213-.707.326m-.173.083c.058-.027.115-.055.173-.083-.057.028-.115.056-.173.083" fill="#fff" fill-rule="evenodd"/></mask><mask id="N" fill="#fff"><path d="m.16066667.42875c.07983333-.11975.163-.2315.2485-.337-.08633334.10625-.16966667.21875-.2485.337" fill="#fff" fill-rule="evenodd"/></mask><mask id="O" fill="#fff"><path d="m.384.411c-.07225-.108-.14325-.2205-.21775-.32.075.1005.1455.212.21775.32" fill="#fff" fill-rule="evenodd"/></mask><mask id="P" fill="#fff"><path d="m.09875.2835c.017-.08575.0405-.169.06175-.25325-.02125.08425-.045.16825-.06175.25325" fill="#fff" fill-rule="evenodd"/></mask><mask id="Q" fill="#fff"><path d="m.43925.42875c-.11875-.11825-.24325-.23075-.37325-.337.12825.1055.25325.21725.37325.337" fill="#fff" fill-rule="evenodd"/></mask><mask id="R" fill="#fff"><path d="m.27525.276c.00775-.07625.02175-.1505.03275-.2255-.011.075-.02525.15-.03275.2255" fill="#fff" fill-rule="evenodd"/></mask><mask id="S" fill="#fff"><path d="m0 11.8348333c0 1.4483485 1.1740303 2.62225 2.62212121 2.62225 1.44809091 0 2.62212121-1.1739015 2.62212121-2.62225v-5.49009845l-4.47615151-4.47615152c-.51206061-.5120606-.76809091-1.18317424-.76809091-1.85415909z" fill="#fff" fill-rule="evenodd"/></mask><mask id="T" fill="#fff"><path d="m.15375 1.11916667c.27575982-.30361931.56486286-.59785523.86805041-.88002681-.306894.28485254-.59451446.57908847-.86805041.88002681" fill="#fff" fill-rule="evenodd"/></mask><mask id="U" fill="#fff"><path d="m.2885.81275c.076-.227.162-.453.244-.68-.082.227-.168.452-.244.68m-.069.216c.022-.072.045-.144.069-.216-.024.072-.047.144-.069.216" fill="#fff" fill-rule="evenodd"/></mask><mask id="V" fill="#fff"><path d="m.257.17775c-.07275-.0345-.1445-.071-.21925-.102.07425.03075.14625.0675.21925.102" fill="#fff" fill-rule="evenodd"/></mask><mask id="W" fill="#fff"><path d="m.443.41c-.06775-.0405-.1345-.0835-.20375-.1205.07.0375.136.08.20375.1205" fill="#fff" fill-rule="evenodd"/></mask><g fill="none" fill-rule="evenodd"><g fill="#fff" transform="translate(8.5 13.909091)"><path d="m2.25380076 1.71003258h-1.93181818c-.17785606 0-.3219697-.14424243-.3219697-.3219697v-.07160606c0-.17785606.14411364-.3219697.3219697-.3219697h1.93181818c.17772727 0 .32196969.14411364.32196969.3219697v.07160606c0 .17772727-.14424242.3219697-.32196969.3219697"/><path d="m.9301447 2.31818182v-1.93181818c0-.17785606.14411363-.3219697.32196969-.3219697h.07160606c.17772728 0 .3219697.14411364.3219697.3219697v1.93181818c0 .17785606-.14424242.3219697-.3219697.3219697h-.07160606c-.17785606 0-.32196969-.14411364-.32196969-.3219697"/></g><path d="m7.73886364 0c-4.27408334 0-7.73886364 3.4647803-7.73886364 7.73886364v18.52240156c0 4.2738257 3.4647803 7.7387348 7.73886364 7.7387348h18.52227276c4.2740833 0 7.7388636-3.4649091 7.7388636-7.7387348v-18.52240156c0-4.27408334-3.4647803-7.73886364-7.7388636-7.73886364z" fill="url(#a)" mask="url(#z)"/><path d="m.11449242 2.62199242v5.09162879c0 1.44834849 1.17390152 2.62224999 2.62212122 2.62224999 1.44821969 0 2.62212121-1.1739015 2.62212121-2.62224999v-5.09162879c0-1.4480909-1.17390152-2.62199242-2.62212121-2.62199242-1.4482197 0-2.62212122 1.17390152-2.62212122 2.62199242" fill="url(#c)" mask="url(#A)" transform="translate(20.863636 15.19697)"/><path d="m.11425.24575c.0745-.01075.14875-.025.22325-.0325-.0755.0075-.14875.02175-.22325.0325" fill="url(#d)" mask="url(#B)" transform="translate(9.916667 8.371212)"/><path d="m.3155.24575c-.0745-.01075-.148-.025-.22325-.0325.07475.0075.14875.02175.22325.0325" fill="url(#e)" mask="url(#C)" transform="translate(10.560606 8.371212)"/><path d="m.10125.379c.0375-.06975.0805-.13725.1215-.2055-.041.06825-.084.13525-.1215.2055" fill="url(#f)" mask="url(#D)" transform="translate(7.984848 9.659091)"/><path d="m.33625.348c-.08375-.021-.1665-.0445-.25175-.06125.0845.01675.168.04025.25175.06125" fill="url(#g)" mask="url(#E)" transform="translate(10.818182 8.371212)"/><path d="m.18375.8835c.113-.26.243-.515.363-.774-.121.259-.249.512-.363.774m-.046.109c.015-.036.03-.073.046-.109-.016.036-.031.073-.046.109" fill="url(#h)" mask="url(#F)" transform="translate(7.856061 9.916667)"/><path d="m.09325.34825c.084-.021.1675-.04475.25225-.0615-.0855.01675-.16825.04025-.25225.0615" fill="url(#i)" mask="url(#G)" transform="translate(9.659091 8.371212)"/><path d="m.04575.411c.07225-.108.1435-.2205.218-.32-.075.1005-.14575.212-.218.32" fill="url(#j)" mask="url(#H)" transform="translate(8.757576 8.886364)"/><path d="m.309.242c-.08025-.02875-.16-.05975-.2415-.0845.082.025.16125.05575.2415.0845" fill="url(#k)" mask="url(#I)" transform="translate(11.075758 8.5)"/><path d="m.9665.1955c.04-.013.081-.026.122-.038-.041.012-.082.025-.122.038m-.846.3c.282-.1.562-.208.846-.3-.286.092-.564.2-.846.3" fill="url(#l)" mask="url(#J)" transform="translate(9.401515 8.5)"/><path d="m.23625.41025c.068-.04075.1345-.08325.20425-.12075-.06925.037-.13625.08-.20425.12075" fill="url(#m)" mask="url(#K)" transform="translate(8.886364 8.628788)"/><path d="m.10725.45175c.05075-.0755.107-.1465.16125-.219-.0545.0725-.11125.14425-.16125.219" fill="url(#n)" mask="url(#L)" transform="translate(8.113636 9.401515)"/><path d="m.34525.40175c.234-.112.466-.226.707-.326-.239.099-.473.213-.707.326m-.173.083c.058-.027.115-.055.173-.083-.057.028-.115.056-.173.083" fill="url(#o)" mask="url(#M)" transform="translate(9.143939 8.628788)"/><path d="m.16066667.42875c.07983333-.11975.163-.2315.2485-.337-.08633334.10625-.16966667.21875-.2485.337" fill="url(#p)" mask="url(#N)" transform="translate(8.371212 9.015152)"/><path d="m.384.411c-.07225-.108-.14325-.2205-.21775-.32.075.1005.1455.212.21775.32" fill="url(#q)" mask="url(#O)" transform="translate(11.719697 8.886364)"/><path d="m.09875.2835c.017-.08575.0405-.169.06175-.25325-.02125.08425-.045.16825-.06175.25325" fill="url(#r)" mask="url(#P)" transform="translate(7.727273 10.431818)"/><path d="m.43925.42875c-.11875-.11825-.24325-.23075-.37325-.337.12825.1055.25325.21725.37325.337" fill="url(#s)" mask="url(#Q)" transform="translate(11.977273 9.015152)"/><path d="m.27525.276c.00775-.07625.02175-.1505.03275-.2255-.011.075-.02525.15-.03275.2255" fill="url(#t)" mask="url(#R)" transform="translate(7.598485 10.689394)"/><path d="m0 11.8348333c0 1.4483485 1.1740303 2.62225 2.62212121 2.62225 1.44809091 0 2.62212121-1.1739015 2.62212121-2.62225v-5.49009845l-4.47615151-4.47615152c-.51206061-.5120606-.76809091-1.18317424-.76809091-1.85415909z" fill="url(#u)" mask="url(#S)" transform="translate(7.727273 11.075758)"/><path d="m.15375 1.11916667c.27575982-.30361931.56486286-.59785523.86805041-.88002681-.306894.28485254-.59451446.57908847-.86805041.88002681" fill="url(#v)" mask="url(#T)" transform="translate(8.242424 9.143939)"/><path d="m.2885.81275c.076-.227.162-.453.244-.68-.082.227-.168.452-.244.68m-.069.216c.022-.072.045-.144.069-.216-.024.072-.047.144-.069.216" fill="url(#w)" mask="url(#U)" transform="translate(7.727273 10.174242)"/><path d="m.257.17775c-.07275-.0345-.1445-.071-.21925-.102.07425.03075.14625.0675.21925.102" fill="url(#x)" mask="url(#V)" transform="translate(11.333333 8.628788)"/><path d="m.443.41c-.06775-.0405-.1345-.0835-.20375-.1205.07.0375.136.08.20375.1205" fill="url(#y)" mask="url(#W)" transform="translate(11.462121 8.628788)"/><g transform="translate(7.598485 8.371212)"><g fill="#5ab1ff"><path d="m.12880076 2.71895682c0-.08731818.00476515-.17347727.01300757-.25860606-.00837121.0860303-.01300757.17231818-.01300757.25860606"/><path d="m.65344394 1.15016591c.02331061-.03103788.04507576-.06323485.06967424-.09311364-.02485606.03026515-.04636363.06207576-.06967424.09311364"/><path d="m.15861515 2.34415833c.00656818-.04597727.01197727-.09234091.02099243-.13741666-.00901516.04559091-.01442425.09156818-.02099243.13741666"/><path d="m.38128939 1.60186364c.01880303-.03979546.03657576-.08010606.05731061-.11874243-.02086364.03889394-.03850758.07894697-.05731061.11874243"/><path d="m.21143106 2.07620227c.01004546-.03953788.01867424-.07959091.03039394-.11835606-.0117197.03915152-.02034848.07881818-.03039394.11835606"/><path d="m.501075 1.3772447c.02279545-.03825.04468939-.07727273.06941667-.11410606-.02498485.03721969-.04662122.07598484-.06941667.11410606"/><path d="m.28563864 1.8327803c.01403787-.03915151.02691666-.07881818.04288636-.11719697-.0159697.03863637-.02884849.07804546-.04288636.11719697"/><path d="m1.08892727.69116591c.03013637-.02472727.06246212-.04675.09375758-.07006061-.03129546.0234394-.06336364.04507576-.09375758.07006061"/><path d="m4.09192576.46874924c.03850757.02305303.07778788.04494697.11487879.06980303-.03747728-.02511363-.07637122-.04687878-.11487879-.06980303"/><path d="m3.86729394.34907955c.04005303.01893181.08062121.03683333.11964394.05756818-.0392803-.02099243-.07959091-.03876515-.11964394-.05756818"/><path d="m4.31905606.62105379c.03129546.02343939.06362121.04546212.09375758.0700606-.03039394-.02485606-.06246212-.04662121-.09375758-.0700606"/><path d="m2.75090909.09684848c.08731818 0 .17360606.00476516.25873485.01313637-.17206061-.017-.34540909-.017-.5174697 0 .08512879-.00837121.17141667-.01313637.25873485-.01313637"/><path d="m3.63644167.25349318c.03940909.01416667.07933333.02717424.11796969.04314394-.03889394-.01609848-.0785606-.02897727-.11796969-.04314394"/><path d="m1.98974697.20997576c.03902273-.01184849.07920455-.02060606.11887121-.03052273-.03966666.00991667-.07959091.01867424-.11887121.03052273"/><path d="m1.29493636.53855227c.03709091-.02485606.07624243-.04675.11475-.06967424-.03850757.02292424-.07727272.04468939-.11475.06967424"/><path d="m3.3929553.17935c.03979546.01004546.08010606.01880303.11912879.03065152-.03940909-.01184849-.07933333-.02060606-.11912879-.03065152"/><path d="m1.51490606.40668636c.03889394-.02086363.07933333-.03863636.11938636-.05743939-.03992424.01880303-.08023484.03644697-.11938636.05743939"/><path d="m9.42907576 5.68893409-.04365909-.0435303-4.77133334-4.77146212c-.06168939-.0616894-.12595454-.11925758-.19202272-.17360606-.03026516-.02472728-.06259091-.04675-.09375758-.07006061-.03734848-.02794697-.07405303-.05692424-.11230303-.08255303-.0372197-.02485606-.07637121-.04687879-.11487879-.06980303-.0350303-.02086364-.06941666-.04301515-.10509091-.06207576-.03889394-.02086363-.07959091-.03876515-.11951515-.05769697-.03760606-.01764394-.07482576-.03657576-.11307576-.05241666-.03850757-.01584091-.07843181-.02884849-.11784091-.04314394-.04146969-.01481061-.08242424-.03078031-.12440909-.04340152-.03902272-.01184848-.07933333-.02060606-.11912878-.03065151-.04314394-.01081819-.08603031-.02305303-.1296894-.03168182-.04559091-.00901515-.09221212-.01455303-.13857576-.02125-.03837878-.00540909-.0765-.01275-.11500757-.01648485-.08512879-.00837121-.17141667-.01313636-.25873485-.01313636s-.17360606.00476515-.25873485.01313636c-.03850757.00373485-.07675757.01107576-.11513636.01661364-.04623485.00656818-.09298485.01210606-.13844697.02112121-.04365909.00862879-.08667424.02086363-.12994697.03168182-.03966667.01004545-.07997727.01880303-.11887121.03052272-.04211364.01275-.08319697.0287197-.12466667.04365909-.0392803.01416667-.07920455.02717425-.11758333.04301516-.03837879.0158409-.07559849.03490151-.11333334.05254545-.03992424.01893182-.08049242.03670455-.11925757.05756818-.03580303.01906061-.0701894.04121212-.1052197.06220455-.03850758.02292424-.07765909.04481818-.11475.06967424-.03837879.02562879-.07495454.05460606-.11217424.08255303-.03129546.02331061-.06375.04533333-.09388637.07006061-.06606818.05434848-.13033333.11191666-.19215151.17360606v.00012879c-.06168939.06168939-.11938636.12595454-.17360606.19215151-.02459849.02987879-.04649242.06207576-.06967424.09311364-.02807576.03747727-.05718182.0743106-.08306818.11294697-.02472728.03696212-.04649243.07585606-.06928788.11410606-.02112122.03528788-.04327273.06993181-.06259091.10586363-.02060606.03863637-.03837879.07894697-.05718182.11874243-.01790152.03786363-.03683333.07534091-.05280303.11384848-.01584091.03825-.02884849.07791667-.04288636.11706818-.0149394.04172728-.03103788.0829394-.04378788.12518182-.0117197.03876515-.02047728.0786894-.03039394.11835606-.01094697.04340152-.02318182.08654546-.0319394.13046212-.00888636.04507576-.01429545.0914394-.02086363.13741667-.00566667.03863636-.01300758.07727273-.01687122.11616667-.00824242.08512878-.01300757.17128788-.01300757.25860606 0 .67111363.2560303 1.34209848.76796212 1.85415909l4.4762803 4.47615151.13007576.13007576c.05808333.07186364.12015909.14166667.187.20863636.51476515.51476516 1.19025758.77015152 1.86484848.76746822.6747197.0026833 1.35021213-.25270306 1.86497728-.76746822.06684091-.06696969.12878788-.13677272.18687121-.20863636.83222723-1.02965909.77028033-2.54240151-.18687121-3.49955303"/><path d="m1.74745833.29663712c.03850758-.0159697.07830303-.02897727.11771212-.04301515-.03940909.01403788-.07894697.02691667-.11771212.04301515"/><path d="m3.12456136.12653409c.04636364.00669697.09311364.01210606.13870455.02112121-.04597727-.00901515-.09234091-.01442424-.13870455-.02112121"/><path d="m2.23857803.1476553c.04546212-.00901515.09208333-.01442424.13844697-.02112121-.04623485.00669697-.09259848.01210606-.13844697.02112121"/></g><path d="m4.60500379.86486212c-.0616894-.06168939-.12608334-.11938636-.19215152-.17373485-.03013636-.02472727-.06259091-.04662121-.09375757-.0700606-.0372197-.02781818-.07392425-.05679546-.11230303-.08255303-.03709091-.02485606-.07637122-.04675-.11487879-.06980303-.03490152-.02073485-.06928788-.04288637-.10496212-.06207576-.03902273-.02073485-.07959091-.03863636-.11964394-.05756818-.03760606-.01777273-.07482576-.03657576-.11294697-.05241667-.03850758-.0159697-.07843182-.02897727-.1179697-.04314394-.04134091-.0148106-.08242424-.0307803-.1242803-.0435303-.03915152-.01184849-.07933333-.02060606-.11912879-.03065152-.04327273-.01081818-.08615909-.02292424-.12968939-.03168182-.04559091-.00901515-.09234091-.01442424-.13870455-.02112121-.03825-.00540909-.07637121-.01287879-.11500757-.01661363-.08512879-.00837122-.17128788-.01300758-.25860607-.01300758-.08744696 0-.17373484.00463636-.25886363.01300758-.03850758.00386363-.07662879.01120454-.11500758.01661363-.04636363.00669697-.09298485.01210606-.13857575.02112121-.0436591.00875758-.08654546.02086364-.12981819.03181061-.03979545.00991667-.07997727.01867424-.119.03052273-.04198485.01275-.08306818.0287197-.12453788.0435303-.03940909.01416667-.07920454.02717424-.11771212.04314394-.03825.01584091-.07546969.03477273-.11320454.05254546-.03992424.01893181-.08049243.03670454-.11938637.05743939-.03567424.01918939-.07018939.04134091-.10521969.06220454-.03837879.02305303-.07765909.04481819-.11475.06967425-.03837879.02575757-.07495455.05473485-.11217425.08255303-.03129545.02343939-.06362121.04533333-.09375757.0700606-.06606818.05434849-.13046212.11204546-.19215152.17373485-.06181818.0616894-.11938636.12608334-.17373484.19215152-.02459849.03000757-.04636364.06207575-.06967425.09311363-.02794697.03747728-.05718181.07431061-.08293939.11294697-.02472727.03696212-.04649243.07598485-.06941667.11423485-.02099242.03515909-.04327272.06980303-.06246212.10573485-.02073485.03876515-.03850757.07907576-.0573106.11887121-.01777273.03786364-.03683334.07521212-.05280303.1137197-.01584091.03825-.0287197.07804545-.04288637.11719697-.0148106.04159848-.03090909.08293939-.04365909.12505303-.01184848.03876515-.02047727.07881818-.03052273.11835606-.01094697.04340151-.02305303.08667424-.0318106.13046212-.00901515.04520455-.01442424.09143939-.02099243.13741667-.00553788.03876515-.01287878.07727272-.01674242.11616666-.00837121.08512879-.01300758.17141667-.01300758.25860606 0 .67111364.25590152 1.34209849.76796212 1.8541591l4.47615152 4.47615151v-6.33031061c0-.72404545-.29350758-1.37944697-.76796212-1.8540303" fill="#0064f4"/><path d="m13.2651644 2.70454545c0-1.49368181 1.2108636-2.70454545 2.7045454-2.70454545 1.4936819 0 2.7045455 1.21086364 2.7045455 2.70454545 0 1.49368182-1.2108636 2.70454546-2.7045455 2.70454546-1.4936818 0-2.7045454-1.21086364-2.7045454-2.70454546" fill="#fc2b54"/></g></g></svg>