<svg height="170" viewBox="0 0 170 170" width="170" xmlns="http://www.w3.org/2000/svg" xmlns:xlink="http://www.w3.org/1999/xlink"><defs><rect id="a" height="165" rx="15" width="165" x="2" y="2"/><filter id="b" height="103.6%" width="103.6%" x="-1.8%" y="-1.8%"><feGaussianBlur in="SourceAlpha" result="shadowBlurInner1" stdDeviation="1.5"/><feOffset dx="0" dy="1" in="shadowBlurInner1" result="shadowOffsetInner1"/><feComposite in="shadowOffsetInner1" in2="SourceAlpha" k2="-1" k3="1" operator="arithmetic" result="shadowInnerInner1"/><feColorMatrix in="shadowInnerInner1" type="matrix" values="0 0 0 0 0   0 0 0 0 0   0 0 0 0 0  0 0 0 0.200420673 0"/></filter><mask id="c" fill="#fff"><use fill="#fff" fill-rule="evenodd" xlink:href="#a"/></mask></defs><g fill="none" fill-rule="evenodd"><use fill="#fff" fill-rule="evenodd" xlink:href="#a"/><use fill="#0cbcc5" fill-opacity=".199219" fill-rule="evenodd" xlink:href="#a"/><use fill="#000" filter="url(#b)" xlink:href="#a"/><use stroke="#fff" stroke-width="2" xlink:href="#a"/><g fill="#0cbcc5" fill-rule="nonzero" mask="url(#c)"><path d="m37.5 0-1.479492.05859375-1.4648437.17578125-1.4501955.28564455-1.4208983.39550778-1.3916017.51269534-1.3403322.61523438-1.2890625.7177734-1.2304687.8203125-1.1645509.90820305-1.083984 1.00341825-1.0034182 1.083984-.9155273 1.14990262-.8203125 1.22314463-.7250977 1.2890625-.6225586 1.3330076-.505371 1.3842773-.4028321 1.4208986-.2929687 1.442871-.1684571 1.4648437-.0585938 1.4648438.0585938 2.2998045.161133 2.2924808.2856442 2.2778317.395508 2.2631839.505371 2.2412107.6152344 2.2192384.7177736 2.1752929.8276366 2.1459963.9375 2.0947283 1.0327148 2.058105.6884767 1.1572237.7836912 1.09131.234375.3662101.1391602.4028325.036621.4321312-.0585937.4321275-.1611327.3955088-.234375.3588862-.3222656.285645-.3808594.2124-.4101562.1245112-2.7026366.4980488-2.6733398.5859375-2.6586915.6738262-2.6293946.7690463-2.6000978.864255-2.57080085.9521475-1.047363.46875-.98876963.57129-.93017587.67383-.8569335.754395-.76904287.8422838-.68115244.9082012-.5859375.9814463-.49072264 1.0327162-.66650392 1.7651363-.56396483 1.7944349-.4614258 1.82373-.35888672 1.8457013-.25634765 1.8603525-.02929688.7690425.07324219.754395.17578125.7397475.27099611.7104488.3662109.6665024.44677736.6152363.54199219.5419913.5932617.46875.66650392.3808575.703125.3002962.739746.183105 4.34326163.78369 4.36523475.6665025 4.3798826.5566425 4.3945313.446775 4.4018553.336915 4.416504.2270512 4.4165041.1098638h4.409181l4.4165025-.1098638 4.4165024-.2270512 4.4018588-.336915 4.3945275-.446775 4.3798838-.5566425 4.3579124-.6665025 4.3505851-.78369.7397437-.183105.703125-.3002962.6591825-.3808575.600585-.46875.5346675-.5419913.4541025-.6152363.36621-.6665024.2709975-.7104488.1757812-.7397475.0732413-.754395-.029295-.7690425-.25635-1.8603525-.3588862-1.8457013-.4614263-1.82373-.5639625-1.7944349-.6665063-1.7651363-.4833974-1.0327162-.5932613-.9814463-.6811538-.9082012-.7690424-.8422838-.856935-.754395-.9301763-.67383-.9887663-.57129-1.0473637-.46875-2.5708012-.9521475-2.6000963-.864255-2.629395-.7690463-2.65137-.6738262-2.6733375-.5859375-2.7026362-.4980488-.4174838-.1245112-.3808575-.2124-.31494-.285645-.2417025-.3588862-.1538062-.3955088-.0659176-.4321275.0439463-.4321312.1391588-.4028325.2270512-.3662101.7910138-1.09131.6884774-1.1572237 1.0327163-2.058105.9301725-2.0947283.82764-2.1459963.7250962-2.1752929.6152363-2.2192384.5053687-2.2412107.388185-2.2631839.2856451-2.2778317.1684537-2.2924808.05127-2.2998045-.05127-1.4648438-.1757775-1.4648437-.2929725-1.442871-.395505-1.4208986-.5126962-1.3842773-.6225601-1.3330076-.7177725-1.2890625-.8203124-1.22314463-.9228526-1.14990262-.9960937-1.083984-1.0839825-1.00341825-1.1645512-.90820305-1.2304688-.8203125-1.2963862-.7177734-1.3403326-.61523438-1.3842787-.51269534-1.4208975-.39550778-1.45752-.28564455-1.4648437-.17578125zm-.0073241 3.75 1.3183578.05859375 1.3037138.17578125 1.281735.2783205 1.2524437.39550762 1.2158213.49804688 1.171875.60791025 1.1059575.703125 1.0400362.79101562.9741225.88623038.8789063.96679687.805665 1.04003888.7104487 1.098633.600585 1.1645509.5053725 1.208496.395505 1.2524415.285645 1.2744138.1684575 1.296387.0585938 1.3110349-.05127 2.109375-.1538063 2.109375-.2636737 2.0947268-.36621 2.0800781-.4614263 2.0654295-.5639662 2.036133-.6591788 2.0068357-.7690425 1.9702148-.856935 1.9335937-.9521475 1.8896468-.5126962.8642587-.5932613.8203125-.4760737.6884775-.3515625.754395-.2490225.7983413-.131835.8203125v.83496l.1245112.8203125.2416988.7983375.3588862.754395.46875.6884775.5566388.6152325.6518587.5273475.7250963.4248037.7763662.31494.805665.1977563 2.5708013.4760737 2.5488262.5566388 2.5268588.6445312 2.50488.7324238 2.475585.8203125 2.4536137.9082012.7910175.3588863.7470713.4541025.6884737.5346675.62256.6079125.5419913.6738262.4614262.7470713.3735338.7763662.593265 1.5673838.5053687 1.5966787.4101563 1.6259775.3149437 1.6333013.2270513 1.6625962-.0073275.4614263-.1171875.4541025-.234375.395505-.31494.3442387-.3955088.2416988-.446775.1464862-4.2480487.7617188-4.27002.651855-4.2846675.549315-4.299315.439455-4.3066425.3222637-4.32129.2197275-4.3139625.1098638h-4.3286138l-4.3139647-.1098638-4.3139648-.2197275-4.306641-.3222637-4.3066402-.439455-4.2773438-.549315-4.2773437-.651855-4.24804725-.7617188-.43945275-.1464862-.40283213-.2416988-.3149415-.3442387-.22705087-.395505-.12451163-.4541025-.00732412-.4614263.234375-1.6625962.3149415-1.6333013.41015625-1.6259775.4980465-1.5966787.593262-1.5673838.38085937-.7763662.46142588-.7470713.541992-.6738262.6225585-.6079125.68847675-.5346675.74707012-.4541025.79101558-.3588863 2.4462893-.9082012 2.4755857-.8203125 2.504883-.7324238 2.5341795-.6445312 2.5488282-.5566388 2.5634767-.4760737.8129884-.1977563.776367-.31494.7250977-.4248037.6445313-.5273475.5566406-.6152325.4760741-.6884775.3515625-.754395.2416992-.7983375.1245116-.8203125v-.83496l-.1318358-.8203125-.2416991-.7983413-.3588866-.754395-.46875-.6884775-.593262-.8203125-.5126951-.8642587-.9594728-1.8896468-.8569335-1.9335937-.7617187-1.9702148-.6591799-2.0068357-.5639648-2.036133-.46875-2.0654295-.3588866-2.0800781-.2636719-2.0947268-.1538085-2.109375-.0585937-2.109375.0659179-1.3110349.1684571-1.296387.2856442-1.2744138.395508-1.2524415.505371-1.208496.6005858-1.1645509.7104495-1.098633.7983397-1.04003888.8862304-.96679687.9741214-.88623038 1.0400389-.79101562 1.1059571-.703125 1.1645505-.60791025 1.2158205-.49804688 1.2524415-.39550762 1.2890625-.2783205 1.3037107-.17578125z" transform="translate(48 48)"/></g></g></svg>