<svg height="170" viewBox="0 0 170 170" width="170" xmlns="http://www.w3.org/2000/svg" xmlns:xlink="http://www.w3.org/1999/xlink"><defs><rect id="a" height="165" rx="15" width="165" x="2" y="2"/><filter id="b" height="103.6%" width="103.6%" x="-1.8%" y="-1.8%"><feGaussianBlur in="SourceAlpha" result="shadowBlurInner1" stdDeviation="1.5"/><feOffset dx="0" dy="1" in="shadowBlurInner1" result="shadowOffsetInner1"/><feComposite in="shadowOffsetInner1" in2="SourceAlpha" k2="-1" k3="1" operator="arithmetic" result="shadowInnerInner1"/><feColorMatrix in="shadowInnerInner1" type="matrix" values="0 0 0 0 0   0 0 0 0 0   0 0 0 0 0  0 0 0 0.200420673 0"/></filter><mask id="c" fill="#fff"><use fill="#fff" fill-rule="evenodd" xlink:href="#a"/></mask></defs><g fill="none" fill-rule="evenodd"><use fill="#fff" fill-rule="evenodd" xlink:href="#a"/><use fill="#0cbcc5" fill-opacity=".199219" fill-rule="evenodd" xlink:href="#a"/><use fill="#000" filter="url(#b)" xlink:href="#a"/><use stroke="#fff" stroke-width="2" xlink:href="#a"/><path d="m107.448654 102.292124-7.7487537-2.5822536-2.782652-5.5643071c2.5064805-2.5503489 4.2462607-5.9262213 4.8334997-9.44666l.346959-2.0797607h2.967099c2.696909 0 4.891326-2.1944168 4.891326-4.891326v-10.2711865c0-13.4855434-10.9710871-24.4566301-24.4566305-24.4566301-13.5194417 0-24.4556331 10.9401795-24.4556331 24.4566301v10.2711865c0 2.1256231 1.3629113 3.9381854 3.2602193 4.6111665v1.9112662c0 2.6969092 2.1944168 4.890329 4.8913261 4.890329h1.4317048c.7068794 1.5353938 1.6221336 2.9581256 2.7347957 4.2352941.231306.2652044.4715852.5224327.7188434.7726819l-2.780658 5.5613161-7.7497507 2.5832506c-9.0099701 3.003988-15.550349 12.489531-15.550349 22.554337 0 .900299.7298106 1.630109 1.6301097 1.630109h71.7387833c.900299 0 1.631107-.72981 1.631107-1.630109 0-10.064806-6.540379-19.550349-15.551346-22.555334zm-2.383848-22.9332008h-2.488535c.414756-3.2103689.690927-6.6271186.801595-9.9920239.003988-.0947159.005982-.1864407.008973-.2801595h3.308076v8.6410768c0 .899302-.730807 1.6311066-1.630109 1.6311066zm-39.1306086 0c-.8983051 0-1.6301097-.7318046-1.6301097-1.6311066v-8.6410768h3.3100698c.0049851.1704885.0109671.340977.0169492.5134596 0 .004985 0 .0109671.000997.0169492v.001994c.113659 3.2721834.3868395 6.5992024.7916251 9.7387836h-2.4895314zm1.6311067 4.8913261v-1.6311067h1.335992l.3469591 2.0807577c.0667996.3948156.1475574.7886341.2422732 1.1804586h-.2951146c-.8993021 0-1.6301097-.7318046-1.6301097-1.6301096zm.002991-18.4247259h-3.2023928c.8265204-10.9272183 9.9451645-19.564307 21.1335992-19.564307 11.1385842 0 20.2981055 8.6360917 21.1335995 19.564307h-3.201396c-.117647-9.003988-7.4496512-16.3040877-16.4725824-16.3040877h-2.9182452c-9.0229312 0-16.3559322 7.3000997-16.4725823 16.3040877zm16.4725823-13.0428714h2.9182452c7.3060818 0 13.2183454 5.9750748 13.2143594 13.2731805 0 .5134596-.00399.9601196-.012964 1.3659023v.0159521l-2.0388829-.2911266c-5.5403789-.7906281-10.771685-3.4067796-14.7298106-7.3649053-.3060817-.3050847-.7208375-.4775673-1.1525423-.4775673-4.3788635 0-8.5702892 1.995015-11.3409771 5.3659023.6829511-6.6390827 6.2951146-11.887338 13.1425723-11.887338zm-11.1704886 33.0977069c-.8165503-2.7148554-1.7497507-10.7048853-1.9561316-15.8235294l2.1944168-2.9262213c2.0149551-2.6869392 5.1505483-4.3559322 8.4855433-4.547358 4.3888335 4.1764706 10.0667996 6.9351945 16.0658026 7.7916252l2.4007981.3429711c-.1605189 3.4047856-.4885348 6.8225324-.9581261 9.9651046-.1495513 1.0129612-.2681954 1.663011-.5682951 3.4795614-.8634098 5.1794616-4.7278165 9.8624127-9.8295115 11.1375872-2.0997009.5244267-4.3110668.5244267-6.4097706 0-3.1854437-.7956132-6.105683-3-7.991027-6.1595214h3.324028c.672981 1.898305 2.4855433 3.2612163 4.6111665 3.2612163h3.2602193c2.7028913 0 4.891326-2.1884347 4.891326-4.891326 0-2.6969093-2.1944167-4.891326-4.891326-4.891326h-3.2602193c-2.1734796 0-3.9591227 1.4037886-4.6141576 3.2612163zm23.9072782 15.2771681c-2.0478564 5.925225-7.5902293 14.691925-11.2781655 20.606182-3.8414756-6.168495-9.1206381-14.364905-11.2771685-20.606182l1.9411765-3.8833495c9.0358923 2.0179461 9.1286141 2.3688933 18.3958125-.552343zm-45.4516451 22.059821c.6460618-8.077767 6.0219342-15.418744 13.2552343-17.831506l6.8634098-2.287138c2.9491525 8.154536 6.7328016 13.077767 11.1186441 20.118644zm48.2283151-20.118644 6.86341 2.287138c7.234297 2.412762 12.609172 9.753739 13.255234 17.831506h-31.2372881c4.3858425-7.040877 8.1694915-11.963111 11.1186441-20.118644z" fill="#0cbcc5" fill-rule="nonzero" mask="url(#c)" stroke="#0cbcc5" stroke-width=".2"/></g></svg>