<svg height="170" viewBox="0 0 170 170" width="170" xmlns="http://www.w3.org/2000/svg" xmlns:xlink="http://www.w3.org/1999/xlink"><defs><rect id="a" height="165" rx="15" width="165" x="2" y="2"/><filter id="b" height="103.6%" width="103.6%" x="-1.8%" y="-1.8%"><feGaussianBlur in="SourceAlpha" result="shadowBlurInner1" stdDeviation="1.5"/><feOffset dx="0" dy="1" in="shadowBlurInner1" result="shadowOffsetInner1"/><feComposite in="shadowOffsetInner1" in2="SourceAlpha" k2="-1" k3="1" operator="arithmetic" result="shadowInnerInner1"/><feColorMatrix in="shadowInnerInner1" type="matrix" values="0 0 0 0 0   0 0 0 0 0   0 0 0 0 0  0 0 0 0.200420673 0"/></filter><mask id="c" fill="#fff"><use fill="#fff" fill-rule="evenodd" xlink:href="#a"/></mask></defs><g fill="none" fill-rule="evenodd"><use fill="#fff" fill-rule="evenodd" xlink:href="#a"/><use fill="#0cbcc5" fill-opacity=".199219" fill-rule="evenodd" xlink:href="#a"/><use fill="#000" filter="url(#b)" xlink:href="#a"/><use stroke="#fff" stroke-width="2" xlink:href="#a"/><g fill="#0cbcc5" fill-rule="nonzero" mask="url(#c)"><path d="m62.7044444.00103704c1.2272593 0 2.2222223.99511111 2.2222223 2.22237037v.74074074h1.2909629c3.0494815 0 5.8515556 1.39614815 7.6878519 3.83066666 1.8362963 2.43437038 2.4091852 5.51229629 1.5714074 8.44414819l-5.8980741 20.6432592c-1.0794074 3.7777778-3.3078518 7.0251852-6.4444444 9.3911111-.6721482.5071111-1.3733334.9597037-2.0965926 1.362963l-6.4813334 15.2974815v1.6038518c0 6.7906667-5.5245925 12.3152593-12.3152592 12.3152593s-12.3152593-5.5245926-12.3152593-12.3152593v-15.2402963c0-4.5745185-3.7217778-8.2962963-8.2962963-8.2962963s-8.2962963 3.7217778-8.2962963 8.2962963v5.2605926c5.0654815 1.0324445 8.8888889 5.5217778 8.8888889 10.8875556 0 6.1266666-4.9844444 11.1111111-11.1111111 11.1111111-6.12666666 0-11.1111111-4.9844445-11.1111111-11.1111111 0-5.3659259 3.82340741-9.8552593 8.88888889-10.8875556v-5.2605926c0-7.0251852 5.71555551-12.7407407 12.74074071-12.7407407s12.7407408 5.7155555 12.7407408 12.7407407v15.2402963c0 4.34 3.5308148 7.8708148 7.8708148 7.8708148s7.8708148-3.5308148 7.8708148-7.8708148v-1.6038518l-6.4811852-15.2974815c-.7232592-.4032593-1.4244444-.8558519-2.0967407-1.362963-3.1365926-2.366074-5.3650371-5.6133333-6.4444445-9.3911111l-5.898074-20.6432592c-.8377778-2.932-.2651852-6.00977781 1.5712592-8.44429633 1.8362963-2.43437037 4.6385185-3.83066667 7.6878519-3.83066667h1.2908148v-.74074074c0-1.22725926.9949629-2.22222222 2.2222222-2.22222222s2.2222222.99496296 2.2222222 2.22222222v5.92592593c0 1.22725925-.9949629 2.22222221-2.2222222 2.22222221s-2.2222222-.99496296-2.2222222-2.22222221v-.74074075h-1.2908148c-1.641926 0-3.1508148.75170371-4.1395556 2.06266667-.9887407 1.31081479-1.2971852 2.96814819-.8460741 4.54696299l5.897926 20.6434074c1.6459259 5.7605926 6.9798518 9.784 12.9711111 9.784 5.9912592 0 11.3251852-4.0232593 12.9711111-9.784l5.8980741-20.6432593c.4511111-1.5788148.1426666-3.2361481-.8460741-4.54696294-.9887408-1.31081482-2.4976296-2.06266667-4.1395556-2.06266667h-1.2909629v.74074074c0 1.22725926-.994963 2.22222227-2.2222223 2.22222227-1.2272592 0-2.2222222-.99496301-2.2222222-2.22222227v-5.92592592c0-1.22725926.994963-2.22237037 2.2222222-2.22237037zm-51.5933333 59.37777776c-2.79824272 0-5.06666666 2.2684239-5.06666666 5.0666667 0 2.7982427 2.26842394 5.0666666 5.06666666 5.0666666 2.7982427 0 5.0666667-2.2684239 5.0666667-5.0666666 0-2.7982428-2.268424-5.0666667-5.0666667-5.0666667zm44.2531852-10.7442963c-.9921482.1681482-2.0041482.2554074-3.0299259.2554074-1.0257778 0-2.037926-.0872592-3.0300741-.2554074l3.0299259 7.1515556z" transform="matrix(-1 0 0 1 123 47)"/></g></g></svg>