<svg height="170" viewBox="0 0 170 170" width="170" xmlns="http://www.w3.org/2000/svg" xmlns:xlink="http://www.w3.org/1999/xlink"><defs><rect id="a" height="165" rx="15" width="165" x="2" y="2"/><filter id="b" height="103.6%" width="103.6%" x="-1.8%" y="-1.8%"><feGaussianBlur in="SourceAlpha" result="shadowBlurInner1" stdDeviation="1.5"/><feOffset dx="0" dy="1" in="shadowBlurInner1" result="shadowOffsetInner1"/><feComposite in="shadowOffsetInner1" in2="SourceAlpha" k2="-1" k3="1" operator="arithmetic" result="shadowInnerInner1"/><feColorMatrix in="shadowInnerInner1" type="matrix" values="0 0 0 0 0   0 0 0 0 0   0 0 0 0 0  0 0 0 0.200420673 0"/></filter><mask id="c" fill="#fff"><use fill="#fff" fill-rule="evenodd" xlink:href="#a"/></mask></defs><g fill="none" fill-rule="evenodd"><use fill="#fff" fill-rule="evenodd" xlink:href="#a"/><use fill="#0cbcc5" fill-opacity=".199219" fill-rule="evenodd" xlink:href="#a"/><use fill="#000" filter="url(#b)" xlink:href="#a"/><use stroke="#fff" stroke-width="2" xlink:href="#a"/><g fill="#0cbcc5" fill-rule="nonzero" mask="url(#c)" stroke="#0cbcc5" stroke-width=".6"><path d="m70.3787109 32.8787109c2.5482422 0 4.6212891 2.0730469 4.6212891 4.6212891v32.8787109c0 2.5482422-2.0730469 4.6212891-4.6212891 4.6212891h-32.8787109c-2.5482422 0-4.6212891-2.0730469-4.6212891-4.6212891v-32.8787109c0-2.5482422 2.0730469-4.6212891 4.6212891-4.6212891zm0 2.1972657h-32.8787109c-1.3366699 0-2.4240234 1.0873535-2.4240234 2.4240234v32.8787109c0 1.33667 1.0873535 2.4240235 2.4240234 2.4240235h32.8787109c1.33667 0 2.4240235-1.0873535 2.4240235-2.4240235v-32.8787109c0-1.3366699-1.0873535-2.4240234-2.4240235-2.4240234zm-16.4031738 7.1964843c.6421875 0 1.2147949.3836426 1.4591309.9776368.0041015.0099609.0080566.0199218.0117187.0297363l7.8644531 20.8394531c.2143067.567627-.0723632 1.2016113-.6399902 1.4157715-.5679199.2143066-1.2014648-.0723633-1.4157715-.6399902l-1.6904297-4.4791993h-11.235498l-1.7071289 4.4822754c-.1668457.4384278-.5841797.7079914-1.0268555.7079914-.1299316 0-.2620605-.0231769-.3908203-.0722492-.567041-.2159179-.8515137-.8506347-.6355957-1.4176758l7.9366699-20.8385742c.0032227-.0082031.0064453-.0165527.0098145-.0247558.2433105-.5950196.8159179-.979834 1.4586914-.98042zm-39.9603516 2.34917c.6067383 0 1.0986329.4918945 1.0986329 1.0986328v7.044873c0 3.9265137 3.1943847 7.1210449 7.1210449 7.1210449h3.7495605l-2.0601562-1.5451171c-.4853028-.3640137-.5837403-1.0527832-.2197266-1.538086.3640137-.4853027 1.0527832-.5837402 1.538086-.2197265l4.696875 3.5226562c.2767089.2074219.4394531.5330566.4394531.8789063 0 .3458496-.1627442.6713378-.4394531.8789062l-4.696875 3.5226563c-.1976075.1480957-.4289063.2197265-.6583008.2197265-.3339844 0-.6638672-.1516113-.8797852-.4394531-.3640137-.4853027-.2655762-1.1740723.2197266-1.5380859l2.0601562-1.5451172h-3.7495605c-5.138086 0-9.3183106-4.1800782-9.3183106-9.3183106v-7.044873c0-.6067383.4918946-1.0986328 1.0986328-1.0986328zm39.9575684.9767578-4.8065918 12.6205078h9.5693848zm-16.4727539-45.5983887c2.5482422 0 4.6212891 2.07304688 4.6212891 4.62128906v24.65888674c0 .6067383-.4918946 1.0986328-1.0986329 1.0986328-.6067382 0-1.0986328-.4918945-1.0986328-1.0986328v-24.65888674c0-1.33666992-1.0873535-2.42402343-2.4240234-2.42402343h-32.87871094c-1.33666992 0-2.42402344 1.08735351-2.42402344 2.42402343v32.87871094c0 1.3366699 1.08735352 2.4240234 2.42402344 2.4240234h24.65888674c.6067383 0 1.0986328.4918946 1.0986328 1.0986329 0 .6067382-.4918945 1.0986328-1.0986328 1.0986328h-24.65888674c-2.54824219 0-4.62128906-2.0730469-4.62128906-4.6212891v-32.87871094c0-2.54824218 2.07304687-4.62128906 4.62128906-4.62128906zm-16.4393555 9.39389648c.6067383 0 1.0986328.49189454 1.0986328 1.09863282v1.2498047h9.4694825c.6068847 0 1.0986328.491748 1.0986328 1.0984863s-.4918946 1.0986328-1.0986328 1.0986328h-2.6644043c-.3294434 1.1887207-1.0746094 3.4655274-2.5330078 6.1740235-.9013184 1.6737304-2.1679688 3.6673828-3.8948731 5.7002929 1.6709473 1.7311524 3.6919922 3.4072266 6.1347656 4.8728028.520166.3121582.688916.9870117.3767578 1.5073242-.205957.3433594-.5698242.5334961-.9430664.5334961-.1923339 0-.3873046-.0505371-.5642578-.1567383-2.5744629-1.5446777-4.7118164-3.3065918-6.4857422-5.1279785-1.7541504 1.8023437-3.8894531 3.5768555-6.4746093 5.1279785-.1769532.1062012-.3719239.1567383-.5642578.1567383-.3732422 0-.7371094-.1901367-.9430665-.5334961-.3123046-.5203125-.1435546-1.195166.3767579-1.5073242 2.4385253-1.4632325 4.457666-3.1404785 6.1250976-4.8703125-2.3390625-2.756543-3.9074707-5.5429688-4.9359375-7.8338379-.2484375-.5535645-.0011719-1.2036621.5523926-1.4522461.5538574-.2484375 1.2036621-.0010254 1.4522461.5523926.9310547 2.0737793 2.3367187 4.5827636 4.4118164 7.0785644 3.3978516-4.0907226 4.9831055-8.189209 5.6157715-10.2215332h-16.1786133c-.60673828 0-1.09863282-.4918945-1.09863282-1.0986328s.49189454-1.0986328 1.09863282-1.0986328h9.4694824v-1.2498047c0-.60673828.4918945-1.09863282 1.0986328-1.09863282zm28.6967285.21972657c.4854493-.36401367 1.1739258-.26572266 1.538086.21972656.3640137.48530269.2655762 1.17407229-.2197266 1.53808589l-2.0601562 1.5451172h3.7495605c5.138086 0 9.3183106 4.1800782 9.3183106 9.3183106v7.044873c0 .6067383-.4918946 1.0986328-1.0986328 1.0986328-.6067383 0-1.0986329-.4918945-1.0986329-1.0986328v-7.044873c0-3.9265137-3.1943847-7.1210449-7.1210449-7.1210449h-3.7495605l2.0601562 1.5451171c.4853028.3640137.5837403 1.0527833.2197266 1.538086-.2157715.2876953-.5458008.4394531-.8797852.4394531-.2293945 0-.4606933-.0714844-.6583008-.2197266l-4.696875-3.5226562c-.2767089-.2074219-.4394531-.5330566-.4394531-.8789063 0-.3458496.1627442-.6713378.4394531-.8789062z" transform="translate(48 48)"/></g></g></svg>