<svg height="24" viewBox="0 0 24 24" width="24" xmlns="http://www.w3.org/2000/svg"><g fill="#0cbcc5" transform="translate(1 1)"><path d="m21.4587692 19.6119487v-15.35199998c.0299487-1.27220513-.9770769-2.32779487-2.249282-2.35769231-.0361539-.00087179-.0723077-.00087179-.1084616 0h-2.7328205v-1.36641026c.0000513-.29594871-.2398461-.53584615-.5357948-.53584615-.2959488 0-.5358462.23989744-.5358462.53584615v1.36641026h-9.10938461v-1.36641026c0-.29594871-.23989744-.53584615-.53584616-.53584615-.29594871 0-.53584615.23989744-.53584615.53584615v1.36641026h-2.73282051c-1.27215385-.02994872-2.32774359.97707692-2.35769231 2.24928205-.0008718.03615385-.0008718.07230769 0 .10846154v15.3519487c-.02969231 1.2869744.98958974 2.354359 2.2765641 2.3840513.02702564.0006259.05410257.0006259.08117949.0006259h16.71835895c1.2872308.0149638 2.3430257-1.0162669 2.3583434-2.3034977 0-.0270769 0-.0541538-.0006511-.0811795zm-19.18569228-16.63799998c.03651282-.00164103.07307693-.00164103.10958975 0h2.73282051v1.33958974c0 .29594872.23989744.53584616.53584615.53584616.29594872 0 .53584616-.23989744.53584616-.53584616v-1.33958974h9.10938461v1.33958974c0 .29594872.2398974.53584616.5358462.53584616.2959487 0 .5358461-.23989744.5358461-.53584616v-1.33958974h2.7328205c.68-.03025641 1.2557436.49641025 1.2860513 1.17641025.001641.03651282.001641.07307693 0 .10958975v2.19697436h-19.29046153v-2.19697436c-.03025641-.67994872.49646154-1.25574359 1.17641025-1.286zm16.90984618 17.94994868c-.0272821.0011441-.0545641.0014359-.0818462.0008205h-16.71835895c-.69528205.0154359-1.2714359-.5356923-1.2868718-1.2309743-.00061538-.0272821-.0003116-.0545641.00082052-.0818462v-12.08328202h19.29041023v12.08333332c.0297949.6948205-.5093333 1.2822051-1.2041538 1.3119487z"/><path d="m6.19253427 10.3455231-1.99330993.0000241c-.27614237.0000034-.49999728.2238637-.49999394.5000061l.00002415 1.9932374c.0000094.27614.22386605.4999939.50000606.5h1.99327366c.27614237 0 .5-.2238576.5-.5v-1.9932737c.00000605-.2761424-.22385157-.5-.49999395-.5-.00000202 0-.00000404 0-.00000605.0000061zm-1.73548339 2.0354923v-1.0776718c.00000491-.1104551.08954497-.1999973.2-.200005l1.07770813-.0000264c.11045695-.0000076.2000022.0895332.20000491.1999902 0 .0000016 0 .0000033-.00000491.0000049v1.0777444c.00000491.1104569-.08953814.2-.19999509.2-.00000164 0-.00000328 0-.00000491-.0000049l-1.07770813-.0000265c-.11045503-.0000076-.19999509-.0895498-.2-.2000049z"/><path d="m11.7385343 10.345517h-1.99327369c-.27614238 0-.5.2238576-.5.5v1.9932737c0 .2761424.22385762.5.5.5h1.99327369c.2761423 0 .5-.2238576.5-.5v-1.9932737c0-.2761424-.2238577-.5-.5-.5zm-1.735304 2.0356173-.0000264-1.0777082c-.0001106-.1104569.0894302-.2000022.1998872-.2000049.0000359 0 .0000719 0 .0001079.000108l1.0777082.0005553c.1104167.0001599.199897.0896863.2.200103l-.0000001 1.0769468c0 .1104569-.089543.2-.2.2h-1.0776719c-.110455-.0000049-.1999972-.089545-.2000049-.2z"/><path d="m17.2845343 10.345517h-1.9932737c-.2761424 0-.5.2238576-.5.5v1.9932737c0 .2761424.2238576.5.5.5h1.9932737c.2761423 0 .5-.2238576.5-.5v-1.9932737c0-.2761424-.2238577-.5-.5-.5zm-1.7354834 2.0354984v-1.0776718c.0000049-.1104551.089545-.1999973.2-.200005l1.0777081-.0000264c.110457-.0000076.2000022.0895332.2000049.1999902 0 .0000016 0 .0000033-.0000049.0000049v1.0777444c.0000049.1104569-.0895381.2-.1999951.2-.0000016 0-.0000033 0-.0000049-.0000049l-1.0777081-.0000265c-.110455-.0000076-.1999951-.0895498-.2-.2000049z"/><path d="m6.19253427 15.0877221h-1.99327366c-.27614238 0-.5.2238577-.5.5v1.9932737c0 .2761424.22385762.5.5.5h1.99327366c.27614237 0 .5-.2238576.5-.5v-1.9932737c0-.2761423-.22385763-.5-.5-.5zm-.47668586 2.2249723-1.061292-.0137714c-.1094605-.0014203-.19743992-.0905772-.197405-.2000469l.00034458-1.0802236c.00003524-.1104569.08960684-.1999714.20006379-.1999362l1.0751578.000343c.11045694.0000352.19997142.0896069.19993618.2000638-.00000027.0008447-.00000589.0016895-.00001686.0025341l-.01420738 1.093649c-.00143775.1104465-.09213457.1988184-.20258111.1973882z"/><path d="m11.7389907 15.088145-1.99378138-.0003381c-.27614236-.0001316-.50003794.2236881-.50008477.4998305 0 .0000282-.00000001.0000565.00008477.0000847v1.9932737c0 .2761424.22385763.5.5.5h1.99327368c.2761092-.0000848.4999531-.2238908.5000848-.5l.000338-1.992766c.0000469-.2761424-.2237727-.500038-.4999151-.5000848zm-.4771423 2.2245494-1.061292-.0137714c-.1094605-.0014203-.1974399-.0905772-.197405-.2000469l.0003446-1.0802236c.0000352-.1104569.0896068-.1999714.2000638-.1999362l1.0751578.000343c.1104569.0000352.1999714.0896069.1999362.2000638-.0000003.0008447-.0000059.0016895-.0000169.0025341l-.0142074 1.093649c-.0014377.1104465-.0921346.1988184-.2025811.1973882z"/><path d="m17.2849907 15.088145-1.9937814-.0003381c-.2761423-.0001316-.5000379.2236881-.5000847.4998305-.0000001.0000282-.0000001.0000565.0000847.0000847v1.9932737c0 .2761424.2238576.5.5.5h1.9932737c.2761092-.0000848.4999531-.2238908.5000848-.5l.000338-1.992766c.0000469-.2761424-.2237727-.500038-.4999151-.5000848zm-1.7357859 2.0080887.0003438-1.0777081c.0000352-.110457.0896068-.1999715.2000638-.1999362l1.0777082.0003438c.1104569.0000352.1999714.0896068.1999362.2000638l-.0003438 1.0777082c-.0000353.1104569-.0896069.1999714-.2000638.1999362l-1.0777082-.0003439c-.110457-.0000352-.1999714-.0896068-.1999362-.2000638z"/></g></svg>