<svg height="24" viewBox="0 0 24 24" width="24" xmlns="http://www.w3.org/2000/svg"><path d="m13.1352941.81764706c-.3117647-.31176471-.8117647-.31176471-1.1235294 0l-5.03529411 5.03529412-5.03529412-5.03529412c-.31176471-.31176471-.81176471-.31176471-1.12352941 0-.31176471.3117647-.31176471.8117647 0 1.12352941l5.03529412 5.03529412-5.03529412 5.03529411c-.31176471.3117647-.31176471.8117647 0 1.1235294.15294118.1529412.35882353.2352941.55882353.2352941s.40588235-.0764706.55882353-.2352941l5.03529412-5.0352941 5.03529416 5.0352941c.1529411.1529412.3588235.2352941.5588235.2352941.2058823 0 .4058823-.0764706.5588235-.2352941.3117647-.3117647.3117647-.8117647 0-1.1235294l-5.0235294-5.03529411 5.0352941-5.03529412c.3117647-.31176471.3117647-.81176471 0-1.12352941z" fill="#0cbcc5" transform="translate(5 5)"/></svg>