<svg height="24" viewBox="0 0 24 24" width="24" xmlns="http://www.w3.org/2000/svg"><g fill="#0cbcc5" transform="translate(1 1)"><path d="m19.7083333 16.5h-2.75c-.253 0-.4583333-.2053333-.4583333-.4583333s.2053333-.4583334.4583333-.4583334h2.75c.7580834 0 1.375-.6169166 1.375-1.375v-6.41666663c0-.75808334-.6169166-1.375-1.375-1.375h-17.41666663c-.75808334 0-1.375.61691666-1.375 1.375v6.41666663c0 .7580834.61691666 1.375 1.375 1.375h2.75c.253 0 .45833333.2053334.45833333.4583334s-.20533333.4583333-.45833333.4583333h-2.75c-1.26408334 0-2.29166667-1.0285-2.29166667-2.2916667v-6.41666663c0-1.26316667 1.02758333-2.29166667 2.29166667-2.29166667h17.41666663c1.2640834 0 2.2916667 1.0285 2.2916667 2.29166667v6.41666663c0 1.2631667-1.0275833 2.2916667-2.2916667 2.2916667z"/><path d="m13.2916667 19.25h-5.50000003c-.253 0-.45833334-.2053333-.45833334-.4583333s.20533334-.4583334.45833334-.4583334h5.50000003c.253 0 .4583333.2053334.4583333.4583334s-.2053333.4583333-.4583333.4583333z"/><path d="m13.2916667 17.4166667h-5.50000003c-.253 0-.45833334-.2053334-.45833334-.4583334s.20533334-.4583333.45833334-.4583333h5.50000003c.253 0 .4583333.2053333.4583333.4583333s-.2053333.4583334-.4583333.4583334z"/><path d="m9.625 15.5833333h-1.83333333c-.253 0-.45833334-.2053333-.45833334-.4583333s.20533334-.4583333.45833334-.4583333h1.83333333c.253 0 .4583333.2053333.4583333.4583333s-.2053333.4583333-.4583333.4583333z"/><path d="m16.9583333 6.41666667c-.253 0-.4583333-.20533334-.4583333-.45833334v-3.66666666c0-.75808334-.6169167-1.375-1.375-1.375h-8.25c-.75808333 0-1.375.61691666-1.375 1.375v3.66666666c0 .253-.20533333.45833334-.45833333.45833334s-.45833334-.20533334-.45833334-.45833334v-3.66666666c0-1.26316667 1.02758334-2.29166667 2.29166667-2.29166667h8.25c1.2640833 0 2.2916667 1.0285 2.2916667 2.29166667v3.66666666c0 .253-.2053334.45833334-.4583334.45833334z"/><path d="m15.125 22h-8.25c-1.26408333 0-2.29166667-1.0285-2.29166667-2.2916667v-7.3333333c0-.253.20533334-.4583333.45833334-.4583333h11.91666663c.253 0 .4583334.2053333.4583334.4583333v7.3333333c0 1.2631667-1.0275834 2.2916667-2.2916667 2.2916667zm-9.625-9.1666667v6.875c0 .7580834.61691667 1.375 1.375 1.375h8.25c.7580833 0 1.375-.6169166 1.375-1.375v-6.875z"/></g></svg>