<svg height="24" viewBox="0 0 24 24" width="24" xmlns="http://www.w3.org/2000/svg"><path d="m16.8240664 14.1219917c-1.2643154 0-2.3917013.6024896-3.1128631 1.53361l-6.03858919-3.3730291c.14149377-.4062241.21908713-.8443983.21908713-1.2962655 0-.4564316-.07759336-.8900415-.22365145-1.30082992l6.03402491-3.36846473c.7165975.93568465 1.8485477 1.54273859 3.1174274 1.54273859 2.1634855 0 3.9298755-1.76182573 3.9298755-3.92987552s-1.7618257-3.92987552-3.9298755-3.92987552-3.9298755 1.76182573-3.9298755 3.92987552c0 .45643153.0775933.89460581.2236514 1.30082987l-6.02946057 3.36846473c-.71659751-.94024896-1.84854772-1.54273858-3.11742739-1.54273858-2.16348548 0-3.92987552 1.76182572-3.92987552 3.92987556 0 2.1680497 1.76639004 3.9298755 3.93443984 3.9298755 1.26887966 0 2.40082987-.607054 3.1219917-1.5473029l6.03402494 3.373029c-.1460581.4107884-.2282158.853527-.2282158 1.3099585 0 2.1634855 1.7618257 3.9298755 3.9298755 3.9298755s3.9298755-1.7618257 3.9298755-3.9298755-1.76639-3.9298755-3.9344398-3.9298755zm0-12.88506224c1.4879668 0 2.6975104 1.20954357 2.6975104 2.69751037 0 1.48796681-1.2095436 2.69751038-2.6975104 2.69751038s-2.6975104-1.20954357-2.6975104-2.69751038c0-1.4879668 1.2141079-2.69751037 2.6975104-2.69751037zm-12.85311204 12.44688794c-1.48796681 0-2.69751038-1.2095435-2.69751038-2.6975103 0-1.48796685 1.20954357-2.69751042 2.69751038-2.69751042 1.4879668 0 2.69751037 1.20954357 2.69751037 2.69751042 0 1.4879668-1.21410788 2.6975103-2.69751037 2.6975103zm12.85311204 7.0609959c-1.4879668 0-2.6975104-1.2095436-2.6975104-2.6975104s1.2095436-2.6975104 2.6975104-2.6975104 2.6975104 1.2095436 2.6975104 2.6975104-1.2095436 2.6975104-2.6975104 2.6975104z" fill="#0cbcc5" stroke="#fff" stroke-width=".2" transform="translate(2 1)"/></svg>