<svg height="24" viewBox="0 0 24 24" width="24" xmlns="http://www.w3.org/2000/svg"><path d="m16.939841.01740401c2.7905583 0 5.0602147 2.27487761 5.0602147 5.06526185 0 2.79055832-2.2707007 5.06560994-5.0610849 5.06560994-.0922412 0-.1865709-.0026106-.2756795-.0074837v8.0225505c0 1.5444315-1.2508259 2.7971718-2.7952573 2.7996084-.0640468 0-.1007692-.0071357-.1898777-.0104424v.0104424h-11.004901c-1.49221949-.0753594-2.66873028-1.3025158-2.6732553-2.7963016v-1.5867233c0-.1971873.16899291-.3397261.36583223-.3397261h2.52166639l.08423539-12.503734c.00139232-.19579505.16046491-.37244572.35643404-.37244572h8.84663015c.7010334-1.91583297 2.5723121-3.34661627 4.7650428-3.34661627zm-5.8903858 16.93566399h-10.33658712v1.2099265c.00522122 1.1531895.9406865 2.085522 2.09370192 2.0870884h9.1912295c-.039159-.0445543-.0856277-.0734449-.1230463-.1108635-.5276895-.5243827-.8247758-1.2374248-.825298-1.981272zm.9274595-12.87617964h-8.2947492l-.0817988 12.16331164h7.8217083c.0910229-.0031327.1792613.0315012.2438301.095896.0645689.0643948.0993769.1526332.0964182.2438301v1.5783694c.0057433 1.1554519.942949 2.0896989 2.098575 2.0917874 1.1577145-.0022625 2.089699-.9359874 2.089525-2.0870884v-8.1113109c-1.3434153-.26976213-2.5188818-1.07591568-3.254201-2.23223783h-3.75334794c-.19701335 0-.35643404-.15959472-.35643404-.35643404 0-.19683927.15942069-.35643404.35643404-.35643404h3.36663084c-.2843814-.64238182-.4309231-1.33714973-.430227-2.03974948.0017404-.33224246.03446-.66361473.0976365-.98993985zm-5.32197093 8.49994244c.62915478 0 1.14100658.495492 1.14100658 1.1046322s-.5118518 1.1046323-1.14100658 1.1046323c-.62915482 0-1.14083259-.4954921-1.14083259-1.1046323s.51167777-1.1046322 1.14083259-1.1046322zm0 .7128681c-.23599836 0-.42796451.1757804-.42796451.3917641 0 .2161578.19179212.3917642.42796451.3917642.23599828 0 .4281385-.1757805.4281385-.3917642s-.19214022-.3917641-.4281385-.3917641zm7.03992033.0544745c.1968393 0 .356434.1595947.356434.356434s-.1595947.3564341-.356434.3564341h-4.75198974c-.19701335 0-.35643404-.1595948-.35643404-.3564341s.15942069-.356434.35643404-.356434zm-7.03992033-3.86542969c.62915478 0 1.14100658.49549205 1.14100658 1.10463219 0 .6091403-.5118518 1.1046323-1.14100658 1.1046323-.62915482 0-1.14083259-.495492-1.14083259-1.1046323 0-.60914014.51167777-1.10463219 1.14083259-1.10463219zm0 .71286809c-.23599836 0-.42796451.1756064-.42796451.3917641 0 .2159838.19179212.3917642.42796451.3917642.23599828 0 .4281385-.1757804.4281385-.3917642 0-.2159837-.19214022-.3917641-.4281385-.3917641zm7.03992033.0337637c.1968393 0 .356434.1595948.356434.3564341s-.1595947.356434-.356434.356434h-4.75198974c-.19701335 0-.35643404-.1595947-.35643404-.356434s.15942069-.3564341.35643404-.3564341zm3.245151-9.48518314c-2.4012308 0-4.3476948 1.94646401-4.3476948 4.34769468-.000174 2.40123072 1.946464 4.34769473 4.3475207 4.34769473 2.4001864-.00261061 4.3450841-1.9476823 4.3476947-4.34769473 0-2.4010566-1.946464-4.34769468-4.3475206-4.34769468zm-10.28507133 5.64011618c.62915478 0 1.14100658.49566608 1.14100658 1.10480629 0 .6091402-.5118518 1.10463226-1.14100658 1.10463226-.62915482 0-1.14083259-.49549206-1.14083259-1.10463226 0-.60914021.51167777-1.10480629 1.14083259-1.10480629zm0 .71286808c-.23599836 0-.42796451.17595451-.42796451.39193821s.19179212.39176418.42796451.39176418c.23599828.00017403.4281385-.17578048.4281385-.39176418 0-.21615773-.19214022-.39193821-.4281385-.39193821zm12.54159313-4.21013336c.1258555-.12587696.3298926-.12585547.4557266-.00002149.1258555.12585547.1258555.32991407 0 .45574805l-3.3471797 3.34713672c-.0629062.06294922-.1453847.09440234-.2278633.09440234-.082457 0-.1649355-.03145312-.2278632-.09438086l-1.3233324-1.36021134c-.125834-.12585547-.125834-.32989258 0-.45574805.1258555-.12587695.3299141-.12585546.4557481-.00002148l1.095469 1.13234806z" fill="#0cbcc5" transform="translate(1 1)"/></svg>