<svg height="24" viewBox="0 0 24 24" width="24" xmlns="http://www.w3.org/2000/svg"><path d="m9.28893023 13.4653023c1.34809307.0262326 2.45711627 1.6081861 1.81804647 2.9335814-.536186 1.111814-2.17972089 1.5090233-3.16502321.675907-1.21897675-1.0308837-.65246512-3.5717209 1.29413953-3.6094884.02660465-.000186.02641861-.000186.05283721 0zm8.09432557 0c1.348093.0262326 2.4571163 1.6081861 1.8180465 2.9335814-.536 1.111814-2.1795349 1.5090233-3.1648372.675907-1.2191628-1.0308837-.6524651-3.5717209 1.2939535-3.6094884.0264186-.000186.0264186-.000186.0528372 0zm-8.13748836.744161c-.98846511.0191879-1.71925581 1.4268158-.89283721 2.2338855.81227907.7929303 2.76632557-.0798139 2.08353487-1.4958139-.2143256-.4444651-.69134882-.7412093-1.19069766-.7380716zm8.09432556 0c-.9869767.0191879-1.7192558 1.4268158-.8926511 2.2338855.812093.7929303 2.7661395-.0798139 2.0835348-1.4958139-.2143255-.4444651-.6911627-.7412093-1.1908837-.7380716zm3.3627907-1.3024866h-14.02679068c-.55851162-.0107907-.90827907-.7983255-.43925581-1.2076279l1.40539535-1.1778604c-.62660465-2.8122791-1.20725582-5.63497677-1.88-8.43646514-.15553489-.61823256-.74827907-1.08148838-1.38511628-1.08502326h-3.20632558c-.39572093-.02827907-.46437209-.71088372 0-.74418605 1.07702325 0 2.15404651-.00576744 3.23106977.00018605.96502325.01562791 1.85934883.71925581 2.08874418 1.6744186l.2907907 1.30511628c.00986046-.00130232.01990698-.0024186.03013953-.00297674 4.34753492 0 8.69506982-.02734884 13.04260462 0 .6347907.01209302 1.2005582.56539535 1.2204652 1.20502326.028279 1.44316279.0005581 2.88688372.0005581 4.33023255-.007814.6163721-.5032558 1.16762791-1.1272558 1.22976745l-11.74418607 1.024186-1.36130233 1.1410233h13.8604651c.0014884.000186.2141396.0167442.3131163.1709767.1423256.2215814-.0282791.5527442-.3131163.5732093zm-13.7564651-8.93023251 1.40055814 6.28576741c3.84893026-.33339532 7.70176746-.6253023 11.54623256-1.00744183.2364651-.02902326.4290233-.23813954.4375814-.47739535.0178605-1.44241861.0448372-2.88576744-.000186-4.32744186-.0113489-.25023256-.232-.46865116-.4859535-.47348837z" fill="#0cbcc5" fill-rule="evenodd" transform="translate(1 3)"/></svg>