<svg height="24" viewBox="0 0 24 24" width="24" xmlns="http://www.w3.org/2000/svg"><g fill="#0cbcc5" transform="translate(4 4)"><path d="m.49957422 11.9863281h3.80464648l5.9046445 4.8989219c.1473223.1221875.3535469.1502773.5297559.067502.174748-.0820782.2863105-.2577227.2863105-.4507989v-16.00390622c0-.19304297-.1115625-.36872071-.2863105-.45079883-.1747481-.08207813-.3811719-.05574805-.5297559.06750195l-5.9046445 4.89892187h-3.80464648c-.27505469 0-.49804688.22299219-.49804688.49804688v5.97656245c0 .2750547.22299219.4980469.49804688.4980469zm9.52929688 3.45525-5.04687501-4.1872461-.29759137-.2640976h-3.68678366v-4.98046878l3.68678366.00000001.29759137-.26409766 5.04687501-4.1872461z"/><path d="m14.4008262 13.0782461c.1944707.1945039.509834.1945371.7043379 0 2.5244336-2.5244336 2.5244336-6.6320254 0-9.15645899-.1944707-.19450391-.509834-.1944707-.7043379 0-.1945039.19450391-.1945039.50983398 0 .70433789 2.1360566 2.13605664 2.1360566 5.6117266 0 7.7478164-.1945371.1944707-.1945371.5098008 0 .7043047z"/><path d="m12.2877793 10.9651992c.1944707.1945039.509834.1945371.7043379 0 1.3593027-1.35930272 1.3593027-3.57109568 0-4.93039842-.1944707-.19450391-.509834-.19450391-.7043379 0s-.1945039.50983399 0 .70433789c.9709258.97095899.9709258 2.55079688 0 3.52172263-.1945039.1945039-.1945039.509834 0 .7043379z"/></g></svg>