<svg height="24" viewBox="0 0 24 24" width="24" xmlns="http://www.w3.org/2000/svg"><g fill="none" fill-rule="evenodd"><g fill="#0cbcc5" fill-rule="nonzero" transform="translate(4 4)"><path d="m11.0245273 3.90899795.0004043 12.59295515c0 .1930762-.1115625.3687207-.2863105.4507989-.176209.0827753-.3824336.0546855-.5297559-.067502l-5.23133786-4.340252.573-.819 4.47834376 3.7155801-.0003438-10.10958015zm-.3755055-3.89380814.0895993.03205824c.174748.08207812.2863105.25775586.2863105.45079883l-.0004043 1.66795107-.996 1.422.0003438-2.02957608-5.04687501 4.1872461-.29759137.26409766-3.68678366-.00000001v4.98046878h3.68678366l.09912262.0887636-.636.907-3.64795312.0003301c-.24449306 0-.44785031-.1761913-.49002238-.4085247l-.0080245-.0895222v-5.97656245c0-.27505469.22299219-.49804688.49804688-.49804688h3.80464648l5.9046445-4.89892187c.148584-.12325.3550078-.14958008.5297559-.06750195z"/><path d="m14.4008262 13.0782461c.1944707.1945039.509834.1945371.7043379 0 2.5244336-2.5244336 2.5244336-6.6320254 0-9.15645899-.1944707-.19450391-.509834-.1944707-.7043379 0-.1945039.19450391-.1945039.50983398 0 .70433789 2.1360566 2.13605664 2.1360566 5.6117266 0 7.7478164-.1945371.1944707-.1945371.5098008 0 .7043047z"/><path d="m12.2877793 10.9651992c.1944707.1945039.509834.1945371.7043379 0 1.3593027-1.35930272 1.3593027-3.57109568 0-4.93039842-.1944707-.19450391-.509834-.19450391-.7043379 0s-.1945039.50983399 0 .70433789c.9709258.97095899.9709258 2.55079688 0 3.52172263-.1945039.1945039-.1945039.509834 0 .7043379z"/></g><path d="m16.5 3.5-12 17" stroke="#0cbcc5" stroke-linecap="square"/></g></svg>