<svg height="24" viewBox="0 0 24 24" width="24" xmlns="http://www.w3.org/2000/svg"><path d="m18.6206897 6.89655172h-16.13103453l5.55862069-5.00689655c.1997139-.16038031.29409147-.41823403.24509787-.66964429-.04899359-.25141025-.2332868-.45495798-.47860817-.528612-.24532136-.07365403-.51125494-.00528009-.69062763.17756664l-6.89655172 6.20689655c-.05097611.0472764-.0930259.10334279-.12413793.16551724l-.04137931.05517241c-.07676769.17589688-.07676769.37582727 0 .55172414l.04137931.05517242c.03111203.06217445.07316182.11824084.12413793.16551724l6.89655172 6.20689658c.12222423.1250499.28738653.1990032.46206897.2068965.19460568-.00046.3799592-.0831176.51034482-.2275862.25451568-.2820975.23292913-.7169123-.04827586-.9724138l-5.55862069-5.00689653h16.13103453c.380886 0 .6896551-.30876914.6896551-.68965517 0-.38088604-.3087691-.68965518-.6896551-.68965518z" fill="#0cbcc5" transform="translate(2 5)"/></svg>